<svg width="512" height="512" viewBox="0 0 512 512" fill="none" xmlns="http://www.w3.org/2000/svg">
<g clip-path="url(#clip0_224_13370)">
<path d="M111.713 467.478C152.797 495.563 202.477 512 256 512C309.523 512 359.202 495.563 400.287 467.478L256 445.217L111.713 467.478Z" fill="#D80027"/>
<path d="M400.287 44.522C359.202 16.437 309.523 0 256 0C202.477 0 152.797 16.437 111.713 44.522L256 66.783L400.287 44.522Z" fill="#D80027"/>
<path d="M512 255.999C512 171.289 461.284 86.2195 400.287 44.5215H111.713C44.27 90.6255 0 168.139 0 255.999C0 343.862 44.27 421.373 111.713 467.477H400.287C467.731 421.373 512 343.862 512 255.999Z" fill="#0052B4"/>
<path d="M241.513 417.596C238.015 414.596 155.826 343.148 155.826 255.999C155.826 168.85 238.014 97.4014 241.513 94.4024L256 81.9844L270.487 94.4014C273.985 97.4014 356.174 168.849 356.174 255.999C356.174 343.149 273.986 414.598 270.487 417.596L256 430.014L241.513 417.596Z" fill="#D80027"/>
<path d="M333.913 256.001C333.913 178.088 256 111.305 256 111.305C256 111.305 178.087 178.09 178.087 256.001C178.087 279.836 185.384 302.625 195.506 322.784H316.494C326.616 302.625 333.913 279.836 333.913 256.001Z" fill="#338AF3"/>
<path d="M333.913 256C333.913 279.835 326.616 302.624 316.494 322.783L256 333.913L195.506 322.783C185.384 302.625 178.087 279.835 178.087 256H333.913Z" fill="#0052B4"/>
<path d="M256 400.696C256 400.696 293.528 368.519 316.494 322.783H195.506C218.472 368.519 256 400.696 256 400.696Z" fill="#FFDA44"/>
<path d="M205.913 211.479H306.087L256 261.566L205.913 211.479Z" fill="#6DA544"/>
<path d="M239.304 244.869H272.695V345.043H239.304V244.869Z" fill="#A2001D"/>
</g>
<defs>
<clipPath id="clip0_224_13370">
<rect width="512" height="512" fill="white"/>
</clipPath>
</defs>
</svg>
