<svg width="512" height="512" viewBox="0 0 512 512" fill="none" xmlns="http://www.w3.org/2000/svg">
<g clip-path="url(#clip0_224_14213)">
<path d="M437.027 437.027C533.038 341.016 536.829 187.731 448.44 87.1719L256 255.999L87.1719 448.44C187.731 536.829 341.015 533.038 437.027 437.027Z" fill="#496E2D"/>
<path d="M74.9735 74.974C170.985 -21.037 324.27 -24.828 424.829 63.561L256 256.003L63.5615 424.829C-24.8285 324.27 -21.0365 170.985 74.9735 74.974Z" fill="#0052B4"/>
<path d="M424.827 63.5605L63.5596 424.829C67.2116 428.984 71.0036 433.06 74.9726 437.027C78.9406 440.995 83.0176 444.787 87.1736 448.441L448.439 87.1725C444.787 83.0165 440.994 78.9405 437.025 74.9715C433.059 71.0055 428.982 67.2125 424.827 63.5605Z" fill="#FFDA44"/>
<path d="M107.861 89.0352L113.388 106.042H131.269L116.803 116.551L122.328 133.558L107.861 123.047L93.3941 133.558L98.9211 116.551L84.4541 106.042H102.336L107.861 89.0352Z" fill="#F0F0F0"/>
<path d="M199.2 89.0352L204.727 106.042H222.607L208.141 116.551L213.667 133.558L199.2 123.047L184.733 133.558L190.26 116.551L175.793 106.042H193.674L199.2 89.0352Z" fill="#F0F0F0"/>
<path d="M107.861 178.082L113.388 195.089H131.269L116.803 205.599L122.328 222.606L107.861 212.095L93.3941 222.606L98.9211 205.599L84.4541 195.089H102.336L107.861 178.082Z" fill="#F0F0F0"/>
<path d="M199.2 178.082L204.727 195.089H222.607L208.141 205.599L213.667 222.606L199.2 212.095L184.733 222.606L190.26 205.599L175.793 195.089H193.674L199.2 178.082Z" fill="#F0F0F0"/>
<path d="M153.531 133.559L159.058 150.566H176.938L162.472 161.076L167.998 178.083L153.531 167.572L139.064 178.083L144.59 161.076L130.123 150.566H148.005L153.531 133.559Z" fill="#F0F0F0"/>
</g>
<defs>
<clipPath id="clip0_224_14213">
<rect width="512.001" height="512.001" fill="white"/>
</clipPath>
</defs>
</svg>
