<svg width="512" height="512" viewBox="0 0 512 512" fill="none" xmlns="http://www.w3.org/2000/svg">
<g clip-path="url(#clip0_224_13550)">
<path d="M256 512C397.385 512 512 397.385 512 256C512 114.615 397.385 0 256 0C114.615 0 0 114.615 0 256C0 397.385 114.615 512 256 512Z" fill="#0052B4"/>
<path d="M112.449 155.826L117.975 172.834H135.855L121.39 183.343L126.915 200.348L112.449 189.839L97.982 200.348L103.509 183.343L89.043 172.834H106.922L112.449 155.826Z" fill="#F0F0F0"/>
<path d="M168.101 139.131L173.627 156.138H191.507L177.042 166.647L182.567 183.652L168.101 173.143L153.635 183.652L159.161 166.647L144.696 156.138H162.576L168.101 139.131Z" fill="#F0F0F0"/>
<path d="M223.753 122.436L229.279 139.443H247.159L232.694 149.953L238.219 166.958L223.753 156.448L209.287 166.958L214.813 149.953L200.348 139.443H218.228L223.753 122.436Z" fill="#F0F0F0"/>
<path d="M399.551 155.826L394.025 172.834H376.145L390.611 183.343L385.085 200.348L399.551 189.839L414.018 200.348L408.491 183.343L422.957 172.834H405.077L399.551 155.826Z" fill="#F0F0F0"/>
<path d="M343.899 139.131L338.373 156.138H320.493L334.959 166.647L329.433 183.652L343.899 173.143L358.365 183.652L352.839 166.647L367.304 156.138H349.424L343.899 139.131Z" fill="#F0F0F0"/>
<path d="M288.247 122.436L282.721 139.443H264.841L279.306 149.953L273.781 166.958L288.247 156.448L302.713 166.958L297.187 149.953L311.652 139.443H293.772L288.247 122.436Z" fill="#F0F0F0"/>
<path d="M300.522 267.131L256 211.479L233.739 222.609V244.87L200.348 267.131H178.087V295.89C210.715 309.102 233.739 341.071 233.739 378.436H256V356.175L278.261 333.914L300.522 356.175L322.783 333.914V311.653L345.044 278.262L300.522 267.131Z" fill="#FFDA44"/>
</g>
<defs>
<clipPath id="clip0_224_13550">
<rect width="512" height="512" fill="white"/>
</clipPath>
</defs>
</svg>
