<svg width="25" height="24" viewBox="0 0 25 24" fill="none" xmlns="http://www.w3.org/2000/svg">
<g clip-path="url(#clip0_372_5852)">
<path d="M12.5 24C19.1274 24 24.5 18.6274 24.5 12C24.5 5.37258 19.1274 0 12.5 0C5.87258 0 0.5 5.37258 0.5 12C0.5 18.6274 5.87258 24 12.5 24Z" fill="#F0F0F0"/>
<path d="M2.98063 4.69415C2.03802 5.92054 1.32725 7.33406 0.913391 8.86964H7.15611L2.98063 4.69415Z" fill="#0052B4"/>
<path d="M24.0866 8.86965C23.6727 7.33412 22.9619 5.9206 22.0194 4.69421L17.844 8.86965H24.0866Z" fill="#0052B4"/>
<path d="M0.913391 15.1305C1.3273 16.666 2.03806 18.0795 2.98063 19.3059L7.15597 15.1305H0.913391Z" fill="#0052B4"/>
<path d="M19.8058 2.48067C18.5794 1.53806 17.166 0.827297 15.6304 0.413391V6.65606L19.8058 2.48067Z" fill="#0052B4"/>
<path d="M5.19415 21.5193C6.42054 22.4619 7.83406 23.1727 9.36959 23.5866V17.344L5.19415 21.5193Z" fill="#0052B4"/>
<path d="M9.36954 0.413391C7.83401 0.827297 6.4205 1.53806 5.19415 2.48063L9.36954 6.65602V0.413391Z" fill="#0052B4"/>
<path d="M15.6304 23.5866C17.166 23.1727 18.5795 22.4619 19.8058 21.5194L15.6304 17.344V23.5866Z" fill="#0052B4"/>
<path d="M17.844 15.1305L22.0194 19.3059C22.9619 18.0796 23.6727 16.666 24.0866 15.1305H17.844Z" fill="#0052B4"/>
<path d="M24.3984 10.4348H14.0653H14.0653V0.101578C13.5529 0.034875 13.0305 0 12.5 0C11.9694 0 11.4471 0.034875 10.9348 0.101578V10.4347V10.4347H0.601578C0.534875 10.9471 0.5 11.4695 0.5 12C0.5 12.5306 0.534875 13.0529 0.601578 13.5652H10.9347H10.9347V23.8984C11.4471 23.9651 11.9694 24 12.5 24C13.0305 24 13.5529 23.9652 14.0652 23.8984V13.5653V13.5653H24.3984C24.4651 13.0529 24.5 12.5306 24.5 12C24.5 11.4695 24.4651 10.9471 24.3984 10.4348Z" fill="#D80027"/>
<path d="M15.6304 15.1305L20.9853 20.4853C21.2315 20.2391 21.4665 19.9817 21.6906 19.7149L17.1062 15.1304H15.6304V15.1305Z" fill="#D80027"/>
<path d="M9.36955 15.1305H9.36946L4.01469 20.4853C4.26088 20.7315 4.51827 20.9665 4.78508 21.1906L9.36955 16.6061V15.1305Z" fill="#D80027"/>
<path d="M9.36954 8.86966V8.86957L4.01473 3.51471C3.76845 3.7609 3.53351 4.01829 3.30936 4.2851L7.89387 8.86962H9.36954V8.86966Z" fill="#D80027"/>
<path d="M15.6304 8.86962L20.9853 3.51472C20.7391 3.26843 20.4817 3.0335 20.2149 2.80939L15.6304 7.3939V8.86962Z" fill="#D80027"/>
</g>
<defs>
<clipPath id="clip0_372_5852">
<rect width="24" height="24" fill="white" transform="translate(0.5)"/>
</clipPath>
</defs>
</svg>
