<svg width="513" height="512" viewBox="0 0 513 512" fill="none" xmlns="http://www.w3.org/2000/svg">
<g clip-path="url(#clip0_224_13334)">
<path d="M256.533 512C397.918 512 512.533 397.385 512.533 256C512.533 114.615 397.918 0 256.533 0C115.148 0 0.533203 114.615 0.533203 256C0.533203 397.385 115.148 512 256.533 512Z" fill="#F0F0F0"/>
<path d="M256.533 189.217H503.714C497.295 165.403 487.539 142.962 474.959 122.434H256.533V189.217Z" fill="#338AF3"/>
<path d="M97.1764 456.348H415.889C439.252 437.74 459.288 415.138 474.958 389.565H38.1074C53.7784 415.137 73.8144 437.74 97.1764 456.348V456.348Z" fill="#338AF3"/>
<path d="M89.5764 61.939C69.4504 79.27 52.0514 99.679 38.1074 122.435H89.5764V61.939Z" fill="#338AF3"/>
<path d="M256.533 256C256.533 229.924 256.533 208.101 256.533 189.217H156.359V256H89.5762V189.217H9.3522C3.6132 210.511 0.533203 232.893 0.533203 256C0.533203 279.107 3.6132 301.489 9.3522 322.783H503.715C509.453 301.489 512.533 279.107 512.533 256H256.533Z" fill="#338AF3"/>
<path d="M256.533 0C220.984 0 187.129 7.253 156.359 20.348V122.435H256.533C256.533 99.123 256.533 79.296 256.533 55.652H415.89C372.159 20.824 316.782 0 256.533 0V0Z" fill="#338AF3"/>
</g>
<defs>
<clipPath id="clip0_224_13334">
<rect width="512" height="512" fill="white" transform="translate(0.533203)"/>
</clipPath>
</defs>
</svg>
