<svg width="513" height="512" viewBox="0 0 513 512" fill="none" xmlns="http://www.w3.org/2000/svg">
<g clip-path="url(#clip0_224_13437)">
<path d="M256.531 512C397.916 512 512.531 397.385 512.531 256C512.531 114.615 397.916 0 256.531 0C115.146 0 0.53125 114.615 0.53125 256C0.53125 397.385 115.146 512 256.531 512Z" fill="#D80027"/>
<path d="M282.959 193.668C277.141 217.867 266.804 213.252 261.731 234.356C231.848 227.171 213.444 197.121 220.629 167.236C227.811 137.353 257.864 118.949 287.748 126.134C277.601 168.341 288.164 172.025 282.959 193.668Z" fill="#F0F0F0"/>
<path d="M205.417 211.6C226.634 224.61 219.05 233.017 237.552 244.364C221.484 270.565 187.219 278.78 161.017 262.713C134.816 246.646 126.599 212.379 142.667 186.178C179.673 208.87 186.438 199.963 205.417 211.6V211.6Z" fill="#F0F0F0"/>
<path d="M198.507 290.892C217.438 274.734 223.087 284.544 239.596 270.454C259.551 293.831 256.775 328.959 233.399 348.914C210.021 368.869 174.893 366.09 154.941 342.715C187.955 314.532 181.574 305.343 198.507 290.892Z" fill="#F0F0F0"/>
<path d="M271.782 321.965C262.262 298.968 273.338 296.624 265.039 276.571C293.438 264.818 325.99 278.312 337.744 306.711C349.497 335.11 336.001 367.661 307.602 379.415C291.005 339.306 280.296 342.535 271.782 321.965Z" fill="#F0F0F0"/>
<path d="M323.981 261.876C299.168 263.823 300.359 252.563 278.724 254.261C276.321 223.622 299.215 196.831 329.856 194.426C360.496 192.027 387.286 214.919 389.688 245.561C346.411 248.954 346.172 260.137 323.981 261.876Z" fill="#F0F0F0"/>
</g>
<defs>
<clipPath id="clip0_224_13437">
<rect width="512" height="512" fill="white" transform="translate(0.53125)"/>
</clipPath>
</defs>
</svg>
