<svg width="512" height="512" viewBox="0 0 512 512" fill="none" xmlns="http://www.w3.org/2000/svg">
<g clip-path="url(#clip0_224_14581)">
<path d="M512 256C512 244.683 511.257 233.539 509.833 222.609H222.606C170.305 170.311 74.9755 74.9885 74.9795 74.9805C-24.9945 174.954 -24.9945 337.044 74.9795 437.02L222.609 289.392H509.833C511.256 278.461 512 267.317 512 256Z" fill="black"/>
<path d="M511.928 261.824C511.917 262.318 511.906 262.814 511.892 263.308C511.904 262.812 511.916 262.318 511.928 261.824Z" fill="#F0F0F0"/>
<path d="M511.682 268.82C511.659 269.309 511.625 269.796 511.599 270.284C511.625 269.797 511.657 269.309 511.682 268.82Z" fill="#F0F0F0"/>
<path d="M511.337 274.4C511.286 275.119 511.236 275.838 511.178 276.555C511.236 275.838 511.285 275.119 511.337 274.4Z" fill="#F0F0F0"/>
<path d="M510.481 228.1C510.575 228.956 510.669 229.811 510.754 230.669C510.669 229.81 510.574 228.956 510.481 228.1Z" fill="#F0F0F0"/>
<path d="M511.598 241.719C511.625 242.207 511.658 242.694 511.681 243.183C511.657 242.694 511.625 242.206 511.598 241.719Z" fill="#F0F0F0"/>
<path d="M511.891 248.697C511.905 249.191 511.915 249.687 511.927 250.181C511.916 249.685 511.904 249.191 511.891 248.697Z" fill="#F0F0F0"/>
<path d="M511.178 235.447C511.236 236.164 511.286 236.883 511.337 237.602C511.285 236.883 511.236 236.164 511.178 235.447Z" fill="#F0F0F0"/>
<path d="M509.833 222.61C509.948 223.487 510.05 224.369 510.155 225.248C494.961 98.3659 386.975 0.00195312 256 0.00195312C185.306 0.00195312 121.305 28.657 74.9775 74.986L222.602 222.611H509.833V222.61Z" fill="#D80027"/>
<path d="M509.833 289.392H222.602L74.9775 437.017C121.305 483.345 185.306 512.001 256 512.001C386.975 512.001 494.962 413.637 510.155 286.754C510.05 287.633 509.946 288.515 509.833 289.392Z" fill="#6DA544"/>
<path d="M510.753 281.332C510.668 282.19 510.574 283.045 510.48 283.901C510.574 283.045 510.669 282.191 510.753 281.332Z" fill="#F0F0F0"/>
<path d="M511.336 237.602C511.433 238.971 511.521 240.343 511.596 241.718C511.52 240.343 511.433 238.971 511.336 237.602Z" fill="black"/>
<path d="M510.155 225.246C510.27 226.195 510.379 227.146 510.481 228.098C510.377 227.146 510.268 226.196 510.155 225.246Z" fill="black"/>
<path d="M510.753 230.668C510.909 232.257 511.05 233.85 511.177 235.449C511.051 233.85 510.91 232.256 510.753 230.668Z" fill="black"/>
<path d="M512 256.002C512 257.949 511.97 259.888 511.927 261.823C511.97 259.887 512 257.948 512 256.002Z" fill="black"/>
<path d="M511.597 270.283C511.521 271.658 511.433 273.03 511.337 274.399C511.433 273.03 511.52 271.658 511.597 270.283Z" fill="black"/>
<path d="M511.177 276.555C511.05 278.152 510.909 279.746 510.753 281.334C510.91 279.746 511.051 278.152 511.177 276.555Z" fill="black"/>
<path d="M510.481 283.902C510.379 284.854 510.27 285.804 510.155 286.754C510.268 285.805 510.377 284.854 510.481 283.902Z" fill="black"/>
<path d="M511.927 250.18C511.97 252.116 512 254.056 512 256.001C512 254.056 511.97 252.116 511.927 250.18Z" fill="black"/>
<path d="M511.681 243.182C511.771 245.014 511.839 246.853 511.891 248.695C511.839 246.852 511.772 245.014 511.681 243.182Z" fill="black"/>
<path d="M511.89 263.307C511.838 265.149 511.77 266.988 511.68 268.82C511.772 266.987 511.839 265.149 511.89 263.307Z" fill="black"/>
<path d="M511.755 244.777H213.2L59.8434 91.4434C54.8864 96.6714 49.5134 103.971 46.1904 109.17L192.849 255.906L46.0674 402.691C48.9734 407.861 55.3044 415.513 59.7494 420.492L213.203 267.038H511.791C511.95 263.346 512 259.638 512 255.908C511.999 250.91 511.861 247.225 511.755 244.777Z" fill="#FFDA44"/>
<path d="M62.1866 310.572V289.129C83.5846 289.129 100.992 271.72 100.992 250.324C100.992 235.185 88.6746 222.869 73.5366 222.869C63.2236 222.869 54.8326 231.259 54.8326 241.574C54.8326 248.169 60.1976 253.535 66.7936 253.535C70.5216 253.535 73.5546 250.5 73.5546 246.772H94.9966C94.9966 262.325 82.3446 274.977 66.7946 274.977C48.3756 274.978 33.3926 259.992 33.3926 241.576C33.3926 219.439 51.4026 201.43 73.5376 201.43C100.5 201.43 122.436 223.366 122.436 250.327C122.435 283.544 95.4076 310.572 62.1866 310.572Z" fill="#FFDA44"/>
</g>
<defs>
<clipPath id="clip0_224_14581">
<rect width="512.001" height="512.001" fill="white"/>
</clipPath>
</defs>
</svg>
