<svg width="513" height="512" viewBox="0 0 513 512" fill="none" xmlns="http://www.w3.org/2000/svg">
<g clip-path="url(#clip0_224_13660)">
<path d="M256.531 512C397.916 512 512.531 397.385 512.531 256C512.531 114.615 397.916 0 256.531 0C115.146 0 0.53125 114.615 0.53125 256C0.53125 397.385 115.146 512 256.531 512Z" fill="#F0F0F0"/>
<path d="M245.402 256H512.532C512.532 232.893 509.452 210.511 503.713 189.217H245.402V256Z" fill="#D80027"/>
<path d="M245.402 122.435H474.958C459.287 96.8629 439.252 74.2599 415.889 55.6519H245.402V122.435Z" fill="#D80027"/>
<path d="M256.533 512C316.782 512 372.159 491.176 415.89 456.348H97.1758C140.907 491.176 196.284 512 256.533 512V512Z" fill="#D80027"/>
<path d="M38.1066 389.565H474.959C487.54 369.037 497.296 346.596 503.714 322.782H9.35156C15.7686 346.596 25.5256 369.037 38.1066 389.565Z" fill="#D80027"/>
<path d="M256.531 256C256.531 114.616 256.531 97.948 256.531 0C115.147 0 0.53125 114.616 0.53125 256H256.531Z" fill="#0052B4"/>
<path d="M170.765 219.13C135.803 219.13 107.461 190.787 107.461 155.826C107.461 120.865 135.804 92.5221 170.765 92.5221C181.666 92.5221 191.923 95.2791 200.878 100.131C186.83 86.3941 167.618 77.9141 146.417 77.9141C103.388 77.9141 68.5039 112.797 68.5039 155.827C68.5039 198.857 103.388 233.74 146.417 233.74C167.618 233.74 186.83 225.26 200.878 211.523C191.923 216.373 181.667 219.13 170.765 219.13V219.13Z" fill="#FFDA44"/>
<path d="M188.605 111.304L199.844 134.806L225.225 128.942L213.859 152.381L234.271 168.568L208.857 174.297L208.928 200.348L188.605 184.05L168.281 200.348L168.352 174.297L142.938 168.568L163.35 152.381L151.982 128.942L177.365 134.806L188.605 111.304Z" fill="#FFDA44"/>
</g>
<defs>
<clipPath id="clip0_224_13660">
<rect width="512" height="512" fill="white" transform="translate(0.53125)"/>
</clipPath>
</defs>
</svg>
