<svg width="513" height="512" viewBox="0 0 513 512" fill="none" xmlns="http://www.w3.org/2000/svg">
<g clip-path="url(#clip0_224_13472)">
<path d="M256.533 512C397.918 512 512.533 397.385 512.533 256C512.533 114.615 397.918 0 256.533 0C115.148 0 0.533203 114.615 0.533203 256C0.533203 397.385 115.148 512 256.533 512Z" fill="#F0F0F0"/>
<path d="M256.534 0C146.463 0 52.628 69.472 16.457 166.957H496.612C460.44 69.472 366.605 0 256.534 0V0Z" fill="#A2001D"/>
<path d="M256.534 512C366.605 512 460.44 442.528 496.611 345.043H16.457C52.628 442.528 146.463 512 256.534 512Z" fill="black"/>
<path d="M195.316 239.304C195.176 239.304 195.039 239.313 194.899 239.315V239.304H145.962C148.443 229.718 157.141 222.608 167.49 222.608V189.217C136.803 189.217 111.838 214.183 111.838 244.869V272.139V272.696H194.899H195.316C198.385 272.696 200.881 275.193 200.881 278.261V289.391H89.5762V322.782H234.272V278.26C234.272 256.78 216.796 239.304 195.316 239.304V239.304Z" fill="#496E2D"/>
<path d="M278.793 289.391V189.217H245.402V322.783H301.054V289.391H278.793Z" fill="#496E2D"/>
<path d="M390.099 289.392V189.217H356.708V289.392H345.577V256.001H312.186V322.784H412.36V289.392H390.099Z" fill="#496E2D"/>
</g>
<defs>
<clipPath id="clip0_224_13472">
<rect width="512" height="512" fill="white" transform="translate(0.533203)"/>
</clipPath>
</defs>
</svg>
