<svg width="513" height="512" viewBox="0 0 513 512" fill="none" xmlns="http://www.w3.org/2000/svg">
<g clip-path="url(#clip0_224_13991)">
<path d="M256.531 512C397.916 512 512.531 397.385 512.531 256C512.531 114.615 397.916 0 256.531 0C115.146 0 0.53125 114.615 0.53125 256C0.53125 397.385 115.146 512 256.531 512Z" fill="#F0F0F0"/>
<path d="M256.532 0V256L75.5117 437.02C121.839 483.346 185.839 512 256.532 512C397.916 512 512.532 397.384 512.532 256C512.532 114.616 256.532 0 256.532 0Z" fill="#D80027"/>
<path d="M256.532 0C185.839 0 121.839 28.654 75.5117 74.98C138.322 137.79 160.619 160.088 256.532 256H512.532C512.532 114.616 397.916 0 256.532 0Z" fill="#0052B4"/>
<path d="M175.823 256L144.559 241.294L161.208 211.015L127.258 217.51L122.956 183.213L99.308 208.437L75.661 183.213L71.358 217.51L37.409 211.014L54.058 241.294L22.793 256L54.058 270.706L37.409 300.985L71.361 294.491L75.66 328.787L99.308 303.563L122.956 328.787L127.258 294.491L161.206 300.986L144.558 270.707L175.823 256Z" fill="#FFDA44"/>
<path d="M68.805 100.174L79.209 114.717L96.254 109.318L85.636 123.706L96.04 138.249L79.074 132.598L68.457 146.985L68.59 129.105L51.625 123.453L68.673 118.054L68.805 100.174Z" fill="#FFDA44"/>
<path d="M68.805 365.015L79.209 379.558L96.254 374.158L85.636 388.547L96.04 403.09L79.074 397.439L68.457 411.826L68.59 393.946L51.625 388.294L68.673 382.895L68.805 365.015Z" fill="#FFDA44"/>
<path d="M217.199 232.595L206.796 247.138L189.75 241.737L200.368 256.126L189.964 270.67L206.93 265.018L217.548 279.405L217.414 261.526L234.379 255.874L217.332 250.475L217.199 232.595Z" fill="#FFDA44"/>
</g>
<defs>
<clipPath id="clip0_224_13991">
<rect width="512" height="512" fill="white" transform="translate(0.53125)"/>
</clipPath>
</defs>
</svg>
