<svg width="513" height="512" viewBox="0 0 513 512" fill="none" xmlns="http://www.w3.org/2000/svg">
<g clip-path="url(#clip0_224_12681)">
<path d="M256.531 512C397.916 512 512.531 397.385 512.531 256C512.531 114.615 397.916 0 256.531 0C115.146 0 0.53125 114.615 0.53125 256C0.53125 397.385 115.146 512 256.531 512Z" fill="#F0F0F0"/>
<path d="M256.533 0C205.157 0 157.325 15.145 117.233 41.198L183.072 85.327L100.707 127.993L183.072 170.659L100.707 213.325L183.072 255.986L100.707 298.651L183.072 341.316L100.707 383.986L183.072 426.652L117.225 470.795C157.319 496.853 205.154 512 256.533 512C397.917 512 512.533 397.384 512.533 256C512.533 114.616 397.917 0 256.533 0V0Z" fill="#D80027"/>
</g>
<defs>
<clipPath id="clip0_224_12681">
<rect width="512" height="512" fill="white" transform="translate(0.53125)"/>
</clipPath>
</defs>
</svg>
