<svg width="25" height="24" viewBox="0 0 25 24" fill="none" xmlns="http://www.w3.org/2000/svg">
<g clip-path="url(#clip0_372_5757)">
<path d="M12.5 24C19.1274 24 24.5 18.6274 24.5 12C24.5 5.37258 19.1274 0 12.5 0C5.87258 0 0.5 5.37258 0.5 12C0.5 18.6274 5.87258 24 12.5 24Z" fill="#F0F0F0"/>
<path d="M4.01468 20.4853C-0.671601 15.799 -0.671601 8.20102 4.01468 3.51469C4.01435 3.51521 10.9348 12 10.9348 12L4.01468 20.4853Z" fill="black"/>
<path d="M10.9348 12L2.09155 6.02405C1.81737 6.50063 1.57559 6.99806 1.36784 7.51294L5.84483 12L1.36798 16.4874C1.57555 17.0019 1.81709 17.499 2.09108 17.9753L10.9348 12Z" fill="#FFDA44"/>
<path d="M24.3984 10.4348H10.9345L4.0146 3.51488C3.26891 4.26056 2.62105 5.10389 2.09155 6.0241L8.05588 12L2.09108 17.9752C2.62058 18.8956 3.26872 19.7392 4.0146 20.4851L10.9345 13.5652H24.3984C24.4651 13.0529 24.5 12.5305 24.5 12C24.5 11.4695 24.4651 10.9471 24.3984 10.4348Z" fill="#6DA544"/>
<path d="M5.19397 21.5192C7.21752 23.0746 9.7505 24 12.5 24C18.0443 24 22.7096 20.2396 24.0866 15.1304H11.5828L5.19397 21.5192Z" fill="#0052B4"/>
<path d="M24.0866 8.86955C22.7096 3.76036 18.0443 0 12.5 0C9.7505 0 7.21752 0.925359 5.19397 2.48077L11.5828 8.86955H24.0866Z" fill="#D80027"/>
</g>
<defs>
<clipPath id="clip0_372_5757">
<rect width="24" height="24" fill="white" transform="translate(0.5)"/>
</clipPath>
</defs>
</svg>
