<svg width="512" height="512" viewBox="0 0 512 512" fill="none" xmlns="http://www.w3.org/2000/svg">
<g clip-path="url(#clip0_224_13201)">
<path d="M256 512C397.385 512 512 397.385 512 256C512 114.615 397.385 0 256 0C114.615 0 0 114.615 0 256C0 397.385 114.615 512 256 512Z" fill="#F0F0F0"/>
<path d="M256 0C154.506 0 66.81 59.065 25.402 144.696H486.597C445.19 59.065 357.493 0 256 0Z" fill="#0052B4"/>
<path d="M256 512.001C357.493 512.001 445.19 452.936 486.598 367.305H25.402C66.81 452.936 154.506 512.001 256 512.001Z" fill="#0052B4"/>
<path d="M204.59 267.131L256 178.088L307.41 267.131H204.59Z" fill="#FFDA44"/>
<path d="M322.783 296.531L256 329.923L189.217 296.531V252.01H322.783V296.531Z" fill="#6DA544"/>
<path d="M318.963 181.906L295.352 205.517C305.423 215.588 311.653 229.501 311.653 244.869C311.653 275.605 286.736 300.521 256.001 300.521C225.266 300.521 200.349 275.604 200.349 244.869C200.349 229.501 206.579 215.588 216.65 205.517L193.039 181.906C176.924 198.018 166.958 220.279 166.958 244.869C166.958 294.047 206.824 333.912 256.001 333.912C305.178 333.912 345.044 294.046 345.044 244.869C345.043 220.279 335.077 198.018 318.963 181.906Z" fill="#FFDA44"/>
</g>
<defs>
<clipPath id="clip0_224_13201">
<rect width="512" height="512" fill="white"/>
</clipPath>
</defs>
</svg>
