<svg width="513" height="512" viewBox="0 0 513 512" fill="none" xmlns="http://www.w3.org/2000/svg">
<g clip-path="url(#clip0_224_13399)">
<path d="M345.577 15.925C317.843 5.63398 287.846 0.000976562 256.531 0.000976562C225.218 0.000976562 195.222 5.63398 167.49 15.923L156.359 256.001L167.489 496.079C195.222 506.369 225.218 512.001 256.531 512.001C287.847 512.001 317.843 506.369 345.577 496.077L356.707 256.001L345.577 15.925Z" fill="#FFDA44"/>
<path d="M0.53125 256.001C0.53125 366.071 70.0033 459.907 167.488 496.077V15.9231C70.0033 52.0951 0.53125 145.929 0.53125 256.001Z" fill="#D80027"/>
<path d="M512.531 256.001C512.531 145.929 443.059 52.0951 345.574 15.9231V496.078C443.059 459.907 512.531 366.071 512.531 256.001Z" fill="#6DA544"/>
</g>
<defs>
<clipPath id="clip0_224_13399">
<rect width="512" height="512" fill="white" transform="translate(0.53125 0.000976562)"/>
</clipPath>
</defs>
</svg>
