<svg width="513" height="512" viewBox="0 0 513 512" fill="none" xmlns="http://www.w3.org/2000/svg">
<g clip-path="url(#clip0_224_13133)">
<path d="M256.531 512C397.916 512 512.531 397.385 512.531 256C512.531 114.615 397.916 0 256.531 0C115.146 0 0.53125 114.615 0.53125 256C0.53125 397.385 115.146 512 256.531 512Z" fill="#F0F0F0"/>
<path d="M200.88 222.609H510.364C494.001 97.002 386.598 0 256.531 0C237.416 0 218.799 2.113 200.879 6.085V222.609H200.88Z" fill="#D80027"/>
<path d="M134.097 222.608V31.127C63.8042 69.481 13.4822 139.832 2.69922 222.609H134.097V222.608Z" fill="#D80027"/>
<path d="M134.096 289.391H2.69922C13.4822 372.168 63.8042 442.519 134.097 480.872L134.096 289.391Z" fill="#D80027"/>
<path d="M200.879 289.392V505.915C218.799 509.887 237.416 512 256.531 512C386.598 512 494.001 414.998 510.364 289.391H200.879V289.392Z" fill="#D80027"/>
</g>
<defs>
<clipPath id="clip0_224_13133">
<rect width="512" height="512" fill="white" transform="translate(0.53125)"/>
</clipPath>
</defs>
</svg>
