<svg width="513" height="512" viewBox="0 0 513 512" fill="none" xmlns="http://www.w3.org/2000/svg">
<g clip-path="url(#clip0_224_12919)">
<path d="M256.533 512C397.918 512 512.533 397.385 512.533 256C512.533 114.615 397.918 0 256.533 0C115.148 0 0.533203 114.615 0.533203 256C0.533203 397.385 115.148 512 256.533 512Z" fill="#F0F0F0"/>
<path d="M512.534 256C512.534 154.506 453.469 66.8101 367.838 25.4021V486.597C453.469 445.19 512.534 357.494 512.534 256Z" fill="#D80027"/>
<path d="M0.533203 256C0.533203 357.494 59.5982 445.19 145.229 486.598V25.4021C59.5982 66.8101 0.533203 154.506 0.533203 256Z" fill="#D80027"/>
<path d="M301.055 289.391L345.576 267.13L323.316 256V233.739L278.794 256L301.055 211.478H278.794L256.533 178.087L234.272 211.478H212.011L234.272 256L189.75 233.739V256L167.49 267.13L212.011 289.391L200.881 311.652H245.403V345.043H267.663V311.652H312.185L301.055 289.391Z" fill="#D80027"/>
</g>
<defs>
<clipPath id="clip0_224_12919">
<rect width="512" height="512" fill="white" transform="translate(0.533203)"/>
</clipPath>
</defs>
</svg>
