<svg width="512" height="512" viewBox="0 0 512 512" fill="none" xmlns="http://www.w3.org/2000/svg">
<g clip-path="url(#clip0_224_13196)">
<path d="M256 512C397.385 512 512 397.385 512 256C512 114.615 397.385 0 256 0C114.615 0 0 114.615 0 256C0 397.385 114.615 512 256 512Z" fill="#F0F0F0"/>
<path d="M256 0C145.929 0 52.094 69.472 15.923 166.957H496.078C459.906 69.472 366.071 0 256 0Z" fill="#D80027"/>
<path d="M256 512C366.071 512 459.906 442.528 496.077 345.043H15.923C52.094 442.528 145.929 512 256 512Z" fill="black"/>
<path d="M345.043 228.173H278.26C278.26 215.879 268.293 205.912 255.999 205.912C243.705 205.912 233.738 215.879 233.738 228.173H166.955C166.955 240.468 177.664 250.434 189.958 250.434H189.216C189.216 262.729 199.182 272.695 211.477 272.695C211.477 284.99 221.443 294.956 233.738 294.956H278.26C290.555 294.956 300.521 284.99 300.521 272.695C312.816 272.695 322.782 262.729 322.782 250.434H322.041C334.335 250.434 345.043 240.468 345.043 228.173Z" fill="#FF9811"/>
</g>
<defs>
<clipPath id="clip0_224_13196">
<rect width="512" height="512" fill="white"/>
</clipPath>
</defs>
</svg>
