<svg width="513" height="512" viewBox="0 0 513 512" fill="none" xmlns="http://www.w3.org/2000/svg">
<g clip-path="url(#clip0_224_12577)">
<path d="M145.226 486.598C178.882 502.872 216.639 512 256.53 512C296.421 512 334.178 502.872 367.834 486.598L390.095 256L367.834 25.402C334.178 9.128 296.421 0 256.53 0C216.639 0 178.882 9.128 145.226 25.402L122.965 256L145.226 486.598Z" fill="#FFDA44"/>
<path d="M367.836 486.589C453.467 445.183 512.532 357.493 512.532 256C512.532 154.507 453.467 66.8171 367.836 25.4111V486.589Z" fill="#D80027"/>
<path d="M145.227 486.589V25.4111C59.5963 66.8171 0.53125 154.506 0.53125 256C0.53125 357.494 59.5963 445.183 145.227 486.589Z" fill="#0052B4"/>
<path d="M256.531 345.043C256.531 304.192 256.531 256 256.531 256H323.314V289.391C323.314 295.192 312.184 316.448 284.711 333.913C274.306 340.529 263.535 342.657 256.531 345.043Z" fill="#D80027"/>
<path d="M189.75 189.217H256.533V256H189.75V189.217Z" fill="#D80027"/>
<path d="M289.922 166.957C289.922 154.662 279.955 144.696 267.661 144.696C263.601 144.696 259.807 145.8 256.531 147.698C253.254 145.8 249.461 144.696 245.401 144.696C233.107 144.696 223.14 154.662 223.14 166.957H167.488V278.26C167.488 319.696 200.394 343.659 226.199 356.081C224.268 359.379 223.14 363.206 223.14 367.305C223.14 379.6 233.107 389.566 245.401 389.566C249.461 389.566 253.255 388.462 256.531 386.564C259.808 388.462 263.601 389.566 267.661 389.566C279.955 389.566 289.922 379.6 289.922 367.305C289.922 363.206 288.794 359.379 286.862 356.081C312.667 343.659 345.574 319.697 345.574 278.26V166.957H289.922ZM312.183 278.26C312.183 284.061 312.183 301.712 284.711 319.178C274.305 325.794 263.535 330.084 256.531 332.469C249.527 330.084 238.757 325.794 228.351 319.178C200.879 301.712 200.879 284.061 200.879 278.26V200.348H312.183V278.26Z" fill="#FF9811"/>
</g>
<defs>
<clipPath id="clip0_224_12577">
<rect width="512" height="512" fill="white" transform="translate(0.53125)"/>
</clipPath>
</defs>
</svg>
