<svg width="513" height="512" viewBox="0 0 513 512" fill="none" xmlns="http://www.w3.org/2000/svg">
<g clip-path="url(#clip0_224_12585)">
<path d="M0.53125 256C0.53125 114.616 115.147 0 256.531 0C397.915 0 512.531 114.616 512.531 256C501.401 256 256.531 289.391 256.531 289.391L0.53125 256Z" fill="#D80027"/>
<path d="M512.531 256C512.531 397.384 397.915 512 256.531 512C115.147 512 0.53125 397.384 0.53125 256" fill="black"/>
<path d="M221.43 203.612L243.132 219.362L234.862 244.87L256.548 229.094L278.252 244.844L269.95 219.344L291.634 203.57L264.819 203.586L256.516 178.087L248.245 203.595L221.43 203.612Z" fill="#FFDA44"/>
<path d="M320.53 145.149C300.357 133.502 278.3 128.005 256.53 128.043V161.427C272.621 161.398 288.923 165.458 303.834 174.068C349.012 200.152 364.547 258.128 338.462 303.306C312.379 348.484 254.404 364.019 209.225 337.935C196.063 330.336 185.438 320.018 177.606 308.111L149.73 326.515C160.327 342.624 174.723 356.571 192.53 366.851C253.654 402.141 332.091 381.124 367.38 320C402.67 258.876 381.654 180.439 320.53 145.149V145.149Z" fill="#FFDA44"/>
<path d="M182.72 233.739C173.87 249.918 179.812 270.209 195.99 279.059L304.439 338.319C297.064 351.8 300.981 368.209 314.462 375.584L343.757 391.609C357.238 398.985 374.149 394.033 381.524 380.551L397.549 351.257L182.72 233.739Z" fill="#FFDA44"/>
</g>
<defs>
<clipPath id="clip0_224_12585">
<rect width="512" height="512" fill="white" transform="translate(0.53125)"/>
</clipPath>
</defs>
</svg>
