<svg width="512" height="513" viewBox="0 0 512 513" fill="none" xmlns="http://www.w3.org/2000/svg">
<g clip-path="url(#clip0_224_13306)">
<path d="M256 512.988C397.385 512.988 512 398.373 512 256.988C512 115.603 397.385 0.988281 256 0.988281C114.615 0.988281 0 115.603 0 256.988C0 398.373 114.615 512.988 256 512.988Z" fill="#F0F0F0"/>
<path d="M256 0.988281C150.165 0.988281 59.3371 65.2143 20.3481 156.814H491.653C452.664 65.2143 361.835 0.988281 256 0.988281Z" fill="#A2001D"/>
<path d="M256 512.988C361.835 512.988 452.664 448.762 491.652 357.162H20.3481C59.3371 448.762 150.165 512.988 256 512.988Z" fill="#496E2D"/>
<path d="M503.181 190.205H8.819C3.08 211.498 0 233.881 0 256.988C0 280.095 3.08 302.478 8.819 323.771H503.182C508.92 302.478 512 280.095 512 256.988C512 233.881 508.92 211.498 503.181 190.205Z" fill="#0052B4"/>
</g>
<defs>
<clipPath id="clip0_224_13306">
<rect width="512" height="512" fill="white" transform="translate(0 0.988281)"/>
</clipPath>
</defs>
</svg>
