<svg width="512" height="513" viewBox="0 0 512 513" fill="none" xmlns="http://www.w3.org/2000/svg">
<g clip-path="url(#clip0_224_14357)">
<path d="M25.402 145.279C9.128 178.935 0 216.693 0 256.583C0 296.473 9.128 334.231 25.402 367.887L256 390.148L486.598 367.887C502.872 334.231 512 296.473 512 256.583C512 216.693 502.872 178.935 486.598 145.279L256 123.018L25.402 145.279Z" fill="#F0F0F0"/>
<path d="M25.4111 367.887C66.8181 453.517 154.507 512.583 256 512.583C357.493 512.583 445.183 453.517 486.589 367.887H25.4111Z" fill="#6DA544"/>
<path d="M25.4111 145.278H486.589C445.183 59.648 357.493 0.582031 256 0.582031C154.507 0.582031 66.8181 59.648 25.4111 145.278Z" fill="#D80027"/>
<path d="M211.478 323.364H300.522V285.52L282.713 294.424L256 267.711L229.287 294.424L211.478 285.52V323.364Z" fill="#FFDA44"/>
<path d="M160.532 278.842L164.677 291.596H178.087L167.237 299.479L171.382 312.233L160.532 304.351L149.682 312.233L153.827 299.479L142.977 291.596H156.387L160.532 278.842Z" fill="#FFDA44"/>
<path d="M173.38 234.32L177.525 247.074H190.935L180.085 254.957L184.229 267.711L173.38 259.829L162.53 267.711L166.675 254.957L155.825 247.074H169.235L173.38 234.32Z" fill="#FFDA44"/>
<path d="M210.113 200.93L214.258 213.684H227.667L216.819 221.567L220.962 234.321L210.113 226.439L199.264 234.321L203.408 221.567L192.558 213.684H205.969L210.113 200.93Z" fill="#FFDA44"/>
<path d="M351.467 278.842L347.322 291.596H333.912L344.762 299.479L340.617 312.233L351.467 304.351L362.316 312.233L358.172 299.479L369.022 291.596H355.612L351.467 278.842Z" fill="#FFDA44"/>
<path d="M338.618 234.32L334.473 247.074H321.063L331.913 254.957L327.768 267.711L338.618 259.829L349.468 267.711L345.323 254.957L356.173 247.074H342.763L338.618 234.32Z" fill="#FFDA44"/>
<path d="M301.887 200.93L297.742 213.684H284.333L295.181 221.567L291.037 234.321L301.887 226.439L312.736 234.321L308.592 221.567L319.441 213.684H306.031L301.887 200.93Z" fill="#FFDA44"/>
<path d="M255.999 184.232L260.144 196.986H273.554L262.704 204.869L266.849 217.623L255.999 209.741L245.149 217.623L249.294 204.869L238.444 196.986H251.854L255.999 184.232Z" fill="#FFDA44"/>
</g>
<defs>
<clipPath id="clip0_224_14357">
<rect width="512" height="512" fill="white" transform="translate(0 0.582031)"/>
</clipPath>
</defs>
</svg>
