<svg width="512" height="512" viewBox="0 0 512 512" fill="none" xmlns="http://www.w3.org/2000/svg">
<g clip-path="url(#clip0_224_13510)">
<path d="M256 512C397.385 512 512 397.385 512 256C512 114.615 397.385 0 256 0C114.615 0 0 114.615 0 256C0 397.385 114.615 512 256 512Z" fill="#F0F0F0"/>
<path d="M459.098 411.875L303.223 256.001H303.222L459.098 100.124C452.375 91.3883 445.021 82.9833 437.02 74.9803C429.017 66.9783 420.613 59.6233 411.876 52.9023L256.001 208.777L256 208.778L100.125 52.9023C91.3899 59.6243 82.9839 66.9773 74.9809 74.9803C66.9779 82.9833 59.6239 91.3883 52.9029 100.124L208.778 255.998L208.779 255.999L52.9019 411.876C59.6249 420.612 66.9789 429.017 74.9799 437.02C82.9829 445.022 91.3869 452.377 100.124 459.098L256 303.223L256.001 303.222L411.876 459.097C420.611 452.375 429.017 445.021 437.02 437.019C445.023 429.016 452.376 420.611 459.098 411.875Z" fill="#D80027"/>
<path d="M211.478 77.9137L256 89.0437L300.522 77.9137V40.0707L282.713 48.9747L256 22.2617L229.287 48.9747L211.478 40.0707V77.9137Z" fill="#FFDA44"/>
<path d="M211.478 77.9121V105.74C211.478 139.82 256 150.262 256 150.262C256 150.262 300.522 139.819 300.522 105.74V77.9121H211.478Z" fill="#D80027"/>
</g>
<defs>
<clipPath id="clip0_224_13510">
<rect width="512" height="512" fill="white"/>
</clipPath>
</defs>
</svg>
