<svg width="512" height="512" viewBox="0 0 512 512" fill="none" xmlns="http://www.w3.org/2000/svg">
<g clip-path="url(#clip0_224_13248)">
<path d="M512 256C512 397.384 397.384 512 256 512C114.616 512 0 397.384 0 256C0 256.061 256 0.028 256 0C397.384 0 512 114.616 512 256Z" fill="#0052B4"/>
<path d="M255.315 255.999H256C256 255.769 256 255.545 256 255.314C255.772 255.543 255.544 255.771 255.315 255.999Z" fill="#F0F0F0"/>
<path d="M256 133.565C256 88.52 256 59.005 256 0H255.957C114.592 0.024 0 114.629 0 256H133.565V180.789L208.777 256H255.316L256.001 255.315C256.001 238.068 256.001 222.679 256.001 208.778L180.788 133.565H256Z" fill="#F0F0F0"/>
<path d="M129.515 33.3906C89.4761 56.1896 56.1901 89.4756 33.3911 129.515V256H100.174V100.176V100.174H256C256 79.1106 256 59.0446 256 33.3906H129.515Z" fill="#D80027"/>
<path d="M256 224.519L165.047 133.566H133.566V133.568L255.998 256H256C256 256 256 234.293 256 224.519Z" fill="#D80027"/>
<path d="M411.826 300.521V311.651H322.783V300.521H289.391V345.042H311.652V356.173H422.957V345.042H445.217V300.521H411.826Z" fill="#FFDA44"/>
<path d="M289.391 133.564V255.999C289.391 315.638 367.304 333.912 367.304 333.912C367.304 333.912 445.217 315.638 445.217 255.999V133.564H289.391Z" fill="#338AF3"/>
<path d="M367.3 224.889C347.823 224.889 347.823 242.698 328.346 242.698C308.869 242.698 308.869 224.889 289.392 224.889V256.054C308.869 256.054 308.869 273.863 328.346 273.863C347.823 273.863 347.823 256.054 367.3 256.054C386.779 256.054 386.779 273.863 406.259 273.863C425.739 273.863 425.738 256.054 445.218 256.054V224.889C425.739 224.889 425.739 242.698 406.259 242.698C386.779 242.698 386.779 224.889 367.3 224.889Z" fill="#F3F3F3"/>
<path d="M367.3 162.504C347.823 162.504 347.823 180.313 328.346 180.313C308.869 180.313 308.869 162.504 289.392 162.504V193.669C308.869 193.669 308.869 211.478 328.346 211.478C347.823 211.478 347.823 193.669 367.3 193.669C386.779 193.669 386.779 211.478 406.259 211.478C425.739 211.478 425.738 193.669 445.218 193.669V162.504C425.739 162.504 425.739 180.313 406.259 180.313C386.779 180.313 386.779 162.504 367.3 162.504Z" fill="#F3F3F3"/>
</g>
<defs>
<clipPath id="clip0_224_13248">
<rect width="512" height="512" fill="white"/>
</clipPath>
</defs>
</svg>
