<svg width="512" height="512" viewBox="0 0 512 512" fill="none" xmlns="http://www.w3.org/2000/svg">
<g clip-path="url(#clip0_224_14278)">
<path d="M0.001 44.5215H0V467.476H0.001V256V44.5215Z" fill="#FF9811"/>
<path d="M255.999 511.998C397.383 511.998 511.998 397.383 511.998 255.999C511.998 114.615 397.383 0 255.999 0C114.615 0 0 114.615 0 255.999C0 397.383 114.615 511.998 255.999 511.998Z" fill="#FFDA44"/>
<path d="M200.349 44.5215H111.714C107.786 47.2065 103.942 50.0015 100.175 52.8945L77.9141 255.998L100.175 459.102C103.942 461.996 107.786 464.792 111.714 467.475H200.349V44.5215Z" fill="#FF9811"/>
<path d="M0.000976562 256.001C0.000976562 338.746 39.269 412.309 100.175 459.105V52.8965C39.269 99.6945 0.000976562 173.256 0.000976562 256.001Z" fill="#6DA544"/>
<path d="M411.826 156.064V162.469L412.064 162.505L411.826 156.064Z" fill="#FFDA44"/>
<path d="M491.595 322.781H443.362L422.957 345.042V389.564H378.435V367.303H400.696V322.781H300.522V350.607H278.261V297.576C271.431 291.462 267.131 282.581 267.131 272.694V127.999C267.131 109.558 282.081 94.6085 300.522 94.6085V300.521H345.044L360.32 287.79C357.652 281.435 356.174 274.456 356.174 267.13V233.739H322.783V166.957H389.565C389.565 155.827 406.261 144.696 406.261 144.696C406.261 144.696 422.957 155.826 422.957 166.957V183.653V233.74C435.34 233.887 455.014 233.566 476.269 233.74C470.685 223.98 467.478 212.399 467.478 200.349C467.478 180.708 475.958 163.05 489.456 150.83C470 107.715 438.954 70.9535 400.287 44.5215H233.74V467.477H400.288C447.307 435.336 483.056 387.925 500.4 332.387L491.595 322.781Z" fill="#A2001D"/>
</g>
<defs>
<clipPath id="clip0_224_14278">
<rect width="511.999" height="511.999" fill="white"/>
</clipPath>
</defs>
</svg>
