<svg width="513" height="512" viewBox="0 0 513 512" fill="none" xmlns="http://www.w3.org/2000/svg">
<g clip-path="url(#clip0_224_14560)">
<path d="M12.6193 178.088C4.77725 202.656 0.53025 228.829 0.53125 255.998C0.53025 283.168 4.77825 309.343 12.6202 333.911L256.531 345.043L500.442 333.913C508.283 309.344 512.532 283.168 512.532 256C512.531 228.83 508.284 202.656 500.442 178.087L256.531 166.957L12.6193 178.088Z" fill="#F0F0F0"/>
<path d="M500.442 178.088L256.531 166.958L12.6192 178.088C10.2952 185.372 8.29419 192.799 6.61719 200.349H506.441C504.766 192.798 502.766 185.37 500.442 178.088Z" fill="#D80027"/>
<path d="M6.62109 311.651C8.29609 319.201 10.2971 326.627 12.6211 333.911L12.6451 333.912L256.531 345.042L500.442 333.912C502.766 326.628 504.767 319.201 506.443 311.651H6.62109Z" fill="#D80027"/>
<path d="M256.531 511.999C370.747 511.999 467.477 437.196 500.442 333.912H12.6211C45.5861 437.195 142.318 511.999 256.531 511.999V511.999Z" fill="#6DA544"/>
<path d="M256.532 0.000976573C142.318 0.00197657 45.5881 74.805 12.6211 178.088L500.442 178.089C467.479 74.804 370.748 -2.34275e-05 256.532 0.000976573V0.000976573Z" fill="#338AF3"/>
<path d="M117.517 105.74C117.517 81.7628 134.368 61.7328 156.871 56.8188C153.413 56.0628 149.824 55.6538 146.138 55.6538C118.476 55.6538 96.0508 78.0778 96.0508 105.741C96.0508 133.404 118.474 155.828 146.138 155.828C149.824 155.828 153.412 155.418 156.871 154.663C134.369 149.747 117.517 129.717 117.517 105.74V105.74Z" fill="#F0F0F0"/>
<path d="M186.473 128.507L189.863 138.942H200.835L191.959 145.392L195.349 155.827L186.473 149.378L177.595 155.827L180.986 145.392L172.109 138.942H183.081L186.473 128.507Z" fill="#F0F0F0"/>
<path d="M221.495 128.507L224.886 138.942H235.858L226.981 145.392L230.372 155.827L221.495 149.378L212.618 155.827L216.009 145.392L207.133 138.942H218.104L221.495 128.507Z" fill="#F0F0F0"/>
<path d="M256.516 128.507L259.906 138.942H270.879L262.002 145.392L265.392 155.827L256.516 149.378L247.638 155.827L251.03 145.392L242.152 138.942H253.125L256.516 128.507Z" fill="#F0F0F0"/>
<path d="M291.536 128.507L294.927 138.942H305.898L297.022 145.392L300.413 155.827L291.536 149.378L282.658 155.827L286.05 145.392L277.172 138.942H288.144L291.536 128.507Z" fill="#F0F0F0"/>
<path d="M326.557 128.507L329.948 138.942H340.92L332.044 145.392L335.435 155.827L326.557 149.378L317.68 155.827L321.071 145.392L312.195 138.942H323.166L326.557 128.507Z" fill="#F0F0F0"/>
<path d="M221.495 92.0801L224.886 102.514H235.858L226.981 108.965L230.372 119.399L221.495 112.95L212.618 119.399L216.009 108.965L207.133 102.514H218.104L221.495 92.0801Z" fill="#F0F0F0"/>
<path d="M256.516 92.0801L259.906 102.514H270.879L262.002 108.965L265.392 119.399L256.516 112.95L247.638 119.399L251.03 108.965L242.152 102.514H253.125L256.516 92.0801Z" fill="#F0F0F0"/>
<path d="M291.536 92.0801L294.927 102.514H305.898L297.022 108.965L300.413 119.399L291.536 112.95L282.658 119.399L286.05 108.965L277.172 102.514H288.144L291.536 92.0801Z" fill="#F0F0F0"/>
<path d="M326.557 92.0801L329.948 102.514H340.92L332.044 108.965L335.435 119.399L326.557 112.95L317.68 119.399L321.071 108.965L312.195 102.514H323.166L326.557 92.0801Z" fill="#F0F0F0"/>
<path d="M256.516 55.6519L259.906 66.0879H270.879L262.002 72.5369L265.392 82.9729L256.516 76.5239L247.638 82.9729L251.03 72.5369L242.152 66.0879H253.125L256.516 55.6519Z" fill="#F0F0F0"/>
<path d="M291.536 55.6519L294.927 66.0879H305.898L297.022 72.5369L300.413 82.9729L291.536 76.5239L282.658 82.9729L286.05 72.5369L277.172 66.0879H288.144L291.536 55.6519Z" fill="#F0F0F0"/>
<path d="M326.557 55.6519L329.948 66.0879H340.92L332.044 72.5369L335.435 82.9729L326.557 76.5239L317.68 82.9729L321.071 72.5369L312.195 66.0879H323.166L326.557 55.6519Z" fill="#F0F0F0"/>
</g>
<defs>
<clipPath id="clip0_224_14560">
<rect width="512" height="512" fill="white" transform="translate(0.53125)"/>
</clipPath>
</defs>
</svg>
