<svg width="513" height="512" viewBox="0 0 513 512" fill="none" xmlns="http://www.w3.org/2000/svg">
<g clip-path="url(#clip0_224_13928)">
<path d="M256.531 512C397.916 512 512.531 397.385 512.531 256C512.531 114.615 397.916 0 256.531 0C115.146 0 0.53125 114.615 0.53125 256C0.53125 397.385 115.146 512 256.531 512Z" fill="#F0F0F0"/>
<path d="M0.53125 256C0.53125 353.035 54.5213 437.455 134.096 480.873V31.127C54.5213 74.545 0.53125 158.965 0.53125 256Z" fill="#D80027"/>
<path d="M496.609 345.043C506.899 317.31 512.531 287.314 512.531 256C512.531 224.686 506.899 194.689 496.609 166.957H16.4552C6.16425 194.689 0.53125 224.686 0.53125 256C0.53125 287.314 6.16425 317.31 16.4552 345.043L256.531 367.304L496.609 345.043Z" fill="#D80027"/>
<path d="M256.533 512C366.605 512 460.439 442.528 496.611 345.043H16.457C52.627 442.528 146.463 512 256.533 512V512Z" fill="#6DA544"/>
<path d="M0.53125 256C0.53125 374.279 80.7522 473.805 189.748 503.181V8.81909C80.7522 38.1951 0.53125 137.721 0.53125 256Z" fill="#D80027"/>
<path d="M157.149 112.654L133.538 89.043L117.798 104.785L102.058 89.043L78.4473 112.654L94.1883 128.395L78.4453 144.137L102.056 167.748L117.797 152.006L133.538 167.748L157.149 144.137L141.408 128.395L157.149 112.654Z" fill="#F0F0F0"/>
</g>
<defs>
<clipPath id="clip0_224_13928">
<rect width="512" height="512" fill="white" transform="translate(0.53125)"/>
</clipPath>
</defs>
</svg>
