<svg width="513" height="512" viewBox="0 0 513 512" fill="none" xmlns="http://www.w3.org/2000/svg">
<g clip-path="url(#clip0_224_13521)">
<path d="M256.533 512C397.918 512 512.533 397.385 512.533 256C512.533 114.615 397.918 0 256.533 0C115.148 0 0.533203 114.615 0.533203 256C0.533203 397.385 115.148 512 256.533 512Z" fill="#338AF3"/>
<path d="M401.23 258.783H111.838C111.838 278.762 129.239 294.957 149.216 294.957H148.012C148.012 314.936 164.207 331.131 184.186 331.131C184.186 351.11 200.381 367.305 220.36 367.305H292.708C312.687 367.305 328.882 351.11 328.882 331.131C348.861 331.131 365.056 314.936 365.056 294.957H363.852C383.827 294.957 401.23 278.762 401.23 258.783V258.783Z" fill="#FFDA44"/>
<path d="M356.707 211.478C356.707 266.802 311.857 311.652 256.533 311.652C201.208 311.652 156.359 266.802 156.359 211.478" fill="#338AF3"/>
<path d="M333.048 211.478L301.783 226.185L318.432 256.465L284.482 249.97L280.18 284.266L256.533 259.041L232.885 284.266L228.584 249.97L194.634 256.463L211.282 226.184L180.018 211.478L211.283 196.772L194.634 166.493L228.583 172.987L232.886 138.691L256.533 163.916L280.181 138.691L284.482 172.987L318.433 166.493L301.784 196.773L333.048 211.478Z" fill="#FFDA44"/>
</g>
<defs>
<clipPath id="clip0_224_13521">
<rect width="512" height="512" fill="white" transform="translate(0.533203)"/>
</clipPath>
</defs>
</svg>
