<svg width="512" height="512" viewBox="0 0 512 512" fill="none" xmlns="http://www.w3.org/2000/svg">
<g clip-path="url(#clip0_224_13342)">
<path d="M0 256C0 114.616 114.616 0 256 0C397.384 0 512 114.616 512 256C500.87 256 256 289.391 256 289.391L0 256Z" fill="#F0F0F0"/>
<path d="M512 256C512 397.384 397.384 512 256 512C114.616 512 0 397.384 0 256" fill="#D80027"/>
<path d="M178.087 378.434C245.706 378.434 300.522 323.618 300.522 255.999C300.522 188.38 245.706 133.564 178.087 133.564C110.468 133.564 55.652 188.38 55.652 255.999C55.652 323.618 110.468 378.434 178.087 378.434Z" fill="#F0F0F0"/>
<path d="M55.652 255.999C55.652 188.382 110.468 133.564 178.087 133.564C245.707 133.564 300.522 188.381 300.522 255.999" fill="#D80027"/>
</g>
<defs>
<clipPath id="clip0_224_13342">
<rect width="512" height="512" fill="white"/>
</clipPath>
</defs>
</svg>
