<svg width="25" height="24" viewBox="0 0 25 24" fill="none" xmlns="http://www.w3.org/2000/svg">
<g clip-path="url(#clip0_372_5706)">
<path d="M12.5 24C19.1274 24 24.5 18.6274 24.5 12C24.5 5.37258 19.1274 0 12.5 0C5.87258 0 0.5 5.37258 0.5 12C0.5 18.6274 5.87258 24 12.5 24Z" fill="#6DA544"/>
<path d="M7.28264 14.3478C7.28264 15.2122 7.98342 15.913 8.84784 15.913H13.5435C13.5435 16.6334 14.1275 17.2174 14.8478 17.2174H16.413C17.1334 17.2174 17.7174 16.6334 17.7174 15.913V14.3478H7.28264Z" fill="#F0F0F0"/>
<path d="M17.8478 6.78262V10.4348C17.8478 11.0102 17.3797 11.4783 16.8044 11.4783V13.0435C18.2428 13.0435 19.413 11.8732 19.413 10.4348V6.78262H17.8478Z" fill="#F0F0F0"/>
<path d="M6.63046 10.4348C6.63046 11.0102 6.16237 11.4783 5.58698 11.4783V13.0435C7.02543 13.0435 8.19566 11.8732 8.19566 10.4348V6.78262H6.63046V10.4348Z" fill="#F0F0F0"/>
<path d="M15.5 6.78262H17.0652V10.4348H15.5V6.78262Z" fill="#F0F0F0"/>
<path d="M13.1522 8.86955C13.1522 9.01341 13.0351 9.13041 12.8913 9.13041C12.7475 9.13041 12.6305 9.01336 12.6305 8.86955V6.78258H11.0653V8.86955C11.0653 9.01341 10.9482 9.13041 10.8044 9.13041C10.6606 9.13041 10.5435 9.01336 10.5435 8.86955V6.78258H8.97829V8.86955C8.97829 9.87647 9.79747 10.6957 10.8044 10.6957C11.1922 10.6957 11.5518 10.5738 11.8479 10.3668C12.1439 10.5737 12.5036 10.6957 12.8914 10.6957C12.9695 10.6957 13.0462 10.6902 13.1218 10.6806C13.0108 11.1375 12.5993 11.4782 12.1087 11.4782V13.0434C13.5472 13.0434 14.7174 11.8732 14.7174 10.4347V8.86955V6.78258H13.1522V8.86955H13.1522Z" fill="#F0F0F0"/>
<path d="M8.97829 11.4783H11.3261V13.0435H8.97829V11.4783Z" fill="#F0F0F0"/>
</g>
<defs>
<clipPath id="clip0_372_5706">
<rect width="24" height="24" fill="white" transform="translate(0.5)"/>
</clipPath>
</defs>
</svg>
