<svg width="513" height="512" viewBox="0 0 513 512" fill="none" xmlns="http://www.w3.org/2000/svg">
<g clip-path="url(#clip0_224_13700)">
<path d="M256.531 512C397.916 512 512.531 397.385 512.531 256C512.531 114.615 397.916 0 256.531 0C115.146 0 0.53125 114.615 0.53125 256C0.53125 397.385 115.146 512 256.531 512Z" fill="#496E2D"/>
<path d="M256.531 295.751C213.905 295.751 178.295 265.793 169.558 225.788C168.216 231.938 167.488 238.315 167.488 244.869C167.488 294.048 207.353 333.912 256.531 333.912C305.709 333.912 345.574 294.047 345.574 244.869C345.574 238.315 344.846 231.938 343.504 225.787C334.767 265.794 299.157 295.751 256.531 295.751Z" fill="#FFDA44"/>
<path d="M256.531 178.087L264.819 203.596H291.642L269.943 219.361L278.231 244.87L256.531 229.104L234.832 244.87L243.121 219.361L221.422 203.596H248.243L256.531 178.087Z" fill="#FFDA44"/>
</g>
<defs>
<clipPath id="clip0_224_13700">
<rect width="512" height="512" fill="white" transform="translate(0.53125)"/>
</clipPath>
</defs>
</svg>
