<svg width="25" height="24" viewBox="0 0 25 24" fill="none" xmlns="http://www.w3.org/2000/svg">
<g clip-path="url(#clip0_372_5772)">
<path d="M0.5 12C0.5 13.4678 0.764047 14.8739 1.24639 16.1739L12.5 17.2174L23.7536 16.1739C24.236 14.8739 24.5 13.4678 24.5 12C24.5 10.5322 24.236 9.12609 23.7536 7.82611L12.5 6.78262L1.24639 7.82611C0.764047 9.12609 0.5 10.5322 0.5 12H0.5Z" fill="#FFDA44"/>
<path d="M23.7536 7.82611C22.0581 3.25655 17.6596 0 12.5 0C7.34041 0 2.9419 3.25655 1.24638 7.82611H23.7536Z" fill="#D80027"/>
<path d="M1.24638 16.1739C2.9419 20.7435 7.34041 24 12.5 24C17.6596 24 22.0581 20.7435 23.7536 16.1739H1.24638Z" fill="#D80027"/>
</g>
<defs>
<clipPath id="clip0_372_5772">
<rect width="24" height="24" fill="white" transform="translate(0.5)"/>
</clipPath>
</defs>
</svg>
