<svg width="513" height="512" viewBox="0 0 513 512" fill="none" xmlns="http://www.w3.org/2000/svg">
<g clip-path="url(#clip0_224_13319)">
<path d="M16.4531 345.044C52.6241 442.528 146.459 512.001 256.53 512.001C366.601 512.001 460.436 442.528 496.607 345.044L256.53 322.784L16.4531 345.044Z" fill="#FFDA44"/>
<path d="M256.53 0.000976562C146.459 0.000976562 52.6241 69.473 16.4531 166.958L256.53 189.218L496.607 166.957C460.436 69.473 366.601 0.000976562 256.53 0.000976562Z" fill="black"/>
<path d="M16.4543 166.958C6.16425 194.691 0.53125 224.687 0.53125 256.001C0.53125 287.315 6.16425 317.311 16.4543 345.044H496.609C506.899 317.311 512.531 287.315 512.531 256.001C512.531 224.687 506.899 194.691 496.608 166.958H16.4543Z" fill="#D80027"/>
</g>
<defs>
<clipPath id="clip0_224_13319">
<rect width="512" height="512" fill="white" transform="translate(0.53125 0.000976562)"/>
</clipPath>
</defs>
</svg>
