<svg width="512" height="512" viewBox="0 0 512 512" fill="none" xmlns="http://www.w3.org/2000/svg">
<g clip-path="url(#clip0_224_14628)">
<path d="M256 512C397.385 512 512 397.385 512 256C512 114.615 397.385 0 256 0C114.615 0 0 114.615 0 256C0 397.385 114.615 512 256 512Z" fill="#FCFCFC"/>
<path d="M299.479 178.845C299.479 154.833 280.013 135.367 256 135.367C231.987 135.367 212.521 154.833 212.521 178.845H116.87C116.87 202.486 137.464 221.653 161.105 221.653H159.681C159.681 245.296 178.845 264.464 202.49 264.464C202.49 285.397 217.524 302.791 237.379 306.509L237.268 306.759H274.733L274.622 306.509C294.478 302.789 309.511 285.396 309.511 264.464C333.155 264.464 352.32 245.296 352.32 221.653H350.894C374.535 221.653 395.13 202.486 395.13 178.845H299.479Z" fill="#FFDA44"/>
<path d="M236.887 302.322L209.929 363.185C224.153 368.967 239.7 372.181 256.001 372.181C272.302 372.181 287.849 368.968 302.072 363.185L275.115 302.322H236.887Z" fill="#FFDA44"/>
<path d="M200.348 200.227V275.118C200.348 317.716 256 330.77 256 330.77C256 330.77 311.652 317.716 311.652 275.118V200.227H200.348Z" fill="#F0F0F0"/>
<path d="M62.0787 257.803L92.1777 341.987L121.964 257.803H144.696L101.27 369.107H83.0847L39.3477 257.803H62.0787Z" fill="#338AF3"/>
<path d="M411.825 369.107V257.803H433.458V369.107H411.825Z" fill="#338AF3"/>
<path d="M222.609 224.41V315.164C230.26 320.795 238.492 324.668 244.87 327.148V224.41H222.609Z" fill="#D80027"/>
<path d="M289.392 224.41V315.164C281.741 320.795 273.509 324.668 267.131 327.148V224.41H289.392Z" fill="#D80027"/>
<path d="M200.348 200.225H311.652V235.541H200.348V200.225Z" fill="#0052B4"/>
</g>
<defs>
<clipPath id="clip0_224_14628">
<rect width="512" height="512" fill="white"/>
</clipPath>
</defs>
</svg>
