<svg width="512" height="512" viewBox="0 0 512 512" fill="none" xmlns="http://www.w3.org/2000/svg">
<g clip-path="url(#clip0_224_13262)">
<path d="M256 512C397.385 512 512 397.385 512 256C512 114.615 397.385 0 256 0C114.615 0 0 114.615 0 256C0 397.385 114.615 512 256 512Z" fill="#F0F0F0"/>
<path d="M500.87 256.001L509.829 222.61C508.341 211.229 506.109 200.081 503.182 189.219H233.739V0.974609C222.379 1.95261 211.234 3.68161 200.348 6.09561L155.826 33.3916L133.565 31.1446C121.85 37.5366 110.689 44.8166 100.174 52.8956V189.218H8.81902C5.89202 200.08 3.66002 211.228 2.17202 222.609L11.13 256.001L2.17102 289.392C3.65902 300.773 5.89102 311.921 8.81802 322.783H100.173V459.105C110.688 467.185 121.85 474.464 133.564 480.856L166.955 478.609L200.346 505.905C211.233 508.318 222.378 510.047 233.737 511.026V322.784H503.179C506.106 311.922 508.338 300.774 509.826 289.393L500.87 256.001Z" fill="#0052B4"/>
<path d="M509.833 222.61H200.349H200.348V6.08594C176.69 11.3319 154.261 19.8349 133.565 31.1279V222.609H2.167C0.744 233.54 0 244.684 0 256.001C0 267.318 0.744 278.462 2.167 289.392H133.564H133.565V480.873C154.261 492.165 176.69 500.67 200.348 505.915V289.395V289.393H509.833C511.256 278.462 512 267.318 512 256.001C512 244.684 511.256 233.54 509.833 222.61Z" fill="#D80027"/>
</g>
<defs>
<clipPath id="clip0_224_13262">
<rect width="512" height="512" fill="white"/>
</clipPath>
</defs>
</svg>
