<svg width="513" height="512" viewBox="0 0 513 512" fill="none" xmlns="http://www.w3.org/2000/svg">
<g clip-path="url(#clip0_224_13839)">
<path d="M256.523 512C397.908 512 512.523 397.385 512.523 256C512.523 114.615 397.908 0 256.523 0C115.139 0 0.523438 114.615 0.523438 256C0.523438 397.385 115.139 512 256.523 512Z" fill="#F0F0F0"/>
<path d="M256.522 0C146.451 0 52.6163 69.472 16.4453 166.957H496.6C460.428 69.472 366.593 0 256.522 0V0Z" fill="#A2001D"/>
<path d="M256.522 512C366.593 512 460.428 442.528 496.599 345.043H16.4453C52.6163 442.528 146.451 512 256.522 512Z" fill="#0052B4"/>
</g>
<defs>
<clipPath id="clip0_224_13839">
<rect width="512" height="512" fill="white" transform="translate(0.523438)"/>
</clipPath>
</defs>
</svg>
