<svg width="513" height="512" viewBox="0 0 513 512" fill="none" xmlns="http://www.w3.org/2000/svg">
<g clip-path="url(#clip0_224_13118)">
<path d="M256.533 512C397.918 512 512.533 397.385 512.533 256C512.533 114.615 397.918 0 256.533 0C115.148 0 0.533203 114.615 0.533203 256C0.533203 397.385 115.148 512 256.533 512Z" fill="#FCFCFC"/>
<path d="M401.23 222.609C393.439 222.609 383.792 222.609 367.839 222.609C367.839 284.081 318.005 333.913 256.535 333.913C195.062 333.913 145.231 284.081 145.231 222.609C134.471 222.609 122.598 222.609 111.84 222.609C111.84 288.824 156.316 344.651 217.026 361.844C210.37 374.488 211.384 390.407 220.892 402.272C233.38 392.263 246.309 381.902 257.277 373.114C268.245 381.903 281.175 392.264 293.662 402.272C303.264 390.289 304.209 374.168 297.332 361.463C357.377 343.848 401.23 288.353 401.23 222.609V222.609Z" fill="#6DA544"/>
<path d="M167.49 211.478C167.49 211.478 167.49 267.13 223.142 267.13L234.272 278.26H256.533C256.533 278.26 267.663 244.869 289.924 244.869C289.924 244.869 289.924 222.608 312.185 222.608C334.446 222.608 345.576 222.608 345.576 222.608C345.576 222.608 334.446 178.086 390.098 144.695L367.837 133.565C367.837 133.565 289.924 189.217 234.272 178.087V200.348H212.011L200.881 189.218L167.49 211.478Z" fill="#FFDA44"/>
</g>
<defs>
<clipPath id="clip0_224_13118">
<rect width="512" height="512" fill="white" transform="translate(0.533203)"/>
</clipPath>
</defs>
</svg>
