<svg width="513" height="512" viewBox="0 0 513 512" fill="none" xmlns="http://www.w3.org/2000/svg">
<g clip-path="url(#clip0_224_13729)">
<path d="M256.531 512C397.916 512 512.531 397.385 512.531 256C512.531 114.615 397.916 0 256.531 0C115.146 0 0.53125 114.615 0.53125 256C0.53125 397.385 115.146 512 256.531 512Z" fill="#F0F0F0"/>
<path d="M512.532 256C512.532 154.506 453.467 66.8099 367.836 25.4019V486.597C453.467 445.19 512.532 357.494 512.532 256V256Z" fill="#D80027"/>
<path d="M0.53125 256C0.53125 357.494 59.5963 445.19 145.227 486.598V25.4019C59.5963 66.8099 0.53125 154.506 0.53125 256Z" fill="#6DA544"/>
<path d="M189.75 256C189.75 292.883 219.65 322.783 256.533 322.783C293.416 322.783 323.316 292.883 323.316 256V233.739H189.75V256Z" fill="#6DA544"/>
<path d="M345.572 211.478H278.789C278.789 199.184 268.822 189.217 256.528 189.217C244.234 189.217 234.267 199.184 234.267 211.478H167.484C167.484 223.773 178.193 233.739 190.486 233.739H189.745C189.745 246.034 199.711 256 212.006 256C212.006 268.295 221.972 278.261 234.267 278.261H278.789C291.084 278.261 301.05 268.295 301.05 256C313.345 256 323.311 246.034 323.311 233.739H322.569C334.864 233.739 345.572 223.773 345.572 211.478Z" fill="#FF9811"/>
</g>
<defs>
<clipPath id="clip0_224_13729">
<rect width="512" height="512" fill="white" transform="translate(0.53125)"/>
</clipPath>
</defs>
</svg>
