<svg width="25" height="24" viewBox="0 0 25 24" fill="none" xmlns="http://www.w3.org/2000/svg">
<g clip-path="url(#clip0_372_5839)">
<path d="M12.5 24C19.1274 24 24.5 18.6274 24.5 12C24.5 5.37258 19.1274 0 12.5 0C5.87258 0 0.5 5.37258 0.5 12C0.5 18.6274 5.87258 24 12.5 24Z" fill="#F0F0F0"/>
<path d="M7.28262 16.1739L8.32611 23.2537C9.62605 23.7361 11.0322 24 12.5 24C17.6595 24 22.0581 20.7435 23.7536 16.1739H7.28262Z" fill="black"/>
<path d="M7.28262 7.82611L8.32611 0.746297C9.62605 0.263906 11.0322 0 12.5 0C17.6595 0 22.0581 3.2565 23.7536 7.82611H7.28262Z" fill="#6DA544"/>
<path d="M0.5 12C0.5 17.1596 3.75655 21.5581 8.32611 23.2536V0.746399C3.75655 2.44191 0.5 6.84043 0.5 12Z" fill="#A2001D"/>
</g>
<defs>
<clipPath id="clip0_372_5839">
<rect width="24" height="24" fill="white" transform="translate(0.5)"/>
</clipPath>
</defs>
</svg>
