<svg width="513" height="512" viewBox="0 0 513 512" fill="none" xmlns="http://www.w3.org/2000/svg">
<g clip-path="url(#clip0_224_14307)">
<path d="M25.9801 144.697C9.70613 178.353 0.578125 216.11 0.578125 256.001C0.578125 295.892 9.70613 333.649 25.9801 367.305L256.578 389.566L487.176 367.305C503.45 333.649 512.578 295.892 512.578 256.001C512.578 216.11 503.45 178.353 487.176 144.697L256.578 122.436L25.9801 144.697Z" fill="#F0F0F0"/>
<path d="M25.9893 367.305C67.3953 452.936 155.084 512.001 256.578 512.001C358.072 512.001 445.761 452.936 487.167 367.305H25.9893Z" fill="black"/>
<path d="M25.9893 144.696H487.167C445.761 59.065 358.072 0 256.578 0C155.084 0 67.3953 59.065 25.9893 144.696Z" fill="#D80027"/>
<path d="M75.5576 74.9805C-24.4164 174.954 -24.4164 337.045 75.5576 437.02C116.871 395.707 156.604 355.974 256.578 256L75.5576 74.9805Z" fill="#496E2D"/>
</g>
<defs>
<clipPath id="clip0_224_14307">
<rect width="512" height="512" fill="white" transform="translate(0.578125)"/>
</clipPath>
</defs>
</svg>
