<svg width="512" height="512" viewBox="0 0 512 512" fill="none" xmlns="http://www.w3.org/2000/svg">
<g clip-path="url(#clip0_224_14190)">
<path d="M233.739 278.261C233.739 278.261 75.1305 74.945 74.9805 74.981C121.306 28.654 185.307 0 256 0C397.384 0 512 114.616 512 256L233.739 278.261Z" fill="#D80027"/>
<path d="M233.739 256C233.739 256 75.1305 437.055 74.9805 437.019C121.306 483.346 185.307 512 256 512C397.384 512 512 397.384 512 256H233.739Z" fill="#0052B4"/>
<path d="M74.9795 74.9805C-24.9945 174.954 -24.9945 337.045 74.9795 437.02C116.293 395.707 156.026 355.974 256 256L74.9795 74.9805Z" fill="#F0F0F0"/>
<path d="M28.0612 256.002C27.9212 257.84 27.8262 259.692 27.8262 261.566C27.8262 301.522 60.2182 333.914 100.174 333.914C140.13 333.914 172.522 301.522 172.522 261.566C172.522 259.692 172.427 257.839 172.287 256.002H28.0612Z" fill="#FFDA44"/>
<path d="M100.174 222.61C112.468 222.61 122.435 212.643 122.435 200.349C122.435 188.054 112.468 178.088 100.174 178.088C87.8797 178.088 77.9131 188.054 77.9131 200.349C77.9131 212.643 87.8797 222.61 100.174 222.61Z" fill="#FFDA44"/>
<path d="M50.0869 194.783V267.131C50.0869 305.471 100.174 317.218 100.174 317.218C100.174 317.218 150.261 305.471 150.261 267.131V194.783H50.0869Z" fill="#D80027"/>
<path d="M100.198 293.92C90.9057 290.576 72.3467 282.03 72.3467 267.13V217.043H128V267.13C128 282.079 109.443 290.604 100.198 293.92Z" fill="#338AF3"/>
<path d="M111.304 244.87V233.739L100.174 228.174L89.0425 233.739V244.87L83.4775 250.435V272.696H116.87V250.435L111.304 244.87Z" fill="#F3F3F3"/>
</g>
<defs>
<clipPath id="clip0_224_14190">
<rect width="512" height="512" fill="white"/>
</clipPath>
</defs>
</svg>
