<svg width="513" height="512" viewBox="0 0 513 512" fill="none" xmlns="http://www.w3.org/2000/svg">
<g clip-path="url(#clip0_224_13283)">
<path d="M256.533 512C397.918 512 512.533 397.385 512.533 256C512.533 114.615 397.918 0 256.533 0C115.148 0 0.533203 114.615 0.533203 256C0.533203 397.385 115.148 512 256.533 512Z" fill="#F0F0F0"/>
<path d="M512.533 256C512.533 145.929 443.061 52.094 345.576 15.923V496.078C443.061 459.906 512.533 366.071 512.533 256V256Z" fill="#D80027"/>
<path d="M0.533203 256C0.533203 366.071 70.0062 459.906 167.49 496.077V15.923C70.0062 52.094 0.533203 145.929 0.533203 256Z" fill="#0052B4"/>
</g>
<defs>
<clipPath id="clip0_224_13283">
<rect width="512" height="512" fill="white" transform="translate(0.533203)"/>
</clipPath>
</defs>
</svg>
