<svg width="512" height="512" viewBox="0 0 512 512" fill="none" xmlns="http://www.w3.org/2000/svg">
<g clip-path="url(#clip0_224_13220)">
<path d="M233.739 233.738C233.739 233.738 75.13 437.055 74.98 437.018C121.306 483.345 185.307 511.999 256 511.999C397.384 511.999 512 397.383 512 255.999L233.739 233.738Z" fill="#338AF3"/>
<path d="M233.739 256C233.739 256 75.13 74.945 74.98 74.981C121.306 28.654 185.307 0 256 0C397.384 0 512 114.616 512 256H233.739Z" fill="#6DA544"/>
<path d="M74.98 74.9805C-24.994 174.954 -24.994 337.045 74.98 437.02C74.973 437.061 512 256 512 256L74.98 74.9805Z" fill="#D80027"/>
<path d="M133.565 150.262C84.466 150.262 44.522 190.207 44.522 239.305V272.696C44.522 321.795 84.467 361.739 133.565 361.739C182.663 361.739 222.608 321.794 222.608 272.696V239.305C222.609 190.207 182.664 150.262 133.565 150.262ZM189.217 272.697C189.217 297.569 172.815 318.678 150.26 325.787V289.393L173.884 265.769L150.273 242.158L150.26 233.755V222.611H116.87V256.001L93.262 279.608L116.87 303.215V325.788C94.315 318.679 77.913 297.57 77.913 272.698V239.307C77.913 208.62 102.879 183.655 133.565 183.655C164.251 183.655 189.217 208.621 189.217 239.307V272.697Z" fill="#FFDA44"/>
</g>
<defs>
<clipPath id="clip0_224_13220">
<rect width="512" height="512" fill="white"/>
</clipPath>
</defs>
</svg>
