<svg width="25" height="24" viewBox="0 0 25 24" fill="none" xmlns="http://www.w3.org/2000/svg">
<g clip-path="url(#clip0_372_5825)">
<path d="M12.5 24C19.1274 24 24.5 18.6274 24.5 12C24.5 5.37258 19.1274 0 12.5 0C5.87258 0 0.5 5.37258 0.5 12C0.5 18.6274 5.87258 24 12.5 24Z" fill="#F0F0F0"/>
<path d="M23.7536 7.82611H1.24639C0.764 9.1261 0.5 10.5322 0.5 12C0.5 13.4678 0.764 14.8739 1.24639 16.1739H23.7537C24.236 14.8739 24.5 13.4678 24.5 12C24.5 10.5322 24.236 9.1261 23.7536 7.82611Z" fill="#0052B4"/>
<path d="M12.5 0C8.86293 0 5.60404 1.61831 3.4034 4.17389H21.5966C19.396 1.61831 16.1371 0 12.5 0Z" fill="#D80027"/>
<path d="M21.5966 19.8261H3.4034C5.60404 22.3817 8.86293 24 12.5 24C16.1371 24 19.396 22.3817 21.5966 19.8261Z" fill="#D80027"/>
</g>
<defs>
<clipPath id="clip0_372_5825">
<rect width="24" height="24" fill="white" transform="translate(0.5)"/>
</clipPath>
</defs>
</svg>
