<svg width="513" height="512" viewBox="0 0 513 512" fill="none" xmlns="http://www.w3.org/2000/svg">
<g clip-path="url(#clip0_224_14057)">
<path d="M256.531 512C397.916 512 512.531 397.385 512.531 256C512.531 114.615 397.916 0 256.531 0C115.146 0 0.53125 114.615 0.53125 256C0.53125 397.385 115.146 512 256.531 512Z" fill="#F0F0F0"/>
<path d="M496.608 345.043C506.899 317.31 512.531 287.314 512.531 256C512.531 224.686 506.899 194.69 496.608 166.957H16.4543C6.16425 194.69 0.53125 224.686 0.53125 256C0.53125 287.314 6.16425 317.31 16.4543 345.043L256.531 367.304L496.608 345.043Z" fill="#0052B4"/>
<path d="M256.53 512C366.601 512 460.436 442.528 496.607 345.043H16.4531C52.6241 442.528 146.459 512 256.53 512Z" fill="#D80027"/>
</g>
<defs>
<clipPath id="clip0_224_14057">
<rect width="512" height="512" fill="white" transform="translate(0.53125)"/>
</clipPath>
</defs>
</svg>
