<svg width="513" height="512" viewBox="0 0 513 512" fill="none" xmlns="http://www.w3.org/2000/svg">
<g clip-path="url(#clip0_224_13280)">
<path d="M256.533 512C397.918 512 512.533 397.385 512.533 256C512.533 114.615 397.918 0 256.533 0C115.148 0 0.533203 114.615 0.533203 256C0.533203 397.385 115.148 512 256.533 512Z" fill="#F0F0F0"/>
<path d="M510.366 222.609H200.882H200.881V6.08496C177.223 11.331 154.794 19.834 134.098 31.127V222.607V222.608H2.7002C1.2752 233.539 0.533203 244.683 0.533203 256C0.533203 267.317 1.2752 278.461 2.7002 289.391H134.097H134.098V480.872C154.794 492.164 177.223 500.669 200.881 505.914V289.394V289.392H510.366C511.789 278.461 512.533 267.317 512.533 256C512.533 244.683 511.789 233.539 510.366 222.609V222.609Z" fill="#0052B4"/>
</g>
<defs>
<clipPath id="clip0_224_13280">
<rect width="512" height="512" fill="white" transform="translate(0.533203)"/>
</clipPath>
</defs>
</svg>
