<svg width="513" height="512" viewBox="0 0 513 512" fill="none" xmlns="http://www.w3.org/2000/svg">
<g clip-path="url(#clip0_224_12654)">
<path d="M512.531 256C512.531 224.686 506.899 194.689 496.608 166.957L256.531 155.826L16.4543 166.956C6.16425 194.689 0.53125 224.686 0.53125 256C0.53125 287.314 6.16425 317.311 16.4543 345.043L256.531 356.174L496.608 345.044C506.899 317.311 512.531 287.314 512.531 256Z" fill="#D80027"/>
<path d="M256.53 512C366.601 512 460.436 442.528 496.607 345.043H16.4531C52.6241 442.528 146.459 512 256.53 512Z" fill="#6DA544"/>
<path d="M16.4531 166.957H496.608C460.436 69.472 366.601 0 256.53 0C146.459 0 52.6241 69.472 16.4531 166.957V166.957Z" fill="#338AF3"/>
<path d="M262.096 328.348C222.14 328.348 189.748 295.956 189.748 256C189.748 216.044 222.14 183.652 262.096 183.652C274.554 183.652 286.277 186.802 296.511 192.348C280.455 176.647 258.499 166.956 234.27 166.956C185.092 166.956 145.227 206.822 145.227 255.999C145.227 305.176 185.093 345.042 234.27 345.042C258.5 345.042 280.456 335.351 296.511 319.65C286.277 325.198 274.554 328.348 262.096 328.348Z" fill="#F0F0F0"/>
<path d="M317.747 205.913L327.33 232.864L353.164 220.582L340.883 246.416L367.834 256L340.883 265.584L353.164 291.418L327.33 279.136L317.747 306.087L308.165 279.136L282.33 291.418L294.612 265.584L267.66 256L294.612 246.416L282.33 220.582L308.165 232.864L317.747 205.913Z" fill="#F0F0F0"/>
</g>
<defs>
<clipPath id="clip0_224_12654">
<rect width="512" height="512" fill="white" transform="translate(0.53125)"/>
</clipPath>
</defs>
</svg>
