<svg width="512" height="512" viewBox="0 0 512 512" fill="none" xmlns="http://www.w3.org/2000/svg">
<g clip-path="url(#clip0_224_14139)">
<path d="M367.304 25.402C333.648 9.128 295.89 0 256 0C216.11 0 178.352 9.128 144.696 25.402L122.435 256L144.696 486.598C178.352 502.872 216.11 512 256 512C295.89 512 333.648 502.872 367.304 486.598L389.565 256L367.304 25.402Z" fill="#FFDA44"/>
<path d="M255.998 166.957L278.098 234.977H349.626L291.762 277.02L313.863 345.043L255.998 303.003L198.133 345.043L220.238 277.02L162.374 234.977H233.897L255.998 166.957Z" fill="#496E2D"/>
<path d="M144.696 25.4102C59.066 66.8172 0 154.506 0 255.999C0 357.492 59.066 445.181 144.696 486.588V25.4102Z" fill="#496E2D"/>
<path d="M367.304 25.4102V486.588C452.934 445.181 512 357.492 512 255.999C512 154.506 452.934 66.8172 367.304 25.4102Z" fill="#D80027"/>
</g>
<defs>
<clipPath id="clip0_224_14139">
<rect width="512" height="512" fill="white"/>
</clipPath>
</defs>
</svg>
