<svg width="513" height="512" viewBox="0 0 513 512" fill="none" xmlns="http://www.w3.org/2000/svg">
<g clip-path="url(#clip0_224_13493)">
<path d="M256.531 512C397.916 512 512.531 397.385 512.531 256C512.531 114.615 397.916 0 256.531 0C115.146 0 0.53125 114.615 0.53125 256C0.53125 397.385 115.146 512 256.531 512Z" fill="#F0F0F0"/>
<path d="M512.531 256C512.531 145.929 443.059 52.0939 345.574 15.9229V496.078C443.059 459.906 512.531 366.071 512.531 256V256Z" fill="#D80027"/>
<path d="M0.53125 256C0.53125 366.071 70.0033 459.906 167.488 496.077V15.9229C70.0033 52.0939 0.53125 145.929 0.53125 256Z" fill="#6DA544"/>
</g>
<defs>
<clipPath id="clip0_224_13493">
<rect width="512" height="512" fill="white" transform="translate(0.53125)"/>
</clipPath>
</defs>
</svg>
