<svg width="512" height="512" viewBox="0 0 512 512" fill="none" xmlns="http://www.w3.org/2000/svg">
<g clip-path="url(#clip0_224_14092)">
<path d="M512 256C512 397.384 397.384 512 256 512C114.616 512 0 397.384 0 256C11.13 256 256 222.609 256 222.609L512 256Z" fill="#338AF3"/>
<path d="M0 256C0 114.616 114.616 0 256 0C397.384 0 512 114.616 512 256" fill="#F0F0F0"/>
<path d="M357.616 176.645L256 278.262L154.384 176.645C141.243 196.152 133.566 219.631 133.566 244.87V278.261C133.566 331.877 168.211 377.55 216.288 394.081C209.871 406.657 210.953 422.352 220.356 434.087C232.844 424.078 245.773 413.717 256.741 404.929C267.709 413.718 280.639 424.079 293.126 434.087C302.639 422.215 303.643 406.285 296.973 393.635C344.393 376.745 378.434 331.407 378.434 278.261V244.871C378.435 219.631 370.757 196.153 357.616 176.645Z" fill="#6DA544"/>
<path d="M256 367.303C206.901 367.303 166.957 327.358 166.957 278.26V244.869C166.957 195.77 206.902 155.826 256 155.826C305.098 155.826 345.043 195.771 345.043 244.869V278.26C345.043 327.358 305.099 367.303 256 367.303Z" fill="#FFDA44"/>
<path d="M311.652 278.262V244.871C311.652 214.184 286.686 189.219 256 189.219C225.314 189.219 200.348 214.185 200.348 244.871V278.262L256 289.392L311.652 278.262Z" fill="#338AF3"/>
<path d="M200.348 278.262C200.348 308.949 225.314 333.914 256 333.914C286.686 333.914 311.652 308.948 311.652 278.262H200.348Z" fill="#6DA544"/>
<path d="M322.784 155.826C322.784 137.385 307.834 122.435 289.393 122.435C280.838 122.435 273.041 125.655 267.132 130.944V111.304H278.262V89.0431H267.132V77.9131H244.871V89.0431H233.741V111.304H244.871V130.944C238.962 125.655 231.164 122.435 222.61 122.435C204.169 122.435 189.219 137.385 189.219 155.826C189.219 165.713 193.52 174.593 200.349 180.708V200.348H311.653V180.708C318.483 174.593 322.784 165.713 322.784 155.826Z" fill="#FFDA44"/>
</g>
<defs>
<clipPath id="clip0_224_14092">
<rect width="512" height="512" fill="white"/>
</clipPath>
</defs>
</svg>
