<svg width="512" height="512" viewBox="0 0 512 512" fill="none" xmlns="http://www.w3.org/2000/svg">
<g clip-path="url(#clip0_224_14612)">
<path d="M486.598 367.305C502.873 333.649 512 295.892 512 256.001C512 216.11 502.873 178.353 486.598 144.697L256 122.436L25.402 144.697C9.127 178.353 0 216.11 0 256.001C0 295.892 9.127 333.649 25.402 367.305L256 389.566L486.598 367.305Z" fill="#0052B4"/>
<path d="M256 512.001C357.493 512.001 445.19 452.936 486.598 367.305H25.4023C66.8103 452.936 154.506 512.001 256 512.001Z" fill="#D80027"/>
<path d="M443.367 306.253L429.846 316.819L435.714 332.94L421.487 323.347L407.965 333.911L412.693 317.416L398.468 307.82L415.617 307.222L420.349 290.727L426.219 306.851L443.367 306.253Z" fill="#F0F0F0"/>
<path d="M408.741 246.283L399.65 260.836L410.681 273.978L394.03 269.832L384.936 284.381L383.737 267.264L367.088 263.111L383 256.682L381.804 239.564L392.833 252.711L408.741 246.283Z" fill="#F0F0F0"/>
<path d="M355.694 201.77L352.128 218.555L366.988 227.135L349.923 228.934L346.355 245.714L339.375 230.04L322.308 231.831L335.062 220.349L328.083 204.675L342.943 213.253L355.694 201.77Z" fill="#F0F0F0"/>
<path d="M290.622 178.088L293.013 195.081L309.91 198.059L294.488 205.585L296.877 222.577L284.957 210.233L269.531 217.755L277.589 202.602L265.668 190.26L282.568 193.239L290.622 178.088Z" fill="#F0F0F0"/>
<path d="M221.377 178.088L229.434 193.239L246.33 190.258L234.413 202.605L242.466 217.757L227.044 210.233L215.122 222.574L217.513 205.585L202.09 198.063L218.989 195.081L221.377 178.088Z" fill="#F0F0F0"/>
<path d="M156.305 201.77L169.059 213.253L183.916 204.675L176.939 220.355L189.69 231.835L172.625 230.04L165.643 245.714L162.08 228.931L145.014 227.139L159.874 218.557L156.305 201.77Z" fill="#F0F0F0"/>
<path d="M103.258 246.282L119.171 252.71L130.197 239.566L129.004 256.687L144.912 263.116L128.263 267.265L127.064 284.38L117.974 269.831L101.323 273.98L112.353 260.835L103.258 246.282Z" fill="#F0F0F0"/>
<path d="M68.6338 306.253L85.7858 306.851L91.6518 290.729L96.3868 307.225L113.534 307.824L99.3078 317.42L104.036 333.914L90.5158 323.35L76.2888 332.943L82.1578 316.819L68.6338 306.253Z" fill="#F0F0F0"/>
<path d="M486.598 144.696C445.19 59.065 357.493 0 256 0C154.506 0 66.8103 59.065 25.4023 144.696H486.598Z" fill="#FFDA44"/>
</g>
<defs>
<clipPath id="clip0_224_14612">
<rect width="512" height="512" fill="white"/>
</clipPath>
</defs>
</svg>
