<svg width="512" height="512" viewBox="0 0 512 512" fill="none" xmlns="http://www.w3.org/2000/svg">
<g clip-path="url(#clip0_224_14440)">
<path d="M255.999 0C236.885 0 218.266 2.113 200.348 6.085L189.218 255.999L200.348 505.914C218.267 509.886 236.886 512 255.999 512C397.384 512 511.999 397.384 511.999 255.999C511.998 114.615 397.384 0 255.999 0V0Z" fill="#496E2D"/>
<path d="M66.783 83.5703C25.299 129.066 0.000976562 189.576 0.000976562 255.998C0.000976562 322.42 25.3 382.93 66.784 428.428L77.914 255.998L66.783 83.5703Z" fill="#496E2D"/>
<path d="M374.422 193.1C387.017 157.994 372.867 119.813 342.5 100.797C347.962 101.508 353.43 102.794 358.826 104.729C399.329 119.261 420.383 163.873 405.851 204.375C391.319 244.88 346.707 265.932 306.204 251.4C300.807 249.464 295.768 246.979 291.101 244.056C326.631 248.683 361.827 228.206 374.422 193.1Z" fill="#F0F0F0"/>
<path d="M304.564 91.1738L293.619 105.316L276.79 99.2768L286.856 114.055L275.913 128.195L293.078 123.189L303.146 137.965L303.686 120.093L320.852 115.086L304.023 109.049L304.564 91.1738Z" fill="#F0F0F0"/>
<path d="M334.117 137.252L323.172 151.393L306.342 145.354L316.409 160.132L305.465 174.272L322.63 169.264L332.698 184.043L333.24 166.17L350.405 161.162L333.575 155.124L334.117 137.252Z" fill="#F0F0F0"/>
<path d="M252.461 107.955L241.516 122.095L224.687 116.058L234.754 130.835L223.81 144.976L240.974 139.969L251.042 154.746L251.584 136.874L268.749 131.867L251.92 125.828L252.461 107.955Z" fill="#F0F0F0"/>
<path d="M251.26 160.738L240.316 174.879L223.486 168.841L233.554 183.619L222.608 197.759L239.775 192.753L249.842 207.529L250.383 189.657L267.549 184.65L250.718 178.611L251.26 160.738Z" fill="#F0F0F0"/>
<path d="M301.486 178.76L290.541 192.9L273.712 186.862L283.78 201.64L272.834 215.779L290.001 210.773L300.068 225.551L300.609 207.677L317.775 202.671L300.944 196.633L301.486 178.76Z" fill="#F0F0F0"/>
<path d="M66.7832 83.5719V428.429C101.663 466.683 147.993 494.308 200.348 505.914V6.08594C147.992 17.6919 101.664 45.3169 66.7832 83.5719Z" fill="#D80027"/>
<path d="M117.753 134.784L95.3916 118.126V94.5691L117.753 77.9121H149.378L171.739 94.5691V118.126L149.378 134.784H117.753Z" fill="#F0F0F0"/>
<path d="M133.566 77.9121H117.753L95.3916 94.5691V106.086H133.566V77.9121Z" fill="#FF9811"/>
<path d="M133.565 134.784H149.377L171.738 118.126V106.109H133.565V134.784Z" fill="#FF9811"/>
<path d="M117.753 434.085L95.3916 417.427V393.871L117.753 377.213H149.378L171.739 393.871V417.427L149.378 434.085H117.753Z" fill="#F0F0F0"/>
<path d="M133.566 377.213H117.753L95.3916 393.871V405.388H133.566V377.213Z" fill="#FF9811"/>
<path d="M133.565 434.084H149.377L171.738 417.426V405.41H133.565V434.084Z" fill="#FF9811"/>
<path d="M117.754 284.434L95.3926 267.777V244.22L117.754 227.562H149.379L171.74 244.22V267.777L149.379 284.434H117.754Z" fill="#496E2D"/>
<path d="M172.522 321.085H162.782V311.346H145.667L133.565 299.244L121.464 311.346H104.349V321.085H94.6104V340.563H104.349V350.302H121.463L133.566 362.405L145.667 350.302H162.782V340.563H172.522V321.085Z" fill="#496E2D"/>
<path d="M172.522 171.434H162.782V161.694H145.667L133.565 149.592L121.464 161.694H104.349V171.434H94.6104V190.912H104.349V200.651H121.463L133.566 212.755L145.667 200.651H162.782V190.912H172.522V171.434Z" fill="#496E2D"/>
<path d="M122.434 244.867H144.695V267.128H122.434V244.867Z" fill="#D80027"/>
<path d="M133.564 192.299C139.711 192.299 144.694 187.316 144.694 181.169C144.694 175.022 139.711 170.039 133.564 170.039C127.417 170.039 122.434 175.022 122.434 181.169C122.434 187.316 127.417 192.299 133.564 192.299Z" fill="#D80027"/>
<path d="M133.564 341.957C139.711 341.957 144.694 336.974 144.694 330.827C144.694 324.68 139.711 319.697 133.564 319.697C127.417 319.697 122.434 324.68 122.434 330.827C122.434 336.974 127.417 341.957 133.564 341.957Z" fill="#D80027"/>
</g>
<defs>
<clipPath id="clip0_224_14440">
<rect width="512" height="512" fill="white"/>
</clipPath>
</defs>
</svg>
