<svg width="512" height="512" viewBox="387.5 -0.5 513 513" style="enable-background:new 387.5 -0.5 513 513;" xmlns="http://www.w3.org/2000/svg">
	<style type="text/css">
		.st0{fill:#003399;stroke:#000000;stroke-miterlimit:10;}
		.st1{fill:#FFCC00;}
	</style>
	<circle class="st0" cx="644" cy="256" r="246"/>
	<g>
		<polygon class="st1" points="650.8,410.8 644,389.9 637.2,410.8 615.2,410.8 633,423.7 626.2,444.6 644,431.7 661.8,444.6 
			655,423.7 672.8,410.8 	"/>
		<polygon class="st1" points="644,67.4 637.2,88.3 615.2,88.3 633,101.2 626.2,122.1 644,109.2 661.8,122.1 655,101.2 672.8,88.3 
			650.8,88.3 	"/>
		<polygon class="st1" points="570.2,389.2 563.4,368.3 556.6,389.2 534.6,389.2 552.4,402.1 545.6,423 563.4,410.1 581.1,423 
			574.4,402.1 592.1,389.2 	"/>
		<polygon class="st1" points="511.1,330.2 504.4,309.3 497.6,330.2 475.6,330.2 493.4,343.1 486.6,364 504.4,351.1 522.1,364 
			515.3,343.1 533.1,330.2 	"/>
		<polygon class="st1" points="482.8,270.4 500.5,283.3 493.7,262.5 511.5,249.5 489.5,249.5 482.8,228.7 476,249.5 454,249.5 
			471.8,262.5 465,283.3 	"/>
		<polygon class="st1" points="504.4,148 497.6,168.9 475.6,168.9 493.4,181.8 486.6,202.7 504.4,189.8 522.1,202.7 515.3,181.8 
			533.1,168.9 511.1,168.9 	"/>
		<polygon class="st1" points="563.4,89 556.6,109.9 534.6,109.9 552.4,122.8 545.6,143.7 563.4,130.8 581.1,143.7 574.4,122.8 
			592.1,109.9 570.2,109.9 	"/>
		<polygon class="st1" points="731.4,389.2 724.6,368.3 717.8,389.2 695.9,389.2 713.6,402.1 706.9,423 724.6,410.1 742.4,423 
			735.6,402.1 753.4,389.2 	"/>
		<polygon class="st1" points="790.4,330.2 783.6,309.3 776.9,330.2 754.9,330.2 772.7,343.1 765.9,364 783.6,351.1 801.4,364 
			794.6,343.1 812.4,330.2 	"/>
		<polygon class="st1" points="834,249.5 812,249.5 805.2,228.7 798.5,249.5 776.5,249.5 794.3,262.5 787.5,283.3 805.2,270.4 
			823,283.3 816.2,262.5 	"/>
		<polygon class="st1" points="765.9,202.7 783.6,189.8 801.4,202.7 794.6,181.8 812.4,168.9 790.4,168.9 783.6,148 776.9,168.9 
			754.9,168.9 772.7,181.8 	"/>
		<polygon class="st1" points="724.6,89 717.8,109.9 695.9,109.9 713.6,122.8 706.9,143.7 724.6,130.8 742.4,143.7 735.6,122.8 
			753.4,109.9 731.4,109.9 	"/>
	</g>
</svg>
