<svg width="513" height="512" viewBox="0 0 513 512" fill="none" xmlns="http://www.w3.org/2000/svg">
<g clip-path="url(#clip0_224_13012)">
<path d="M256.533 512C397.918 512 512.533 397.385 512.533 256C512.533 114.615 397.918 0 256.533 0C115.148 0 0.533203 114.615 0.533203 256C0.533203 397.385 115.148 512 256.533 512Z" fill="#D80027"/>
<path d="M140.633 155.8L162.733 223.8H234.233L176.433 265.9L198.533 333.9L140.633 291.9L82.7332 333.9L104.933 265.9L47.0332 223.8H118.533L140.633 155.8Z" fill="#FFDA44"/>
<path d="M304.032 396.5L287.132 375.7L262.132 385.4L276.632 362.9L259.732 342L285.632 348.9L300.232 326.4L301.632 353.2L327.632 360.1L302.532 369.7L304.032 396.5Z" fill="#FFDA44"/>
<path d="M337.632 335.5L345.632 309.9L323.732 294.4L350.532 294L358.432 268.4L367.132 293.8L393.932 293.5L372.432 309.5L381.032 334.9L359.132 319.4L337.632 335.5Z" fill="#FFDA44"/>
<path d="M382.934 187.9L371.134 212L390.334 230.7L363.834 226.9L352.034 250.9L347.434 224.5L320.834 220.7L344.634 208.2L340.034 181.7L359.234 200.4L382.934 187.9Z" fill="#FFDA44"/>
<path d="M304.734 114.9L302.734 141.6L327.634 151.7L301.534 158.1L299.634 184.9L285.534 162.1L259.434 168.5L276.734 148L262.534 125.3L287.434 135.4L304.734 114.9Z" fill="#FFDA44"/>
</g>
<defs>
<clipPath id="clip0_224_13012">
<rect width="512" height="512" fill="white" transform="translate(0.533203)"/>
</clipPath>
</defs>
</svg>
