<svg width="512" height="513" viewBox="0 0 512 513" fill="none" xmlns="http://www.w3.org/2000/svg">
<g clip-path="url(#clip0_224_14550)">
<path d="M256 512.582C397.385 512.582 512 397.967 512 256.582C512 115.197 397.385 0.582031 256 0.582031C114.615 0.582031 0 115.197 0 256.582C0 397.967 114.615 512.582 256 512.582Z" fill="#F0F0F0"/>
<path d="M256 189.799H503.181C496.762 165.985 487.006 143.544 474.426 123.016H256V189.799Z" fill="#338AF3"/>
<path d="M96.6432 456.929H415.356C438.719 438.321 458.755 415.719 474.425 390.146H37.5742C53.2452 415.718 73.2812 438.321 96.6432 456.929Z" fill="#338AF3"/>
<path d="M256 0.582031V56.234H415.357C371.627 21.406 316.249 0.582031 256 0.582031Z" fill="#338AF3"/>
<path d="M256 189.799H503.181C496.762 165.985 487.006 143.544 474.426 123.016H256V189.799Z" fill="#338AF3"/>
<path d="M0 256.582C0 279.689 3.08 302.071 8.819 323.365H503.182C508.92 302.071 512 279.689 512 256.582H0Z" fill="#338AF3"/>
<path d="M222.609 150.403L191.343 165.11L207.992 195.39L174.042 188.896L169.74 223.191L146.094 197.967L122.446 223.191L118.145 188.896L84.1951 195.388L100.843 165.109L69.5791 150.403L100.844 135.698L84.1951 105.418L118.144 111.912L122.447 77.6172L146.094 102.841L169.741 77.6172L174.042 111.912L207.993 105.418L191.344 135.699L222.609 150.403Z" fill="#FFDA44"/>
</g>
<defs>
<clipPath id="clip0_224_14550">
<rect width="512" height="512" fill="white" transform="translate(0 0.582031)"/>
</clipPath>
</defs>
</svg>
