<svg width="513" height="512" viewBox="0 0 513 512" fill="none" xmlns="http://www.w3.org/2000/svg">
<g clip-path="url(#clip0_224_12633)">
<path d="M512.533 256C512.533 397.384 397.917 512 256.533 512C115.149 512 0.533203 397.384 0.533203 256C0.533203 256.06 256.533 0.029 256.533 0C397.917 0 512.533 114.616 512.533 256Z" fill="#0052B4"/>
<path d="M256.533 0C256.519 0 256.504 0.001 256.49 0.001L256.533 0Z" fill="#F0F0F0"/>
<path d="M255.848 256H256.533C256.533 255.768 256.533 255.546 256.533 255.315C256.305 255.544 256.077 255.772 255.848 256Z" fill="#F0F0F0"/>
<path d="M256.533 133.566C256.533 88.521 256.533 59.004 256.533 0.000976562H256.49C115.125 0.0239766 0.533203 114.629 0.533203 256H134.098V180.788L209.31 256H255.849C256.078 255.772 256.306 255.544 256.534 255.315C256.534 238.068 256.534 222.679 256.534 208.779L181.321 133.566H256.533Z" fill="#F0F0F0"/>
<path d="M130.048 33.3911C90.0088 56.1901 56.7228 89.4761 33.9238 129.515V256H100.707V100.175V100.174H256.533C256.533 79.1111 256.533 59.0451 256.533 33.3911H130.048Z" fill="#D80027"/>
<path d="M256.534 224.519L165.581 133.567H134.1C134.1 133.566 134.1 133.567 134.1 133.567L256.533 256H256.534C256.534 256 256.534 234.295 256.534 224.519Z" fill="#D80027"/>
<path d="M154.929 300.522L168.979 329.9L200.706 322.567L186.498 351.869L212.012 372.102L180.245 379.262L180.334 411.826L154.929 391.453L129.525 411.826L129.614 379.262L97.8457 372.102L123.361 351.869L109.151 322.567L140.88 329.9L154.929 300.522Z" fill="#F0F0F0"/>
<path d="M383.818 356.174L390.843 370.863L406.707 367.196L399.602 381.847L412.36 391.964L396.476 395.544L396.52 411.826L383.818 401.639L371.116 411.826L371.16 395.544L355.277 391.964L368.034 381.847L360.93 367.196L376.793 370.863L383.818 356.174Z" fill="#F0F0F0"/>
<path d="M318.466 200.348L325.49 215.038L341.354 211.37L334.25 226.021L347.007 236.138L331.124 239.718L331.167 256L318.466 245.813L305.764 256L305.807 239.718L289.924 236.138L302.681 226.021L295.577 211.37L311.441 215.038L318.466 200.348Z" fill="#F0F0F0"/>
<path d="M383.818 111.304L390.843 125.994L406.707 122.327L399.603 136.978L412.359 147.094L396.476 150.675L396.52 166.957L383.818 156.77L371.116 166.957L371.16 150.675L355.277 147.094L368.033 136.978L360.93 122.327L376.793 125.994L383.818 111.304Z" fill="#F0F0F0"/>
<path d="M440.901 178.087L447.925 192.777L463.789 189.109L456.685 203.76L469.442 213.877L453.558 217.458L453.602 233.739L440.901 223.553L428.199 233.739L428.242 217.458L412.359 213.877L425.116 203.76L418.012 189.109L433.875 192.777L440.901 178.087Z" fill="#F0F0F0"/>
<path d="M400.083 256L405.608 273.006H423.49L409.023 283.517L414.55 300.522L400.083 290.012L385.617 300.522L391.142 283.517L376.676 273.006H394.557L400.083 256Z" fill="#F0F0F0"/>
</g>
<defs>
<clipPath id="clip0_224_12633">
<rect width="512" height="512" fill="white" transform="translate(0.533203)"/>
</clipPath>
</defs>
</svg>
