<svg width="25" height="24" viewBox="0 0 25 24" fill="none" xmlns="http://www.w3.org/2000/svg">
<g clip-path="url(#clip0_372_5723)">
<path d="M12.5 24C19.1274 24 24.5 18.6274 24.5 12C24.5 5.37258 19.1274 0 12.5 0C5.87258 0 0.5 5.37258 0.5 12C0.5 18.6274 5.87258 24 12.5 24Z" fill="#F0F0F0"/>
<path d="M0.5 12C0.5 5.37263 5.87262 0 12.5 0C19.1274 0 24.5 5.37263 24.5 12" fill="#D80027"/>
<path d="M7.80434 6.26081C7.80434 4.51247 9.03307 3.05194 10.6739 2.69358C10.4217 2.63855 10.1601 2.60869 9.89126 2.60869C7.87418 2.60869 6.23909 4.24378 6.23909 6.26086C6.23909 8.27794 7.87418 9.91303 9.89126 9.91303C10.16 9.91303 10.4217 9.88317 10.6739 9.82809C9.03307 9.46974 7.80434 8.0092 7.80434 6.26081Z" fill="#F0F0F0"/>
<path d="M12.5 2.86955L12.759 3.66666H13.5972L12.9191 4.15937L13.1781 4.95647L12.5 4.46386L11.8219 4.95647L12.0809 4.15937L11.4028 3.66666H12.241L12.5 2.86955Z" fill="#F0F0F0"/>
<path d="M10.4668 4.43475L10.7258 5.23191H11.5639L10.8859 5.72457L11.1449 6.52168L10.4668 6.02907L9.7886 6.52168L10.0477 5.72457L9.36954 5.23191H10.2077L10.4668 4.43475Z" fill="#F0F0F0"/>
<path d="M14.5333 4.43475L14.7923 5.23191H15.6305L14.9523 5.72457L15.2114 6.52168L14.5333 6.02907L13.8552 6.52168L14.1142 5.72457L13.4361 5.23191H14.2742L14.5333 4.43475Z" fill="#F0F0F0"/>
<path d="M13.7507 6.78258L14.0097 7.57973H14.8478L14.1697 8.07239L14.4288 8.8695L13.7507 8.37689L13.0726 8.8695L13.3316 8.07239L12.6535 7.57973H13.4916L13.7507 6.78258Z" fill="#F0F0F0"/>
<path d="M11.2494 6.78258L11.5083 7.57973H12.3466L11.6684 8.07239L11.9275 8.8695L11.2494 8.37689L10.5712 8.8695L10.8303 8.07239L10.1522 7.57973H10.9903L11.2494 6.78258Z" fill="#F0F0F0"/>
</g>
<defs>
<clipPath id="clip0_372_5723">
<rect width="24" height="24" fill="white" transform="translate(0.5)"/>
</clipPath>
</defs>
</svg>
