<svg width="512" height="513" viewBox="0 0 512 513" fill="none" xmlns="http://www.w3.org/2000/svg">
<g clip-path="url(#clip0_224_13229)">
<path d="M0 256.988C0 288.304 5.633 318.3 15.924 346.034L256 368.292L496.076 346.033C506.368 318.3 512 288.303 512 256.988C512 226.103 506.529 196.496 496.506 169.083L256 145.684L15.494 169.084C5.471 196.496 0 226.103 0 256.988H0Z" fill="#FFDA44"/>
<path d="M256 512.988C366.071 512.988 459.906 443.516 496.077 346.031H15.9229C52.0939 443.516 145.929 512.988 256 512.988Z" fill="#D80027"/>
<path d="M256 0.988281C145.929 0.988281 52.0939 70.4603 15.9229 167.945H496.078C459.906 70.4603 366.071 0.988281 256 0.988281Z" fill="#6DA544"/>
<path d="M256 379.423C323.619 379.423 378.435 324.607 378.435 256.988C378.435 189.369 323.619 134.553 256 134.553C188.381 134.553 133.565 189.369 133.565 256.988C133.565 324.607 188.381 379.423 256 379.423Z" fill="#0052B4"/>
<path d="M255.974 162.18L278.076 230.202H349.713L291.735 272.243L314.011 340.467L255.974 298.226L198.026 340.389L220.212 272.243L162.287 230.202H233.872L255.974 162.18Z" fill="#FFDA44"/>
<path d="M344.124 273.918L274.008 251.134L317.341 191.494L299.333 178.408L255.998 238.052L212.667 178.409L194.657 191.493L237.989 251.138L167.876 273.917L174.754 295.09L244.87 272.309V346.031H267.13V272.308L337.243 295.09L344.124 273.918Z" fill="#FFDA44"/>
</g>
<defs>
<clipPath id="clip0_224_13229">
<rect width="512" height="512" fill="white" transform="translate(0 0.988281)"/>
</clipPath>
</defs>
</svg>
