<svg width="512" height="512" viewBox="0 0 512 512" fill="none" xmlns="http://www.w3.org/2000/svg">
<g clip-path="url(#clip0_224_14423)">
<path d="M138.617 28.4258C115.699 40.2548 94.1857 55.7598 74.9737 74.9718C55.7607 94.1848 40.2557 115.698 28.4277 138.616L193.035 318.965L373.384 483.572C396.303 471.743 417.816 456.238 437.028 437.027C456.241 417.814 471.745 396.301 483.574 373.383L318.967 193.033L138.617 28.4258Z" fill="#F0F0F0"/>
<path d="M437.027 437.028C447.766 426.289 457.344 414.83 465.776 402.811L109.191 46.2246C97.1716 54.6556 85.7126 64.2336 74.9736 74.9726C64.2346 85.7116 54.6566 97.1706 46.2246 109.191L402.81 465.775C414.828 457.344 426.288 447.767 437.027 437.028Z" fill="black"/>
<path d="M74.9719 437.026C155.739 517.793 277.036 533.297 373.382 483.571L28.4269 138.615C-21.2981 234.961 -5.79108 356.259 74.9719 437.026Z" fill="#D80027"/>
<path d="M437.027 74.9732C356.26 -5.79279 234.963 -21.2968 138.617 28.4262L483.572 373.384C533.298 277.038 517.794 155.739 437.027 74.9732Z" fill="#D80027"/>
</g>
<defs>
<clipPath id="clip0_224_14423">
<rect width="512" height="512" fill="white"/>
</clipPath>
</defs>
</svg>
