<svg width="513" height="512" viewBox="0 0 513 512" fill="none" xmlns="http://www.w3.org/2000/svg">
<g clip-path="url(#clip0_224_12545)">
<path d="M367.838 25.402C334.182 9.128 296.424 0 256.534 0C216.644 0 178.886 9.128 145.23 25.402L122.969 256L145.23 486.598C178.886 502.872 216.644 512 256.534 512C296.424 512 334.182 502.872 367.838 486.598L390.099 256L367.838 25.402Z" fill="#D80027"/>
<path d="M145.229 25.4111C59.5992 66.8181 0.533203 154.507 0.533203 256C0.533203 357.493 59.5992 445.182 145.229 486.589V25.4111Z" fill="black"/>
<path d="M367.838 25.4111V486.589C453.468 445.182 512.534 357.493 512.534 256C512.534 154.507 453.468 66.8181 367.838 25.4111Z" fill="#496E2D"/>
<path d="M256.533 166.957C207.355 166.957 167.49 206.823 167.49 256C167.49 305.177 207.356 345.043 256.533 345.043C305.71 345.043 345.576 305.177 345.576 256C345.576 206.823 305.711 166.957 256.533 166.957ZM256.533 311.652C225.797 311.652 200.881 286.735 200.881 256C200.881 225.265 225.798 200.348 256.533 200.348C287.268 200.348 312.185 225.265 312.185 256C312.185 286.735 287.269 311.652 256.533 311.652Z" fill="#FFDA44"/>
<path d="M256.532 222.609C244.237 222.609 234.271 232.575 234.271 244.87V278.261H278.793V244.87C278.793 232.575 268.827 222.609 256.532 222.609V222.609Z" fill="#FFDA44"/>
</g>
<defs>
<clipPath id="clip0_224_12545">
<rect width="512" height="512" fill="white" transform="translate(0.533203)"/>
</clipPath>
</defs>
</svg>
