<svg width="513" height="513" viewBox="0 0 513 513" fill="none" xmlns="http://www.w3.org/2000/svg">
<g clip-path="url(#clip0_224_13457)">
<path d="M256.531 512.989C397.916 512.989 512.531 398.374 512.531 256.989C512.531 115.604 397.916 0.989258 256.531 0.989258C115.146 0.989258 0.53125 115.604 0.53125 256.989C0.53125 398.374 115.146 512.989 256.531 512.989Z" fill="#F0F0F0"/>
<path d="M256.532 0.989258C155.038 0.989258 67.3416 60.0543 25.9336 145.685H487.129C445.722 60.0543 358.025 0.989258 256.532 0.989258V0.989258Z" fill="#FF9811"/>
<path d="M256.532 512.989C358.025 512.989 445.722 453.924 487.13 368.293H25.9336C67.3416 453.924 155.038 512.989 256.532 512.989Z" fill="#6DA544"/>
<path d="M256.531 346.032C305.708 346.032 345.574 306.166 345.574 256.989C345.574 207.812 305.708 167.946 256.531 167.946C207.354 167.946 167.488 207.812 167.488 256.989C167.488 306.166 207.354 346.032 256.531 346.032Z" fill="#0052B4"/>
<path d="M256.531 312.641C287.267 312.641 312.183 287.725 312.183 256.989C312.183 226.253 287.267 201.337 256.531 201.337C225.795 201.337 200.879 226.253 200.879 256.989C200.879 287.725 225.795 312.641 256.531 312.641Z" fill="#F0F0F0"/>
<path d="M256.532 188.315L273.701 227.253L316.005 222.652L290.869 256.989L316.005 291.326L273.701 286.725L256.532 325.663L239.363 286.725L197.059 291.325L222.195 256.989L197.059 222.652L239.363 227.253L256.532 188.315Z" fill="#0052B4"/>
</g>
<defs>
<clipPath id="clip0_224_13457">
<rect width="512" height="512" fill="white" transform="translate(0.53125 0.989258)"/>
</clipPath>
</defs>
</svg>
