<svg width="512" height="512" viewBox="0 0 512 512" fill="none" xmlns="http://www.w3.org/2000/svg">
<g clip-path="url(#clip0_224_14208)">
<path d="M256 512C397.385 512 512 397.385 512 256C512 114.615 397.385 0 256 0C114.615 0 0 114.615 0 256C0 397.385 114.615 512 256 512Z" fill="#F0F0F0"/>
<path d="M496.077 166.957H222.609V100.174H89.043V166.957H15.923C5.633 194.689 0 224.686 0 256C0 287.314 5.633 317.31 15.923 345.043L256 367.304L496.077 345.043C506.367 317.31 512 287.314 512 256C512 224.686 506.367 194.689 496.077 166.957Z" fill="#0052B4"/>
<path d="M256 512C366.071 512 459.906 442.528 496.077 345.043H15.9229C52.0939 442.528 145.929 512 256 512Z" fill="#D80027"/>
<path d="M89.043 166.956V189.216C89.043 240.337 155.826 256 155.826 256C155.826 256 222.609 240.337 222.609 189.216V166.956L200.348 189.217L155.826 155.826L111.304 189.217L89.043 166.956Z" fill="#F0F0F0"/>
</g>
<defs>
<clipPath id="clip0_224_14208">
<rect width="512" height="512" fill="white"/>
</clipPath>
</defs>
</svg>
