<svg width="25" height="24" viewBox="0 0 25 24" fill="none" xmlns="http://www.w3.org/2000/svg">
<g clip-path="url(#clip0_372_5785)">
<path d="M12.5 24C19.1274 24 24.5 18.6274 24.5 12C24.5 5.37258 19.1274 0 12.5 0C5.87258 0 0.5 5.37258 0.5 12C0.5 18.6274 5.87258 24 12.5 24Z" fill="#FFDA44"/>
<path d="M9.89136 10.4348H24.3984C23.6314 4.54697 18.5969 0 12.5 0C11.604 0 10.7313 0.0990469 9.89131 0.285234V10.4348H9.89136Z" fill="#0052B4"/>
<path d="M6.76086 10.4347V1.45908C3.46583 3.25692 1.10703 6.55462 0.601578 10.4348H6.76086V10.4347Z" fill="#0052B4"/>
<path d="M6.76081 13.5652H0.601578C1.10703 17.4454 3.46583 20.7431 6.76086 22.5409L6.76081 13.5652Z" fill="#0052B4"/>
<path d="M9.89131 13.5653V23.7148C10.7313 23.901 11.604 24 12.5 24C18.5969 24 23.6314 19.453 24.3984 13.5652H9.89131V13.5653Z" fill="#0052B4"/>
</g>
<defs>
<clipPath id="clip0_372_5785">
<rect width="24" height="24" fill="white" transform="translate(0.5)"/>
</clipPath>
</defs>
</svg>
