<svg width="512" height="513" viewBox="0 0 512 513" fill="none" xmlns="http://www.w3.org/2000/svg">
<g clip-path="url(#clip0_224_13145)">
<path d="M256 512.989C397.385 512.989 512 398.374 512 256.989C512 115.604 397.385 0.989258 256 0.989258C114.615 0.989258 0 115.604 0 256.989C0 398.374 114.615 512.989 256 512.989Z" fill="#F0F0F0"/>
<path d="M306.087 508.076C407.29 488 487.011 408.278 507.087 307.076H306.087V508.076Z" fill="#496E2D"/>
<path d="M4.91309 307.076C24.9881 408.278 104.71 488 205.913 508.076V307.076H4.91309Z" fill="#496E2D"/>
<path d="M507.087 206.902C487.011 105.7 407.29 25.9783 306.087 5.90234V206.902H507.087Z" fill="#496E2D"/>
<path d="M205.913 5.90234C104.71 25.9783 24.9881 105.7 4.91309 206.902H205.913V5.90234Z" fill="#496E2D"/>
<path d="M239.304 307.076H205.913V508.076C216.81 510.237 227.957 511.701 239.304 512.432V307.076Z" fill="#FFDA44"/>
<path d="M239.304 206.902V1.5459C227.957 2.2759 216.809 3.7409 205.913 5.9019V206.902H239.304Z" fill="#FFDA44"/>
<path d="M272.696 1.54626C267.174 1.18926 261.611 0.989258 256 0.989258C250.389 0.989258 244.826 1.18926 239.304 1.54626V206.903H272.695V1.54626H272.696Z" fill="black"/>
<path d="M239.304 512.432C244.826 512.789 250.389 512.989 256 512.989C261.611 512.989 267.174 512.789 272.696 512.432V307.076H239.305V512.432H239.304Z" fill="black"/>
<path d="M205.913 240.293V206.902H4.91313C2.75113 217.8 1.28713 228.946 0.557129 240.293H205.913Z" fill="#FFDA44"/>
<path d="M306.087 240.293H511.444C510.714 228.946 509.249 217.8 507.088 206.902H306.088V240.293H306.087Z" fill="#FFDA44"/>
<path d="M306.087 273.685H511.444C511.8 268.164 512 262.6 512 256.989C512 251.378 511.8 245.814 511.443 240.293H306.087V273.685Z" fill="black"/>
<path d="M0.557 240.293C0.201 245.814 0 251.378 0 256.989C0 262.6 0.201 268.164 0.557 273.685H205.914V240.294H0.557V240.293Z" fill="black"/>
<path d="M256 379.425C323.619 379.425 378.435 324.609 378.435 256.99C378.435 189.371 323.619 134.555 256 134.555C188.381 134.555 133.565 189.371 133.565 256.99C133.565 324.609 188.381 379.425 256 379.425Z" fill="#D80027"/>
<path d="M283.894 270.648C274.787 252.435 262.95 233.975 262.95 233.975C262.95 233.975 263.244 225.57 263.244 220.562C263.244 213.018 257.128 206.902 249.584 206.902C242.437 206.902 236.581 212.393 235.984 219.384C230.364 219.751 225.917 224.413 225.917 230.125C225.917 234.278 228.27 237.877 231.714 239.676C233.426 235.672 236.778 232.546 240.924 231.121C241.6 231.674 242.326 232.168 243.101 232.587L244.851 233.425C244.851 233.425 238.362 251.716 238.362 261.542C238.362 289.166 256.576 297.685 256.576 297.685V297.97L247.469 307.076H265.682V288.862L274.789 297.969C274.869 297.798 292.039 286.939 283.894 270.648Z" fill="#496E2D"/>
<path d="M256 156.814L260.144 169.568H273.554L262.705 177.451L266.85 190.205L256 182.323L245.15 190.205L249.295 177.451L238.446 169.568H251.856L256 156.814Z" fill="#496E2D"/>
<path d="M197.12 175.946L207.968 183.829L218.818 175.945L214.674 188.701L225.524 196.582L212.113 196.583L207.969 209.337L203.824 196.583L190.414 196.582L201.263 188.699L197.12 175.946Z" fill="#496E2D"/>
<path d="M160.729 226.033H174.138L178.283 213.279L182.427 226.033L195.838 226.032L184.989 233.916L189.134 246.67L178.283 238.787L167.434 246.669L171.577 233.915L160.729 226.033Z" fill="#496E2D"/>
<path d="M160.729 287.943L171.577 280.062L167.433 267.307L178.283 275.19L189.133 267.307L184.989 280.061L195.839 287.944L182.427 287.945L178.283 300.698L174.138 287.943H160.729Z" fill="#496E2D"/>
<path d="M197.12 338.031L201.263 325.279L190.413 317.396H203.824L207.969 304.641L212.113 317.395H225.524L214.674 325.279L218.818 338.032L207.968 330.149L197.12 338.031Z" fill="#496E2D"/>
<path d="M256 357.163L251.856 344.41H238.446L249.295 336.526L245.15 323.772L256 331.654L266.849 323.771L262.705 336.526L273.554 344.409L260.144 344.41L256 357.163Z" fill="#496E2D"/>
<path d="M314.88 338.031L304.032 330.149L293.183 338.033L297.326 325.279L286.476 317.396L299.887 317.395L304.03 304.641L308.176 317.396H321.586L310.737 325.279L314.88 338.031Z" fill="#496E2D"/>
<path d="M351.271 287.944H337.862L333.717 300.699L329.573 287.946H316.161L327.011 280.062L322.866 267.309L333.717 275.191L344.565 267.309L340.423 280.063L351.271 287.944Z" fill="#496E2D"/>
<path d="M351.271 226.034L340.423 233.916L344.566 246.67L333.717 238.788L322.867 246.672L327.011 233.917L316.161 226.035L329.573 226.033L333.716 213.281L337.862 226.034H351.271Z" fill="#496E2D"/>
<path d="M314.88 175.947L310.737 188.7L321.586 196.583H308.176L304.032 209.338L299.887 196.584L286.476 196.585L297.326 188.7L293.182 175.948L304.032 183.829L314.88 175.947Z" fill="#496E2D"/>
</g>
<defs>
<clipPath id="clip0_224_13145">
<rect width="512" height="512" fill="white" transform="translate(0 0.989258)"/>
</clipPath>
</defs>
</svg>
