<svg width="25" height="24" viewBox="0 0 25 24" fill="none" xmlns="http://www.w3.org/2000/svg">
<g clip-path="url(#clip0_372_5811)">
<path d="M24.5 12C24.5 18.6274 19.1274 24 12.5 24C5.87262 24 0.5 18.6274 0.5 12C4.62172 7.87828 8.11737 4.38263 12.5 0C19.1274 0 24.5 5.37262 24.5 12Z" fill="#D80027"/>
<path d="M12.5 12C12.5 5.37262 12.5 4.59131 12.5 0C5.87262 0 0.5 5.37262 0.5 12H12.5Z" fill="#0052B4"/>
<path d="M10.9348 7.02287L9.46925 7.7123L10.2496 9.13163L8.65827 8.82713L8.45657 10.4348L7.34816 9.25243L6.23966 10.4348L6.03805 8.82713L4.44665 9.13154L5.22702 7.71221L3.76152 7.02287L5.22707 6.33357L4.44665 4.91419L6.038 5.21865L6.23971 3.61102L7.34816 4.7934L8.45661 3.61102L8.65827 5.21865L10.2497 4.91419L9.46925 6.33362L10.9348 7.02287Z" fill="#F0F0F0"/>
<path d="M7.34834 9.25635C8.582 9.25635 9.58208 8.25627 9.58208 7.02261C9.58208 5.78896 8.582 4.78888 7.34834 4.78888C6.11469 4.78888 5.11461 5.78896 5.11461 7.02261C5.11461 8.25627 6.11469 9.25635 7.34834 9.25635Z" fill="#0052B4"/>
<path d="M7.34816 8.21311C6.69186 8.21311 6.15796 7.67916 6.15796 7.02286C6.15796 6.36656 6.69191 5.83261 7.34816 5.83261C8.00446 5.83261 8.53841 6.36656 8.53841 7.02286C8.53837 7.67916 8.00437 8.21311 7.34816 8.21311Z" fill="#F0F0F0"/>
</g>
<defs>
<clipPath id="clip0_372_5811">
<rect width="24" height="24" fill="white" transform="translate(0.5)"/>
</clipPath>
</defs>
</svg>
