<svg width="512" height="512" viewBox="0 0 512 512" fill="none" xmlns="http://www.w3.org/2000/svg">
<g clip-path="url(#clip0_224_14482)">
<path d="M512 256C512 397.384 397.384 512 256.001 512C114.616 512 0 397.384 0 256C0 256.061 256.001 0.028 256.001 0C397.384 0 512 114.616 512 256Z" fill="#338AF3"/>
<path d="M122.435 256H208.777L133.565 166.957L122.435 200.348V256Z" fill="#0052B4"/>
<path d="M256.001 208.779L166.957 122.436H256L256.001 208.779Z" fill="#0052B4"/>
<path d="M255.315 255.999H256C256 255.769 256 255.545 256 255.314C255.772 255.543 255.544 255.771 255.315 255.999Z" fill="#F0F0F0"/>
<path d="M256.001 133.565C256.001 88.52 256.001 59.004 256.001 0H255.958C114.592 0.024 0 114.629 0 256H133.566V180.789L208.777 256H255.317C255.545 255.772 255.773 255.544 256.002 255.315C256.002 238.068 256.002 222.679 256.002 208.778L180.788 133.565H256.001Z" fill="#F0F0F0"/>
<path d="M129.515 33.3906C89.4756 56.1896 56.1896 89.4756 33.3906 129.515V256H100.174V100.176V100.174H256C256 79.1106 256 59.0446 256 33.3906H129.515Z" fill="#D80027"/>
<path d="M256 224.519L165.045 133.566H133.565V133.568L255.998 256H256C256 256 256 234.293 256 224.519Z" fill="#D80027"/>
<path d="M279.406 422.957L284.932 439.963H302.813L288.348 450.473L293.874 467.478L279.406 456.969L264.941 467.478L270.467 450.473L256 439.963H273.88L279.406 422.957Z" fill="#FFDA44"/>
<path d="M421.811 311.65L427.336 328.656H445.217L430.752 339.167L436.279 356.172L421.811 345.663L407.346 356.172L412.872 339.167L398.404 328.656H416.285L421.811 311.65Z" fill="#FFDA44"/>
<path d="M457.493 144.695L463.019 161.701H480.9L466.435 172.211L471.96 189.216L457.493 178.707L443.028 189.216L448.554 172.211L434.087 161.701H451.968L457.493 144.695Z" fill="#FFDA44"/>
<path d="M466.333 267.129L471.858 284.136H489.739L475.274 294.646L480.8 311.651L466.333 301.142L451.868 311.651L457.394 294.646L442.926 284.136H460.807L466.333 267.129Z" fill="#FFDA44"/>
<path d="M305.046 382.958L320.981 391.077L333.624 378.434L330.828 396.093L346.759 404.211L329.097 407.009L326.3 424.67L318.184 408.737L300.522 411.536L313.165 398.893L305.046 382.958Z" fill="#FFDA44"/>
<path d="M305.046 316.175L320.981 324.293L333.624 311.65L330.828 329.31L346.759 337.427L329.097 340.225L326.3 357.886L318.184 341.954L300.522 344.752L313.165 332.109L305.046 316.175Z" fill="#FFDA44"/>
<path d="M360.698 358.983L376.633 367.102L389.276 354.459L386.48 372.118L402.411 380.236L384.749 383.034L381.952 400.695L373.836 384.761L356.174 387.561L368.817 374.918L360.698 358.983Z" fill="#FFDA44"/>
<path d="M360.698 216.002L376.633 224.12L389.276 211.477L386.48 229.137L402.411 237.254L384.749 240.052L381.952 257.713L373.836 241.781L356.174 244.579L368.817 231.936L360.698 216.002Z" fill="#FFDA44"/>
<path d="M414.635 214.289L430.57 222.407L443.213 209.764L440.416 227.424L456.348 235.541L438.686 238.339L435.889 256L427.773 240.068L410.111 242.866L422.754 230.223L414.635 214.289Z" fill="#FFDA44"/>
</g>
<defs>
<clipPath id="clip0_224_14482">
<rect width="512" height="512" fill="white"/>
</clipPath>
</defs>
</svg>
