<svg width="513" height="512" viewBox="0 0 513 512" fill="none" xmlns="http://www.w3.org/2000/svg">
<g clip-path="url(#clip0_224_13613)">
<path d="M25.9333 144.696C9.65925 178.352 0.53125 216.109 0.53125 256C0.53125 295.891 9.65925 333.648 25.9333 367.304L256.531 389.565L487.129 367.304C503.403 333.648 512.531 295.891 512.531 256C512.531 216.109 503.403 178.352 487.129 144.696L256.531 122.435L25.9333 144.696Z" fill="black"/>
<path d="M25.9414 367.304C67.3474 452.935 155.036 512 256.53 512C358.023 512 445.713 452.935 487.119 367.304H25.9414Z" fill="#496E2D"/>
<path d="M25.9414 144.696H487.119C445.713 59.065 358.023 0 256.53 0C155.036 0 67.3474 59.065 25.9414 144.696Z" fill="#D80027"/>
<path d="M316.115 209.186L337.119 238.131L371.136 227.101L350.098 256.021L371.1 284.965L337.096 273.893L316.058 302.813L316.08 267.052L282.074 255.98L316.092 244.95L316.115 209.186Z" fill="#F0F0F0"/>
<path d="M258.791 328.348C218.835 328.348 186.443 295.956 186.443 256C186.443 216.044 218.835 183.652 258.791 183.652C271.249 183.652 282.972 186.802 293.206 192.348C277.15 176.647 255.194 166.956 230.965 166.956C181.787 166.956 141.922 206.822 141.922 255.999C141.922 305.176 181.788 345.042 230.965 345.042C255.195 345.042 277.151 335.351 293.206 319.65C282.971 325.198 271.25 328.348 258.791 328.348Z" fill="#F0F0F0"/>
</g>
<defs>
<clipPath id="clip0_224_13613">
<rect width="512" height="512" fill="white" transform="translate(0.53125)"/>
</clipPath>
</defs>
</svg>
