<svg width="25" height="24" viewBox="0 0 25 24" fill="none" xmlns="http://www.w3.org/2000/svg">
<g clip-path="url(#clip0_372_5741)">
<path d="M12.5 24C19.1274 24 24.5 18.6274 24.5 12C24.5 5.37258 19.1274 0 12.5 0C5.87258 0 0.5 5.37258 0.5 12C0.5 18.6274 5.87258 24 12.5 24Z" fill="#F0F0F0"/>
<path d="M12.5 24C19.1274 24 24.5 18.6274 24.5 12C24.5 10.5322 24.236 9.12605 23.7536 7.82611H1.24639C0.764047 9.12605 0.5 10.5322 0.5 12C0.5 18.6274 5.87262 24 12.5 24Z" fill="#0052B4"/>
<path d="M12.5 24C17.6596 24 22.0581 20.7435 23.7536 16.1739H1.24638C2.9419 20.7435 7.34041 24 12.5 24Z" fill="#D80027"/>
<path d="M3.60303 6.78262V12.7688C3.60303 16.174 8.05151 17.2174 8.05151 17.2174C8.05151 17.2174 12.4999 16.174 12.4999 12.7688V6.78262H3.60303Z" fill="#F0F0F0"/>
<path d="M4.64651 6.78262V12.7688C4.64651 13.1686 4.7353 13.5461 4.91117 13.9001H11.1918C11.3677 13.5462 11.4565 13.1686 11.4565 12.7688V6.78262H4.64651Z" fill="#D80027"/>
<path d="M10.1384 10.9565H8.57329V9.91303H9.61677V8.86955H8.57329V7.82611H7.5298V8.86955H6.48637V9.91303H7.5298V10.9565H5.96455V12H7.5298V13.0435H8.57329V12H10.1384V10.9565Z" fill="#F0F0F0"/>
<path d="M6.33458 15.3567C7.007 15.7793 7.69785 16.0246 8.05152 16.1338C8.40519 16.0247 9.09604 15.7793 9.76846 15.3567C10.4466 14.9305 10.9219 14.4431 11.1918 13.9001C10.8941 13.6895 10.5309 13.5652 10.1385 13.5652C9.99561 13.5652 9.85682 13.5822 9.72336 13.6132C9.44057 12.9707 8.79861 12.5218 8.05157 12.5218C7.30452 12.5218 6.66252 12.9707 6.37977 13.6132C6.24632 13.5822 6.10747 13.5652 5.96464 13.5652C5.57225 13.5652 5.20902 13.6895 4.91132 13.9001C5.18108 14.4431 5.65644 14.9305 6.33458 15.3567Z" fill="#0052B4"/>
</g>
<defs>
<clipPath id="clip0_372_5741">
<rect width="24" height="24" fill="white" transform="translate(0.5)"/>
</clipPath>
</defs>
</svg>
