<svg width="512" height="513" viewBox="0 0 512 513" fill="none" xmlns="http://www.w3.org/2000/svg">
<g clip-path="url(#clip0_224_13388)">
<path d="M256 512.988C397.385 512.988 512 398.373 512 256.988C512 115.603 397.385 0.988281 256 0.988281C114.615 0.988281 0 115.603 0 256.988C0 398.373 114.615 512.988 256 512.988Z" fill="#F0F0F0"/>
<path d="M509.833 223.597H289.393H289.392V3.15528C278.461 1.73228 267.317 0.988281 256 0.988281C244.683 0.988281 233.539 1.73228 222.609 3.15528V223.597H2.167C0.744 234.527 0 245.671 0 256.988C0 268.305 0.744 279.449 2.167 290.379H222.607H222.608V510.821C233.539 512.244 244.683 512.988 256 512.988C267.317 512.988 278.461 512.245 289.391 510.821V290.382V290.38H509.833C511.256 279.449 512 268.305 512 256.988C512 245.671 511.256 234.527 509.833 223.597Z" fill="#D80027"/>
<path d="M328.348 268.118L345.043 279.249V234.727L328.348 245.858H267.13V184.64L278.261 167.945H233.739L244.87 184.64V245.858H183.652L166.957 234.727V279.249L183.652 268.118H244.87V329.336L233.739 346.031H278.261L267.13 329.336V268.118H328.348Z" fill="#FFDA44"/>
</g>
<defs>
<clipPath id="clip0_224_13388">
<rect width="512" height="512" fill="white" transform="translate(0 0.988281)"/>
</clipPath>
</defs>
</svg>
