<svg width="513" height="512" viewBox="0 0 513 512" fill="none" xmlns="http://www.w3.org/2000/svg">
<g clip-path="url(#clip0_224_13560)">
<path d="M496.608 345.043C506.898 317.31 512.531 287.314 512.531 256C512.531 224.686 506.898 194.69 496.608 166.957L256.531 144.696L16.4543 166.957C6.16425 194.69 0.53125 224.686 0.53125 256C0.53125 287.314 6.16425 317.31 16.4543 345.043L256.531 367.304L496.608 345.043Z" fill="#F0F0F0"/>
<path d="M256.531 512C366.601 512 460.437 442.528 496.607 345.043H16.4531C52.6251 442.528 146.459 512 256.531 512Z" fill="#D80027"/>
<path d="M256.531 0C146.459 0 52.6251 69.472 16.4531 166.957H496.608C460.437 69.472 366.601 0 256.531 0Z" fill="#6DA544"/>
<path d="M75.5117 74.98C-24.4622 174.954 -24.4622 337.045 75.5117 437.02C101.607 410.925 127.077 385.455 167.488 345.044V166.957L75.5117 74.98Z" fill="black"/>
</g>
<defs>
<clipPath id="clip0_224_13560">
<rect width="512" height="512" fill="white" transform="translate(0.53125)"/>
</clipPath>
</defs>
</svg>
