<svg width="513" height="512" viewBox="0 0 513 512" fill="none" xmlns="http://www.w3.org/2000/svg">
<g clip-path="url(#clip0_224_12563)">
<path d="M256.532 0C397.916 0 512.532 114.616 512.532 256C512.532 397.384 397.916 512 256.532 512C256.532 500.87 223.141 256 223.141 256L256.532 0Z" fill="#F0F0F0"/>
<path d="M256.531 512C115.147 512 0.53125 397.384 0.53125 256C0.53125 114.616 115.147 0 256.531 0" fill="#496E2D"/>
<path d="M311.533 206.896L290.529 235.841L256.512 224.809L277.55 253.729L256.548 282.674L290.552 271.603L311.59 300.522L311.568 264.761L345.573 253.689L311.557 242.659L311.533 206.896Z" fill="#D80027"/>
<path d="M277.767 328.348C237.811 328.348 205.419 295.956 205.419 256C205.419 216.044 237.811 183.652 277.767 183.652C290.225 183.652 301.948 186.802 312.182 192.348C296.126 176.647 274.17 166.956 249.941 166.956C200.763 166.956 160.898 206.822 160.898 255.999C160.898 305.176 200.764 345.042 249.941 345.042C274.171 345.042 296.127 335.351 312.182 319.65C301.948 325.198 290.225 328.348 277.767 328.348Z" fill="#D80027"/>
</g>
<defs>
<clipPath id="clip0_224_12563">
<rect width="512" height="512" fill="white" transform="translate(0.53125)"/>
</clipPath>
</defs>
</svg>
