<svg width="512" height="513" viewBox="0 0 512 513" fill="none" xmlns="http://www.w3.org/2000/svg">
<g clip-path="url(#clip0_224_13580)">
<path d="M256 512.988C397.385 512.988 512 398.373 512 256.988C512 115.603 397.385 0.988281 256 0.988281C114.615 0.988281 0 115.603 0 256.988C0 398.373 114.615 512.988 256 512.988Z" fill="#F0F0F0"/>
<path d="M256 0.988281C137.721 0.988281 38.1948 81.2093 8.81885 190.205H503.182C473.805 81.2093 374.279 0.988281 256 0.988281Z" fill="#A2001D"/>
<path d="M256 512.988C374.279 512.988 473.805 432.767 503.181 323.771H8.81885C38.1948 432.766 137.721 512.988 256 512.988Z" fill="#A2001D"/>
</g>
<defs>
<clipPath id="clip0_224_13580">
<rect width="512" height="512" fill="white" transform="translate(0 0.988281)"/>
</clipPath>
</defs>
</svg>
