<svg width="73" height="73" viewBox="0 0 73 73" fill="none" xmlns="http://www.w3.org/2000/svg">
<g opacity="0.6" clip-path="url(#clip0_688_4432)">
<path opacity="0.8" d="M39.423 62.2348C55.8419 62.2348 69.1521 57.185 69.1521 50.9558C69.1521 44.7266 55.8419 39.6768 39.423 39.6768C23.004 39.6768 9.69379 44.7266 9.69379 50.9558C9.69379 57.185 23.004 62.2348 39.423 62.2348Z" fill="#B6EB76"/>
<path d="M34.5923 1.89233V24.1812L60.1703 13.0367L34.5923 1.89233Z" fill="#FF2828"/>
<path d="M39.4229 48.2926C39.4229 49.1946 37.7793 49.9562 35.5544 50.1366C35.1936 50.1767 34.8128 50.1968 34.4119 50.1968C34.011 50.1968 33.6302 50.1767 33.2694 50.1366C31.0445 49.9562 29.4009 49.1946 29.4009 48.2926C29.4009 47.3906 31.0445 46.629 33.2694 46.4486C33.6302 46.4085 34.011 46.3884 34.4119 46.3884C34.8128 46.3884 35.1936 46.4085 35.5544 46.4486C37.7793 46.629 39.4229 47.3906 39.4229 48.2926Z" fill="#3F4347"/>
<path d="M35.5561 1.47039V50.137C35.1953 50.1771 34.8145 50.1971 34.4136 50.1971C34.0127 50.1971 33.6319 50.1771 33.2711 50.137V1.47039C33.2711 0.849028 33.7923 0.327887 34.4136 0.327887C35.055 0.325882 35.5561 0.847024 35.5561 1.47039Z" fill="#DBB89F"/>
<path d="M22.4344 49.7718C24.303 49.7718 25.8178 48.257 25.8178 46.3884C25.8178 44.5198 24.303 43.005 22.4344 43.005C20.5658 43.005 19.051 44.5198 19.051 46.3884C19.051 48.257 20.5658 49.7718 22.4344 49.7718Z" fill="white"/>
<path d="M25.8176 46.3988C25.8176 48.2629 24.2943 49.7661 22.4302 49.7661C21.1274 49.7661 20.0049 49.0446 19.4437 47.9622C19.9047 48.2228 20.4459 48.3631 21.0271 48.3631C22.8912 48.3631 24.4146 46.8598 24.4146 44.9757C24.4146 44.4144 24.2742 43.8732 24.0137 43.4122C25.096 43.9735 25.8176 45.0959 25.8176 46.3988Z" fill="#E9EFF4"/>
</g>
<defs>
<clipPath id="clip0_688_4432">
<rect width="72" height="72" fill="white" transform="translate(0.712158 0.327881)"/>
</clipPath>
</defs>
</svg>
