<svg width="67" height="57" viewBox="0 0 67 57" fill="none" xmlns="http://www.w3.org/2000/svg">
<g clip-path="url(#clip0_314_12595)">
<path d="M59.6956 2.04626H6.88794C4.05658 2.04626 1.76099 4.36793 1.76099 7.23145V50.2685C1.76099 53.132 4.05658 55.4537 6.88794 55.4537H59.6956C62.5269 55.4537 64.8225 53.132 64.8225 50.2685V7.23145C64.8225 4.36793 62.5269 2.04626 59.6956 2.04626Z" fill="#E2E7EF"/>
<path d="M59.6956 2.04626H6.88794C4.05658 2.04626 1.76099 4.36793 1.76099 7.23145V39.8981H64.8225V7.23145C64.8225 4.36793 62.5269 2.04626 59.6956 2.04626Z" fill="#BCCAFF"/>
<path d="M13.2864 50.2685C14.7021 50.2685 15.8499 49.1078 15.8499 47.6759C15.8499 46.2441 14.7021 45.0833 13.2864 45.0833C11.8706 45.0833 10.7229 46.2441 10.7229 47.6759C10.7229 49.1078 11.8706 50.2685 13.2864 50.2685Z" fill="#D0ACE4"/>
<path d="M31.5819 14.9626L38.3136 18.8929C39.8965 19.8172 39.8965 22.1272 38.3136 23.0515L31.5819 26.9818C29.999 27.9061 28.0212 26.7511 28.0212 24.9026V17.0405C28.0212 15.192 29.999 14.037 31.5819 14.9613V14.9626Z" fill="white"/>
<path d="M59.6956 0.75H39.0762C38.3687 0.75 37.7945 1.33074 37.7945 2.0463C37.7945 2.76185 38.3687 3.34259 39.0762 3.34259H59.6956C61.8156 3.34259 63.5408 5.08741 63.5408 7.23148V38.6019H3.04272V7.23148C3.04272 5.08741 4.76794 3.34259 6.88794 3.34259H27.5406C28.2481 3.34259 28.8223 2.76185 28.8223 2.0463C28.8223 1.33074 28.2481 0.75 27.5406 0.75H6.88794C3.35419 0.75 0.479248 3.65759 0.479248 7.23148V50.2685C0.479248 53.8424 3.35419 56.75 6.88794 56.75H59.6956C63.2293 56.75 66.1042 53.8424 66.1042 50.2685V7.23148C66.1042 3.65759 63.2293 0.75 59.6956 0.75ZM59.6956 54.1574H6.88794C4.76794 54.1574 3.04272 52.4126 3.04272 50.2685V41.1944H63.5408V50.2685C63.5408 52.4126 61.8156 54.1574 59.6956 54.1574Z" fill="black"/>
<path d="M13.2876 43.787C11.1676 43.787 9.44238 45.5318 9.44238 47.6759C9.44238 49.82 11.1676 51.5648 13.2876 51.5648C15.4076 51.5648 17.1328 49.82 17.1328 47.6759C17.1328 45.5318 15.4076 43.787 13.2876 43.787ZM13.2876 48.9722C12.5814 48.9722 12.0059 48.3901 12.0059 47.6759C12.0059 46.9616 12.5814 46.3796 13.2876 46.3796C13.9938 46.3796 14.5693 46.9616 14.5693 47.6759C14.5693 48.3901 13.9938 48.9722 13.2876 48.9722Z" fill="black"/>
<path d="M55.8607 46.3796H23.9338C23.2263 46.3796 22.6521 46.9603 22.6521 47.6759C22.6521 48.3914 23.2263 48.9722 23.9338 48.9722H55.8607C56.5682 48.9722 57.1424 48.3914 57.1424 47.6759C57.1424 46.9603 56.5682 46.3796 55.8607 46.3796Z" fill="black"/>
<path d="M26.7395 17.0418V24.9039C26.7395 26.2403 27.4227 27.4368 28.5673 28.1057C29.1389 28.4402 29.767 28.6074 30.395 28.6074C31.0231 28.6074 31.6498 28.4402 32.2228 28.1057L38.9545 24.1753C40.0991 23.5078 40.7822 22.31 40.7822 20.9735C40.7822 19.637 40.0991 18.4405 38.9545 17.7716L32.2228 13.8413C31.0782 13.1737 29.7119 13.1737 28.5673 13.8413C27.4227 14.5089 26.7395 15.7066 26.7395 17.0431V17.0418ZM29.303 17.0418C29.303 16.4663 29.6849 16.1811 29.849 16.0852C29.949 16.0268 30.1489 15.9335 30.4001 15.9335C30.5629 15.9335 30.7475 15.9724 30.941 16.0852L37.6727 20.0155C38.1662 20.3033 38.2188 20.7803 38.2188 20.9722C38.2188 21.164 38.1649 21.6411 37.6727 21.9289L30.941 25.8592C30.4476 26.147 30.0131 25.9552 29.849 25.8592C29.6849 25.7633 29.303 25.4781 29.303 24.9026V17.0405V17.0418Z" fill="black"/>
<path d="M33.3083 3.34259C33.6454 3.34259 33.9761 3.20389 34.2145 2.96278C34.4529 2.72167 34.5901 2.38722 34.5901 2.0463C34.5901 1.70537 34.4529 1.37093 34.2145 1.12981C33.9761 0.888704 33.6454 0.75 33.3083 0.75C32.9713 0.75 32.6406 0.888704 32.4009 1.12981C32.1625 1.37093 32.0266 1.70537 32.0266 2.0463C32.0266 2.38722 32.1625 2.72167 32.4009 2.96278C32.6406 3.20389 32.9713 3.34259 33.3083 3.34259Z" fill="black"/>
</g>
<defs>
<clipPath id="clip0_314_12595">
<rect width="65.625" height="56" fill="white" transform="translate(0.479248 0.75)"/>
</clipPath>
</defs>
</svg>
