<svg width="25" height="18" viewBox="0 0 25 18" fill="none" xmlns="http://www.w3.org/2000/svg">
<rect y="0.414062" width="25" height="14" rx="2" fill="#D80027"/>
<path d="M4.3 4.24406V3.01406H9.96V4.24406H7.86V10.4141H6.38V4.24406H4.3ZM12.74 3.01406V10.4141H11.26V3.01406H12.74ZM17.0908 3.01406C18.7208 3.01406 19.9908 3.57406 19.9908 5.33406C19.9908 7.02406 18.7208 7.78406 17.1308 7.78406H16.1408V10.4141H14.6608V3.01406H17.0908ZM17.0308 6.61406C18.0408 6.61406 18.5408 6.18406 18.5408 5.33406C18.5408 4.46406 18.0108 4.18406 16.9808 4.18406H16.1408V6.61406H17.0308Z" fill="white"/>
<path d="M19.7823 17.6904L17.8082 13.8206H22.1951L19.7823 17.6904Z" fill="#D80027"/>
</svg>
