<svg width="62" height="69" viewBox="0 0 62 69" fill="none" xmlns="http://www.w3.org/2000/svg">
<g opacity="0.6" clip-path="url(#clip0_541_14292)">
<ellipse opacity="0.4" cx="29.8424" cy="58.3333" rx="26.5479" ry="9.91667" fill="white"/>
<path d="M61.5299 6.83147C61.815 6.95863 61.9446 7.29598 61.8193 7.58517L49.1514 36.8067L47.5717 40.4496C46.591 39.9827 45.6091 39.5191 44.6227 39.0625L46.1675 35.4984L58.8432 6.2586C58.9686 5.96941 59.3015 5.83803 59.5866 5.9652L61.5299 6.83147Z" fill="#2E2A23"/>
<path d="M49.1514 36.8076L47.5717 40.4505C46.591 39.9836 45.6091 39.52 44.6227 39.0634L46.1675 35.4993L49.1514 36.8076Z" fill="#D2D2D2"/>
<path d="M48.9542 38.9598L48.2122 40.6711L46.8125 43.8997L41.705 55.6801C39.8865 59.8744 35.7958 62.5823 31.2772 62.5823H19.1482C14.0553 62.5823 9.58178 59.1551 8.18999 54.189L6.29387 47.4181C5.42801 44.33 7.39399 41.1654 10.5141 40.6151C13.2593 40.131 16.6012 39.6904 19.6606 39.6904C24.1927 39.6904 31.9666 42.8893 36.6123 45.0047C38.7393 45.9739 41.2356 44.9989 42.1736 42.8344L42.5261 42.0216L43.9268 38.7919L44.6711 37.0749C44.7961 36.7884 45.126 36.6559 45.4098 36.7804L48.6617 38.2062C48.9486 38.332 49.0792 38.6699 48.9542 38.9598Z" fill="#7E7E7E"/>
<path d="M48.9447 38.9604L48.2026 40.6717L46.803 43.9002L41.6955 55.6806C39.877 59.8749 35.7863 62.5829 31.2677 62.5829H19.1387C15.6796 62.5829 12.5054 61.0017 10.3898 58.4307C12.3501 59.9994 14.816 60.9138 17.4463 60.9138H29.5755C34.0941 60.9138 38.1848 58.2058 40.0033 54.0115L44.7729 43.0108L46.1726 39.7812L47.142 37.5447L48.6521 38.2069C48.939 38.3325 49.0697 38.6704 48.9447 38.9604Z" fill="#2E2A23"/>
<path d="M48.2021 40.6711L46.8026 43.8995L42.5159 42.0216L43.9166 38.7919L48.2021 40.6711Z" fill="#D4F2F6"/>
<path d="M48.2161 40.6709L46.8165 43.8993L44.7864 43.0101L46.1859 39.7804L48.2161 40.6709Z" fill="#A8E7EF"/>
<path d="M37.3611 54.0888C36.7632 55.4679 35.7914 56.6027 34.5979 57.3927C33.4054 58.1827 31.9889 58.628 30.5038 58.628H19.1549C18.6944 58.628 18.2418 58.5846 17.8004 58.5012C15.0439 57.9829 12.7335 55.9097 11.9497 53.1082L10.1515 46.691C9.86548 45.6704 10.5197 44.6258 11.5522 44.4488C11.8315 44.4009 12.1152 44.3541 12.4047 44.3073C14.6994 43.9419 17.2948 43.6451 19.6673 43.6451C21.8833 43.6451 25.9729 44.8222 30.9948 46.8713C32.2818 47.3965 33.6285 47.9788 35.0213 48.6123C35.0506 48.626 35.081 48.6397 35.1137 48.6522C37.2484 49.5085 38.2843 51.9585 37.3611 54.0888Z" fill="#FFD540"/>
<path d="M32.9978 52.3361C32.9503 52.3361 32.902 52.332 32.8535 52.3235L26.2989 51.1811C25.8383 51.1009 25.5291 50.6573 25.6083 50.1903C25.6876 49.7234 26.1255 49.4104 26.5855 49.4902L33.1402 50.6326C33.6007 50.7128 33.91 51.1564 33.8307 51.6234C33.7599 52.0412 33.4022 52.3361 32.9978 52.3361Z" fill="#F8F8F8"/>
<path d="M32.3724 55.664C32.3241 55.664 32.2753 55.6598 32.2262 55.6511L23.7427 54.1525C23.2823 54.0712 22.9741 53.6269 23.0543 53.1602C23.1346 52.6935 23.5727 52.3812 24.0331 52.4623L32.5166 53.9608C32.977 54.0422 33.2852 54.4864 33.2049 54.9531C33.1333 55.3701 32.7758 55.664 32.3724 55.664Z" fill="#F8F8F8"/>
<path d="M37.3649 54.0885C36.767 55.4676 35.7953 56.6024 34.6017 57.3924C33.4093 58.1824 31.9928 58.6277 30.5077 58.6277H19.1588C16.6028 58.6277 14.2629 57.2919 12.9005 55.2017C14.2011 56.2623 15.8461 56.8856 17.5914 56.8856H28.9402C30.4255 56.8856 31.8419 56.4404 33.0343 55.6504C34.2279 54.8604 35.1996 53.7256 35.7975 52.3464C36.2884 51.2128 36.2254 49.9901 35.7367 48.9638C37.4437 50.006 38.1937 52.1762 37.3649 54.0885Z" fill="#DC9E00"/>
<path d="M25.0366 53.5112C25.0366 53.7571 25.0309 54.0032 25.0167 54.2491C24.9769 55.0503 24.8677 55.8471 24.6947 56.6311L23.371 62.5834H20.1988L18.8751 56.6312C18.702 55.8473 18.5928 55.0504 18.5531 54.2492C18.5389 54.0033 18.5332 53.7572 18.5332 53.5113C18.5332 52.7173 19.1687 52.0728 19.952 52.0728H23.6179C24.401 52.0727 25.0366 52.7172 25.0366 53.5112Z" fill="#FFD540"/>
<path d="M25.0366 53.5106C25.0366 53.7566 25.0309 54.0026 25.0167 54.2485C24.0051 54.6095 22.917 54.8052 21.7849 54.8052C20.6528 54.8052 19.5646 54.6095 18.5531 54.2485C18.5389 54.0026 18.5332 53.7566 18.5332 53.5106C18.5332 52.7166 19.1687 52.0722 19.952 52.0722H23.6179C24.401 52.0722 25.0366 52.7166 25.0366 53.5106Z" fill="#DC9E00"/>
<path d="M25.0341 53.5109C25.0341 54.561 24.9191 55.6067 24.6922 56.6309L23.3685 62.5831H21.0985L22.4222 56.6309C22.6491 55.6067 22.7641 54.561 22.7641 53.5109C22.7641 52.717 22.1285 52.0725 21.3453 52.0725H23.6153C24.3985 52.0725 25.0341 52.717 25.0341 53.5109Z" fill="#DC9E00"/>
<path d="M21.7829 52.9357C26.1699 52.9357 29.7264 49.3299 29.7264 44.8819C29.7264 40.4339 26.1699 36.8281 21.7829 36.8281C17.3958 36.8281 13.8394 40.4339 13.8394 44.8819C13.8394 49.3299 17.3958 52.9357 21.7829 52.9357Z" fill="#F8F8F8"/>
<path d="M29.5883 46.3734C28.7759 50.7441 24.6219 53.6199 20.3111 52.7961C18.4206 52.4349 16.8132 51.4206 15.6732 50.0274C16.3022 50.3409 16.9823 50.5733 17.7044 50.7113C22.0151 51.5351 26.1691 48.6593 26.9816 44.2886C27.4378 41.8347 26.7439 39.4318 25.2848 37.6512C28.4116 39.206 30.2647 42.7351 29.5883 46.3734Z" fill="#D2D2D2"/>
</g>
<defs>
<clipPath id="clip0_541_14292">
<rect width="67.0685" height="68" fill="white" transform="translate(0.499878 0.25)"/>
</clipPath>
</defs>
</svg>
