<svg width="49" height="58" viewBox="0 0 49 58" fill="none" xmlns="http://www.w3.org/2000/svg">
<g clip-path="url(#clip0_314_12670)">
<path d="M46.35 6.80518V50.5044C46.35 53.1152 44.2231 55.2279 41.5984 55.2279H7.1427C4.5163 55.2279 2.39111 53.1136 2.39111 50.5044V6.80518C2.39111 4.19429 4.51797 2.08167 7.1427 2.08167H41.5967C44.2231 2.08167 46.3483 4.19595 46.3483 6.80518H46.35Z" fill="#F3F3F1"/>
<path d="M9.51855 20.9774H39.221V48.1426H9.51855V20.9774Z" fill="#83CDA7"/>
<path d="M7.73748 50.5044V6.80518C7.73748 4.19429 9.86434 2.08167 12.4891 2.08167H7.1427C4.5163 2.08167 2.39111 4.19595 2.39111 6.80518V50.5044C2.39111 53.1152 4.51797 55.2279 7.1427 55.2279H12.4891C9.86266 55.2279 7.73748 53.1136 7.73748 50.5044Z" fill="#D5DBE1"/>
<path d="M9.51855 20.9774H14.8649V48.1426H9.51855V20.9774Z" fill="#00B871"/>
<path d="M39.221 49.9131H9.51852C8.53445 49.9131 7.73584 49.1192 7.73584 48.1409V20.9757C7.73584 19.9974 8.53445 19.2036 9.51852 19.2036H39.221C40.205 19.2036 41.0036 19.9974 41.0036 20.9757V48.1409C41.0036 49.1192 40.205 49.9131 39.221 49.9131ZM11.3012 46.3704H37.4383V22.7495H11.3012V46.3704Z" fill="black"/>
<path d="M17.2407 20.9774H20.8044V48.1426H17.2407V20.9774Z" fill="black"/>
<path d="M9.51855 28.6539H39.221V32.1966H9.51855V28.6539Z" fill="black"/>
<path d="M9.51855 36.9218H39.221V40.4644H9.51855V36.9218Z" fill="black"/>
<path d="M41.5969 57H7.14291C3.53745 57 0.608643 54.0868 0.608643 50.5043V6.80518C0.608643 3.22102 3.53912 0.309509 7.14291 0.309509H41.5969C45.2024 0.309509 48.1312 3.22268 48.1312 6.80518V50.5043C48.1312 54.0885 45.2007 57 41.5969 57ZM7.14291 3.85215C5.50558 3.85215 4.17233 5.17752 4.17233 6.80518V50.5043C4.17233 52.132 5.50558 53.4574 7.14291 53.4574H41.5969C43.2343 53.4574 44.5675 52.132 44.5675 50.5043V6.80518C44.5675 5.17752 43.2343 3.85215 41.5969 3.85215H7.14291Z" fill="black"/>
</g>
<defs>
<clipPath id="clip0_314_12670">
<rect width="48" height="57" fill="white" transform="translate(0.211914 0.25)"/>
</clipPath>
</defs>
</svg>
