<svg width="80" height="78" viewBox="0 0 80 78" fill="none" xmlns="http://www.w3.org/2000/svg">
<path d="M39.4541 77.6971C60.0226 77.6971 76.6966 61.1007 76.6966 40.6281C76.6966 20.1554 60.0226 3.55908 39.4541 3.55908C18.8856 3.55908 2.21161 20.1554 2.21161 40.6281C2.21161 61.1007 18.8856 77.6971 39.4541 77.6971Z" fill="#164AC7"/>
<mask id="mask0_10006_52345" style="mask-type:luminance" maskUnits="userSpaceOnUse" x="2" y="3" width="75" height="75">
<path d="M65.7892 66.3208C80.3333 51.8444 80.3333 28.3736 65.7892 13.8973C51.2451 -0.579046 27.6644 -0.579047 13.1203 13.8973C-1.42381 28.3736 -1.42381 51.8444 13.1203 66.3208C27.6644 80.7971 51.2451 80.7971 65.7892 66.3208Z" fill="white"/>
</mask>
<g mask="url(#mask0_10006_52345)">
<path d="M9.96403 30.5059H0.986511V62.0701H9.96403V30.5059Z" fill="#3B6ADC"/>
<path d="M21.4749 33.606H8.82019V77.1769H21.4749V33.606Z" fill="#3B6ADC"/>
<path d="M31.6084 23.52H18.9537V80.1087H31.6084V23.52Z" fill="#3B6ADC"/>
<path d="M39.5303 16.627H26.8756V84.3921H39.5303V16.627Z" fill="#3B6ADC"/>
<path d="M49.3488 33.7769H36.6941V90.3655H49.3488V33.7769Z" fill="#3B6ADC"/>
<path d="M57.8262 24.2349H45.1715V80.8235H57.8262V24.2349Z" fill="#3B6ADC"/>
<path d="M66.9958 28.8643H54.3411V85.4529H66.9958V28.8643Z" fill="#3B6ADC"/>
<path d="M74.2636 34.481H61.6089V91.0696H74.2636V34.481Z" fill="#3B6ADC"/>
<path d="M78.0135 37.6191H65.3588V94.2078H78.0135V37.6191Z" fill="#3B6ADC"/>
</g>
<path d="M79.7027 66.112L51.5291 70.9087L25.3944 67.2189L0.775879 70.9087L8.52732 45.2445L26.6919 41.5547L48.9342 45.2445L69.5083 42.1082L79.7027 66.112Z" fill="#F7EDE1"/>
<path d="M48.9342 45.2447L51.5291 70.9089L25.3944 67.2192L26.7197 43.0566L48.9342 45.2447Z" fill="#E5D6C6"/>
<path d="M26.7197 43.0565L48.6914 46.702L48.9249 46.7408L49.1585 46.7057L68.5927 43.7428L77.6082 64.972L51.5069 69.4163L25.602 65.7597L25.387 65.7302L25.172 65.7616L2.86851 69.1045L9.68948 46.5175L26.716 43.0584M26.6882 41.5585L8.52361 45.2483L0.775879 70.9088L25.3944 67.219L51.5291 70.9088L79.7027 66.1121L69.5083 42.1101L48.9342 45.2464L26.6919 41.5566L26.6882 41.5585Z" fill="white"/>
<path d="M26.6919 41.5547L26.7197 43.0564L49.088 46.7757L48.9342 45.2445L26.6919 41.5547Z" fill="#EDECEB"/>
<path d="M51.379 69.429L51.5291 70.9086L25.3944 67.2189V65.7227L51.379 69.429Z" fill="#EDECEB"/>
<path d="M6.48102 67.3147L10.1881 57.891L16.4901 56.9814L15.3779 65.7225L6.48102 67.3147Z" fill="#F2DAC0"/>
<path d="M17.4168 60.6582V64.9679H25.5186L25.754 60.6582H17.4168Z" fill="#F2DAC0"/>
<path d="M25.754 60.6582L27.3628 60.9054L28.9698 65.7058L25.5186 64.9679L25.754 60.6582Z" fill="#E5C09C"/>
<path d="M6.54407 56.9709L14.5439 55.5854L16.2121 50.9731L7.86563 52.5819L6.54407 56.9709Z" fill="#F2DAC0"/>
<path d="M16.212 54.7323C16.212 54.7323 23.3481 53.9962 25.387 50.6735L22.9311 47.2144L17.8339 48.9209L16.212 54.7323Z" fill="#F2DAC0"/>
<path d="M16.212 50.2347L16.9534 47.1445L9.30762 48.0209L9.07593 51.5501L16.212 50.2347Z" fill="#F2DAC0"/>
<path d="M9.72467 46.453L19.7337 44.4697L18.8069 45.9918L9.49298 47.2149L9.72467 46.453Z" fill="#F2DAC0"/>
<path d="M6.04732 58.6286L8.39574 58.1987L4.44217 68.7755L2.95935 69.0836L6.04732 58.6286Z" fill="#F2DAC0"/>
<path d="M17.0424 55.9924L17.4168 59.8593L25.8189 59.4903L26.1859 52.7915L17.0424 55.9924Z" fill="#F2DAC0"/>
<path d="M26.1858 52.7915L30.2061 54.3855L29.3405 60.6581L25.8188 59.4903L26.1858 52.7915Z" fill="#E5C09C"/>
<path d="M24.3361 44.4694L26.3175 50.386L30.2062 51.8029L31.1941 44.855L26.6919 44.165L24.3361 44.4694Z" fill="#E5C09C"/>
<path d="M26.6919 44.165L26.3175 50.386L24.3361 44.4694L26.6919 44.165Z" fill="#F2DAC0"/>
<path d="M32.2951 43.9824V48.4821L38.9919 47.984L38.4618 45.0082L32.2951 43.9824Z" fill="#E5C09C"/>
<path d="M32.2951 49.3472L30.6696 53.1864C30.6696 53.1864 37.2144 54.8486 38.9919 53.9705V51.8027L40.2393 51.5481V49.9578L32.2951 49.3472Z" fill="#E5C09C"/>
<path d="M31.1941 54.7319L31.689 60.6577H40.9566V58.1985C40.9566 58.1985 39.7518 56.5067 39.7518 55.492L31.1941 54.7319Z" fill="#E5C09C"/>
<path d="M31.1941 66.5508L30.6696 63.1821L34.84 62.1489L39.7518 62.8131L42.812 68.2057L31.1941 66.5508Z" fill="#E5C09C"/>
<path d="M40.9566 46.2329L42.812 49.3471L49.3438 49.3028L49.0806 46.696L43.4811 45.8418L40.9566 46.2329Z" fill="#E5C09C"/>
<path d="M49.0806 46.6965L49.3438 49.3033L53.9312 48.4823L53.0341 46.1006L49.0806 46.6965Z" fill="#F2DAC0"/>
<path d="M42.0817 50.9724L41.8648 51.5499L40.9566 53.9722L49.8943 54.7323L49.4532 50.3857L42.0817 50.9724Z" fill="#E5C09C"/>
<path d="M49.4531 50.3858L53.0656 49.3472L51.5291 54.7324H49.8943L49.4531 50.3858Z" fill="#F2DAC0"/>
<path d="M40.9566 56.231L42.812 61.3967H48.1854L46.2688 56.3251L42.0817 55.7402L40.9566 56.231Z" fill="#E5C09C"/>
<path d="M50.0944 56.7251L49.0806 56.9705L50.5671 61.3964L50.0944 56.7251Z" fill="#E5C09C"/>
<path d="M50.0945 56.7254L53.9313 55.7402L55.4141 59.8599L50.5671 61.3967L50.0945 56.7254Z" fill="#F2DAC0"/>
<path d="M53.0657 62.6211L50.7488 63.1819L51.379 69.4287L58.1314 66.0249L55.4141 63.1819L53.0657 62.6211Z" fill="#F2DAC0"/>
<path d="M50.7487 63.182L48.1853 62.813H43.9241L42.0817 65.1763C42.0817 65.1763 45.2864 68.9602 51.3808 69.4269L50.7487 63.182Z" fill="#E5C09C"/>
<path d="M68.5111 43.9824L59.1211 45.1613L55.4141 47.2756L53.9313 51.5502L70.4888 48.4821L68.5111 43.9824Z" fill="#F2DAC0"/>
<path d="M71.106 50.3857H65.9162L60.9747 52.7915L66.7818 56.7248L73.8252 56.2304L71.106 50.3857Z" fill="#F2DAC0"/>
<path d="M54.4391 52.7917L59.3677 51.8047V54.7344L60.9747 56.7269C60.9747 56.7269 54.9507 60.0532 54.441 52.7935L54.4391 52.7917Z" fill="#F2DAC0"/>
<path d="M63.1211 60.1196L61.8644 63.7172L60.9747 67.3147L68.0181 65.706L68.9448 60.6583L63.1211 60.1196Z" fill="#F2DAC0"/>
<path d="M74.6907 58.1987L77.5322 64.4714L70.2423 66.1207L69.499 62.1486C69.499 62.1486 71.4767 58.4459 74.6889 58.2006L74.6907 58.1987Z" fill="#F2DAC0"/>
<path d="M74.4535 57.6604C69.7214 59.7063 66.3944 59.5901 64.1868 59.0606C63.2063 58.8263 62.6299 58.5533 61.54 58.461C58.1721 58.1751 55.2714 60.0716 53.314 61.7671C52.4596 62.2394 51.6051 62.7117 50.7488 63.184L50.569 61.3981C51.0342 61.2505 51.7237 61.0015 52.5115 60.5993C54.0165 59.8281 54.4206 59.2341 55.4159 58.5699C57.6772 57.0608 60.2147 57.035 61.2861 57.0239C62.8115 57.0091 63.6975 57.3006 64.6836 57.4869C66.7169 57.8688 69.7122 57.8947 73.827 56.2324C74.0365 56.7084 74.2459 57.1844 74.4553 57.6622L74.4535 57.6604Z" fill="#8EDCEF"/>
<path d="M50.5671 61.3964L50.7469 63.1822C50.7469 63.1822 48.1872 63.3077 43.9222 62.8133C39.6573 62.3188 36.6305 62.9609 34.8381 62.1473C33.0458 61.3355 25.817 61.6418 25.817 61.6418V59.4888C25.817 59.4888 33.3497 59.5497 35.4535 60.6566C37.5572 61.7635 47.4514 60.3485 50.5671 61.3945V61.3964Z" fill="#68CDDD"/>
<path d="M25.8189 59.4909C25.8189 59.4909 21.5557 59.6145 18.4048 60.168C15.2538 60.7215 18.6216 56.9892 17.4168 55.862C16.212 54.7329 6.54405 56.9726 6.54405 56.9726L6.0473 58.6312C6.0473 58.6312 14.264 56.4782 15.1296 57.2789C15.9952 58.0777 13.3372 60.9945 15.0054 62.1494C16.6736 63.3043 25.817 61.6439 25.817 61.6439V59.4909H25.8189Z" fill="#8EDCEF"/>
<path d="M43.9834 61.5202C43.9834 61.5202 41.3273 59.5517 40.9566 55.7402C40.5859 51.9268 42.1799 52.816 42.0817 50.3863C41.9835 47.9566 40.2393 45.3036 40.2393 45.3036L39.5312 45.1855C39.5312 45.1855 41.7592 48.8458 41.3273 50.3863C40.8954 51.9268 39.5238 55.2513 40.2412 56.7253C40.9585 58.1994 42.5636 61.5202 43.1197 61.8283C43.6757 62.1364 43.9853 61.5202 43.9853 61.5202H43.9834Z" fill="#68CDDD"/>
<path d="M7.8656 52.5815C7.8656 52.5815 15.4391 50.0152 18.3436 50.3879C21.2481 50.7606 26.1858 53.5574 26.1858 53.5574L26.2859 50.9746C26.2859 50.9746 20.9997 48.9766 18.4678 48.484C15.934 47.9914 8.39756 50.637 8.39756 50.637L7.86745 52.5815H7.8656Z" fill="#EFCA2E"/>
<path d="M26.2859 50.9721C26.2859 50.9721 37.6814 55.8611 40.9566 55.7375C44.2317 55.6139 49.0824 46.6938 49.0824 46.6938L49.3456 49.2988C49.3456 49.2988 47.1362 54.8538 43.9852 56.0032C45.7201 57.1009 46.6358 58.2779 47.1529 59.169C47.6923 60.097 47.8313 60.7648 48.5764 61.809C49.3475 62.8901 50.2168 63.6041 50.8359 64.0413C50.9007 64.8605 50.9638 65.6814 51.0286 66.5006C50.4096 66.0154 49.4754 65.2128 48.5115 64.0709C46.5968 61.8035 46.4282 60.3958 44.8453 59.1284C43.4162 57.9846 41.8796 57.7909 40.7731 57.6137C37.8241 57.1396 33.3645 56.0493 26.1877 53.555C26.221 52.6934 26.2544 51.8337 26.2878 50.9721H26.2859Z" fill="#EDA02F"/>
<path d="M49.0806 46.6964L50.5671 46.4731L49.3438 49.3032L49.0806 46.6964Z" fill="#EFCA2E"/>
<path d="M50.834 64.042C52.0537 64.4332 54.8784 65.1324 57.0804 63.6878C58.3742 62.8392 58.9358 61.5441 60.059 58.9538C61.375 55.919 60.971 55.4633 62.1776 53.0484C62.8097 51.7828 63.6882 50.0246 65.4825 48.3771C65.4825 48.3771 65.9384 47.9583 69.2118 45.5747L69.9587 47.2739C68.7854 48.0856 67.1395 49.4527 65.7475 51.5706C65.0191 52.6794 64.526 53.7402 64.1868 54.6423L72.5815 53.5539L72.8947 54.2254L64.4352 55.5408C63.9255 56.3525 63.1934 57.6311 62.5261 59.3062C62.0034 60.6216 61.92 61.1769 61.4844 62.1326C61.021 63.1473 60.1851 64.5549 58.5651 66.0216C59.2824 66.6452 60.0016 67.2688 60.7189 67.8923L57.2676 68.3111L55.9702 67.3093C55.9702 67.3093 51.7775 67.4735 51.0268 66.4958L50.834 64.0365V64.042Z" fill="#EFCA2E"/>
<path d="M23.4093 50.3859C23.4093 50.3859 26.3212 47.3455 26.7197 43.0562L24.336 43.5026C24.336 43.5026 23.9116 47.8381 21.6132 49.5907L23.4093 50.3877V50.3859Z" fill="#EFCA2E"/>
<path d="M24.336 46.4731C24.336 46.4731 22.2582 45.5009 22.236 43.9844H21.9116C21.9116 43.9844 22.299 46.2665 24.1674 46.7757C26.0357 47.2849 24.336 46.4731 24.336 46.4731Z" fill="#EFCA2E"/>
<path opacity="0.15" d="M58.7504 56.3065L58.7597 57.7805L59.5234 58.2196H36.3524L35.5888 57.7805L30.4786 56.3065L30.3859 56.253C30.1987 56.146 30.4768 56.0593 31.0069 56.0593C31.537 56.0593 32.1171 56.146 32.3025 56.253L32.3952 56.3065C32.2321 56.2124 32.347 56.1312 32.6509 56.0888L32.5119 56.0094L30.4564 53.7568H51.7719L55.6829 56.0094L55.82 56.0888C56.2723 56.1312 56.6726 56.2124 56.8357 56.3065L56.7431 56.253C56.5559 56.146 56.8339 56.0593 57.364 56.0593C57.8941 56.0593 58.4743 56.146 58.6596 56.253L58.7523 56.3065H58.7486H58.7504Z" fill="#965626"/>
<g filter="url(#filter0_d_10006_52345)">
<path d="M51.9135 31.7456H25.2096V54.5107H51.9135V31.7456Z" fill="#F8F8F8"/>
</g>
<path d="M49.9122 34.6299H27.786V53.4934H49.9122V34.6299Z" fill="#40ABFF"/>
<path d="M51.9135 31.7456H25.2096V41.7663H51.9135V31.7456Z" fill="#EA914E"/>
<path d="M49.6236 34.1523H27.4974V41.7662H49.6236V34.1523Z" fill="#73D8D5"/>
<path d="M51.5205 29.2598H25.2096V31.7474H51.5205V29.2598Z" fill="#F43825"/>
<path d="M51.9135 29.2598H25.2096V31.7474H51.9135V29.2598Z" fill="#F43825"/>
<path d="M51.5205 31.7456H25.2096L22.2703 40.0845H54.4598L51.5205 31.7456Z" fill="#F75048"/>
<path d="M27.4141 31.7456H25.2096L22.2703 40.0845H24.4748L27.4141 31.7456Z" fill="#FFEAE9"/>
<path d="M32.3144 31.7456H30.1099L28.1511 40.0845H30.3556L32.3144 31.7456Z" fill="#FFEAE9"/>
<path d="M37.2147 31.7456H35.0102L34.0297 40.0845H36.2342L37.2147 31.7456Z" fill="#FFEAE9"/>
<path d="M42.115 31.7456H39.9084L40.8889 40.0845H43.0934L42.115 31.7456Z" fill="#FFEAE9"/>
<path d="M47.0132 31.7456H44.8087L46.7697 40.0845H48.9742L47.0132 31.7456Z" fill="#FFEAE9"/>
<path d="M51.9135 31.7456H49.709L52.6483 40.0845H54.8528L51.9135 31.7456Z" fill="#FFEAE9"/>
<path d="M23.3746 41.4897C22.7637 41.4897 22.2703 40.9964 22.2703 40.3905V40.0864H24.479V40.3905C24.479 40.9986 23.9834 41.4897 23.3746 41.4897Z" fill="#E8D1D1"/>
<path d="M26.739 41.4899H25.891C25.1113 41.4899 24.479 40.8605 24.479 40.0845H28.1489C28.1489 40.8605 27.5166 41.4899 26.7369 41.4899H26.739Z" fill="#E53333"/>
<path d="M29.2554 41.4897C28.6445 41.4897 28.1511 40.9964 28.1511 40.3905V40.0864H30.3598V40.3905C30.3598 40.9986 29.8642 41.4897 29.2554 41.4897Z" fill="#E8D1D1"/>
<path d="M32.6178 41.4899H31.7697C30.99 41.4899 30.3577 40.8605 30.3577 40.0845H34.0276C34.0276 40.8605 33.3953 41.4899 32.6156 41.4899H32.6178Z" fill="#E53333"/>
<path d="M35.1341 41.4897C34.5232 41.4897 34.0297 40.9964 34.0297 40.3905V40.0864H36.2385V40.3905C36.2385 40.9986 35.7429 41.4897 35.1341 41.4897Z" fill="#E8D1D1"/>
<path d="M39.4791 41.4899H37.6505C36.8708 41.4899 36.2385 40.8605 36.2385 40.0845H40.8889C40.8889 40.8605 40.2566 41.4899 39.4769 41.4899H39.4791Z" fill="#E53333"/>
<path d="M41.9932 41.4897C41.3823 41.4897 40.8889 40.9964 40.8889 40.3905V40.0864H43.0976V40.3905C43.0976 40.9986 42.602 41.4897 41.9932 41.4897Z" fill="#E8D1D1"/>
<path d="M45.3577 41.4899H44.5096C43.73 41.4899 43.0977 40.8605 43.0977 40.0845H46.7675C46.7675 40.8605 46.1353 41.4899 45.3556 41.4899H45.3577Z" fill="#E53333"/>
<path d="M47.8741 41.4897C47.2632 41.4897 46.7697 40.9964 46.7697 40.3905V40.0864H48.9785V40.3905C48.9785 40.9986 48.4829 41.4897 47.8741 41.4897Z" fill="#E8D1D1"/>
<path d="M51.2385 41.4899H50.3904C49.6108 41.4899 48.9785 40.8605 48.9785 40.0845H52.6483C52.6483 40.8605 52.0161 41.4899 51.2364 41.4899H51.2385Z" fill="#E53333"/>
<path d="M52.6483 40.0845H54.8571V40.3885C54.8571 40.9945 54.3615 41.4878 53.7527 41.4878C53.1439 41.4878 52.6483 40.9945 52.6483 40.3885V40.0845Z" fill="#E8D1D1"/>
<path d="M28.3514 52.8167H31.16L50.0635 41.5322H47.2612L28.3514 52.8167Z" fill="#71CEF7"/>
<path d="M47.6794 8.3724C47.6794 12.9962 39.2678 23.615 39.2678 23.615C39.2678 23.615 30.8562 12.9962 30.8562 8.3724C30.8562 3.74863 34.6224 0 39.2678 0C43.9132 0 47.6794 3.74863 47.6794 8.3724Z" fill="#FE6125"/>
<path d="M47.6794 8.3724C47.6794 12.9962 39.2678 23.615 39.2678 23.615C39.2678 23.615 30.8562 12.9962 30.8562 8.3724C30.8562 3.74863 34.6224 0 39.2678 0C43.9132 0 47.6794 3.74863 47.6794 8.3724Z" fill="#F76861"/>
<path d="M39.2678 0V23.617C39.2678 23.617 47.6794 12.9981 47.6794 8.37436C47.6794 3.75059 43.9132 0.0019531 39.2678 0.0019531V0Z" fill="#F43825"/>
<path d="M39.2678 11.8088C41.4215 11.8088 43.1674 10.071 43.1674 7.92737C43.1674 5.78369 41.4215 4.0459 39.2678 4.0459C37.1141 4.0459 35.3682 5.78369 35.3682 7.92737C35.3682 10.071 37.1141 11.8088 39.2678 11.8088Z" fill="#FEFEFE"/>
<path d="M39.2678 11.8088C41.4215 11.8088 43.1674 10.071 43.1674 7.92737C43.1674 5.78369 41.4215 4.0459 39.2678 4.0459C37.1141 4.0459 35.3682 5.78369 35.3682 7.92737C35.3682 10.071 37.1141 11.8088 39.2678 11.8088Z" fill="#FEFEFE"/>
<path d="M39.2678 4.0459V11.8088C41.4227 11.8088 43.1674 10.0703 43.1674 7.92737C43.1674 5.78445 41.4207 4.0459 39.2678 4.0459Z" fill="#CFECFA"/>
<defs>
<filter id="filter0_d_10006_52345" x="24.2096" y="31.7456" width="28.7039" height="24.7651" filterUnits="userSpaceOnUse" color-interpolation-filters="sRGB">
<feFlood flood-opacity="0" result="BackgroundImageFix"/>
<feColorMatrix in="SourceAlpha" type="matrix" values="0 0 0 0 0 0 0 0 0 0 0 0 0 0 0 0 0 0 127 0" result="hardAlpha"/>
<feOffset dy="1"/>
<feGaussianBlur stdDeviation="0.5"/>
<feComposite in2="hardAlpha" operator="out"/>
<feColorMatrix type="matrix" values="0 0 0 0 0 0 0 0 0 0 0 0 0 0 0 0 0 0 0.2 0"/>
<feBlend mode="normal" in2="BackgroundImageFix" result="effect1_dropShadow_10006_52345"/>
<feBlend mode="normal" in="SourceGraphic" in2="effect1_dropShadow_10006_52345" result="shape"/>
</filter>
</defs>
</svg>
