<svg width="22" height="16" viewBox="0 0 22 16" fill="none" xmlns="http://www.w3.org/2000/svg">
<path d="M21.0128 3.04866C20.7777 2.16502 20.0824 1.46793 19.1978 1.22902C17.5982 0.800293 11.1804 0.800293 11.1804 0.800293C11.1804 0.800293 4.76587 0.800293 3.16305 1.22902C2.28166 1.46466 1.58635 2.16175 1.34805 3.04866C0.92041 4.65229 0.92041 8.00029 0.92041 8.00029C0.92041 8.00029 0.92041 11.3483 1.34805 12.9519C1.58308 13.8356 2.2784 14.5327 3.16305 14.7716C4.76587 15.2003 11.1804 15.2003 11.1804 15.2003C11.1804 15.2003 17.5982 15.2003 19.1978 14.7716C20.0792 14.5359 20.7745 13.8388 21.0128 12.9519C21.4404 11.3483 21.4404 8.00029 21.4404 8.00029C21.4404 8.00029 21.4404 4.65229 21.0128 3.04866Z" fill="#1A1B1E"/>
<path d="M9.13037 11.0865L14.4611 8.00029L9.13037 4.91411V11.0865Z" fill="white"/>
</svg>
