<svg width="40" height="40" viewBox="0 0 40 40" fill="none" xmlns="http://www.w3.org/2000/svg">
<circle cx="20" cy="20" r="19.25" fill="#F2F2F2" stroke="#F2F2F2" stroke-width="1.5"/>
<g clip-path="url(#clip0_6771_229335)">
<path d="M29.8042 20.2312C29.8042 19.5514 29.7491 18.868 29.6315 18.1992H20.1992V22.05H25.6007C25.3765 23.292 24.6563 24.3907 23.6018 25.0888V27.5874H26.8243C28.7166 25.8457 29.8042 23.2736 29.8042 20.2312Z" fill="#A3A3AC"/>
<path d="M20.1999 30.0017C22.897 30.0017 25.1714 29.1162 26.8286 27.5876L23.6061 25.089C22.7096 25.699 21.5521 26.0444 20.2036 26.0444C17.5947 26.0444 15.3827 24.2843 14.589 21.918H11.2637V24.4938C12.9613 27.8706 16.4189 30.0017 20.1999 30.0017Z" fill="#C9C8CD"/>
<path d="M14.5847 21.9163C14.1658 20.6743 14.1658 19.3295 14.5847 18.0875V15.5117H11.263C9.84463 18.3374 9.84463 21.6664 11.263 24.4921L14.5847 21.9163Z" fill="#A3A3AC"/>
<path d="M20.1999 13.9581C21.6256 13.936 23.0035 14.4725 24.036 15.4572L26.8911 12.6022C25.0833 10.9046 22.6838 9.97128 20.1999 10.0007C16.4189 10.0007 12.9613 12.1319 11.2637 15.5123L14.5854 18.0881C15.3754 15.7181 17.5911 13.9581 20.1999 13.9581Z" fill="#C9C8CD"/>
</g>
<defs>
<clipPath id="clip0_6771_229335">
<rect width="20" height="20" fill="white" transform="translate(10 10)"/>
</clipPath>
</defs>
</svg>
