<svg width="16" height="16" viewBox="0 0 16 16" fill="none" xmlns="http://www.w3.org/2000/svg">
<g clip-path="url(#clip0_5107_231273)">
<path d="M1.94385 4.6875L2.77413 14.7105C2.83363 15.4333 3.44932 16 4.17488 16H11.825C12.5506 16 13.1663 15.4333 13.2258 14.7105L14.056 4.6875H1.94385ZM5.65575 14.125C5.41038 14.125 5.20394 13.9341 5.18838 13.6855L4.71963 6.12303C4.7036 5.86441 4.89997 5.64194 5.15816 5.62591C5.42594 5.60713 5.63882 5.80581 5.65528 6.06444L6.12403 13.6269C6.14063 13.8948 5.92872 14.125 5.65575 14.125ZM8.46869 13.6562C8.46869 13.9153 8.25904 14.125 7.99994 14.125C7.74085 14.125 7.53119 13.9153 7.53119 13.6562V6.09375C7.53119 5.83466 7.74085 5.625 7.99994 5.625C8.25904 5.625 8.46869 5.83466 8.46869 6.09375V13.6562ZM11.2803 6.12306L10.8115 13.6856C10.7961 13.9316 10.591 14.1367 10.3144 14.1241C10.0562 14.1081 9.85982 13.8856 9.87585 13.627L10.3446 6.06447C10.3606 5.80584 10.5872 5.61769 10.8417 5.62594C11.0999 5.64197 11.2963 5.86444 11.2803 6.12306Z" fill="current"/>
<path d="M14.0938 1.875H11.2812V1.40625C11.2812 0.630813 10.6504 0 9.875 0H6.125C5.34956 0 4.71875 0.630813 4.71875 1.40625V1.875H1.90625C1.38847 1.875 0.96875 2.29472 0.96875 2.8125C0.96875 3.33022 1.38847 3.75 1.90625 3.75C6.21769 3.75 9.78247 3.75 14.0938 3.75C14.6115 3.75 15.0312 3.33022 15.0312 2.8125C15.0312 2.29472 14.6115 1.875 14.0938 1.875ZM10.3438 1.875H5.65625V1.40625C5.65625 1.14762 5.86637 0.9375 6.125 0.9375H9.875C10.1336 0.9375 10.3438 1.14762 10.3438 1.40625V1.875Z" fill="current"/>
</g>
<defs>
<clipPath id="clip0_5107_231273">
<rect width="16" height="16" fill="current"/>
</clipPath>
</defs>
</svg>
