<svg width="16" height="16" viewBox="0 0 16 16" fill="none" xmlns="http://www.w3.org/2000/svg">
<path d="M12.0998 14.4132C11.5131 14.5866 10.8198 14.6666 10.0064 14.6666H6.00642C5.19309 14.6666 4.49975 14.5866 3.91309 14.4132C4.05975 12.6799 5.83975 11.3132 8.00642 11.3132C10.1731 11.3132 11.9531 12.6799 12.0998 14.4132Z" stroke="current" stroke-width="1.5" stroke-linecap="round" stroke-linejoin="round"/>
<path d="M10.0065 1.33325H6.00651C2.67318 1.33325 1.33984 2.66659 1.33984 5.99992V9.99992C1.33984 12.5199 2.09984 13.8999 3.91318 14.4132C4.05984 12.6799 5.83984 11.3132 8.00651 11.3132C10.1732 11.3132 11.9532 12.6799 12.0998 14.4132C13.9132 13.8999 14.6732 12.5199 14.6732 9.99992V5.99992C14.6732 2.66659 13.3398 1.33325 10.0065 1.33325ZM8.00651 9.44657C6.68651 9.44657 5.61984 8.37326 5.61984 7.05326C5.61984 5.73326 6.68651 4.66659 8.00651 4.66659C9.32651 4.66659 10.3932 5.73326 10.3932 7.05326C10.3932 8.37326 9.32651 9.44657 8.00651 9.44657Z" stroke="current" stroke-width="1.5" stroke-linecap="round" stroke-linejoin="round"/>
<path d="M10.3935 7.05343C10.3935 8.37343 9.32679 9.44674 8.00679 9.44674C6.68679 9.44674 5.62012 8.37343 5.62012 7.05343C5.62012 5.73343 6.68679 4.66675 8.00679 4.66675C9.32679 4.66675 10.3935 5.73343 10.3935 7.05343Z" stroke="current" stroke-width="1.5" stroke-linecap="round" stroke-linejoin="round"/>
</svg>
