<svg width="18" height="18" viewBox="0 0 18 18" fill="none" xmlns="http://www.w3.org/2000/svg">
<path d="M7.44043 16.5H11.9404C15.6904 16.5 17.1904 15 17.1904 11.25V6.75C17.1904 3 15.6904 1.5 11.9404 1.5H7.44043C3.69043 1.5 2.19043 3 2.19043 6.75V11.25C2.19043 15 3.69043 16.5 7.44043 16.5Z" stroke="current" stroke-width="1.5" stroke-linecap="round" stroke-linejoin="round"/>
<path d="M7.51562 9.00012V7.89012C7.51562 6.45762 8.52813 5.88012 9.76563 6.59262L10.7256 7.14762L11.6856 7.70262C12.9231 8.41512 12.9231 9.58511 11.6856 10.2976L10.7256 10.8526L9.76563 11.4076C8.52813 12.1201 7.51562 11.5351 7.51562 10.1101V9.00012Z" stroke="current" stroke-width="1.5" stroke-miterlimit="10" stroke-linecap="round" stroke-linejoin="round"/>
</svg>
