<svg width="40" height="40" viewBox="0 0 40 40" fill="none" xmlns="http://www.w3.org/2000/svg">
<rect x="1" y="1" width="38" height="38" rx="19" fill="#EBF6FF"/>
<path d="M11.3499 28.4278L10.8805 27.8429H10.8805L11.3499 28.4278ZM14.9762 25.5177V24.7677H14.7124L14.5068 24.9328L14.9762 25.5177ZM10.897 13.8505C10.897 12.9358 11.6385 12.1943 12.5531 12.1943V10.6943C10.81 10.6943 9.39697 12.1074 9.39697 13.8505H10.897ZM10.897 22.0987V13.8505H9.39697V22.0987H10.897ZM10.897 23.1116V22.0987H9.39697V23.1116H10.897ZM10.897 27.8508V23.1116H9.39697V27.8508H10.897ZM10.8805 27.8429C10.8768 27.8458 10.8764 27.8454 10.8792 27.8443C10.8819 27.8432 10.8851 27.8425 10.888 27.8422C10.8934 27.8417 10.8939 27.8429 10.8912 27.8417C10.8885 27.8404 10.8899 27.84 10.8928 27.8445C10.8945 27.847 10.8958 27.8499 10.8967 27.8527C10.8976 27.8556 10.897 27.8555 10.897 27.8508H9.39697C9.39697 29.1011 10.8442 29.7953 11.8193 29.0128L10.8805 27.8429ZM14.5068 24.9328L10.8805 27.8429L11.8193 29.0128L15.4456 26.1026L14.5068 24.9328ZM27.4468 24.7677H14.9762V26.2677H27.4468V24.7677ZM29.103 23.1116C29.103 24.0262 28.3615 24.7677 27.4468 24.7677V26.2677C29.1899 26.2677 30.603 24.8546 30.603 23.1116H29.103ZM29.103 13.8505V23.1116H30.603V13.8505H29.103ZM27.4468 12.1943C28.3615 12.1943 29.103 12.9358 29.103 13.8505H30.603C30.603 12.1074 29.1899 10.6943 27.4468 10.6943V12.1943ZM12.5531 12.1943H27.4468V10.6943H12.5531V12.1943Z" fill="#007BDB"/>
<path d="M23.8822 20.0921V22.3187C23.8822 22.4785 23.7527 22.608 23.5929 22.608H22.4253C22.2655 22.608 22.136 22.4785 22.136 22.3187V15.3701C22.136 15.2103 22.2655 15.0808 22.4253 15.0808H24.7914C25.3218 15.0808 25.7765 15.1445 26.1553 15.272C26.5376 15.396 26.851 15.5682 27.0956 15.7886C27.3436 16.009 27.5261 16.269 27.6432 16.5687C27.7603 16.8683 27.8189 17.1921 27.8189 17.5399C27.8189 17.9154 27.7586 18.2598 27.638 18.5732C27.5175 18.8866 27.3332 19.1553 27.0853 19.3791C26.8373 19.603 26.5221 19.7787 26.1398 19.9061C25.761 20.0301 25.3115 20.0921 24.7914 20.0921H23.8822ZM23.8822 18.7747H24.7914C25.2461 18.7747 25.5733 18.6662 25.773 18.4492C25.9728 18.2322 26.0727 17.9291 26.0727 17.5399C26.0727 17.3677 26.0468 17.211 25.9952 17.0698C25.9435 16.9286 25.8643 16.8081 25.7575 16.7082C25.6542 16.6049 25.5216 16.5256 25.3597 16.4705C25.2013 16.4154 25.0119 16.3879 24.7914 16.3879H23.8822V18.7747Z" fill="#007BDB"/>
<path d="M20.6342 22.3187C20.6342 22.4785 20.5047 22.608 20.3449 22.608H19.167C19.0072 22.608 18.8777 22.4785 18.8777 22.3187V15.3701C18.8777 15.2103 19.0072 15.0808 19.167 15.0808H20.3449C20.5047 15.0808 20.6342 15.2103 20.6342 15.3701V22.3187Z" fill="#007BDB"/>
<path d="M17.5311 15.0808C17.6909 15.0808 17.8204 15.2103 17.8204 15.3701V15.7111C17.8204 15.8006 17.8049 15.8885 17.7739 15.9746C17.7464 16.0607 17.7068 16.1416 17.6551 16.2174L14.1214 21.2648H17.4175C17.5772 21.2648 17.7068 21.3943 17.7068 21.5541V22.3187C17.7068 22.4785 17.5772 22.608 17.4175 22.608H12.1892C12.0294 22.608 11.8999 22.4785 11.8999 22.3187V21.9364C11.8999 21.8572 11.9137 21.7797 11.9412 21.7039C11.9688 21.6247 12.0067 21.5524 12.0549 21.487L15.5989 16.424H12.4785C12.3187 16.424 12.1892 16.2945 12.1892 16.1347V15.3701C12.1892 15.2103 12.3187 15.0808 12.4785 15.0808H17.5311Z" fill="#007BDB"/>
</svg>
