<svg width="16" height="16" viewBox="0 0 16 16" fill="none" xmlns="http://www.w3.org/2000/svg">
<path d="M8.68751 1.30703H8.68748C7.364 1.30703 6.07023 1.69949 4.96979 2.43478C3.86935 3.17007 3.01167 4.21517 2.50519 5.43791C1.99871 6.66065 1.8662 8.00612 2.12439 9.30418C2.38259 10.6022 3.01991 11.7946 3.95576 12.7304C4.89161 13.6663 6.08395 14.3036 7.382 14.5618C8.68006 14.82 10.0255 14.6875 11.2483 14.181C12.471 13.6745 13.5161 12.8168 14.2514 11.7164C14.9867 10.6159 15.3791 9.32218 15.3791 7.9987V7.99867C15.3771 6.22455 14.6715 4.52367 13.417 3.26918C12.1625 2.01469 10.4616 1.30904 8.68751 1.30703ZM11.3291 7.99865L11.3291 7.99875C11.3303 8.58535 11.2878 9.17121 11.2019 9.75147H6.17308C6.0034 8.58912 6.0034 7.40828 6.17308 6.24592H11.2019C11.2878 6.82619 11.3303 7.41205 11.3291 7.99865ZM8.68748 13.7515C8.23967 13.7515 7.77648 13.4625 7.36416 12.9286C6.95671 12.4011 6.60177 11.6376 6.36392 10.6904H11.011C10.7732 11.6376 10.4183 12.4011 10.0108 12.9286C9.59848 13.4625 9.13529 13.7515 8.68748 13.7515ZM5.23022 9.75147H3.21055V6.24592H5.23022C5.06583 7.40866 5.06583 8.58874 5.23022 9.75147ZM8.68748 2.24592C9.13529 2.24592 9.59848 2.53487 10.0108 3.06876C10.4183 3.59633 10.7732 4.35976 11.011 5.30703H6.36392C6.60177 4.35976 6.95671 3.59633 7.36416 3.06876C7.77648 2.53487 8.23967 2.24592 8.68748 2.24592ZM12.1447 6.24592H14.1644C14.5321 7.38551 14.5321 8.61189 14.1644 9.75147H12.1447C12.2265 9.1708 12.2677 8.58513 12.268 7.99871V7.99868C12.2677 7.41226 12.2265 6.82659 12.1447 6.24592ZM12.243 7.9987C12.2427 7.41226 12.2014 6.82658 12.1195 6.24592L12.243 7.9987ZM11.9763 5.30703C11.7822 4.37127 11.4105 3.4816 10.8815 2.68609C12.1172 3.19924 13.137 4.12542 13.7665 5.30703H11.9763ZM3.60851 5.30703C4.23792 4.12542 5.25778 3.19924 6.49342 2.68609C5.96448 3.4816 5.59279 4.37127 5.39866 5.30703H3.60851ZM5.39866 10.6904C5.59279 11.6261 5.96448 12.5158 6.49342 13.3113C5.25778 12.7982 4.23791 11.872 3.60851 10.6904H5.39866ZM11.9763 10.6904H13.7665C13.137 11.872 12.1172 12.7982 10.8815 13.3113C11.4105 12.5158 11.7822 11.6261 11.9763 10.6904Z" fill="current" stroke="current" stroke-width="0.05"/>
</svg>
