<svg width="28" height="29" viewBox="0 0 28 29" fill="none" xmlns="http://www.w3.org/2000/svg">
<path d="M7.68848 3.68164V12.3495L17.6355 8.01558L7.68848 3.68164Z" fill="#007BDC"/>
<path d="M8.18848 4.44489L16.3837 8.01558L8.18848 11.5863V4.44489Z" stroke="#3F3E4E"/>
<path fill-rule="evenodd" clip-rule="evenodd" d="M23.4758 23.9766C23.927 23.5719 24.0125 23.2761 24.0125 23.1081C24.0125 22.94 23.927 22.6443 23.4758 22.2395C23.0251 21.8353 22.3071 21.4178 21.3202 21.0434C19.3546 20.2977 16.5607 19.8122 13.4167 19.8122C10.2728 19.8122 7.47882 20.2977 5.51327 21.0434C4.52639 21.4178 3.80834 21.8353 3.35766 22.2395C2.90642 22.6443 2.82096 22.94 2.82096 23.1081C2.82096 23.2761 2.90642 23.5719 3.35766 23.9766C3.80834 24.3809 4.52639 24.7983 5.51327 25.1728C7.47882 25.9185 10.2728 26.4039 13.4167 26.4039C16.5607 26.4039 19.3546 25.9185 21.3202 25.1728C22.3071 24.7983 23.0251 24.3809 23.4758 23.9766ZM25.1792 23.1081C25.1792 25.5727 19.9129 27.5706 13.4167 27.5706C6.92052 27.5706 1.6543 25.5727 1.6543 23.1081C1.6543 20.6435 6.92052 18.6455 13.4167 18.6455C19.9129 18.6455 25.1792 20.6435 25.1792 23.1081Z" fill="#3F3E4E"/>
<path d="M8.85807 3.51462V21.8565C8.85807 22.1867 8.60493 22.4639 8.27474 22.4639V22.4639V22.4639C7.94455 22.4639 7.69141 22.1867 7.69141 21.8565V3.51462C7.69141 3.27298 7.95749 3.07031 8.27474 3.07031C8.60223 3.06954 8.85807 3.2722 8.85807 3.51462Z" fill="#3F3E4E"/>
<path d="M14.1488 23.2019C14.8755 23.2019 15.4645 22.6128 15.4645 21.8861C15.4645 21.1594 14.8755 20.5703 14.1488 20.5703C13.4221 20.5703 12.833 21.1594 12.833 21.8861C12.833 22.6128 13.4221 23.2019 14.1488 23.2019Z" fill="#3F3E4E"/>
</svg>
