<svg width="28" height="28" viewBox="0 0 28 28" fill="none" xmlns="http://www.w3.org/2000/svg">
<g clip-path="url(#clip0_2930_44753)">
<path d="M5.91962 15.7105V22.0872C5.91962 22.3384 5.9691 22.5872 6.06525 22.8193C6.16139 23.0513 6.30231 23.2622 6.47996 23.4398C6.6576 23.6174 6.86849 23.7583 7.10059 23.8544C7.33268 23.9505 7.58144 23.9999 7.83264 23.9998H21.9667C22.474 23.9998 22.9605 23.7983 23.3191 23.4396C23.6778 23.081 23.8793 22.5945 23.8793 22.0872V11.2205L14.8993 4.05371L5.91919 10.8751L5.91962 15.7105Z" fill="current" stroke="current" stroke-width="1.16667" stroke-miterlimit="10"/>
<path d="M12.8271 16.5068H16.9718C17.3382 16.5068 17.6896 16.6524 17.9487 16.9115C18.2077 17.1706 18.3533 17.522 18.3533 17.8884V23.9996H11.4456V17.8884C11.4456 17.522 11.5911 17.1706 11.8502 16.9115C12.1093 16.6524 12.4607 16.5068 12.8271 16.5068Z" fill="current" stroke="current" stroke-width="1.16667" stroke-miterlimit="10"/>
<path d="M8.09318 14.1764C5.82528 14.1764 4.1644 12.0432 4.71616 9.84395L5.9997 4.74431C6.05341 4.53161 6.17655 4.34292 6.34961 4.2081C6.52267 4.07328 6.73576 4.00005 6.95513 4H11.5747V10.6919C11.575 11.1493 11.4852 11.6023 11.3104 12.0251C11.1356 12.4478 10.8792 12.8319 10.5559 13.1555C10.2326 13.4791 9.84869 13.7358 9.42613 13.911C9.00356 14.0862 8.55061 14.1763 8.09318 14.1764Z" fill="current" stroke="current" stroke-width="1.16667" stroke-miterlimit="10"/>
<path d="M4.70186 9.91016C4.19717 12.0861 5.84897 14.1778 8.09399 14.1778H8.08709C8.54396 14.1774 8.99625 14.0869 9.41815 13.9116C9.84004 13.7363 10.2232 13.4795 10.5459 13.1561C10.8685 12.8326 11.1243 12.4487 11.2985 12.0264C11.4727 11.604 11.562 11.1515 11.5612 10.6946V9.91016H4.70186Z" fill="current" stroke="current" stroke-width="1.16667" stroke-miterlimit="10"/>
<path d="M14.9257 14.176H14.9231C14.0352 14.1759 13.1837 13.8231 12.5559 13.1952C11.9281 12.5673 11.5754 11.7158 11.5754 10.8279V4H18.2738V10.8279C18.2738 11.7158 17.921 12.5674 17.2932 13.1953C16.6653 13.8232 15.8137 14.176 14.9257 14.176Z" fill="current" stroke="current" stroke-width="1.16667" stroke-miterlimit="10"/>
<path d="M11.561 9.91016V10.8289C11.5625 11.7177 11.9167 12.5696 12.5457 13.1975C13.1747 13.8254 14.0272 14.178 14.916 14.1778H14.9299C16.7794 14.1778 18.2913 12.678 18.2913 10.8289V9.91016H11.561Z" fill="current" stroke="current" stroke-width="1.16667" stroke-miterlimit="10"/>
<path d="M21.732 14.176C21.2779 14.176 20.8283 14.0865 20.4088 13.9128C19.9893 13.739 19.6082 13.4843 19.2871 13.1632C18.9661 12.8421 18.7114 12.4609 18.5377 12.0414C18.364 11.6219 18.2746 11.1723 18.2747 10.7182V4H22.8385C23.0579 3.99995 23.2709 4.07309 23.444 4.20784C23.6171 4.34258 23.7402 4.53123 23.794 4.74388L25.0853 9.87288C25.6349 12.0566 23.9839 14.1751 21.732 14.1751V14.176Z" fill="current" stroke="current" stroke-width="1.16667" stroke-miterlimit="10"/>
<path d="M18.2932 9.91016V10.7192C18.2922 11.1729 18.3806 11.6223 18.5535 12.0417C18.7263 12.4611 18.9801 12.8424 19.3004 13.1636C19.6208 13.4848 20.0013 13.7398 20.4202 13.9138C20.8391 14.0878 21.2883 14.1776 21.7419 14.1778H21.7367C23.9766 14.1778 25.6163 12.0813 25.093 9.91016H18.2932Z" fill="current" stroke="current" stroke-width="1.16667" stroke-miterlimit="10"/>
</g>
<defs>
<clipPath id="clip0_2930_44753">
<rect width="28" height="28" fill="current" transform="translate(0.609619)"/>
</clipPath>
</defs>
</svg>
