<svg width="15" height="26" viewBox="0 0 15 26" fill="none" xmlns="http://www.w3.org/2000/svg">
<path d="M10.6221 18.6953C10.6689 18.4349 10.6481 18.2135 10.5596 18.0312C10.4762 17.849 10.3512 17.6953 10.1846 17.5703C10.0179 17.4453 9.8278 17.3385 9.61426 17.25C9.40072 17.1615 9.19499 17.0781 8.99707 17C8.59082 16.8438 8.18978 16.6641 7.79395 16.4609C7.40332 16.2578 7.04915 16.0182 6.73145 15.7422C6.41374 15.4661 6.16374 15.1432 5.98145 14.7734C5.80436 14.3984 5.73145 13.9609 5.7627 13.4609C5.79915 12.8932 5.95801 12.4036 6.23926 11.9922C6.52572 11.5755 6.8929 11.2344 7.34082 10.9688C7.78874 10.7031 8.27051 10.5104 8.78613 10.3906C9.30697 10.2656 9.81999 10.2083 10.3252 10.2188C11.0335 10.2292 11.6663 10.375 12.2236 10.6562C12.7861 10.9375 13.2262 11.3411 13.5439 11.8672C13.8669 12.388 14.0205 13.013 14.0049 13.7422H11.5439C11.5596 13.4245 11.5179 13.1484 11.4189 12.9141C11.3252 12.6797 11.1715 12.4974 10.958 12.3672C10.7445 12.237 10.4736 12.1693 10.1455 12.1641C9.86426 12.1536 9.58561 12.1953 9.30957 12.2891C9.03353 12.3828 8.79655 12.5286 8.59863 12.7266C8.40072 12.9193 8.27311 13.1693 8.21582 13.4766C8.17936 13.7057 8.21322 13.9062 8.31738 14.0781C8.42676 14.2448 8.5752 14.388 8.7627 14.5078C8.9554 14.6224 9.15592 14.7214 9.36426 14.8047C9.5778 14.888 9.7679 14.9583 9.93457 15.0156C10.3564 15.1771 10.7627 15.3646 11.1533 15.5781C11.5492 15.7865 11.8981 16.0365 12.2002 16.3281C12.5075 16.6146 12.7419 16.9505 12.9033 17.3359C13.0648 17.7214 13.1299 18.1667 13.0986 18.6719C13.057 19.2552 12.9007 19.7526 12.6299 20.1641C12.359 20.5755 12.0127 20.9115 11.5908 21.1719C11.1689 21.4323 10.7028 21.6224 10.1924 21.7422C9.68717 21.862 9.17415 21.9193 8.65332 21.9141C8.0804 21.9036 7.54134 21.8151 7.03613 21.6484C6.53613 21.4818 6.09863 21.237 5.72363 20.9141C5.34863 20.5911 5.05697 20.1979 4.84863 19.7344C4.64551 19.2656 4.55176 18.7266 4.56738 18.1172L7.05176 18.125C7.03092 18.4271 7.05176 18.6953 7.11426 18.9297C7.18197 19.1589 7.28613 19.3516 7.42676 19.5078C7.57259 19.6589 7.75749 19.7734 7.98145 19.8516C8.21061 19.9297 8.48145 19.9688 8.79395 19.9688C9.06999 19.974 9.33822 19.9323 9.59863 19.8438C9.86426 19.7552 10.0882 19.6172 10.2705 19.4297C10.458 19.2422 10.5752 18.9974 10.6221 18.6953Z" fill="url(#paint0_linear_7181_75157)"/>
<path d="M4.65625 12.6172L8.44531 3.875H11.2891L5.72656 15.25H3.85938L4.65625 12.6172ZM3.77344 3.875L4.85156 12.8438L4.84375 15.25H3.07031L1.08594 3.875H3.77344Z" fill="url(#paint1_linear_7181_75157)"/>
<defs>
<linearGradient id="paint0_linear_7181_75157" x1="9.28613" y1="21.5" x2="5.50905" y2="10.7083" gradientUnits="userSpaceOnUse">
<stop stop-color="#FF2631"/>
<stop offset="1" stop-color="#B00009"/>
</linearGradient>
<linearGradient id="paint1_linear_7181_75157" x1="5.5" y1="15" x2="2" y2="4" gradientUnits="userSpaceOnUse">
<stop stop-color="#FF2631"/>
<stop offset="1" stop-color="#D1161F"/>
</linearGradient>
</defs>
</svg>
