<svg width="12" height="14" viewBox="0 0 12 14" fill="none" xmlns="http://www.w3.org/2000/svg">
<path d="M10.285 3.875C9.33955 3.875 8.57072 4.67609 8.57072 5.66071C8.57072 5.90725 8.7624 6.10714 8.99929 6.10714C9.23619 6.10714 9.42787 5.90725 9.42787 5.66071C9.42787 5.16828 9.81248 4.76786 10.285 4.76786C10.7575 4.76786 11.1422 5.16828 11.1422 5.66071C11.1422 6.15315 10.7575 6.55357 10.285 6.55357H0.461775C0.224882 6.55357 0.0332031 6.75346 0.0332031 7C0.0332031 7.24654 0.224882 7.44643 0.461775 7.44643H10.285C11.2305 7.44643 11.9993 6.64534 11.9993 5.66071C11.9993 4.67609 11.2305 3.875 10.285 3.875Z" fill="current"/>
<path d="M0.428571 5.66127H6C6.94546 5.66127 7.71429 4.86018 7.71429 3.87556C7.71429 2.89093 6.94546 2.08984 6 2.08984C5.05454 2.08984 4.28571 2.89093 4.28571 3.87556C4.28571 4.1221 4.47739 4.32199 4.71429 4.32199C4.95118 4.32199 5.14286 4.1221 5.14286 3.87556C5.14286 3.38312 5.52747 2.9827 6 2.9827C6.47253 2.9827 6.85714 3.38312 6.85714 3.87556C6.85714 4.368 6.47253 4.76841 6 4.76841H0.428571C0.191679 4.76841 0 4.9683 0 5.21484C0 5.46138 0.191679 5.66127 0.428571 5.66127Z" fill="current"/>
<path d="M6 8.33984H0.428571C0.191679 8.33984 0 8.53973 0 8.78627C0 9.03281 0.191679 9.2327 0.428571 9.2327H6C6.47253 9.2327 6.85714 9.63312 6.85714 10.1256C6.85714 10.618 6.47253 11.0184 6 11.0184C5.52747 11.0184 5.14286 10.618 5.14286 10.1256C5.14286 9.87902 4.95118 9.67913 4.71429 9.67913C4.47739 9.67913 4.28571 9.87902 4.28571 10.1256C4.28571 11.1102 5.05454 11.9113 6 11.9113C6.94546 11.9113 7.71429 11.1102 7.71429 10.1256C7.71429 9.14093 6.94546 8.33984 6 8.33984Z" fill="current"/>
</svg>
