<svg width="24" height="24" viewBox="0 0 24 24" fill="none" xmlns="http://www.w3.org/2000/svg">
<path fill-rule="evenodd" clip-rule="evenodd" d="M2.875 5.0075C2.875 4.47816 3.28751 4.04052 3.81592 4.00925L19.8159 3.06233C20.3904 3.02833 20.875 3.48507 20.875 4.06058V16.8526C20.875 17.4282 20.3904 17.8849 19.8159 17.8509L9.6271 17.2479L6.72855 20.1464C6.41357 20.4614 5.875 20.2383 5.875 19.7929V17.0258L3.81592 16.904C3.28751 16.8727 2.875 16.4351 2.875 15.9057V5.0075ZM14.5543 10.4956C14.9819 10.2756 14.9819 9.7256 14.5543 9.50559L9.83698 7.07805C9.40943 6.85804 8.875 7.13306 8.875 7.57308V12.4282C8.875 12.8682 9.40943 13.1432 9.83698 12.9232L14.5543 10.4956Z" fill="url(#paint0_linear_5303_171424)"/>
<defs>
<linearGradient id="paint0_linear_5303_171424" x1="2.875" y1="10.9568" x2="22.8691" y2="13.9759" gradientUnits="userSpaceOnUse">
<stop stop-color="#1058E2"/>
<stop offset="1" stop-color="#1785E7"/>
</linearGradient>
</defs>
</svg>
