<svg width="65" height="65" viewBox="0 0 65 65" fill="none" xmlns="http://www.w3.org/2000/svg">
<g clip-path="url(#clip0_310_29223)">
<path d="M0.0175781 32.501C0.0175781 14.8279 14.3445 0.500977 32.0176 0.500977C49.6907 0.500977 64.0176 14.8279 64.0176 32.501C64.0176 50.1741 49.6907 64.501 32.0176 64.501C14.3445 64.501 0.0175781 50.1741 0.0175781 32.501Z" fill="#DAEFFF"/>
<g clip-path="url(#clip1_310_29223)">
<path d="M24.3904 44.3237L15.6973 43.2361C15.6973 43.2361 17.9437 36.1341 19.2705 29.0985C20.4599 22.7915 20.3521 10.4858 31.7053 10.501C43.256 10.5162 45.1123 22.8993 45.1123 22.8993L46.7939 34.7386C47.1098 36.964 47.8982 39.0739 49.0937 40.8983L50.6264 43.2361C50.6264 43.2361 45.328 44.8675 37.9759 44.3237C30.6238 43.7799 24.3904 44.3237 24.3904 44.3237Z" fill="#1A1E26"/>
<path d="M22.1612 35.8962C22.1612 35.8962 20.3763 37.7965 19.5105 33.2667C18.5839 28.4256 18.6173 25.7977 20.2776 25.2462C21.3394 24.8923 21.6447 25.7961 21.6447 25.7961L22.1612 35.8962Z" fill="#FFC8A5"/>
<path d="M25.002 39.7638V43.1892C25.002 44.4363 25.5625 45.6166 26.5286 46.4034L29.5135 48.8385C31.034 50.0795 33.2169 50.0841 34.7435 48.8506L37.7724 46.4034C38.7477 45.6151 39.3143 44.4287 39.3143 43.1755V39.4326L25.002 39.7638Z" fill="#EAD2C5"/>
<g opacity="0.47">
<path opacity="0.47" d="M25.002 42.2823C26.9281 44.415 29.3403 45.5801 32.0153 45.5801C34.824 45.5801 37.3456 44.3087 39.3158 41.9648V39.4341L25.002 39.7652V42.2823Z" fill="#D8B9A7"/>
</g>
<path d="M32.0789 43.7345C38.6138 43.7345 43.6266 37.4821 43.6266 27.1239C43.6266 14.2076 39.4781 11.209 32.0789 11.209C24.6797 11.209 20.5313 14.2076 20.5313 27.1239C20.5297 37.4821 25.5425 43.7345 32.0789 43.7345Z" fill="#FCD0B4"/>
<path d="M42.209 35.8962C42.209 35.8962 43.9938 37.7965 44.8612 33.2667C45.7863 28.4256 45.7559 25.7977 44.0941 25.2462C43.0323 24.8923 42.727 25.7961 42.727 25.7961L42.209 35.8962Z" fill="#FFC8A5"/>
<path d="M32.2207 11.2104V43.7253C38.6842 43.6341 43.6241 37.4046 43.6241 27.1238C43.6256 14.2941 39.5288 11.2499 32.2207 11.2104Z" fill="#FFD9C1"/>
<path d="M21.3692 48.2158L12.1578 54.1826C11.2844 54.7477 10.657 55.6211 10.3957 56.6282L8.36328 64.5013H32.0252V49.5419L21.3692 48.2158Z" fill="#DA5326"/>
<path d="M25.0133 42.9614H24.2857L21.3691 48.2158L28.3309 55.062L32.0251 49.5419L25.0133 42.9614Z" fill="white"/>
<path d="M42.6638 48.1987L51.8752 54.1655C52.7486 54.7306 53.376 55.604 53.6373 56.6111L55.6713 64.4843H32.0078V49.5248L42.6638 48.1987Z" fill="#F36F21"/>
<path d="M39.0197 42.9443H39.7473L42.6638 48.1987L35.7021 55.0434L32.0078 49.5233L39.0197 42.9443Z" fill="white"/>
<path d="M32.8825 18.8345C32.8825 18.8345 36.0937 23.0924 39.9035 24.3972C43.7132 25.7021 44.1491 32.1746 44.1491 32.1746C44.1491 32.1746 47.5184 11.2986 33.2425 10.5421C16.5256 9.65503 20.7151 32.1746 20.7151 32.1746C20.7151 32.1746 23.3248 28.5183 26.7547 26.0621C30.1847 23.6058 32.8825 18.8345 32.8825 18.8345Z" fill="#1A1E26"/>
<path d="M33.0742 17.496C33.0742 17.496 34.8743 22.1609 37.5113 24.6931C40.1483 27.2254 40.6375 27.2967 40.6375 27.2967C40.6375 27.2967 37.487 24.2359 37.007 21.3665C36.527 18.497 35.8237 17.0615 35.8237 17.0615L33.0742 17.496Z" fill="#071D23"/>
<path d="M45.3411 25.1123L44.8413 21.0671C44.6408 20.1071 44.1851 19.22 43.7993 18.2843C43.4347 17.4002 42.9152 16.5921 42.0007 16.311C38.791 15.3282 36.1297 14.8345 31.9068 14.8832C27.9482 14.9287 25.6681 15.8417 22.5982 16.7835C21.7065 17.0569 20.9424 17.5916 20.6082 18.462C20.3865 19.0423 20.1297 19.7501 19.8882 20.7557L19.5312 25.0531C19.5312 25.1761 19.9171 25.2764 20.0492 25.2764L45.1011 25.3356C45.2332 25.3356 45.3411 25.2353 45.3411 25.1123Z" fill="#FFECE1"/>
<path d="M45.0575 29.5554C45.0575 29.9519 44.3846 30.3818 43.8909 30.0765C41.4802 28.5848 37.2588 27.3012 32.3387 27.3012C28.7128 27.3012 23.4691 28.6972 20.9672 29.5418C20.3414 29.7529 19.6548 29.3701 19.6548 28.922L19.5333 24.7401C19.5302 24.6505 19.6214 24.573 19.752 24.5502C21.0295 24.3361 27.5112 23.2925 32.2977 23.2925C39.2153 23.2925 45.0029 25.0196 45.0029 25.0196C45.2824 25.0166 45.0575 29.5554 45.0575 29.5554Z" fill="#953906"/>
<path d="M45.0575 29.1848C45.0575 29.5813 44.3846 30.0112 43.8909 29.7059C41.4802 28.2142 37.2588 26.9306 32.3387 26.9306C28.7128 26.9306 23.4691 28.3266 20.9672 29.1712C20.3414 29.3823 19.6548 28.9995 19.6548 28.5514L19.5333 24.3695C19.5302 24.2799 19.6214 24.2024 19.752 24.1796C21.0295 23.9654 27.5112 22.9219 32.2977 22.9219C39.2153 22.9219 45.0029 24.649 45.0029 24.649C45.2824 24.646 45.0575 29.1848 45.0575 29.1848Z" fill="url(#paint0_linear_310_29223)"/>
<path d="M43.6808 19.9056L43.4531 19.8838L43.3333 21.1355L43.5609 21.1573L43.6808 19.9056Z" fill="#006EB7"/>
<path d="M43.1497 20.2664L42.9219 20.2446L42.8725 20.76L43.1004 20.7818L43.1497 20.2664Z" fill="#ED1A3B"/>
<path d="M42.7044 19.4979L42.4766 19.4761L42.3763 20.5231L42.6041 20.5449L42.7044 19.4979Z" fill="#F7941D"/>
<path d="M35.2184 21.5043C35.102 21.3696 35.0488 21.1814 35.0686 20.9746C35.1132 20.5302 35.4599 20.2734 35.9518 20.3205C36.1229 20.3369 36.2526 20.3797 36.3254 20.4173C36.3143 20.4474 36.2591 20.5974 36.2461 20.6321C36.1583 20.586 36.0592 20.5584 35.928 20.5458C35.6153 20.5158 35.4031 20.6846 35.3742 20.9865C35.3453 21.2877 35.5163 21.5005 35.8096 21.5286C35.8812 21.5355 35.9481 21.5336 35.98 21.524L35.9942 21.5198L36.0269 21.1782C36.0269 21.1782 35.8363 21.16 35.8015 21.1566C35.8047 21.1231 35.8185 20.9797 35.8217 20.9462C35.8593 20.9498 36.2849 20.9906 36.3229 20.9942C36.319 21.0351 36.2568 21.6844 36.2538 21.7157C36.1341 21.7421 35.952 21.7636 35.7801 21.7471C35.524 21.7226 35.3402 21.643 35.2184 21.5043Z" fill="#023F88"/>
<path d="M36.9891 21.8511C36.6652 21.8201 36.4961 21.5587 36.5257 21.2495C36.5568 20.9242 36.7918 20.7014 37.1143 20.7323C37.4514 20.7646 37.6116 21.0318 37.5829 21.3313C37.5487 21.6885 37.3115 21.882 36.9907 21.8513L36.9891 21.8511ZM37.0191 21.6575C37.187 21.6736 37.2979 21.5266 37.3183 21.314C37.3369 21.1193 37.2602 20.9428 37.0891 20.9264C36.918 20.91 36.8063 21.0651 36.7869 21.2679C36.7673 21.4724 36.8515 21.6412 37.0177 21.6571L37.0191 21.6573L37.0191 21.6575Z" fill="#023F88"/>
<path d="M37.877 20.8413L38.1245 20.865L38.0404 21.744L38.5414 21.792L38.5217 21.9979L37.7731 21.9263L37.877 20.8413Z" fill="#023F88"/>
<path d="M38.8789 20.9375L39.6452 21.0109L39.6259 21.2122L39.1072 21.1625L39.0835 21.4102L39.5744 21.4572L39.5552 21.6569L39.0644 21.6098L39.0226 22.0462L38.775 22.0225L38.8789 20.9375Z" fill="#023F88"/>
<path d="M39.729 21.9805L40.3232 21.2853L40.3237 21.2804L39.8481 21.2349L39.8675 21.0319L40.6639 21.1081L40.6504 21.2499L40.0686 21.9352L40.068 21.9415L40.5876 21.9913L40.5682 22.1941L39.7164 22.1125L39.729 21.9805Z" fill="#023F88"/>
<path d="M41.243 22.2589C40.9187 22.2278 40.75 21.9664 40.7796 21.6572C40.8107 21.3319 41.0458 21.1091 41.3682 21.14C41.7053 21.1723 41.8655 21.4395 41.8368 21.739C41.8026 22.0962 41.5654 22.2897 41.2446 22.259L41.243 22.2589ZM41.273 22.0652C41.4409 22.0813 41.5518 21.9343 41.5722 21.7218C41.5908 21.527 41.5139 21.3505 41.343 21.3341C41.1719 21.3178 41.0602 21.4728 41.0408 21.6756C41.0212 21.8801 41.1054 22.0489 41.2714 22.0648L41.273 22.065L41.273 22.0652Z" fill="#023F88"/>
<path d="M42.0052 22.3318L42.1091 21.2469L42.3992 21.2747L42.7442 22.0844L42.7474 22.0847L42.8546 20.9656L43.0822 20.9874L42.9448 22.422L42.6651 22.3953L42.3051 21.5518L42.3068 21.5519L42.2298 22.3536L42.0052 22.3321L42.0052 22.3318Z" fill="#023F88"/>
</g>
</g>
<defs>
<linearGradient id="paint0_linear_310_29223" x1="19.5332" y1="26.3656" x2="36.8702" y2="38.955" gradientUnits="userSpaceOnUse">
<stop stop-color="#DA5326"/>
<stop offset="1" stop-color="#F36F21"/>
</linearGradient>
<clipPath id="clip0_310_29223">
<path d="M0.0175781 32.501C0.0175781 14.8279 14.3445 0.500977 32.0176 0.500977C49.6907 0.500977 64.0176 14.8279 64.0176 32.501C64.0176 50.1741 49.6907 64.501 32.0176 64.501C14.3445 64.501 0.0175781 50.1741 0.0175781 32.501Z" fill="white"/>
</clipPath>
<clipPath id="clip1_310_29223">
<rect width="47.3072" height="54" fill="white" transform="translate(8.36328 10.501)"/>
</clipPath>
</defs>
</svg>
