<svg width="24" height="24" viewBox="0 0 24 24" fill="none" xmlns="http://www.w3.org/2000/svg">
<circle cx="12" cy="12" r="12" fill="#40ABFF"/>
<path d="M12.795 17.105L14.205 18.905H16.95L14.73 16.265C15.99 15.29 16.74 13.64 16.74 11.405C16.74 7.805 14.715 5.69 11.775 5.69C8.835 5.69 6.81 7.79 6.81 11.405C6.81 15.005 8.835 17.21 11.775 17.21C12.12 17.21 12.45 17.165 12.795 17.105ZM11.775 15.29C10.125 15.29 9.075 13.76 9.075 11.405C9.075 8.99 10.08 7.595 11.775 7.595C13.47 7.595 14.475 8.99 14.475 11.405C14.475 13.76 13.425 15.29 11.775 15.29Z" fill="white"/>
</svg>
