<svg width="28" height="28" viewBox="0 0 28 28" fill="none" xmlns="http://www.w3.org/2000/svg">
<path d="M24.2715 12.813L16.682 4.93172C16.4345 4.67496 16.055 4.59436 15.7247 4.72734C15.3931 4.8616 15.1759 5.18272 15.1759 5.53996V9.33478H14.884C8.60708 9.33478 3.5 14.4419 3.5 20.7188V22.4702C3.5 22.8764 3.78605 23.2151 4.18179 23.3074C4.24614 23.3237 4.31027 23.3307 4.37441 23.3307C4.70494 23.3307 5.02135 23.1368 5.17421 22.8322C6.81593 19.5477 10.1167 17.5079 13.7888 17.5079H15.1759V21.3025C15.1759 21.6599 15.3931 21.9811 15.7247 22.114C16.0528 22.2483 16.4345 22.1666 16.682 21.9096L24.2715 14.0284C24.5984 13.6887 24.5984 13.154 24.2715 12.813Z" fill="current"/>
</svg>
