<svg width="16" height="16" viewBox="0 0 16 16" fill="none" xmlns="http://www.w3.org/2000/svg">
<path d="M14.4765 14.1784C14.7469 14.4588 14.7469 14.9134 14.4765 15.1938C14.2061 15.4741 13.7677 15.4741 13.4973 15.1938L11.0739 12.681C10.8035 12.4006 10.8035 11.946 11.0739 11.6656C11.3443 11.3852 11.7827 11.3852 12.0531 11.6656L14.4765 14.1784ZM6.71668 12.8912C3.65747 12.8912 1.17749 10.3197 1.17749 7.14764C1.17749 3.97555 3.65747 1.40405 6.71668 1.40405C9.77589 1.40405 12.2559 3.97555 12.2559 7.14764C12.2559 10.3197 9.77589 12.8912 6.71668 12.8912ZM6.71668 11.4553C9.01109 11.4553 10.8711 9.52672 10.8711 7.14764C10.8711 4.76857 9.01109 2.83995 6.71668 2.83995C4.42227 2.83995 2.56229 4.76857 2.56229 7.14764C2.56229 9.52672 4.42227 11.4553 6.71668 11.4553Z" fill="current"/>
</svg>
