<svg width="16" height="17" viewBox="0 0 16 17" fill="none" xmlns="http://www.w3.org/2000/svg">
<path d="M8.66667 2.91732H12.6667C13.0203 2.91732 13.3594 3.07786 13.6095 3.36363C13.8595 3.6494 14 4.03699 14 4.44113V12.0602C14 12.4643 13.8595 12.8519 13.6095 13.1377C13.3594 13.4234 13.0203 13.584 12.6667 13.584H3.33333C2.97971 13.584 2.64057 13.4234 2.39052 13.1377C2.14048 12.8519 2 12.4643 2 12.0602V9.01256" stroke="white" stroke-width="1.5" stroke-linecap="round" stroke-linejoin="round"/>
<path fill-rule="evenodd" clip-rule="evenodd" d="M2.32314 2.83425C2.23468 2.87085 2.15181 2.92511 2.0799 2.99701C2.00799 3.06892 1.95374 3.1518 1.91714 3.24026C1.88047 3.32869 1.86023 3.42565 1.86023 3.52734V5.96802C1.86023 6.38224 2.19602 6.71802 2.61023 6.71802C3.02444 6.71802 3.36023 6.38224 3.36023 5.96802V5.338L6.85956 8.83733C7.15245 9.13023 7.62733 9.13023 7.92022 8.83733C8.21311 8.54444 8.21311 8.06957 7.92022 7.77667L4.42089 4.27734H5.05091C5.46512 4.27734 5.80091 3.94156 5.80091 3.52734C5.80091 3.11313 5.46512 2.77734 5.05091 2.77734H2.61023C2.50854 2.77734 2.41157 2.79758 2.32314 2.83425Z" fill="white"/>
</svg>
