<svg width="17" height="16" viewBox="0 0 17 16" fill="none" xmlns="http://www.w3.org/2000/svg">
<path d="M6.75008 6.66667C7.48646 6.66667 8.08342 6.06971 8.08342 5.33333C8.08342 4.59695 7.48646 4 6.75008 4C6.0137 4 5.41675 4.59695 5.41675 5.33333C5.41675 6.06971 6.0137 6.66667 6.75008 6.66667Z" stroke="current" stroke-width="1.2" stroke-linecap="round" stroke-linejoin="round"/>
<path d="M9.41659 1.3335H6.74992C3.41659 1.3335 2.08325 2.66683 2.08325 6.00016V10.0002C2.08325 13.3335 3.41659 14.6668 6.74992 14.6668H10.7499C14.0833 14.6668 15.4166 13.3335 15.4166 10.0002V6.66683" stroke="current" stroke-width="1.2" stroke-linecap="round" stroke-linejoin="round"/>
<path d="M12.75 1.3335V5.3335L14.0833 4.00016" stroke="current" stroke-width="1.2" stroke-linecap="round" stroke-linejoin="round"/>
<path d="M12.7501 5.33333L11.4167 4" stroke="current" stroke-width="1.2" stroke-linecap="round" stroke-linejoin="round"/>
<path d="M2.53003 12.6335L5.8167 10.4269C6.34336 10.0735 7.10336 10.1135 7.5767 10.5202L7.7967 10.7135C8.3167 11.1602 9.1567 11.1602 9.6767 10.7135L12.45 8.33354C12.97 7.88687 13.81 7.88687 14.33 8.33354L15.4167 9.26687" stroke="current" stroke-width="1.2" stroke-linecap="round" stroke-linejoin="round"/>
</svg>
