<svg width="60" height="28" viewBox="0 0 60 28" fill="none" xmlns="http://www.w3.org/2000/svg">
<g clip-path="url(#clip0_17828_21551)">
<path d="M1.02742 5.39142C0.716748 5.66538 0.686982 6.13932 0.960941 6.44999L5.42535 11.5128C5.69931 11.8234 6.17325 11.8532 6.48393 11.5792C6.79461 11.3053 6.82437 10.8313 6.55041 10.5207L2.58204 6.02043L7.08227 2.05206C7.39295 1.7781 7.42271 1.30416 7.14876 0.993488C6.8748 0.682812 6.40086 0.653047 6.09018 0.927005L1.02742 5.39142ZM25.0336 26.3192L25.0947 25.5717L25.0336 26.3192ZM42.5014 12.1287L42.7205 11.4114L42.5014 12.1287ZM1.47646 6.70247C2.13072 6.74356 2.7708 6.79353 3.39693 6.85191L3.5362 5.35839C2.89474 5.29858 2.23957 5.24744 1.57048 5.20542L1.47646 6.70247ZM5.2986 7.06004C6.61519 7.22611 7.86501 7.43081 9.05038 7.66931L9.34626 6.19879C8.12373 5.9528 6.83779 5.7423 5.48631 5.57183L5.2986 7.06004ZM10.9057 8.0823C12.2056 8.40058 13.4198 8.76112 14.552 9.15629L15.0463 7.74008C13.8671 7.3285 12.6069 6.95453 11.2624 6.62533L10.9057 8.0823ZM16.3209 9.82795C17.5598 10.3386 18.6861 10.8921 19.7061 11.4757L20.4511 10.1738C19.3727 9.55675 18.1883 8.97519 16.8924 8.44111L16.3209 9.82795ZM21.3048 12.4714C22.4184 13.2266 23.3762 14.0168 24.1905 14.8186L25.2429 13.7497C24.3607 12.8811 23.3319 12.0337 22.1466 11.23L21.3048 12.4714ZM25.4417 16.1922C26.2993 17.2489 26.9218 18.3012 27.3394 19.2972L28.7227 18.7173C28.2457 17.5795 27.5466 16.4055 26.6065 15.247L25.4417 16.1922ZM27.8731 21.002C28.1516 22.3736 28.0006 23.5054 27.591 24.2825L28.918 24.9819C29.5305 23.8198 29.6704 22.3153 29.3431 20.7035L27.8731 21.002ZM26.5752 25.3169C26.1832 25.5172 25.6924 25.6205 25.0947 25.5717L24.9726 27.0667C25.8144 27.1355 26.5891 26.9942 27.2576 26.6527L26.5752 25.3169ZM25.0947 25.5717C24.3416 25.5102 23.8106 25.3535 23.4495 25.1562L22.7303 26.4726C23.3313 26.8009 24.0842 26.9942 24.9726 27.0667L25.0947 25.5717ZM22.7107 24.1481C22.6087 23.4174 22.972 22.3135 23.9116 20.9724L22.6831 20.1117C21.6868 21.5337 21.0417 23.0416 21.2251 24.3554L22.7107 24.1481ZM25.1128 19.4872C25.9204 18.6032 26.8959 17.7138 27.9907 16.8777L27.0802 15.6856C25.9214 16.5707 24.8787 17.5196 24.0054 18.4754L25.1128 19.4872ZM29.5859 15.7547C30.6681 15.0538 31.8235 14.423 33.0138 13.9041L32.4143 12.5291C31.1431 13.0833 29.9157 13.7539 28.7705 14.4957L29.5859 15.7547ZM34.8249 13.2134C36.0794 12.8045 37.3426 12.5394 38.5748 12.4579L38.4759 10.9612C37.0994 11.0522 35.7125 11.3463 34.36 11.7873L34.8249 13.2134ZM40.4577 12.4845C41.0824 12.547 41.6922 12.6658 42.2824 12.846L42.7205 11.4114C42.03 11.2005 41.323 11.0636 40.6072 10.9919L40.4577 12.4845ZM42.2824 12.846C42.923 13.0416 43.5252 13.2337 44.0935 13.4259L44.574 12.005C43.9887 11.807 43.3721 11.6104 42.7205 11.4114L42.2824 12.846ZM45.8599 14.0681C47.1358 14.5709 48.2148 15.0965 49.1743 15.7015L49.9743 14.4327C48.9162 13.7655 47.7486 13.2001 46.4098 12.6726L45.8599 14.0681ZM50.6481 16.7697C51.531 17.5034 52.3447 18.3672 53.1632 19.434L54.3532 18.5209C53.4791 17.3816 52.5897 16.4329 51.6068 15.6161L50.6481 16.7697ZM54.2459 20.9559C54.8712 21.8961 55.5157 22.9649 56.2115 24.1931L57.5166 23.4538C56.8099 22.2062 56.1463 21.1047 55.4949 20.1252L54.2459 20.9559ZM57.1361 25.861C57.4279 26.3973 57.7293 26.9593 58.0423 27.5488L59.3672 26.8455C59.0523 26.2524 58.7484 25.6858 58.4537 25.144L57.1361 25.861Z" fill="black"/>
</g>
<defs>
<clipPath id="clip0_17828_21551">
<rect width="60" height="28" fill="white"/>
</clipPath>
</defs>
</svg>
