<svg width="41" height="40" viewBox="0 0 41 40" fill="none" xmlns="http://www.w3.org/2000/svg">
<rect x="0.746094" width="40" height="40" rx="20" fill="white"/>
<path d="M20.7462 15.8901L19.6762 17.7501C19.4362 18.1601 19.6362 18.5001 20.1062 18.5001H21.3762C21.8562 18.5001 22.0462 18.8401 21.8062 19.2501L20.7462 21.1101" stroke="#292D32" stroke-width="1.5" stroke-linecap="round" stroke-linejoin="round"/>
<path d="M17.0462 26.0402V24.8802C14.7462 23.4902 12.8562 20.7802 12.8562 17.9002C12.8562 12.9502 17.4062 9.07018 22.5462 10.1902C24.8062 10.6902 26.7862 12.1902 27.8162 14.2602C29.9062 18.4602 27.7062 22.9202 24.4762 24.8702V26.0302C24.4762 26.3202 24.5862 26.9902 23.5162 26.9902H18.0062C16.9062 27.0002 17.0462 26.5702 17.0462 26.0402Z" stroke="#292D32" stroke-width="1.5" stroke-linecap="round" stroke-linejoin="round"/>
<path d="M17.2461 30.0002C19.5361 29.3502 21.9561 29.3502 24.2461 30.0002" stroke="#292D32" stroke-width="1.5" stroke-linecap="round" stroke-linejoin="round"/>
</svg>
