<svg width="20" height="20" viewBox="0 0 20 20" fill="none" xmlns="http://www.w3.org/2000/svg">
    <path d="M8.52943 4.43555C8.11556 4.43555 7.7113 4.51504 7.32798 4.67184C6.4911 5.0141 5.85579 5.68926 5.55231 6.50895C4.83461 7.0079 4.33989 7.79188 4.21789 8.68778C4.09586 9.5836 4.36289 10.4713 4.92102 11.144C4.99422 12.015 5.42583 12.8354 6.14067 13.389C6.69419 13.8177 7.38454 14.0537 8.08462 14.0537C8.26325 14.0537 8.44146 14.0385 8.61708 14.0085C9.03599 14.2063 9.49673 14.3108 9.97201 14.3108C10.3859 14.3108 10.7902 14.2313 11.1735 14.0745C12.0104 13.7322 12.6457 13.0571 12.9492 12.2374C13.6668 11.7385 14.1615 10.9546 14.2836 10.0587C14.4056 9.16278 14.1385 8.27505 13.5805 7.60239C13.5072 6.73141 13.0756 5.91098 12.3608 5.35735C11.8073 4.92871 11.117 4.69266 10.4169 4.69266C10.2382 4.69266 10.06 4.70793 9.88435 4.73789C9.46544 4.54004 9.00466 4.43555 8.52943 4.43555Z" fill="#FFF7C0"/>
    <path d="M8.52944 6.33984C8.3676 6.33984 8.20451 6.37078 8.04897 6.43438C7.58322 6.62484 7.27389 7.07235 7.26029 7.57535L7.2535 7.82598L7.01252 7.89524C6.52892 8.03426 6.17302 8.44571 6.10513 8.94426C6.0372 9.44286 6.27013 9.9345 6.69892 10.1978L6.91256 10.329L6.85205 10.5722C6.73064 11.0606 6.909 11.5745 7.30686 11.8826C7.53412 12.0586 7.80858 12.1484 8.08455 12.1484C8.29166 12.1484 8.49963 12.0979 8.68932 11.9951L8.90975 11.8756L9.09022 12.0497C9.33147 12.2824 9.64913 12.4055 9.97194 12.4055C10.1338 12.4055 10.2969 12.3746 10.4524 12.311C10.9182 12.1205 11.2275 11.673 11.2411 11.17L11.2479 10.9194L11.4888 10.8501C11.9724 10.7111 12.3283 10.2997 12.3962 9.8011C12.4641 9.30254 12.2312 8.8109 11.8024 8.54758L11.5888 8.41641L11.6493 8.17309C11.7707 7.68477 11.5923 7.17082 11.1945 6.86273C10.9672 6.68672 10.6928 6.59687 10.4168 6.59687C10.2097 6.59687 10.0017 6.64746 9.81202 6.75024L9.59159 6.86965L9.41112 6.69563C9.16995 6.46301 8.85225 6.33984 8.52944 6.33984Z" fill="#FFDE82"/>
    <path d="M10.0037 9.95555L9.97178 11.1354L9.12221 10.3161L8.08447 10.8783L8.36924 9.73293L7.36342 9.11535L8.49776 8.78926L8.52967 7.60938L9.37924 8.42871L10.417 7.86645L10.1323 9.01188L11.1381 9.62946L10.0037 9.95555Z" fill="white"/>
    <path d="M6.43509 8.65958C6.40099 8.65958 6.36657 8.654 6.33247 8.64239L3.42387 7.64927C3.25801 7.5927 3.16934 7.41227 3.2261 7.24626C3.2825 7.08024 3.46266 6.99157 3.62911 7.04849L6.53771 8.04161C6.70357 8.09817 6.79224 8.2786 6.73548 8.44462C6.69056 8.5765 6.56716 8.65958 6.43509 8.65958Z" fill="#FFB43A"/>
    <path d="M8.42759 6.60511C8.28994 6.60511 8.16314 6.51487 8.12283 6.37616L7.02599 2.60744C6.977 2.43912 7.07372 2.26303 7.24208 2.21404C7.41071 2.16459 7.5865 2.26209 7.63548 2.43014L8.73232 6.19886C8.7813 6.36718 8.68458 6.54327 8.51622 6.59226C8.48677 6.60093 8.45673 6.60511 8.42759 6.60511Z" fill="#FFB43A"/>
    <path d="M11.1942 7.17882C11.1263 7.17882 11.0581 7.1571 11.0001 7.11233C10.8615 7.00507 10.8361 6.80558 10.9434 6.66698L13.4703 3.4042C13.5779 3.26561 13.7773 3.24053 13.9158 3.34764C14.0544 3.45491 14.0798 3.6544 13.9726 3.79299L11.4456 7.05577C11.383 7.13651 11.289 7.17882 11.1942 7.17882Z" fill="#FFB43A"/>
    <path d="M9.78482 7.29328C9.76189 7.29328 9.73861 7.29082 9.71537 7.28571C9.54424 7.24758 9.43666 7.07801 9.47447 6.90688L10.2371 3.48242C10.2756 3.31128 10.4458 3.20511 10.6163 3.24152C10.7874 3.27964 10.895 3.44921 10.8572 3.62035L10.0945 7.04481C10.0614 7.1927 9.93025 7.29328 9.78482 7.29328Z" fill="#FFDB64"/>
    <path d="M7.31989 7.51655C7.23246 7.51655 7.14535 7.48057 7.08274 7.4099L5.58101 5.71982C5.46445 5.58885 5.47621 5.3881 5.60738 5.2717C5.7382 5.15513 5.93879 5.16678 6.05535 5.29822L7.55707 6.9883C7.67364 7.11928 7.66188 7.32002 7.53071 7.43643C7.47024 7.49018 7.39489 7.51655 7.31989 7.51655Z" fill="#FFDB64"/>
    <path d="M4.54583 10.061C4.38184 10.061 4.24294 9.9348 4.22962 9.76863C4.21598 9.59379 4.34618 9.44094 4.52102 9.42699L6.23169 9.29168C6.40993 9.28066 6.55939 9.4084 6.57333 9.58308C6.58697 9.75793 6.45677 9.91078 6.28193 9.92473L4.57126 10.06C4.56259 10.0607 4.55423 10.061 4.54583 10.061Z" fill="#FFDB64"/>
    <path d="M6.78235 1.26985C7.13301 1.26985 7.41728 0.985581 7.41728 0.634923C7.41728 0.284265 7.13301 0 6.78235 0C6.4317 0 6.14743 0.284265 6.14743 0.634923C6.14743 0.985581 6.4317 1.26985 6.78235 1.26985Z" fill="#FFDB64"/>
    <path d="M1.67191 7.34992C2.02257 7.34992 2.30683 7.06566 2.30683 6.715C2.30683 6.36434 2.02257 6.08008 1.67191 6.08008C1.32125 6.08008 1.03699 6.36434 1.03699 6.715C1.03699 7.06566 1.32125 7.34992 1.67191 7.34992Z" fill="#FFDB64"/>
    <path d="M14.8878 2.72883C15.2385 2.72883 15.5228 2.44457 15.5228 2.09391C15.5228 1.74325 15.2385 1.45898 14.8878 1.45898C14.5372 1.45898 14.2529 1.74325 14.2529 2.09391C14.2529 2.44457 14.5372 2.72883 14.8878 2.72883Z" fill="#FFDB64"/>
    <path d="M12.6426 14.726C12.5393 14.726 12.438 14.6757 12.3772 14.583L10.6879 12.0155C10.5915 11.869 10.6321 11.6721 10.7784 11.5757C10.9257 11.4794 11.1222 11.5199 11.218 11.6664L12.9073 14.2339C13.0037 14.3804 12.9631 14.5773 12.8168 14.6737C12.7629 14.7091 12.7024 14.726 12.6426 14.726Z" fill="#FFB43A"/>
    <path d="M16.3668 9.83402C16.3634 9.83402 16.3603 9.83402 16.3569 9.83386L12.4336 9.7148C12.2585 9.70952 12.1205 9.56304 12.1258 9.38788C12.1314 9.21272 12.282 9.07569 12.4528 9.08019L16.3761 9.19925C16.5513 9.20452 16.6893 9.35101 16.684 9.52616C16.6787 9.69808 16.5377 9.83402 16.3668 9.83402Z" fill="#FFB43A"/>
    <path d="M11.4385 8.57398C11.3228 8.57398 11.2116 8.51074 11.1554 8.40082C11.0757 8.24472 11.1378 8.05344 11.2937 7.97379L14.4187 6.37874C14.5759 6.29843 14.7662 6.36124 14.8459 6.51718C14.9255 6.67328 14.8635 6.86457 14.7076 6.94421L11.5826 8.53926C11.5361 8.56285 11.4868 8.57398 11.4385 8.57398Z" fill="#FFDB64"/>
    <path d="M13.8495 12.0471C13.8008 12.0471 13.7512 12.0359 13.705 12.0122L11.693 10.9809C11.5371 10.9009 11.4754 10.7095 11.5553 10.5535C11.6353 10.3978 11.8272 10.3359 11.9825 10.4157L13.9946 11.447C14.1505 11.527 14.2122 11.7184 14.1322 11.8744C14.0761 11.9841 13.9648 12.0471 13.8495 12.0471Z" fill="#FFDB64"/>
    <path d="M10.0676 14.3388C9.91627 14.3388 9.78233 14.2304 9.75506 14.0764L9.45776 12.3861C9.42768 12.2134 9.54303 12.0488 9.71569 12.0184C9.88744 11.9884 10.0527 12.1034 10.0834 12.2761L10.3807 13.9663C10.4108 14.139 10.2954 14.3036 10.1228 14.334C10.1042 14.3372 10.0859 14.3388 10.0676 14.3388Z" fill="#FFDB64"/>
    <path d="M18.3281 10.2132C18.6787 10.2132 18.963 9.92894 18.963 9.57828C18.963 9.22762 18.6787 8.94336 18.3281 8.94336C17.9774 8.94336 17.6932 9.22762 17.6932 9.57828C17.6932 9.92894 17.9774 10.2132 18.3281 10.2132Z" fill="#FFDB64"/>
    <path d="M13.7195 16.682C14.0701 16.682 14.3544 16.3977 14.3544 16.047C14.3544 15.6964 14.0701 15.4121 13.7195 15.4121C13.3688 15.4121 13.0846 15.6964 13.0846 16.047C13.0846 16.3977 13.3688 16.682 13.7195 16.682Z" fill="#FFDB64"/>
    <path d="M1.82015 19.9997C1.78234 19.9997 1.7439 19.9928 1.70668 19.9784C1.543 19.9158 1.46082 19.7321 1.52375 19.5684C3.21582 15.1525 6.83559 11.3836 6.98876 11.2253C7.11091 11.0996 7.3118 11.0964 7.43766 11.2182C7.56352 11.34 7.56692 11.5411 7.44509 11.667C7.40848 11.7049 3.76113 15.5034 2.11648 19.7956C2.06816 19.922 1.94789 19.9997 1.82015 19.9997Z" fill="#FFF082"/>
</svg>
