<svg width="24" height="24" viewBox="0 0 24 24" fill="none" xmlns="http://www.w3.org/2000/svg">
<path d="M12.3536 5.22461C9.04358 5.22461 6.35358 7.43074 6.35358 10.1453V12.5155C6.35358 13.0158 6.09358 13.7785 5.78358 14.2049L4.63358 15.7714C3.92358 16.7391 4.41358 17.8135 5.71358 18.1743C10.0236 19.3553 14.6736 19.3553 18.9836 18.1743C20.1936 17.8463 20.7236 16.6735 20.0636 15.7714L18.9136 14.2049C18.6136 13.7785 18.3536 13.0158 18.3536 12.5155V10.1453C18.3536 7.43894 15.6536 5.22461 12.3536 5.22461Z" stroke="current" stroke-width="1.5" stroke-miterlimit="10" stroke-linecap="round"/>
<path d="M14.2034 3.19994C13.8934 3.10994 13.5734 3.03994 13.2434 2.99994C12.2834 2.87994 11.3634 2.94994 10.5034 3.19994C10.7934 2.45994 11.5134 1.93994 12.3534 1.93994C13.1934 1.93994 13.9134 2.45994 14.2034 3.19994Z" stroke="current" stroke-width="1.5" stroke-miterlimit="10" stroke-linecap="round" stroke-linejoin="round"/>
<path d="M15.3535 19.0601C15.3535 20.7101 14.0035 22.0601 12.3535 22.0601C11.5335 22.0601 10.7735 21.7201 10.2335 21.1801C9.69351 20.6401 9.35352 19.8801 9.35352 19.0601" stroke="current" stroke-width="1.5" stroke-miterlimit="10"/>
</svg>
