<svg width="32" height="32" viewBox="0 0 32 32" fill="none" xmlns="http://www.w3.org/2000/svg">
<path d="M15.7316 25.6C20.434 25.6 24.4345 22.5947 25.9171 18.4C26.3151 17.274 26.5316 16.0623 26.5316 14.8C26.5316 8.83532 21.6963 4 15.7316 4C9.76697 4 4.93164 8.83532 4.93164 14.8C4.93164 16.0623 5.1482 17.274 5.54618 18.4" stroke="white" stroke-width="1.2" stroke-linecap="round"/>
<path d="M15.7313 22.0001C19.7077 22.0001 22.9313 18.7765 22.9313 14.8001C22.9313 10.8236 19.7077 7.6001 15.7313 7.6001C11.7548 7.6001 8.53125 10.8236 8.53125 14.8001C8.53125 16.3346 9.01127 17.7569 9.82934 18.9252C9.86244 18.9725 9.87175 19.0325 9.85359 19.0873L8.76903 22.3578C8.7245 22.4921 8.84516 22.6229 8.98259 22.5893L13.1734 21.5657C13.2083 21.5572 13.245 21.5594 13.2788 21.5716C14.0442 21.8489 14.8701 22.0001 15.7313 22.0001Z" stroke="white" stroke-width="1.2"/>
<path d="M26.5055 11.1997H29.4328C29.9851 11.1997 30.4328 11.6474 30.4328 12.1997V17.3997C30.4328 17.952 29.9851 18.3997 29.4328 18.3997H26.0692H25.6328" stroke="white" stroke-width="1.2"/>
<path d="M5.2609 11.1997H2.33363C1.78135 11.1997 1.33363 11.6474 1.33363 12.1997V17.3997C1.33363 17.952 1.78134 18.3997 2.33363 18.3997H5.69727" stroke="white" stroke-width="1.2"/>
<ellipse cx="15.732" cy="25.5997" rx="2.4" ry="2.4" fill="white"/>
<ellipse cx="12.1316" cy="14.8001" rx="1.2" ry="1.2" fill="white"/>
<ellipse cx="15.7332" cy="14.8001" rx="1.2" ry="1.2" fill="white"/>
<ellipse cx="19.3328" cy="14.8001" rx="1.2" ry="1.2" fill="white"/>
</svg>
