<svg width="40" height="40" viewBox="0 0 40 40" fill="none" xmlns="http://www.w3.org/2000/svg">
<circle cx="20" cy="20" r="20" fill="#F2F2F2"/>
<path fill-rule="evenodd" clip-rule="evenodd" d="M25.9766 21.6123C25.5231 21.6123 25.1603 21.2495 25.1603 20.796C25.1603 20.3425 25.5231 19.9797 25.9766 19.9797C26.4301 19.9797 26.7929 20.3425 26.7929 20.796C26.7929 21.2268 26.4301 21.6123 25.9766 21.6123ZM21.9533 21.6123C21.4998 21.6123 21.137 21.2495 21.137 20.796C21.137 20.3425 21.4998 19.9797 21.9533 19.9797C22.4068 19.9797 22.7696 20.3425 22.7696 20.796C22.7696 21.2268 22.4068 21.6123 21.9533 21.6123ZM27.9235 26.1943C29.1962 25.2782 29.9999 23.9155 29.9999 22.4185C29.9999 19.6482 27.3207 17.4141 23.9941 17.4141C20.6675 17.4141 17.9883 19.6482 17.9883 22.4185C17.9883 25.1889 20.6675 27.4231 23.9941 27.4231C24.6862 27.4231 25.3337 27.3337 25.9588 27.155C26.0035 27.1326 26.0705 27.1326 26.1374 27.1326C26.2491 27.1326 26.3607 27.1773 26.45 27.222L27.7673 27.9816C27.8119 28.0039 27.8343 28.0263 27.8789 28.0263C27.9054 28.0264 27.9315 28.0212 27.956 28.0112C27.9804 28.0011 28.0026 27.9863 28.0213 27.9676C28.04 27.9489 28.0547 27.9267 28.0648 27.9023C28.0749 27.8778 28.08 27.8517 28.0799 27.8252C28.0799 27.7805 28.0575 27.7358 28.0575 27.6688C28.0575 27.6465 27.8789 27.0433 27.7896 26.6634C27.7673 26.6188 27.7673 26.5741 27.7673 26.5294C27.7449 26.373 27.8119 26.2613 27.9235 26.1943Z" fill="#A3A3AC"/>
<path fill-rule="evenodd" clip-rule="evenodd" d="M19.5627 16.8896C19.042 16.8896 18.6297 16.4773 18.6297 15.9566C18.6297 15.4359 19.042 15.0237 19.5627 15.0237C20.0834 15.0237 20.4956 15.4359 20.4956 15.9566C20.4956 16.4556 20.0834 16.8896 19.5627 16.8896ZM14.7813 16.8896C14.2606 16.8896 13.8484 16.4773 13.8484 15.9566C13.8484 15.4359 14.2606 15.0237 14.7813 15.0237C15.302 15.0237 15.7143 15.4359 15.7143 15.9566C15.7143 16.4556 15.302 16.8896 14.7813 16.8896ZM17.228 11.875C13.2447 11.875 10 14.5511 10 17.8738C10 19.6802 10.9622 21.3082 12.5063 22.4009C12.6182 22.4901 12.7077 22.6239 12.7077 22.8023C12.7077 22.8469 12.6853 22.9138 12.6853 22.9584C12.5734 23.4044 12.372 24.1403 12.3496 24.1626C12.3273 24.2295 12.3049 24.2741 12.3049 24.341C12.3049 24.4748 12.4168 24.5863 12.551 24.5863C12.5958 24.5863 12.6405 24.5641 12.6853 24.5417L14.2741 23.6274C14.386 23.5605 14.5203 23.5159 14.6545 23.5159C14.7217 23.5159 14.7888 23.5159 14.8559 23.5382C15.5944 23.7389 16.3999 23.8727 17.2056 23.8727H17.6084C17.4517 23.4044 17.3622 22.9138 17.3622 22.4009C17.3622 19.3903 20.316 16.9373 23.9412 16.9373H24.344C23.8293 14.0604 20.8307 11.875 17.228 11.875Z" fill="#A3A3AC"/>
</svg>
