<svg width="14" height="14" viewBox="0 0 14 14" fill="none" xmlns="http://www.w3.org/2000/svg">
<path fill-rule="evenodd" clip-rule="evenodd" d="M1.66634 7.00016C1.66634 6.72089 1.68781 6.44662 1.72918 6.17893L3.63057 6.75188L4.96194 8.21639L4.46435 11.6935C2.79806 10.7915 1.66634 9.02799 1.66634 7.00016ZM2.09843 4.89765L2.09696 4.8972C2.09712 4.89685 2.09727 4.89649 2.09742 4.89613L2.09843 4.89765ZM6.66222 3.16856L5.9596 1.76819C6.29599 1.70169 6.64376 1.66683 6.99967 1.66683C9.94519 1.66683 12.333 4.05464 12.333 7.00016C12.333 9.94568 9.94519 12.3335 6.99967 12.3335C6.68567 12.3335 6.37801 12.3064 6.0789 12.2543L9.19098 7.66039C9.50883 7.1912 9.37365 6.5519 8.89307 6.25154L6.24359 4.59561L6.5241 4.27195C6.78924 3.96602 6.84377 3.53041 6.66222 3.16856ZM6.99967 0.333496C3.31778 0.333496 0.333008 3.31826 0.333008 7.00016C0.333008 10.6821 3.31778 13.6668 6.99967 13.6668C10.6816 13.6668 13.6663 10.6821 13.6663 7.00016C13.6663 3.31826 10.6816 0.333496 6.99967 0.333496Z" fill="#3F3E4E"/>
</svg>
