<svg width="28" height="28" viewBox="0 0 28 28" fill="none" xmlns="http://www.w3.org/2000/svg">
<g clip-path="url(#clip0_2930_50276)">
<path d="M5.69745 15.7115V22.0882C5.69745 22.3394 5.74694 22.5882 5.84308 22.8202C5.93922 23.0523 6.08015 23.2632 6.25779 23.4408C6.43544 23.6184 6.64632 23.7592 6.87842 23.8553C7.11051 23.9514 7.35927 24.0009 7.61047 24.0008H21.7446C22.2518 24.0008 22.7383 23.7993 23.097 23.4406C23.4557 23.0819 23.6572 22.5955 23.6572 22.0882V11.2215L14.6771 4.05469L5.69702 10.8761L5.69745 15.7115Z" fill="white" stroke="#3F3E4E" stroke-width="1.16667" stroke-miterlimit="10"/>
<path d="M12.6049 16.5078H16.7496C17.116 16.5078 17.4674 16.6534 17.7265 16.9125C17.9856 17.1715 18.1311 17.523 18.1311 17.8894V24.0006H11.2234V17.8894C11.2234 17.523 11.3689 17.1715 11.628 16.9125C11.8871 16.6534 12.2385 16.5078 12.6049 16.5078Z" fill="#007BDC" stroke="#3F3E4E" stroke-width="1.16667" stroke-miterlimit="10"/>
<path d="M7.87113 14.1764C5.60323 14.1764 3.94235 12.0432 4.49411 9.84395L5.77765 4.74431C5.83137 4.53161 5.95451 4.34292 6.12756 4.2081C6.30062 4.07328 6.51371 4.00005 6.73309 4H11.3526V10.6919C11.353 11.1493 11.2632 11.6023 11.0884 12.0251C10.9136 12.4478 10.6572 12.8319 10.3339 13.1555C10.0106 13.4791 9.62665 13.7358 9.20408 13.911C8.78151 14.0862 8.32857 14.1763 7.87113 14.1764Z" fill="#007BDC" stroke="#3F3E4E" stroke-width="1.16667" stroke-miterlimit="10"/>
<path d="M4.47982 9.91016C3.97512 12.0861 5.62693 14.1778 7.87194 14.1778H7.86504C8.32191 14.1774 8.77421 14.0869 9.1961 13.9116C9.61799 13.7363 10.0012 13.4795 10.3238 13.1561C10.6465 12.8326 10.9022 12.4487 11.0764 12.0264C11.2507 11.604 11.3399 11.1515 11.3392 10.6946V9.91016H4.47982Z" fill="#91CFFF" stroke="#3F3E4E" stroke-width="1.16667" stroke-miterlimit="10"/>
<path d="M14.7036 14.176H14.7011C13.8132 14.1759 12.9617 13.8231 12.3339 13.1952C11.7061 12.5673 11.3534 11.7158 11.3534 10.8279V4H18.0517V10.8279C18.0517 11.7158 17.699 12.5674 17.0711 13.1953C16.4432 13.8232 15.5916 14.176 14.7036 14.176Z" fill="#007BDC" stroke="#3F3E4E" stroke-width="1.16667" stroke-miterlimit="10"/>
<path d="M11.339 9.91016V10.8289C11.3405 11.7177 11.6946 12.5696 12.3237 13.1975C12.9527 13.8254 13.8052 14.178 14.694 14.1778H14.7078C16.5574 14.1778 18.0693 12.678 18.0693 10.8289V9.91016H11.339Z" fill="#91CFFF" stroke="#3F3E4E" stroke-width="1.16667" stroke-miterlimit="10"/>
<path d="M21.5099 14.176C21.0559 14.176 20.6063 14.0865 20.1868 13.9128C19.7673 13.739 19.3861 13.4843 19.0651 13.1632C18.744 12.8421 18.4894 12.4609 18.3157 12.0414C18.1419 11.6219 18.0526 11.1723 18.0526 10.7182V4H22.6165C22.8358 3.99995 23.0489 4.07309 23.222 4.20784C23.395 4.34258 23.5182 4.53123 23.5719 4.74388L24.8632 9.87288C25.4128 12.0566 23.7619 14.1751 21.5099 14.1751V14.176Z" fill="#007BDC" stroke="#3F3E4E" stroke-width="1.16667" stroke-miterlimit="10"/>
<path d="M18.0713 9.91016V10.7192C18.0703 11.1729 18.1587 11.6223 18.3315 12.0417C18.5044 12.4611 18.7582 12.8424 19.0785 13.1636C19.3988 13.4848 19.7793 13.7398 20.1983 13.9138C20.6172 14.0878 21.0664 14.1776 21.52 14.1778H21.5148C23.7546 14.1778 25.3944 12.0813 24.8711 9.91016H18.0713Z" fill="#91CFFF" stroke="#3F3E4E" stroke-width="1.16667" stroke-miterlimit="10"/>
</g>
<defs>
<clipPath id="clip0_2930_50276">
<rect width="28" height="28" fill="white" transform="translate(0.387573)"/>
</clipPath>
</defs>
</svg>
