<svg width="16" height="16" viewBox="0 0 16 16" fill="none" xmlns="http://www.w3.org/2000/svg">
<g clip-path="url(#clip0_6838_244854)">
<path d="M8.66683 7.99996C8.66683 7.63177 8.36835 7.33329 8.00016 7.33329C7.63197 7.33329 7.3335 7.63177 7.3335 7.99996C7.3335 8.36815 7.63197 8.66663 8.00016 8.66663C8.36835 8.66663 8.66683 8.36815 8.66683 7.99996Z" fill="#0B0B1E" stroke="#0B0B1E" stroke-width="1.5" stroke-linecap="round" stroke-linejoin="round"/>
<path d="M13.3333 7.99996C13.3333 7.63177 13.0349 7.33329 12.6667 7.33329C12.2985 7.33329 12 7.63177 12 7.99996C12 8.36815 12.2985 8.66663 12.6667 8.66663C13.0349 8.66663 13.3333 8.36815 13.3333 7.99996Z" fill="#0B0B1E" stroke="#0B0B1E" stroke-width="1.5" stroke-linecap="round" stroke-linejoin="round"/>
<path d="M4.00008 7.99996C4.00008 7.63177 3.7016 7.33329 3.33341 7.33329C2.96522 7.33329 2.66675 7.63177 2.66675 7.99996C2.66675 8.36815 2.96522 8.66663 3.33341 8.66663C3.7016 8.66663 4.00008 8.36815 4.00008 7.99996Z" fill="#0B0B1E" stroke="#0B0B1E" stroke-width="1.5" stroke-linecap="round" stroke-linejoin="round"/>
</g>
<defs>
<clipPath id="clip0_6838_244854">
<rect width="16" height="16" fill="white"/>
</clipPath>
</defs>
</svg>
