<svg width="17" height="16" viewBox="0 0 17 16" fill="none" xmlns="http://www.w3.org/2000/svg">
<path d="M10.9167 14.6668C13.25 14.6668 14.25 13.3335 14.25 11.3335V4.66683C14.25 2.66683 13.25 1.3335 10.9167 1.3335H5.58333C3.25 1.3335 2.25 2.66683 2.25 4.66683V9.3335" stroke="current" stroke-width="1.2" stroke-miterlimit="10" stroke-linecap="round" stroke-linejoin="round"/>
<path d="M9.91675 3V4.33333C9.91675 5.06667 10.5167 5.66667 11.2501 5.66667H12.5834" stroke="current" stroke-width="1.2" stroke-miterlimit="10" stroke-linecap="round" stroke-linejoin="round"/>
<path d="M6.91675 4.6665V8.6665L8.25008 7.33317" stroke="current" stroke-width="1.2" stroke-linecap="round" stroke-linejoin="round"/>
<path d="M6.91658 8.66683L5.58325 7.3335" stroke="current" stroke-width="1.2" stroke-linecap="round" stroke-linejoin="round"/>
<path d="M5.91675 15.0835H4.97925V11.3335H5.91675C6.60709 11.3335 7.16675 11.8932 7.16675 12.5835V13.8335C7.16675 14.5238 6.60709 15.0835 5.91675 15.0835Z" stroke="current" stroke-width="1.2" stroke-miterlimit="10" stroke-linecap="round" stroke-linejoin="round"/>
<path d="M9.04175 11.3335V15.0835" stroke="current" stroke-width="1.2" stroke-miterlimit="10" stroke-linecap="round" stroke-linejoin="round"/>
<path d="M9.04175 11.3335H10.9167" stroke="current" stroke-width="1.2" stroke-miterlimit="10" stroke-linecap="round" stroke-linejoin="round"/>
<path d="M10.2917 13.2085H9.04175" stroke="current" stroke-width="1.2" stroke-miterlimit="10" stroke-linecap="round" stroke-linejoin="round"/>
<path d="M0.916748 15.0835V11.3335" stroke="current" stroke-width="1.2" stroke-miterlimit="10" stroke-linecap="round" stroke-linejoin="round"/>
<path d="M2.16675 11.3335H0.916748V13.2085H2.16675C2.68453 13.2085 3.10425 12.7888 3.10425 12.271C3.10425 11.7532 2.68453 11.3335 2.16675 11.3335Z" stroke="current" stroke-width="1.2" stroke-miterlimit="10" stroke-linecap="round" stroke-linejoin="round"/>
</svg>
