<svg width="47" height="21" viewBox="0 0 47 21" fill="none" xmlns="http://www.w3.org/2000/svg">
<path d="M0 0.5H35C41.6274 0.5 47 5.87258 47 12.5V20.5H12C5.37258 20.5 0 15.1274 0 8.5V0.5Z" fill="url(#paint0_linear_18808_70621)"/>
<path d="M13.691 14.513C13.9617 14.513 14.209 14.5013 14.433 14.478C14.6617 14.45 14.8763 14.4103 15.077 14.359C15.2777 14.3077 15.4667 14.247 15.644 14.177C15.8213 14.1023 15.9987 14.0183 16.176 13.925V11.713H14.622C14.5333 11.713 14.461 11.6873 14.405 11.636C14.3537 11.5847 14.328 11.5217 14.328 11.447V10.677H17.408V14.527C17.156 14.709 16.8923 14.8677 16.617 15.003C16.3463 15.1383 16.0547 15.2527 15.742 15.346C15.434 15.4347 15.1027 15.5 14.748 15.542C14.3933 15.5887 14.0083 15.612 13.593 15.612C12.865 15.612 12.1977 15.4883 11.591 15.241C10.9843 14.989 10.4617 14.639 10.023 14.191C9.58433 13.7383 9.24133 13.197 8.994 12.567C8.75133 11.937 8.63 11.244 8.63 10.488C8.63 9.72267 8.749 9.025 8.987 8.395C9.22967 7.765 9.57267 7.226 10.016 6.778C10.464 6.32533 11.003 5.97533 11.633 5.728C12.2677 5.48067 12.977 5.357 13.761 5.357C14.1577 5.357 14.5263 5.38733 14.867 5.448C15.2077 5.504 15.5227 5.588 15.812 5.7C16.106 5.80733 16.3767 5.94033 16.624 6.099C16.8713 6.253 17.1023 6.428 17.317 6.624L16.932 7.24C16.8527 7.366 16.75 7.429 16.624 7.429C16.5493 7.429 16.4677 7.40333 16.379 7.352C16.2623 7.28667 16.1317 7.20733 15.987 7.114C15.8423 7.02067 15.665 6.932 15.455 6.848C15.2497 6.75933 15.0047 6.68467 14.72 6.624C14.44 6.56333 14.1063 6.533 13.719 6.533C13.1543 6.533 12.6433 6.62633 12.186 6.813C11.7287 6.995 11.339 7.25867 11.017 7.604C10.695 7.94467 10.4477 8.36 10.275 8.85C10.1023 9.33533 10.016 9.88133 10.016 10.488C10.016 11.1227 10.1047 11.6897 10.282 12.189C10.464 12.6837 10.7183 13.1037 11.045 13.449C11.3717 13.7943 11.759 14.058 12.207 14.24C12.655 14.422 13.1497 14.513 13.691 14.513ZM28.3333 10.488C28.3333 11.2393 28.2143 11.923 27.9763 12.539C27.7383 13.155 27.4023 13.6823 26.9683 14.121C26.5343 14.5597 26.0139 14.9003 25.4073 15.143C24.8006 15.381 24.1286 15.5 23.3913 15.5H19.6393V5.469H23.3913C24.1286 5.469 24.8006 5.59033 25.4073 5.833C26.0139 6.071 26.5343 6.41167 26.9683 6.855C27.4023 7.29367 27.7383 7.821 27.9763 8.437C28.2143 9.053 28.3333 9.73667 28.3333 10.488ZM26.9403 10.488C26.9403 9.872 26.8563 9.32133 26.6883 8.836C26.5203 8.35067 26.2823 7.94 25.9743 7.604C25.6663 7.268 25.2929 7.01133 24.8543 6.834C24.4156 6.65667 23.9279 6.568 23.3913 6.568H21.0043V14.401H23.3913C23.9279 14.401 24.4156 14.3123 24.8543 14.135C25.2929 13.9577 25.6663 13.7033 25.9743 13.372C26.2823 13.036 26.5203 12.6253 26.6883 12.14C26.8563 11.6547 26.9403 11.104 26.9403 10.488ZM31.8113 11.314V15.5H30.4603V5.469H33.2953C33.9299 5.469 34.4783 5.53433 34.9403 5.665C35.4023 5.791 35.7826 5.97533 36.0813 6.218C36.3846 6.46067 36.6086 6.75467 36.7533 7.1C36.8979 7.44067 36.9703 7.82333 36.9703 8.248C36.9703 8.60267 36.9143 8.934 36.8023 9.242C36.6903 9.55 36.5269 9.82767 36.3123 10.075C36.1023 10.3177 35.8433 10.5253 35.5353 10.698C35.2319 10.8707 34.8866 11.0013 34.4993 11.09C34.6673 11.188 34.8166 11.3303 34.9473 11.517L37.8733 15.5H36.6693C36.4219 15.5 36.2399 15.4043 36.1233 15.213L33.5193 11.629C33.4399 11.517 33.3536 11.4377 33.2603 11.391C33.1669 11.3397 33.0269 11.314 32.8403 11.314H31.8113ZM31.8113 10.327H33.2323C33.6289 10.327 33.9766 10.2803 34.2753 10.187C34.5786 10.089 34.8306 9.95367 35.0313 9.781C35.2366 9.60367 35.3906 9.39367 35.4933 9.151C35.5959 8.90833 35.6473 8.64 35.6473 8.346C35.6473 7.74867 35.4489 7.29833 35.0523 6.995C34.6603 6.69167 34.0746 6.54 33.2953 6.54H31.8113V10.327Z" fill="white"/>
<defs>
<linearGradient id="paint0_linear_18808_70621" x1="-7.65424e-07" y1="10.5" x2="40.1405" y2="28.9218" gradientUnits="userSpaceOnUse">
<stop stop-color="#1058E2"/>
<stop offset="1" stop-color="#1785E7"/>
</linearGradient>
</defs>
</svg>
