<svg width="12" height="12" viewBox="0 0 12 12" fill="none" xmlns="http://www.w3.org/2000/svg">
<g clip-path="url(#clip0_17306_111183)">
<path d="M6.1125 5.33389C7.21017 5.33389 8.1 4.44405 8.1 3.34639C8.1 2.24872 7.21017 1.35889 6.1125 1.35889C5.01483 1.35889 4.125 2.24872 4.125 3.34639C4.125 4.44405 5.01483 5.33389 6.1125 5.33389Z" fill="current"/>
<path d="M10.7275 6.35474H1.2725C0.569718 6.35474 0 6.85842 0 7.47974C0 8.10106 0.569718 8.60474 1.2725 8.60474H10.7275C11.4303 8.60474 12 8.10106 12 7.47974C12 6.85842 11.4303 6.35474 10.7275 6.35474Z" fill="current"/>
<path d="M7.5 7.35889H4.5C4.08579 7.35889 3.75 7.73665 3.75 8.20264V12.1401C3.75 12.6061 4.08579 12.9839 4.5 12.9839H7.5C7.91421 12.9839 8.25 12.6061 8.25 12.1401V8.20264C8.25 7.73665 7.91421 7.35889 7.5 7.35889Z" fill="current"/>
</g>
<defs>
<clipPath id="clip0_17306_111183">
<rect width="12" height="12" fill="white" transform="translate(0 0.983887)"/>
</clipPath>
</defs>
</svg>
