<svg width="61" height="60" viewBox="0 0 61 60" fill="none" xmlns="http://www.w3.org/2000/svg">
<g clip-path="url(#clip0_3931_22331)">
<path d="M32.1948 58.8673C47.3419 58.8673 59.621 53.8442 59.621 47.6479C59.621 41.4515 47.3419 36.4284 32.1948 36.4284C17.0477 36.4284 4.76855 41.4515 4.76855 47.6479C4.76855 53.8442 17.0477 58.8673 32.1948 58.8673Z" fill="#2B4D66"/>
<path d="M51.8316 42.968C51.8316 48.7148 49.3636 53.8852 45.4285 57.4758C41.505 58.3629 36.9933 58.8668 32.1945 58.8668C27.3957 58.8668 22.8839 58.3629 18.9605 57.4758C15.0265 53.8852 12.5574 48.7148 12.5574 42.968C12.5574 41.8559 12.65 40.766 12.8269 39.7043C14.382 30.4113 22.4621 23.3309 32.1945 23.3309C41.9281 23.3309 50.007 30.4113 51.5609 39.7043C51.739 40.766 51.8316 41.8559 51.8316 42.968Z" fill="#F1F1F4"/>
<path d="M26.3843 58.6137C23.7488 58.3816 21.2539 57.9949 18.9605 57.4758C15.0265 53.8852 12.5574 48.7148 12.5574 42.968C12.5574 41.8559 12.65 40.766 12.8269 39.7043H12.8281C14.382 30.4125 22.4621 23.3309 32.1957 23.3309C33.2257 23.3309 34.2371 23.4105 35.225 23.5629C27.5527 24.7512 21.3488 30.3785 19.3203 37.7379C18.8609 39.4031 18.616 41.1563 18.616 42.968C18.616 49.3535 21.664 55.0277 26.3843 58.6137Z" fill="#DDDAEC"/>
<path d="M43.8391 52.9482C45.146 52.9482 46.2054 51.8888 46.2054 50.582C46.2054 49.2751 45.146 48.2157 43.8391 48.2157C42.5323 48.2157 41.4729 49.2751 41.4729 50.582C41.4729 51.8888 42.5323 52.9482 43.8391 52.9482Z" fill="#DDDAEC"/>
<path d="M43.8391 48.2156C45.146 48.2156 46.2054 47.1562 46.2054 45.8494C46.2054 44.5425 45.146 43.4831 43.8391 43.4831C42.5323 43.4831 41.4729 44.5425 41.4729 45.8494C41.4729 47.1562 42.5323 48.2156 43.8391 48.2156Z" fill="#DDDAEC"/>
<path d="M43.8391 43.483C45.146 43.483 46.2054 42.4236 46.2054 41.1168C46.2054 39.8099 45.146 38.7505 43.8391 38.7505C42.5323 38.7505 41.4729 39.8099 41.4729 41.1168C41.4729 42.4236 42.5323 43.483 43.8391 43.483Z" fill="#DDDAEC"/>
<path d="M39.1065 57.6807C40.4133 57.6807 41.4727 56.6213 41.4727 55.3145C41.4727 54.0077 40.4133 52.9482 39.1065 52.9482C37.7996 52.9482 36.7402 54.0077 36.7402 55.3145C36.7402 56.6213 37.7996 57.6807 39.1065 57.6807Z" fill="#DDDAEC"/>
<path d="M39.1065 52.9482C40.4133 52.9482 41.4727 51.8888 41.4727 50.582C41.4727 49.2751 40.4133 48.2157 39.1065 48.2157C37.7996 48.2157 36.7402 49.2751 36.7402 50.582C36.7402 51.8888 37.7996 52.9482 39.1065 52.9482Z" fill="#DDDAEC"/>
<path d="M34.3738 57.6807C35.6807 57.6807 36.7401 56.6213 36.7401 55.3145C36.7401 54.0077 35.6807 52.9482 34.3738 52.9482C33.067 52.9482 32.0076 54.0077 32.0076 55.3145C32.0076 56.6213 33.067 57.6807 34.3738 57.6807Z" fill="#DDDAEC"/>
<path d="M34.3738 52.9482C35.6807 52.9482 36.7401 51.8888 36.7401 50.582C36.7401 49.2751 35.6807 48.2157 34.3738 48.2157C33.067 48.2157 32.0076 49.2751 32.0076 50.582C32.0076 51.8888 33.067 52.9482 34.3738 52.9482Z" fill="#DDDAEC"/>
<path d="M24.4549 37.5943C25.7617 37.5943 26.8211 36.5349 26.8211 35.2281C26.8211 33.9212 25.7617 32.8618 24.4549 32.8618C23.148 32.8618 22.0886 33.9212 22.0886 35.2281C22.0886 36.5349 23.148 37.5943 24.4549 37.5943Z" fill="#DDDAEC"/>
<path d="M19.7222 37.5943C21.0291 37.5943 22.0885 36.5349 22.0885 35.2281C22.0885 33.9212 21.0291 32.8618 19.7222 32.8618C18.4154 32.8618 17.356 33.9212 17.356 35.2281C17.356 36.5349 18.4154 37.5943 19.7222 37.5943Z" fill="#DDDAEC"/>
<path d="M24.4549 32.8617C25.7617 32.8617 26.8211 31.8023 26.8211 30.4955C26.8211 29.1886 25.7617 28.1292 24.4549 28.1292C23.148 28.1292 22.0886 29.1886 22.0886 30.4955C22.0886 31.8023 23.148 32.8617 24.4549 32.8617Z" fill="#DDDAEC"/>
<path d="M38.9738 17.2044L39.2754 17.2467C40.339 17.3961 41.3368 16.6963 41.5586 15.6454L42.2409 12.4127C42.4852 11.2548 41.6978 10.1321 40.5259 9.96762L39.7765 9.86238C38.6046 9.69785 37.5385 10.5602 37.4546 11.7407L37.2201 15.0362C37.1438 16.1075 37.9102 17.055 38.9738 17.2044Z" fill="#F6E266"/>
<path d="M46.4974 21.3097L46.7374 21.4972C47.5839 22.1584 48.7978 22.0513 49.5154 21.252L51.7225 18.7935C52.513 17.9129 52.3924 16.547 51.4599 15.8184L50.8635 15.3526C49.9309 14.6242 48.5763 14.8379 47.9134 15.8182L46.0627 18.555C45.461 19.4449 45.651 20.6486 46.4974 21.3097Z" fill="#F6E266"/>
<path d="M52.4283 27.5204L52.5425 27.8027C52.9449 28.7986 54.0498 29.3127 55.0708 28.9793L58.2114 27.9538C59.3363 27.5865 59.9149 26.3433 59.4714 25.2461L59.1878 24.5445C58.7444 23.4472 57.4645 22.9552 56.4002 23.4727L53.429 24.9173C52.4632 25.3872 52.0258 26.5246 52.4283 27.5204Z" fill="#F6E266"/>
<path d="M43.8391 53.8272C45.6286 53.8272 47.0843 52.3713 47.0843 50.582C47.0843 50.0966 46.6909 49.7031 46.2054 49.7031C45.7199 49.7031 45.3265 50.0966 45.3265 50.582C45.3265 51.4022 44.6593 52.0693 43.8391 52.0693C43.3536 52.0693 42.9602 52.4629 42.9602 52.9482C42.9602 53.4336 43.3537 53.8272 43.8391 53.8272Z" fill="black"/>
<path d="M43.8391 49.0944C45.6286 49.0944 47.0843 47.6386 47.0843 45.8493C47.0843 45.3639 46.6909 44.9704 46.2054 44.9704C45.7199 44.9704 45.3265 45.3639 45.3265 45.8493C45.3265 46.6695 44.6593 47.3366 43.8391 47.3366C43.3536 47.3366 42.9602 47.7301 42.9602 48.2155C42.9602 48.701 43.3537 49.0944 43.8391 49.0944Z" fill="black"/>
<path d="M43.8391 44.3619C45.6286 44.3619 47.0843 42.9061 47.0843 41.1168C47.0843 40.6314 46.6909 40.2379 46.2054 40.2379C45.7199 40.2379 45.3265 40.6314 45.3265 41.1168C45.3265 41.937 44.6593 42.6041 43.8391 42.6041C43.3536 42.6041 42.9602 42.9976 42.9602 43.483C42.9602 43.9684 43.3537 44.3619 43.8391 44.3619Z" fill="black"/>
<path d="M40.594 50.5819C40.594 51.4021 39.9269 52.0692 39.1067 52.0692C38.6212 52.0692 38.2278 52.4627 38.2278 52.9481C38.2278 53.4335 38.6212 53.827 39.1067 53.827C40.8961 53.827 42.3518 52.3712 42.3518 50.5819C42.3518 50.0965 41.9584 49.703 41.4729 49.703C40.9876 49.703 40.594 50.0965 40.594 50.5819Z" fill="black"/>
<path d="M35.8614 50.5819C35.8614 51.4021 35.1942 52.0692 34.374 52.0692C33.8885 52.0692 33.4951 52.4627 33.4951 52.9481C33.4951 53.4335 33.8885 53.827 34.374 53.827C36.1635 53.827 37.6192 52.3712 37.6192 50.5819C37.6192 50.0965 37.2258 49.703 36.7403 49.703C36.2549 49.703 35.8614 50.0965 35.8614 50.5819Z" fill="black"/>
<path d="M25.9424 35.2281C25.9424 36.0483 25.2753 36.7154 24.4551 36.7154C23.9696 36.7154 23.5762 37.1089 23.5762 37.5943C23.5762 38.0797 23.9696 38.4732 24.4551 38.4732C26.2445 38.4732 27.7002 37.0174 27.7002 35.2281C27.7002 34.7427 27.3068 34.3492 26.8213 34.3492C26.3359 34.3492 25.9424 34.7427 25.9424 35.2281Z" fill="black"/>
<path d="M21.2098 35.2281C21.2098 36.0483 20.5426 36.7154 19.7224 36.7154C19.2369 36.7154 18.8435 37.1089 18.8435 37.5943C18.8435 38.0797 19.2369 38.4732 19.7224 38.4732C21.5119 38.4732 22.9676 37.0174 22.9676 35.2281C22.9676 34.7427 22.5742 34.3492 22.0887 34.3492C21.6032 34.3492 21.2098 34.7427 21.2098 35.2281Z" fill="black"/>
<path d="M26.8213 29.6166C26.3358 29.6166 25.9424 30.0101 25.9424 30.4955C25.9424 31.3157 25.2753 31.9828 24.4551 31.9828C23.9696 31.9828 23.5762 32.3763 23.5762 32.8617C23.5762 33.3471 23.9696 33.7406 24.4551 33.7406C26.2445 33.7406 27.7002 32.2848 27.7002 30.4955C27.7002 30.0101 27.3068 29.6166 26.8213 29.6166Z" fill="black"/>
<path d="M52.3414 39.0783C51.369 34.0023 48.5444 29.5284 44.3491 26.4389C43.9583 26.1509 43.408 26.2345 43.1203 26.6255C42.8325 27.0163 42.916 27.5665 43.3069 27.8543C47.2642 30.7686 49.8879 35.0285 50.6944 39.8498C50.866 40.8725 50.953 41.9216 50.953 42.9681C50.953 48.1513 48.7873 53.1305 45.0049 56.6686C43.9331 56.9054 42.8224 57.1112 41.6822 57.2857C42.1018 56.7389 42.3519 56.0555 42.3519 55.3145C42.3519 54.8291 41.9585 54.4356 41.473 54.4356C40.9875 54.4356 40.5941 54.8291 40.5941 55.3145C40.5941 56.1347 39.9269 56.8018 39.1067 56.8018C38.6212 56.8018 38.2278 57.1953 38.2278 57.6807C38.2278 57.6904 38.229 57.6997 38.2292 57.7092C37.6213 57.7659 37.0083 57.8145 36.391 57.8539C37.1387 57.259 37.6194 56.3421 37.6194 55.3145C37.6194 54.8291 37.226 54.4356 36.7405 54.4356C36.255 54.4356 35.8616 54.8291 35.8616 55.3145C35.8616 56.1347 35.1944 56.8018 34.3742 56.8018C33.8887 56.8018 33.4953 57.1953 33.4953 57.6807C33.4953 57.7833 33.5139 57.8812 33.5461 57.9728C33.0964 57.982 32.6461 57.9879 32.1948 57.9879C30.2687 57.9879 28.3399 57.9039 26.4617 57.7382C23.9831 57.52 21.6046 57.1594 19.3844 56.6684C15.6023 53.1292 13.4366 48.1502 13.4366 42.9681C13.4366 41.9237 13.5232 40.8743 13.6942 39.8495C14.4177 35.5253 16.6626 31.566 20.0155 28.701C23.4048 25.8048 27.7301 24.2099 32.1947 24.2099C35.0869 24.2099 37.8602 24.8503 40.4375 26.1136C40.8738 26.3272 41.4001 26.147 41.6135 25.7112C41.8271 25.2754 41.647 24.7488 41.2111 24.5351C38.3908 23.1529 35.3573 22.4521 32.1947 22.4521C27.3117 22.4521 22.5808 24.1968 18.8734 27.3646C15.3319 30.3908 12.921 34.5349 12.0473 39.078C6.78257 41.3244 3.89038 44.3564 3.89038 47.6473C3.89038 50.2754 5.72858 52.7477 9.20624 54.7971C9.34628 54.8797 9.50003 54.919 9.65167 54.919C9.95261 54.919 10.2458 54.7643 10.4098 54.4862C10.6562 54.0681 10.5169 53.5293 10.0987 53.2828C8.06847 52.0864 5.64831 50.1375 5.64831 47.6474C5.64831 45.3282 7.85589 42.9971 11.7607 41.1357C11.7068 41.745 11.6788 42.3573 11.6788 42.9682C11.6788 47.6744 13.3118 52.2275 16.2336 55.8532C15.1315 55.522 14.0893 55.1578 13.1208 54.7608C12.6717 54.5767 12.1583 54.7916 11.9742 55.2407C11.7901 55.6897 12.0049 56.2031 12.4541 56.3872C14.3318 57.1569 16.4559 57.8118 18.7669 58.3331C21.1282 58.8676 23.6653 59.2567 26.3075 59.4893C28.2367 59.6596 30.2175 59.7458 32.1949 59.7458C36.892 59.7458 41.5352 59.2574 45.6223 58.3332C49.9528 57.3562 53.6075 55.9134 56.1913 54.1609C59.0103 52.2489 60.5003 49.9965 60.5003 47.6474C60.5 44.3566 57.6073 41.3248 52.3414 39.0783ZM48.1557 55.8537C51.0777 52.2286 52.7107 47.6753 52.7107 42.9681C52.7107 42.3566 52.6826 41.7444 52.6287 41.136C56.5343 42.9974 58.7423 45.3284 58.7423 47.6473C58.7422 50.7984 54.6766 53.8904 48.1557 55.8537Z" fill="black"/>
<path d="M16.5544 25.0593C16.7009 25.385 17.0211 25.578 17.3566 25.578C17.4771 25.578 17.5995 25.5532 17.7165 25.5006C18.1591 25.3016 18.3568 24.7813 18.1578 24.3387C15.6097 18.6696 11.2269 15.4755 7.99881 13.7943C4.51073 11.9775 1.64033 11.4975 1.51975 11.4779C1.03893 11.4 0.589163 11.7257 0.511468 12.2047C0.433773 12.6839 0.759085 13.1353 1.23826 13.213C1.34608 13.2306 12.0676 15.077 16.5544 25.0593Z" fill="black"/>
<path d="M6.60383 1.87008C9.74152 3.90996 12.6426 6.31395 15.2263 9.01547C18.8015 12.7537 21.6363 16.9457 23.6518 21.4748C23.7975 21.8021 24.1187 21.9967 24.4552 21.9967C24.5748 21.9967 24.6961 21.9722 24.8121 21.9205C25.2556 21.7232 25.4551 21.2037 25.2579 20.7602C23.1598 16.0457 20.212 11.6855 16.4966 7.80059C13.8193 5.00109 10.8132 2.51004 7.56195 0.396328C7.15508 0.131836 6.61051 0.247266 6.34602 0.654141C6.08141 1.06113 6.19684 1.60547 6.60383 1.87008Z" fill="black"/>
<path d="M30.5461 19.4079C30.5852 19.8662 30.9691 20.2123 31.4208 20.2123C31.4458 20.2123 31.4711 20.2112 31.4964 20.2091C31.9802 20.1679 32.3388 19.7425 32.2976 19.2588C31.3616 8.26476 24.8238 0.85664 24.5459 0.54668C24.2218 0.185156 23.6662 0.154805 23.3048 0.478828C22.9433 0.802851 22.9129 1.35855 23.2369 1.71996C23.3011 1.79145 29.6596 8.99402 30.5461 19.4079Z" fill="black"/>
<path d="M38.8516 18.0748L39.1531 18.1171C39.289 18.1362 39.4242 18.1454 39.5581 18.1454C40.9165 18.1454 42.1308 17.1895 42.4183 15.8269L43.1007 12.5943C43.2672 11.805 43.0971 10.9734 42.6338 10.3131C42.1707 9.65262 41.4468 9.20953 40.648 9.09738L39.8985 8.99215C39.0997 8.88 38.2818 9.10652 37.6548 9.61395C37.0274 10.1212 36.635 10.8737 36.5777 11.6784L36.3433 14.974C36.2348 16.4999 37.3365 17.862 38.8516 18.0748ZM38.0968 15.0986L38.3312 11.803C38.3542 11.4777 38.5067 11.1855 38.7602 10.9805C38.9702 10.8105 39.224 10.7211 39.4885 10.7211C39.5433 10.7211 39.5987 10.725 39.6542 10.7329L40.4036 10.8381C40.7266 10.8834 41.0076 11.0555 41.1949 11.3224C41.3823 11.5894 41.4482 11.9122 41.381 12.2312L40.6986 15.4638C40.5728 16.0603 40.002 16.4611 39.3977 16.3763L39.0962 16.3339C38.4924 16.2492 38.0534 15.7066 38.0968 15.0986Z" fill="black"/>
<path d="M45.9564 22.0024C45.9565 22.0024 45.9565 22.0024 45.9567 22.0025L46.1965 22.1899C46.7265 22.6039 47.3607 22.8061 47.9917 22.8061C48.7965 22.8061 49.5965 22.4771 50.1694 21.8392L52.3767 19.3807C52.9156 18.7805 53.184 17.9753 53.1129 17.1717C53.042 16.3682 52.6368 15.6225 52.0011 15.126L51.4046 14.6602C50.769 14.1636 49.9475 13.9511 49.1505 14.0767C48.3536 14.2024 47.6375 14.6578 47.1855 15.326L45.3346 18.0628C44.4778 19.3302 44.7508 21.0607 45.9564 22.0024ZM46.7908 19.0475L48.6417 16.3109C48.8244 16.0406 49.1024 15.8639 49.4245 15.813C49.7467 15.7621 50.0656 15.8448 50.3226 16.0455L50.9191 16.5114C51.176 16.7121 51.3333 17.0016 51.362 17.3264C51.3906 17.6513 51.2865 17.9638 51.0686 18.2065L48.8614 20.665C48.4542 21.1186 47.759 21.1798 47.2784 20.8045L47.0385 20.6171C46.5582 20.242 46.4493 19.5525 46.7908 19.0475Z" fill="black"/>
<path d="M51.6135 27.8497L51.7277 28.1321C52.1836 29.2601 53.2813 29.9585 54.4431 29.9585C54.7424 29.9585 55.0459 29.9121 55.3438 29.8148L58.4844 28.7893C59.2513 28.539 59.8863 27.9759 60.2266 27.2445C60.567 26.513 60.5889 25.6646 60.2865 24.9168L60.0029 24.2152C59.7007 23.4673 59.0954 22.8722 58.3424 22.5827C57.5895 22.2933 56.7417 22.3296 56.0162 22.6823L53.045 24.1271C51.669 24.7961 51.0403 26.4313 51.6135 27.8497ZM53.8136 25.7079L56.7848 24.2631C56.9466 24.1845 57.1193 24.1448 57.2927 24.1448C57.4336 24.1448 57.575 24.171 57.7115 24.2234C58.0159 24.3404 58.2509 24.5714 58.3731 24.8737L58.6567 25.5754C58.7788 25.8777 58.7704 26.2071 58.6328 26.5028C58.4952 26.7984 58.2486 27.017 57.9386 27.1182L54.7979 28.1437C54.2186 28.3327 53.5857 28.0384 53.3572 27.4733L53.2431 27.191C53.0148 26.6259 53.2654 25.9744 53.8136 25.7079Z" fill="black"/>
</g>
<defs>
<clipPath id="clip0_3931_22331">
<rect width="60" height="60" fill="white" transform="translate(0.5)"/>
</clipPath>
</defs>
</svg>
