<svg width="25" height="24" viewBox="0 0 25 24" fill="none" xmlns="http://www.w3.org/2000/svg">
<g clip-path="url(#clip0_22141_4952)">
<path d="M12.3335 24C18.9609 24 24.3335 18.6274 24.3335 12C24.3335 5.37258 18.9609 0 12.3335 0C5.70608 0 0.333496 5.37258 0.333496 12C0.333496 18.6274 5.70608 24 12.3335 24Z" fill="#FFC700"/>
<path fill-rule="evenodd" clip-rule="evenodd" d="M8.88828 12.1125C10.1867 10.5891 10.8664 8.63906 10.9508 6.01406C10.9508 5.53594 11.2602 5.22188 11.743 5.19375C12.507 5.16563 13.5195 5.87344 13.6648 6.74531C13.693 6.94219 13.693 8.94844 13.6648 9.73594H18.0148C18.7508 9.73594 19.3414 10.2984 19.3414 11.0344C19.3414 11.4562 19.1445 11.8266 18.8633 12.0516C19.2852 12.2766 19.5711 12.7313 19.5711 13.2375C19.5711 13.8609 19.2055 14.3391 18.6664 14.5078C18.9195 14.7609 19.0602 15.0703 19.0602 15.4688C19.0602 16.0031 18.6945 16.5141 18.2117 16.7109C18.4648 16.9078 18.6055 17.2453 18.6055 17.5875C18.6055 18.2391 18.0711 18.7734 17.4195 18.7734H11.232C11.1477 18.7734 11.0633 18.7734 10.9789 18.7734C10.8945 18.8016 10.8102 18.8016 10.7258 18.8016C10.3883 18.8016 10.0742 18.7734 9.68047 18.6891C9.34297 18.6047 9.02891 18.4641 8.83203 18.3516L8.88828 12.1125Z" fill="white"/>
<path fill-rule="evenodd" clip-rule="evenodd" d="M8.43828 18.5203H6.03828C5.53203 18.5203 5.10547 18.0984 5.10547 17.5875V17.0813H7.56172C7.67422 17.0813 7.78672 16.9969 7.78672 16.8844C7.78672 16.7719 7.67422 16.6594 7.56172 16.6594H5.10547V15.3891H7.56172C7.67422 15.3891 7.78672 15.2766 7.78672 15.1641C7.78672 15.0516 7.67422 14.9672 7.56172 14.9672H5.10547V13.6688H7.56172C7.67422 13.6688 7.78672 13.5562 7.78672 13.4437C7.78672 13.3312 7.67422 13.2469 7.56172 13.2469H5.10547V12.7688C5.10547 12.2625 5.52734 11.8359 6.03828 11.8359H8.49453H8.60703L8.57891 11.8641L8.49453 11.9766L8.43828 18.5203Z" fill="white"/>
</g>
<defs>
<clipPath id="clip0_22141_4952">
<rect width="24" height="24" fill="white" transform="translate(0.333496)"/>
</clipPath>
</defs>
</svg>
