<svg width="49" height="48" viewBox="0 0 49 48" fill="none" xmlns="http://www.w3.org/2000/svg">
<circle cx="24.5" cy="24" r="24" fill="#00C200"/>
<path fill-rule="evenodd" clip-rule="evenodd" d="M31.6723 25.935C31.1281 25.935 30.6927 25.4997 30.6927 24.9555C30.6927 24.4112 31.1281 23.9759 31.6723 23.9759C32.2165 23.9759 32.6519 24.4112 32.6519 24.9555C32.6519 25.4725 32.2165 25.935 31.6723 25.935ZM26.8443 25.935C26.3001 25.935 25.8647 25.4997 25.8647 24.9555C25.8647 24.4112 26.3001 23.9759 26.8443 23.9759C27.3885 23.9759 27.8239 24.4112 27.8239 24.9555C27.8239 25.4725 27.3885 25.935 26.8443 25.935ZM34.0086 31.4334C35.5358 30.3342 36.5003 28.6989 36.5003 26.9025C36.5003 23.5782 33.2852 20.8972 29.2933 20.8972C25.3013 20.8972 22.0863 23.5782 22.0863 26.9025C22.0863 30.227 25.3013 32.908 29.2933 32.908C30.1238 32.908 30.9008 32.8007 31.6509 32.5862C31.7045 32.5594 31.7849 32.5594 31.8653 32.5594C31.9993 32.5594 32.1333 32.613 32.2404 32.6666L33.8211 33.5782C33.8747 33.605 33.9015 33.6318 33.9551 33.6318C33.9868 33.6319 34.0182 33.6258 34.0475 33.6137C34.0768 33.6016 34.1035 33.5838 34.1259 33.5614C34.1483 33.539 34.1661 33.5123 34.1781 33.483C34.1902 33.4537 34.1963 33.4223 34.1962 33.3906C34.1962 33.3369 34.1694 33.2833 34.1694 33.2028C34.1694 33.176 33.9551 32.4522 33.8479 31.9964C33.8211 31.9428 33.8211 31.8892 33.8211 31.8355C33.7943 31.6479 33.8747 31.5139 34.0086 31.4334Z" fill="white"/>
<path fill-rule="evenodd" clip-rule="evenodd" d="M23.9752 20.2675C23.3503 20.2675 22.8557 19.7728 22.8557 19.1479C22.8557 18.5231 23.3503 18.0284 23.9752 18.0284C24.6 18.0284 25.0947 18.5231 25.0947 19.1479C25.0947 19.7468 24.6 20.2675 23.9752 20.2675ZM18.2376 20.2675C17.6128 20.2675 17.1181 19.7728 17.1181 19.1479C17.1181 18.5231 17.6128 18.0284 18.2376 18.0284C18.8624 18.0284 19.3571 18.5231 19.3571 19.1479C19.3571 19.7468 18.8624 20.2675 18.2376 20.2675ZM21.1736 14.25C16.3936 14.25 12.5 17.4613 12.5 21.4486C12.5 23.6163 13.6547 25.5698 15.5075 26.8811C15.6418 26.9882 15.7492 27.1487 15.7492 27.3628C15.7492 27.4162 15.7224 27.4966 15.7224 27.5501C15.5881 28.0853 15.3464 28.9684 15.3195 28.9951C15.2927 29.0755 15.2659 29.129 15.2659 29.2092C15.2659 29.3698 15.4001 29.5036 15.5612 29.5036C15.615 29.5036 15.6686 29.4769 15.7224 29.4501L17.6289 28.3529C17.7632 28.2726 17.9243 28.2191 18.0854 28.2191C18.166 28.2191 18.2465 28.2191 18.3271 28.2459C19.2133 28.4867 20.1799 28.6472 21.1467 28.6472H21.63C21.442 28.0853 21.3346 27.4966 21.3346 26.881C21.3346 23.2684 24.8792 20.3247 29.2294 20.3247H29.7128C29.0951 16.8725 25.4968 14.25 21.1736 14.25Z" fill="white"/>
</svg>
