<svg width="32" height="32" viewBox="0 0 32 32" fill="none" xmlns="http://www.w3.org/2000/svg">
<g clip-path="url(#clip0_2042_97738)">
<path d="M31.9925 29.7314L29.4785 15.8806C29.4535 15.7424 29.3677 15.6226 29.2448 15.5543L22.9172 12.035C22.8351 11.9892 22.743 11.971 22.6526 11.978L23.8038 26.8285L23.7652 26.8458L31.338 30.2431C31.3996 30.2707 31.4651 30.2843 31.5303 30.2843C31.6335 30.2843 31.7357 30.2504 31.8198 30.1846C31.9572 30.0773 32.0236 29.9028 31.9925 29.7314Z" fill="#44C868"/>
<path d="M16.0001 15.3996L9.52848 12.0289C9.45091 11.9885 9.36491 11.972 9.28023 11.9777C9.30266 11.9763 9.32523 11.9764 9.3476 11.9782L8.19641 26.8287L15.8077 30.2433C15.8692 30.2708 15.9347 30.2845 16.0001 30.2845V15.3996Z" fill="#44C868"/>
<path d="M9.34751 11.978C9.25707 11.971 9.16501 11.9892 9.08288 12.0349L2.75519 15.5543C2.63231 15.6226 2.54656 15.7423 2.5215 15.8806L0.00755486 29.7313C-0.0235702 29.9027 0.0429299 30.0772 0.180243 30.1846C0.26443 30.2504 0.366618 30.2843 0.469743 30.2843C0.534931 30.2843 0.600494 30.2707 0.662056 30.2431L8.19357 26.8643L9.34751 11.978Z" fill="#4CE166"/>
<path d="M22.6525 11.9766C22.5902 11.9814 22.5286 11.9979 22.4716 12.0277L16 15.3983V30.2832C16 30.2832 16 30.2832 16.0001 30.2832C16.0654 30.2832 16.131 30.2696 16.1924 30.242L23.8037 26.8274L22.6525 11.9766Z" fill="#4CE166"/>
<path d="M1.75965 20.0788L1.24896 22.8925L8.8111 18.8984L8.98666 16.6334L9.01579 16.2578L1.75965 20.0788Z" fill="#FFDB56"/>
<path d="M8.87913 18.0195L8.81107 18.8978L1.24893 22.8919L0.00755486 29.7315C-0.0235702 29.9029 0.0429299 30.0774 0.180243 30.1847C0.26443 30.2506 0.366618 30.2845 0.469743 30.2845C0.534931 30.2845 0.600494 30.2709 0.662056 30.2433L8.19357 26.8645L8.87913 18.0195Z" fill="#A8EEFC"/>
<path d="M16.0019 17.2568L9.01578 16.2578L8.8111 18.8984L16 29.8158V25.846L11.7102 19.0911L16.0019 19.6044V17.2568Z" fill="#FFBB24"/>
<path d="M28.7467 15.2766L25.707 13.5859L22.8293 14.2583L22.8653 14.7231L23.0075 16.5564L28.7467 15.2766Z" fill="#FFBB24"/>
<path d="M23.2627 19.8483L22.9902 16.3328L22.8293 14.2578L16.0019 17.2548V19.6024L20.4617 17.6631L23.2627 19.8483Z" fill="#FFDB56"/>
<path d="M31.9925 29.7289L31.3611 26.2498L23.0075 16.5547L23.2628 19.8471L31.8297 30.1734C31.9599 30.0655 32.0228 29.896 31.9925 29.7289Z" fill="#FFBB24"/>
<path d="M16.0301 1.71484C12.4074 1.71484 9.46008 4.65972 9.46008 8.27948C9.46008 10.5186 10.5231 12.9226 12.6198 15.4246C14.1598 17.2623 15.6788 18.4443 15.7427 18.4937C15.8273 18.5591 15.9287 18.5918 16.0302 18.5918C16.1315 18.5918 16.233 18.5591 16.3176 18.4937C16.3815 18.4443 17.9005 17.2623 19.4405 15.4246C21.5372 12.9226 22.6002 10.5187 22.6002 8.27948C22.6001 4.65972 19.6528 1.71484 16.0301 1.71484ZM18.4632 8.27942C18.4632 9.62205 17.3738 10.7105 16.0301 10.7105C14.6863 10.7105 13.597 9.62211 13.597 8.27942C13.597 6.93673 14.6863 5.84829 16.0301 5.84829C17.3738 5.84829 18.4632 6.93679 18.4632 8.27942Z" fill="#FF4A4A"/>
<path d="M16.0301 1.71484C15.743 1.71484 15.4602 1.73347 15.1827 1.76934C18.4066 2.18603 20.9053 4.9466 20.9053 8.27948C20.9053 10.5186 19.8423 12.9226 17.7456 15.4246C16.7552 16.6064 15.7743 17.5163 15.1827 18.0289C15.5111 18.3134 15.72 18.4761 15.7427 18.4937C15.8274 18.5591 15.9287 18.5918 16.0302 18.5918C16.1316 18.5918 16.233 18.5591 16.3176 18.4937C16.3815 18.4443 17.9006 17.2623 19.4405 15.4246C21.5372 12.9226 22.6003 10.5187 22.6003 8.27948C22.6001 4.65972 19.6528 1.71484 16.0301 1.71484Z" fill="#E7343F"/>
<path d="M16.1924 30.2417L19.0227 28.9719L16 25.8438V30.2829C16 30.2829 16 30.2829 16.0001 30.2829C16.0654 30.2829 16.1309 30.2693 16.1924 30.2417Z" fill="#FFDB56"/>
<path d="M29.4785 15.8807C29.4534 15.7425 29.3676 15.6227 29.2448 15.5544L28.7466 15.2773L23.0074 16.5572L31.361 26.2522L29.4785 15.8807Z" fill="#1EA4E9"/>
<path d="M16 30.2851C16.0001 30.2851 16.0001 30.2851 16 30.2851V29.8159L8.8111 18.8984L8.19629 26.8294L15.8076 30.244C15.8691 30.2716 15.9346 30.2851 16 30.2851Z" fill="#1EA4E9"/>
</g>
<defs>
<clipPath id="clip0_2042_97738">
<rect width="32" height="32" fill="white"/>
</clipPath>
</defs>
</svg>
