<svg width="48" height="48" viewBox="0 0 48 48" fill="none" xmlns="http://www.w3.org/2000/svg">
<circle cx="24" cy="24" r="24" fill="#333333"/>
<path d="M27.088 15.8955C27.871 14.886 28.4635 13.458 28.249 12C26.9695 12.0885 25.474 12.9075 24.6025 13.974C23.8075 14.9415 23.1535 16.3785 23.4085 17.775C24.8065 17.8185 26.251 16.98 27.088 15.8955Z" fill="white"/>
<path d="M33.3053 20.0522C32.0768 18.5117 30.3503 17.6177 28.7198 17.6177C26.5673 17.6177 25.6569 18.6482 24.1614 18.6482C22.6194 18.6482 21.4479 17.6207 19.5864 17.6207C17.7579 17.6207 15.8109 18.7382 14.5764 20.6492C12.8409 23.3401 13.1379 28.3996 15.9504 32.7091C16.9569 34.2511 18.3009 35.985 20.0589 36C21.6234 36.015 22.0644 34.9965 24.1839 34.986C26.3033 34.9741 26.7053 36.0135 28.2668 35.997C30.0263 35.9835 31.4438 34.0621 32.4503 32.5201C33.1718 31.4146 33.4403 30.8581 33.9998 29.6101C29.9303 28.0606 29.2778 22.2736 33.3053 20.0522Z" fill="white"/>
</svg>
