<svg width="36" height="36" viewBox="0 0 36 36" fill="none" xmlns="http://www.w3.org/2000/svg">
<path d="M2.28769 14.5013C1.67553 10.4202 4.83628 6.75 8.96302 6.75H26.6413C30.9009 6.75 34.0956 10.6469 33.2602 14.8238L31.4602 23.8238C30.8292 26.9789 28.0589 29.25 24.8413 29.25H10.313C6.97179 29.25 4.13333 26.8056 3.63769 23.5013L2.28769 14.5013Z" fill="white"/>
<mask id="mask0_20802_2386" style="mask-type:alpha" maskUnits="userSpaceOnUse" x="2" y="6" width="32" height="24">
<path d="M2.28769 14.5013C1.67553 10.4202 4.83628 6.75 8.96302 6.75H26.6413C30.9009 6.75 34.0956 10.6469 33.2602 14.8238L31.4602 23.8238C30.8292 26.9789 28.0589 29.25 24.8413 29.25H10.313C6.97179 29.25 4.13333 26.8056 3.63769 23.5013L2.28769 14.5013Z" fill="#FFBD00"/>
</mask>
<g mask="url(#mask0_20802_2386)">
<path opacity="0.5" d="M5.66269 12.2513C5.05053 8.17022 8.21128 4.5 12.338 4.5H30.0163C34.2759 4.5 37.4706 8.39694 36.6352 12.5738L34.8352 21.5738C34.2042 24.7289 31.4339 27 28.2163 27H13.688C10.3468 27 7.50833 24.5556 7.01269 21.2513L5.66269 12.2513Z" fill="white"/>
</g>
</svg>
