<svg width="28" height="28" viewBox="0 0 28 28" fill="none" xmlns="http://www.w3.org/2000/svg">
<g clip-path="url(#clip0_390_34532)">
<path d="M5.66895 16.0331V22.1616C5.66895 22.6491 5.86261 23.1167 6.20733 23.4614C6.55205 23.8061 7.01959 23.9998 7.50709 23.9998H21.0915C21.3329 23.9998 21.572 23.9523 21.7951 23.86C22.0181 23.7676 22.2208 23.6322 22.3916 23.4616C22.5623 23.2909 22.6977 23.0882 22.7901 22.8652C22.8825 22.6421 22.9301 22.4031 22.9301 22.1616V13.1286L14.2995 4.41504L5.66895 12.7966V16.0331Z" fill="white" stroke="#3F3E4E" stroke-width="1.16667" stroke-miterlimit="10"/>
<path d="M12.3082 16.7988H16.2916C16.6437 16.7988 16.9815 16.9387 17.2305 17.1877C17.4795 17.4367 17.6194 17.7745 17.6194 18.1266V24H10.9805V18.1266C10.9805 17.7745 11.1204 17.4367 11.3694 17.1877C11.6184 16.9387 11.9561 16.7988 12.3082 16.7988Z" fill="white" stroke="#3F3E4E" stroke-width="1.16667" stroke-miterlimit="10"/>
<path d="M23.9076 13.0533L15.2464 4.39204C14.9953 4.14102 14.6548 4 14.2997 4C13.9447 4 13.6041 4.14102 13.3531 4.39204L4.69178 13.0533C4.56749 13.1776 4.4689 13.3252 4.40165 13.4876C4.33439 13.65 4.29979 13.8241 4.2998 13.9999C4.29984 14.3549 4.44092 14.6954 4.69199 14.9464C4.94306 15.1975 5.28356 15.3384 5.63859 15.3384C5.99362 15.3384 6.3341 15.1973 6.58511 14.9462L14.2999 7.23183L22.0135 14.9462C22.2645 15.1973 22.605 15.3384 22.96 15.3384C23.1358 15.3384 23.3099 15.3038 23.4723 15.2366C23.6347 15.1693 23.7823 15.0707 23.9066 14.9464C24.0309 14.8221 24.1296 14.6746 24.1968 14.5122C24.2641 14.3498 24.2988 14.1757 24.2988 13.9999C24.2988 13.8241 24.2642 13.65 24.197 13.4876C24.1297 13.3252 24.0319 13.1776 23.9076 13.0533Z" fill="white" stroke="#3F3E4E" stroke-width="1.16667" stroke-miterlimit="10"/>
<path d="M18.6797 4V7.82691L21.3481 10.4937V4H18.6797Z" fill="white" stroke="#3F3E4E" stroke-width="1.16667" stroke-miterlimit="10"/>
</g>
<defs>
<clipPath id="clip0_390_34532">
<rect width="28" height="28" fill="white" transform="translate(0.299805)"/>
</clipPath>
</defs>
</svg>
