<svg width="24" height="24" viewBox="0 0 24 24" fill="none" xmlns="http://www.w3.org/2000/svg">
<path d="M3.2167 10.4043V15.7099C3.2167 20.1999 5.00674 21.9999 9.50674 21.9999H13.8613" stroke="white" stroke-width="1.5" stroke-linecap="round" stroke-linejoin="round"/>
<path d="M21.1865 14.8435L21.1865 10.9365" stroke="white" stroke-width="1.5" stroke-linecap="round" stroke-linejoin="round"/>
<path d="M12.1966 11.7048C10.3666 11.7048 9.01665 10.2589 9.19665 8.48288L9.86669 2H14.5367L15.2067 8.48288C15.3867 10.2589 14.0266 11.7048 12.1966 11.7048Z" stroke="white" stroke-width="1.5" stroke-linecap="round" stroke-linejoin="round"/>
<path d="M5.89624 11.7048C3.87624 11.7048 2.39625 10.1132 2.59625 8.16255L2.87628 5.49372C3.23628 2.97046 4.23626 2 6.85626 2H9.90625L9.20624 8.8031C9.02624 10.4044 7.54624 11.7048 5.89624 11.7048Z" stroke="white" stroke-width="1.5" stroke-linecap="round" stroke-linejoin="round"/>
<path d="M18.5568 11.7048C16.9068 11.7048 15.4168 10.4044 15.2568 8.8031L15.0367 6.65837L14.5568 2H17.6068C20.2268 2 21.2267 2.97046 21.5867 5.49372L21.8668 8.16255C22.0668 10.1132 20.5768 11.7048 18.5568 11.7048Z" stroke="white" stroke-width="1.5" stroke-linecap="round" stroke-linejoin="round"/>
<path d="M17.5424 20.8114C19.0037 20.8114 20.1883 19.6268 20.1883 18.1655C20.1883 16.7042 19.0037 15.5195 17.5424 15.5195C16.0811 15.5195 14.8965 16.7042 14.8965 18.1655C14.8965 19.6268 16.0811 20.8114 17.5424 20.8114Z" stroke="white" stroke-width="1.5" stroke-linecap="round" stroke-linejoin="round"/>
<path d="M20.8508 21.4729L19.4121 20.0342" stroke="white" stroke-width="1.5" stroke-linecap="round" stroke-linejoin="round"/>
</svg>
