<svg width="32" height="32" viewBox="0 0 32 32" fill="none" xmlns="http://www.w3.org/2000/svg">
<path d="M2.03351 12.89C1.48936 9.26242 4.29892 6 7.96712 6H23.6812C27.4675 6 30.3072 9.46395 29.5647 13.1767L27.9647 21.1767C27.4038 23.9812 24.9413 26 22.0812 26H9.16712C6.19714 26 3.67407 23.8272 3.23351 20.89L2.03351 12.89Z" fill="#ACACB7"/>
<mask id="mask0_5523_91085" style="mask-type:alpha" maskUnits="userSpaceOnUse" x="1" y="6" width="29" height="20">
<path d="M2.03351 12.89C1.48936 9.26242 4.29892 6 7.96712 6H23.6812C27.4675 6 30.3072 9.46395 29.5647 13.1767L27.9647 21.1767C27.4038 23.9812 24.9413 26 22.0812 26H9.16712C6.19714 26 3.67407 23.8272 3.23351 20.89L2.03351 12.89Z" fill="#6E6DA1"/>
</mask>
<g mask="url(#mask0_5523_91085)">
<path opacity="0.35" d="M5.03351 10.89C4.48936 7.26242 7.29892 4 10.9671 4H26.6812C30.4675 4 33.3072 7.46395 32.5647 11.1767L30.9647 19.1767C30.4038 21.9812 27.9413 24 25.0812 24H12.1671C9.19714 24 6.67407 21.8272 6.23351 18.89L5.03351 10.89Z" fill="url(#paint0_linear_5523_91085)"/>
<path opacity="0.4" d="M26.6599 20.5498C28.945 23.4193 28.1431 27.6495 24.9663 29.4836L11.3575 37.3406C8.07851 39.2337 3.88724 37.6537 2.67393 34.0671L0.0595728 26.3389C-0.856939 23.6297 0.266258 20.6501 2.74317 19.2201L13.9271 12.7631C16.4991 11.2781 19.7706 11.8983 21.6207 14.2216L26.6599 20.5498Z" fill="url(#paint1_linear_5523_91085)"/>
</g>
<defs>
<linearGradient id="paint0_linear_5523_91085" x1="19" y1="4" x2="19" y2="24" gradientUnits="userSpaceOnUse">
<stop stop-color="#EEEEEE" stop-opacity="0"/>
<stop offset="0.697917" stop-color="#EEEEEE"/>
</linearGradient>
<linearGradient id="paint1_linear_5523_91085" x1="18.0096" y1="33.5" x2="8.00962" y2="16.1795" gradientUnits="userSpaceOnUse">
<stop offset="0.125" stop-color="#EEEEEE" stop-opacity="0"/>
<stop offset="1" stop-color="#EEEEEE"/>
</linearGradient>
</defs>
</svg>
