<svg width="16" height="16" viewBox="0 0 16 16" fill="none" xmlns="http://www.w3.org/2000/svg">
<path d="M14.3992 4.90925V4.91005V11.09C14.3992 12.1117 14.0826 12.9341 13.5601 13.4953C13.0422 14.0516 12.2774 14.4 11.2781 14.4H4.71811C3.72096 14.4 2.95692 14.0518 2.43913 13.4954C1.91682 12.9341 1.6 12.1116 1.6 11.09V4.91005C1.6 3.88902 1.91793 3.06647 2.44117 2.50486C2.96001 1.94796 3.72434 1.6 4.71811 1.6H11.2819C12.2804 1.6 13.0449 1.94831 13.5625 2.50457C14.0845 3.06563 14.4006 3.88778 14.3992 4.90925Z" stroke="current" stroke-width="1.2" stroke-linecap="round" stroke-linejoin="round"/>
<path fill-rule="evenodd" clip-rule="evenodd" d="M7.03333 5.57819C7.03333 6.35201 6.40669 6.97864 5.63288 6.97864C4.85982 6.97864 4.23242 6.35201 4.23242 5.57819C4.23242 4.80437 4.85982 4.17773 5.63288 4.17773C6.40593 4.17849 7.03257 4.80513 7.03333 5.57819Z" stroke="current" stroke-width="1.2" stroke-linecap="round" stroke-linejoin="round"/>
<path d="M14.25 10.2651C13.6155 9.6121 12.3954 8.29297 11.0687 8.29297C9.74132 8.29297 8.97624 11.2027 7.69973 11.2027C6.42323 11.2027 5.26358 9.88706 4.24072 10.7305C3.21786 11.5733 2.25 13.2966 2.25 13.2966" stroke="current" stroke-width="1.10916" stroke-linecap="round" stroke-linejoin="round"/>
</svg>
