<svg width="24" height="24" viewBox="0 0 24 24" fill="none" xmlns="http://www.w3.org/2000/svg">
<line x1="11.75" y1="5.25" x2="21.25" y2="5.25" stroke="white" stroke-width="1.5" stroke-linecap="round"/>
<line x1="2.75" y1="12.25" x2="21.25" y2="12.25" stroke="white" stroke-width="1.5" stroke-linecap="round"/>
<line x1="2.75" y1="19.25" x2="21.25" y2="19.25" stroke="white" stroke-width="1.5" stroke-linecap="round"/>
<path d="M2.35156 9.33703C2.46031 9.39985 2.58172 9.43125 2.70313 9.43125C2.82453 9.43125 2.94594 9.39985 3.05469 9.33703L8.27239 6.32456C8.48994 6.19894 8.62395 5.96686 8.62395 5.71566C8.62395 5.4645 8.48994 5.23233 8.27239 5.10675L3.05469 2.09424C2.83714 1.96861 2.56911 1.96856 2.35156 2.09424C2.13402 2.21981 2 2.45189 2 2.70314V8.72813C2 8.97933 2.13402 9.21146 2.35156 9.33703ZM3.40625 3.921L6.51463 5.71566L3.40625 7.51031V3.921Z" fill="white"/>
</svg>
