<svg width="32" height="33" viewBox="0 0 32 33" fill="none" xmlns="http://www.w3.org/2000/svg">
<path d="M2.03351 13.1557C1.48936 9.52804 4.29892 6.26562 7.96712 6.26562H23.6812C27.4675 6.26562 30.3072 9.72957 29.5647 13.4423L27.9647 21.4423C27.4038 24.2469 24.9413 26.2656 22.0812 26.2656H9.16712C6.19714 26.2656 3.67407 24.0928 3.23351 21.1557L2.03351 13.1557Z" fill="#ACACB7"/>
<mask id="mask0_2222_51172" style="mask-type:alpha" maskUnits="userSpaceOnUse" x="1" y="6" width="29" height="21">
<path d="M2.03351 13.1557C1.48936 9.52804 4.29892 6.26562 7.96712 6.26562H23.6812C27.4675 6.26562 30.3072 9.72957 29.5647 13.4423L27.9647 21.4423C27.4038 24.2469 24.9413 26.2656 22.0812 26.2656H9.16712C6.19714 26.2656 3.67407 24.0928 3.23351 21.1557L2.03351 13.1557Z" fill="#6E6DA1"/>
</mask>
<g mask="url(#mask0_2222_51172)">
<path opacity="0.35" d="M5.03351 11.1557C4.48936 7.52804 7.29892 4.26562 10.9671 4.26562H26.6812C30.4675 4.26562 33.3072 7.72957 32.5647 11.4423L30.9647 19.4423C30.4038 22.2469 27.9413 24.2656 25.0812 24.2656H12.1671C9.19714 24.2656 6.67407 22.0928 6.23351 19.1557L5.03351 11.1557Z" fill="url(#paint0_linear_2222_51172)"/>
<path opacity="0.4" d="M26.6599 20.8154C28.945 23.685 28.1431 27.9151 24.9663 29.7492L11.3575 37.6062C8.07851 39.4994 3.88724 37.9194 2.67393 34.3328L0.0595728 26.6046C-0.856939 23.8953 0.266258 20.9157 2.74317 19.4857L13.9271 13.0287C16.4991 11.5437 19.7706 12.1639 21.6207 14.4872L26.6599 20.8154Z" fill="url(#paint1_linear_2222_51172)"/>
</g>
<g opacity="0.8" filter="url(#filter0_f_2222_51172)">
<path d="M17.7422 10.8656C16.7122 10.8656 15.8472 11.1406 15.1472 11.6906C14.4572 12.2406 14.0222 13.0906 13.8422 14.2406L15.8072 14.5706C15.8172 14.4206 15.8272 14.2856 15.8372 14.1656C15.8572 14.0456 15.8872 13.9306 15.9272 13.8206C16.0472 13.4906 16.2522 13.2056 16.5422 12.9656C16.8322 12.7156 17.1872 12.5906 17.6072 12.5906C18.0972 12.5906 18.4822 12.7256 18.7622 12.9956C19.0522 13.2556 19.1972 13.6456 19.1972 14.1656C19.1972 14.7456 19.0322 15.2806 18.7022 15.7706C18.3722 16.2606 17.9222 16.7906 17.3522 17.3606L13.5872 21.0656V22.2656H21.4022V20.3756H17.8022C17.6322 20.3756 17.4522 20.3856 17.2622 20.4056C17.0822 20.4156 16.8922 20.4456 16.6922 20.4956L19.0172 18.1556C19.2972 17.8656 19.5672 17.5656 19.8272 17.2556C20.0972 16.9456 20.3372 16.6256 20.5472 16.2956C20.7572 15.9656 20.9272 15.6206 21.0572 15.2606C21.1972 14.8906 21.2722 14.5106 21.2822 14.1206C21.2822 13.6406 21.1922 13.2006 21.0122 12.8006C20.8422 12.4006 20.6022 12.0606 20.2922 11.7806C19.9822 11.4906 19.6072 11.2656 19.1672 11.1056C18.7372 10.9456 18.2622 10.8656 17.7422 10.8656Z" fill="#F3F3F3"/>
</g>
<path d="M16.7422 9.86562C15.7122 9.86562 14.8472 10.1406 14.1472 10.6906C13.4572 11.2406 13.0222 12.0906 12.8422 13.2406L14.8072 13.5706C14.8172 13.4206 14.8272 13.2856 14.8372 13.1656C14.8572 13.0456 14.8872 12.9306 14.9272 12.8206C15.0472 12.4906 15.2522 12.2056 15.5422 11.9656C15.8322 11.7156 16.1872 11.5906 16.6072 11.5906C17.0972 11.5906 17.4822 11.7256 17.7622 11.9956C18.0522 12.2556 18.1972 12.6456 18.1972 13.1656C18.1972 13.7456 18.0322 14.2806 17.7022 14.7706C17.3722 15.2606 16.9222 15.7906 16.3522 16.3606L12.5872 20.0656V21.2656H20.4022V19.3756H16.8022C16.6322 19.3756 16.4522 19.3856 16.2622 19.4056C16.0822 19.4156 15.8922 19.4456 15.6922 19.4956L18.0172 17.1556C18.2972 16.8656 18.5672 16.5656 18.8272 16.2556C19.0972 15.9456 19.3372 15.6256 19.5472 15.2956C19.7572 14.9656 19.9272 14.6206 20.0572 14.2606C20.1972 13.8906 20.2722 13.5106 20.2822 13.1206C20.2822 12.6406 20.1922 12.2006 20.0122 11.8006C19.8422 11.4006 19.6022 11.0606 19.2922 10.7806C18.9822 10.4906 18.6072 10.2656 18.1672 10.1056C17.7372 9.94562 17.2622 9.86562 16.7422 9.86562Z" fill="#585776"/>
<defs>
<filter id="filter0_f_2222_51172" x="11.5872" y="8.86523" width="11.8152" height="15.4004" filterUnits="userSpaceOnUse" color-interpolation-filters="sRGB">
<feFlood flood-opacity="0" result="BackgroundImageFix"/>
<feBlend mode="normal" in="SourceGraphic" in2="BackgroundImageFix" result="shape"/>
<feGaussianBlur stdDeviation="1" result="effect1_foregroundBlur_2222_51172"/>
</filter>
<linearGradient id="paint0_linear_2222_51172" x1="19" y1="4.26562" x2="19" y2="24.2656" gradientUnits="userSpaceOnUse">
<stop stop-color="#EEEEEE" stop-opacity="0"/>
<stop offset="0.697917" stop-color="#EEEEEE"/>
</linearGradient>
<linearGradient id="paint1_linear_2222_51172" x1="18.0096" y1="33.7656" x2="8.00962" y2="16.4451" gradientUnits="userSpaceOnUse">
<stop offset="0.125" stop-color="#EEEEEE" stop-opacity="0"/>
<stop offset="1" stop-color="#EEEEEE"/>
</linearGradient>
</defs>
</svg>
