<svg width="49" height="48" viewBox="0 0 49 48" fill="none" xmlns="http://www.w3.org/2000/svg">
<g clip-path="url(#clip0_8322_222770)">
<path d="M48.1875 0H0.1875V48H48.1875V0Z" fill="#00C200"/>
<path d="M36.0848 23.3713C36.1396 23.0643 36.1675 22.8067 36.1792 22.6043C36.1999 22.2697 36.1765 21.7736 36.1675 21.6187C35.8762 16.2657 30.622 12 24.1838 12C17.5576 12 12.1875 16.5166 12.1875 22.0882C12.1875 27.2093 16.7251 31.4379 22.6041 32.0889C22.9638 32.1288 23.2227 32.472 23.1831 32.8512L22.9323 35.2321C22.8757 35.7729 23.4043 36.1664 23.8682 35.9297C28.8347 33.3958 31.8052 30.7887 33.5782 28.5304C33.9009 28.1198 34.9529 26.561 35.1677 26.1514C35.6227 25.2817 35.9373 24.3493 36.0848 23.3713Z" fill="white"/>
<path d="M16.9381 24.136V19.7213C16.9381 19.349 16.636 19.0479 16.2647 19.0479C15.8925 19.0479 15.5903 19.349 15.5903 19.7213V24.8094C15.5903 25.1816 15.8925 25.4828 16.2647 25.4828H18.9604C19.3326 25.4828 19.6348 25.1816 19.6348 24.8094C19.6348 24.4371 19.3336 24.136 18.9604 24.136H16.9381Z" fill="#00C500"/>
<path d="M21.0954 25.4838H20.8012C20.5099 25.4838 20.2749 25.2478 20.2749 24.9575V19.5741C20.2749 19.2829 20.5109 19.0479 20.8012 19.0479H21.0954C21.3867 19.0479 21.6227 19.2838 21.6227 19.5741V24.9575C21.6227 25.2478 21.3867 25.4838 21.0954 25.4838Z" fill="#00C500"/>
<path d="M26.542 19.7223V22.8306C26.542 22.8306 23.8503 19.3204 23.8098 19.274C23.6804 19.1298 23.4918 19.0409 23.2815 19.0488C22.9142 19.0627 22.6338 19.3836 22.6338 19.7499V24.8104C22.6338 25.1826 22.9359 25.4838 23.3082 25.4838C23.6804 25.4838 23.9816 25.1826 23.9816 24.8104V21.7208C23.9816 21.7208 26.7138 25.2616 26.7543 25.3001C26.8737 25.4127 27.0337 25.4828 27.2104 25.4838C27.5847 25.4877 27.8908 25.156 27.8908 24.7817V19.7213C27.8908 19.349 27.5896 19.0479 27.2173 19.0479C26.8441 19.0479 26.542 19.35 26.542 19.7223Z" fill="#00C500"/>
<path d="M32.9444 19.7218C32.9444 19.3495 32.6422 19.0483 32.2699 19.0483H29.5743C29.202 19.0483 28.9009 19.3495 28.9009 19.7218V24.8099C28.9009 25.1821 29.203 25.4833 29.5743 25.4833H32.2699C32.6422 25.4833 32.9444 25.1821 32.9444 24.8099C32.9444 24.4376 32.6422 24.1365 32.2699 24.1365H30.2477V22.9397H32.2699C32.6422 22.9397 32.9444 22.6376 32.9444 22.2663C32.9444 21.8941 32.6422 21.5919 32.2699 21.5919H30.2477V20.3962H32.2699C32.6432 20.3952 32.9444 20.094 32.9444 19.7218Z" fill="#00C500"/>
</g>
<defs>
<clipPath id="clip0_8322_222770">
<rect x="0.1875" width="48" height="48" rx="24" fill="white"/>
</clipPath>
</defs>
</svg>
