<svg width="17" height="16" viewBox="0 0 17 16" fill="none" xmlns="http://www.w3.org/2000/svg">
<g clip-path="url(#clip0_1151_58190)">
<path d="M15.2722 9.79995C15.7696 9.21687 16.2531 8.618 16.7225 8.0003C16.2683 7.37957 15.7976 6.77706 15.3123 6.19034C15.4441 5.46756 15.5571 4.7375 15.6512 4.00015C14.9473 3.68979 14.2386 3.40311 13.525 3.13768C13.2778 2.44589 13.0106 1.75713 12.7233 1.0714C11.9902 1.15097 11.2645 1.25179 10.5442 1.37145C9.98607 0.900125 9.41276 0.442774 8.82365 0C8.22604 0.442167 7.64483 0.897696 7.0788 1.36598C6.32936 1.22932 5.57385 1.11392 4.81044 1.02099C4.51407 1.70307 4.23834 2.38819 3.98205 3.07695C3.2648 3.33326 2.5524 3.61083 1.84487 3.91208C1.93293 4.68284 2.04225 5.44448 2.17222 6.20005C1.67482 6.78313 1.19139 7.382 0.721924 7.99909C1.1762 8.61982 1.64688 9.22234 2.13213 9.80906C2.00034 10.5318 1.88738 11.2619 1.79385 11.9992C2.49774 12.3096 3.20649 12.5963 3.9201 12.8617C4.16728 13.5535 4.43451 14.2423 4.72177 14.928C5.45421 14.8484 6.18057 14.7476 6.90086 14.6279C7.45899 15.0993 8.0317 15.5566 8.6208 15.9994C9.21841 15.5572 9.79962 15.1017 10.3657 14.6334C11.1151 14.7701 11.8706 14.8855 12.634 14.9784C12.9304 14.2963 13.2061 13.6112 13.4618 12.9224C14.179 12.6661 14.8914 12.388 15.599 12.0873C15.5115 11.3172 15.4016 10.5549 15.2722 9.79995Z" fill="#09D97C"/>
<path d="M12.0561 5.5L7.47274 10.5L5.3894 8.22727" stroke="white" stroke-width="1.5" stroke-linecap="round" stroke-linejoin="round"/>
</g>
<defs>
<clipPath id="clip0_1151_58190">
<rect width="16" height="16" fill="white" transform="translate(0.722656)"/>
</clipPath>
</defs>
</svg>
