<svg width="24" height="24" viewBox="0 0 24 24" fill="none" xmlns="http://www.w3.org/2000/svg">
<path fill-rule="evenodd" clip-rule="evenodd" d="M21.7046 4.59252C22.0162 3.18685 20.709 1.91846 19.2937 2.32805L3.63713 6.88379L3.48604 6.93402C2.01645 7.48709 1.79097 9.53384 3.16744 10.3812L9.64297 14.3671L13.5387 20.8211L13.6263 20.9544C14.5395 22.2339 16.5618 21.924 17.0228 20.373L21.668 4.73348L21.7046 4.59252ZM19.7846 3.7542C20.0734 3.7232 20.3202 4.0041 20.2303 4.30571L15.585 19.9457L15.5545 20.0224C15.4093 20.3079 14.9985 20.337 14.823 20.0461L11.135 13.9371L16.3875 8.65073L16.4598 8.56637C16.6767 8.27203 16.6511 7.85545 16.3839 7.59007L16.2996 7.51774C16.0052 7.30086 15.5887 7.32645 15.3233 7.5936L10.078 12.8731L3.95374 9.10381L3.88762 9.05416C3.64979 8.8375 3.72984 8.41879 4.05573 8.3242L19.7117 3.76862L19.7846 3.7542Z" fill="current"/>
</svg>
