<svg width="16" height="16" viewBox="0 0 16 16" fill="none" xmlns="http://www.w3.org/2000/svg">
<path opacity="0.2" d="M8 14C11.3137 14 14 11.3137 14 8C14 4.68629 11.3137 2 8 2C4.68629 2 2 4.68629 2 8C2 11.3137 4.68629 14 8 14Z" fill="current"/>
<path fill-rule="evenodd" clip-rule="evenodd" d="M8.15172 7.09963C8.14664 7.09945 8.14155 7.09937 8.13643 7.09937H7.40032C7.15432 7.09937 6.95032 7.30337 6.95032 7.54937C6.95032 7.79537 7.15432 7.99937 7.40032 7.99937H7.70019V10.5496C7.70019 10.7956 7.90419 10.9996 8.15019 10.9996C8.39619 10.9996 8.60019 10.7956 8.60019 10.5496V7.54963C8.60019 7.30414 8.39703 7.10047 8.15172 7.09963Z" fill="current"/>
<path d="M8.55202 5.369C8.52202 5.297 8.48002 5.231 8.42602 5.171C8.36602 5.117 8.30002 5.075 8.22802 5.045C8.08402 4.985 7.91602 4.985 7.77202 5.045C7.70002 5.075 7.63402 5.117 7.57402 5.171C7.52002 5.231 7.47802 5.297 7.44802 5.369C7.41802 5.441 7.40002 5.519 7.40002 5.597C7.40002 5.675 7.41802 5.753 7.44802 5.825C7.47802 5.903 7.52002 5.963 7.57402 6.023C7.63402 6.077 7.70002 6.119 7.77202 6.149C7.84402 6.179 7.92202 6.197 8.00002 6.197C8.07802 6.197 8.15602 6.179 8.22802 6.149C8.30002 6.119 8.36602 6.077 8.42602 6.023C8.48002 5.963 8.52202 5.903 8.55202 5.825C8.58202 5.753 8.60002 5.675 8.60002 5.597C8.60002 5.519 8.58202 5.441 8.55202 5.369Z" fill="current"/>
</svg>
