<svg width="25" height="25" viewBox="0 0 25 25" fill="none" xmlns="http://www.w3.org/2000/svg">
<path d="M9.87804 5.94226C9.80599 6.06607 9.6614 6.15896 9.48608 6.21054C8.53641 6.5098 6.38012 5.88036 5.6889 5.46768C5.35891 5.27164 5.12161 4.9827 4.97702 4.65252C4.77046 4.17794 4.79112 3.60014 5.0803 3.11516C5.56496 2.30007 6.61741 2.02146 7.44315 2.50644C8.2583 2.99135 10.3632 5.12717 9.87804 5.94226Z" fill="#FCB73E"/>
<path d="M9.4866 6.20984C8.53692 6.5091 6.38064 5.87966 5.68942 5.46698C5.35942 5.27094 5.12213 4.98201 4.97754 4.65183C4.98812 4.65183 4.98812 4.64156 4.98812 4.64156C5.47278 3.8264 6.52523 3.54786 7.35046 4.03278C7.87694 4.3423 8.91881 5.33285 9.4866 6.20984Z" fill="#FD982E"/>
<path d="M9.72799 5.94226C9.80003 6.06607 9.94463 6.15896 10.1199 6.21054C11.0696 6.5098 13.2259 5.88036 13.9171 5.46768C14.2471 5.27164 14.4844 4.9827 14.629 4.65252C14.8356 4.17794 14.8149 3.60014 14.5257 3.11516C14.0411 2.30007 12.9886 2.02146 12.1629 2.50644C11.3477 2.99135 9.24282 5.12717 9.72799 5.94226Z" fill="#FCB73E"/>
<path d="M10.1182 6.21033C11.0678 6.50959 13.2241 5.88015 13.9153 5.46747C14.2453 5.27143 14.4826 4.9825 14.6272 4.65231C14.6166 4.65231 14.6166 4.64205 14.6166 4.64205C14.132 3.82689 13.0795 3.54835 12.2543 4.03326C11.7278 4.34279 10.686 5.33333 10.1182 6.21033Z" fill="#FD982E"/>
<path d="M16.8369 9.13281V17.4361C16.8369 18.0379 16.3555 18.5061 15.7664 18.5061H3.83542C3.24697 18.5061 2.76562 18.0379 2.76562 17.4361V9.13281H16.8369Z" fill="#E83D62"/>
<path d="M16.8117 17.6689C16.7069 18.1527 16.2772 18.5045 15.7665 18.5045H3.8347C3.24598 18.5045 2.76562 18.0377 2.76562 17.4355V9.13379H3.5742V16.6269C3.5742 17.2291 4.05456 17.696 4.64311 17.696H16.5749C16.6561 17.696 16.7339 17.6858 16.8117 17.6689Z" fill="#CE2955"/>
<path d="M2.76562 9.13379H16.8352V9.91848H2.76562V9.13379Z" fill="#CE2955"/>
<path d="M17.9219 6.71663V8.45567C17.9219 8.82934 17.619 9.13226 17.2453 9.13226H2.36019C1.98652 9.13226 1.68359 8.82934 1.68359 8.45567V6.71663C1.68359 6.34296 1.98652 6.04004 2.36019 6.04004H17.2453C17.619 6.04004 17.9219 6.34296 17.9219 6.71663Z" fill="#E83D62"/>
<path d="M7.65234 6.04004H11.9459V9.13241H7.65234V6.04004Z" fill="#FCB73E"/>
<path d="M7.9834 9.12939H11.6115V18.5056H7.9834V9.12939Z" fill="#FEDD72"/>
<path d="M7.9834 9.12988H11.6134V18.5038H7.9834V9.12988Z" fill="#FCB73E"/>
<path d="M11.5463 6.03958H8.05859C8.05859 5.08897 8.85016 4.29736 9.8041 4.29736C9.8482 4.29736 9.89544 4.30075 9.93938 4.30412C10.6295 4.35825 11.2149 4.82849 11.4416 5.45772C11.5091 5.64039 11.5463 5.83661 11.5463 6.03958Z" fill="#E87F21"/>
<path d="M7.9834 9.1333H11.613V9.91799H7.9834V9.1333Z" fill="#FD982E"/>
<path d="M7.9834 17.6953H11.6134V18.5039H7.9834V17.6953Z" fill="#FD982E"/>
<path d="M11.4416 5.45781H10.474C9.88543 5.45781 9.53706 4.75753 9.92937 4.31436L9.93944 4.3042C10.6296 4.35834 11.215 4.82858 11.4416 5.45781Z" fill="#FCB73E"/>
<path d="M20.6429 17.2647C20.6429 18.2883 21.3597 19.1412 22.3182 19.3566C22.5929 19.4184 22.7939 19.6513 22.7939 19.9329V20.7208C22.7939 21.2967 22.3271 21.7636 21.7512 21.7636H8.69411C8.11822 21.7636 7.65137 21.2967 7.65137 20.7208V19.9329C7.65137 19.6513 7.85236 19.4184 8.12708 19.3566C9.08557 19.1412 9.80239 18.2883 9.80239 17.2647C9.80239 16.2411 9.08557 15.3883 8.12708 15.1728C7.85236 15.1111 7.65137 14.8781 7.65137 14.5966V13.8086C7.65137 13.2381 8.117 12.7725 8.69411 12.7725H21.7512C22.3283 12.7725 22.7939 13.2381 22.7939 13.8086V14.5966C22.7939 14.8781 22.5929 15.1111 22.3182 15.1728C21.3597 15.3883 20.6429 16.2411 20.6429 17.2647Z" fill="#65B9FF"/>
<path d="M8.79849 19.9341V20.7205C8.79849 21.2942 9.26602 21.7617 9.84513 21.7617H8.69754C8.12378 21.7617 7.65625 21.2942 7.65625 20.7205V19.9341C7.65625 19.6526 7.85814 19.4188 8.12907 19.3551C9.09072 19.1425 9.80794 18.2872 9.80794 17.2671C9.80794 16.2417 9.09072 15.3864 8.12907 15.1739C7.85814 15.1101 7.65625 14.8763 7.65625 14.5948V13.8085C7.65625 13.24 8.11846 12.7725 8.69754 12.7725H9.84513C9.26602 12.7725 8.79849 13.24 8.79849 13.8085V14.5948C8.79849 14.8763 9.00038 15.1101 9.27665 15.1739C10.233 15.3864 10.9502 16.2417 10.9502 17.2671C10.9502 18.2872 10.233 19.1425 9.27665 19.3551C9.00038 19.4188 8.79849 19.6526 8.79849 19.9341Z" fill="#3E7FFF"/>
<path d="M11.6172 12.7725H12.273V13.4282H11.6172V12.7725Z" fill="#3E7FFF"/>
<path d="M12.273 20.5177H11.6172V19.3361H12.273V20.5177ZM12.273 18.7453H11.6172V17.564H12.273V18.7453ZM12.273 16.9732H11.6172V15.7916H12.273V16.9732ZM12.273 15.2011H11.6172V14.0195H12.273V15.2011Z" fill="#3E7FFF"/>
<path d="M11.6172 21.1074H12.273V21.7632H11.6172V21.1074Z" fill="#3E7FFF"/>
<path d="M13.6201 15.7084C13.6201 14.9321 14.0389 14.2998 14.8872 14.2998C15.7279 14.2998 16.154 14.9252 16.154 15.7084C16.154 16.489 15.731 17.1171 14.8872 17.1171C14.0439 17.1171 13.6201 16.4895 13.6201 15.7084ZM15.6032 15.7084C15.6032 15.2293 15.3747 14.8115 14.8872 14.8115C14.3998 14.8115 14.1709 15.2291 14.1709 15.7084C14.1709 16.1899 14.401 16.6057 14.8872 16.6057C15.3715 16.6057 15.6032 16.1917 15.6032 15.7084ZM14.706 19.9305C14.6143 19.8439 14.6041 19.7118 14.6666 19.6119L17.8697 14.4887C17.9702 14.3272 18.177 14.3368 18.2828 14.4257C18.365 14.4952 18.3917 14.6323 18.3023 14.7721L15.1232 19.8636C15.0298 20.0139 14.8405 20.0585 14.706 19.9305ZM16.8152 18.6596C16.8152 17.8817 17.2354 17.2509 18.082 17.2509C18.9245 17.2509 19.3491 17.8779 19.3491 18.6596C19.3491 19.4387 18.9277 20.0682 18.082 20.0682C17.2405 20.0682 16.8152 19.4422 16.8152 18.6596ZM18.7984 18.6596C18.7984 18.1809 18.5703 17.7626 18.082 17.7626C17.5946 17.7626 17.366 18.1807 17.366 18.6596C17.366 19.1429 17.5977 19.5568 18.082 19.5568C18.5678 19.5568 18.7984 19.1414 18.7984 18.6596Z" fill="#DEDDFF"/>
</svg>
