<svg width="28" height="28" viewBox="0 0 28 28" fill="none" xmlns="http://www.w3.org/2000/svg">
<rect x="1.5" y="5.5" width="25" height="17" rx="1.5" stroke="#F1733A"/>
<path d="M8.744 18.168C10.796 18.168 12.008 16.932 12.008 15.48C12.008 14.184 11.324 13.512 10.22 13.068L9.056 12.576C8.3 12.288 7.664 12.012 7.664 11.412C7.664 10.824 8.168 10.476 8.948 10.476C9.68 10.476 10.268 10.74 10.832 11.208L11.732 10.092C11.012 9.36 10.004 8.952 8.948 8.952C7.16 8.952 5.876 10.068 5.876 11.52C5.876 12.816 6.776 13.524 7.676 13.908L8.864 14.412C9.668 14.76 10.196 14.94 10.196 15.612C10.196 16.236 9.704 16.632 8.78 16.632C8 16.632 7.16 16.236 6.524 15.648L5.504 16.872C6.368 17.7 7.544 18.168 8.744 18.168ZM13.7003 9.12V18H16.2323C18.8483 18 20.5283 16.5 20.5283 13.524C20.5283 10.512 18.8483 9.12 16.1363 9.12H13.7003ZM16.0283 16.572H15.4763V10.536H16.0283C17.6963 10.536 18.7163 11.352 18.7163 13.524C18.7163 15.684 17.6963 16.572 16.0283 16.572Z" fill="#F1733A"/>
</svg>
