<svg width="16" height="17" viewBox="0 0 16 17" fill="none" xmlns="http://www.w3.org/2000/svg">
<path d="M8 1.16699C12.0498 1.16717 15.3338 4.45017 15.334 8.5L15.3242 8.87793C15.1275 12.7523 11.9232 15.8338 8 15.834L7.62305 15.8242C3.7484 15.6279 0.667163 12.4234 0.666992 8.5C0.667168 4.45017 3.95017 1.16717 8 1.16699ZM8 2.66699C4.7786 2.66717 2.16717 5.2786 2.16699 8.5C2.16717 11.7214 4.7786 14.3338 8 14.334C11.2214 14.3338 13.8338 11.7214 13.834 8.5C13.8338 5.2786 11.2214 2.66717 8 2.66699Z" fill="currentColor"/>
<path d="M7.99961 4.5C6.67641 4.5 5.59961 5.37902 5.59961 6.45918C5.59961 6.58909 5.66282 6.71367 5.77535 6.80552C5.88787 6.89738 6.04048 6.94898 6.19961 6.94898C6.35874 6.94898 6.51135 6.89738 6.62387 6.80552C6.7364 6.71367 6.79961 6.58909 6.79961 6.45918C6.79961 5.91976 7.33881 5.47959 7.99961 5.47959C8.66041 5.47959 9.19961 5.91976 9.19961 6.45918C9.19961 6.88563 9.10201 7.124 8.99641 7.27551C8.88681 7.43355 8.73961 7.54327 8.51561 7.69543L8.47481 7.72286C8.26681 7.86327 7.98521 8.05396 7.77081 8.33608C7.53081 8.65151 7.39961 9.04139 7.39961 9.56122V9.88775C7.39961 10.0177 7.46282 10.1422 7.57535 10.2341C7.68787 10.3259 7.84048 10.3776 7.99961 10.3776C8.15874 10.3776 8.31135 10.3259 8.42387 10.2341C8.53639 10.1422 8.59961 10.0177 8.59961 9.88775V9.56122C8.59961 9.1831 8.69241 8.98131 8.79081 8.85265C8.89961 8.70963 9.04361 8.61102 9.28361 8.44776C9.51001 8.29363 9.81161 8.08661 10.0396 7.76008C10.2716 7.42702 10.3996 7.01233 10.3996 6.45918C10.3996 5.37902 9.32281 4.5 7.99961 4.5ZM7.99961 12.5C8.21178 12.5 8.41527 12.4312 8.56529 12.3087C8.71532 12.1862 8.79961 12.0201 8.79961 11.8469C8.79961 11.6737 8.71532 11.5076 8.56529 11.3852C8.41527 11.2627 8.21178 11.1939 7.99961 11.1939C7.78744 11.1939 7.58395 11.2627 7.43392 11.3852C7.28389 11.5076 7.19961 11.6737 7.19961 11.8469C7.19961 12.0201 7.28389 12.1862 7.43392 12.3087C7.58395 12.4312 7.78744 12.5 7.99961 12.5Z" fill="currentColor"/>
</svg>
