<svg width="24" height="24" viewBox="0 0 24 24" fill="none" xmlns="http://www.w3.org/2000/svg">
<path d="M13.5143 2.29014C12.8037 1.05644 11.2274 0.633718 9.99335 1.346C9.16754 1.82312 8.67285 2.71247 8.7043 3.66727C8.7043 3.66735 8.70439 3.66744 8.70439 3.66748C8.70439 3.66765 8.7043 3.6677 8.7043 3.66787L8.77267 5.67783L7.06528 4.6139C6.25585 4.10851 5.23875 4.09153 4.41166 4.56861C3.18054 5.27922 2.75631 6.85907 3.46752 8.09144C3.94464 8.9166 4.8132 9.37859 5.70573 9.37859C6.14254 9.37859 6.58438 9.26782 6.98975 9.03429L12.5714 5.81168C13.8026 5.10047 14.2255 3.52126 13.5143 2.29014Z" fill="#FFEA80"/>
<path d="M9.99456 1.34603C9.16876 1.82315 8.67406 2.7125 8.70552 3.6673C8.70552 3.66738 8.7056 3.66747 8.7056 3.66751C8.7056 3.66769 8.70552 3.66773 8.70552 3.6679L8.77388 5.67786L9.78385 7.42181L12.5726 5.81167C13.8038 5.10041 14.2267 3.52121 13.5155 2.29008C12.805 1.05643 11.2287 0.633706 9.99456 1.34603Z" fill="#FFDF40"/>
<path d="M11.9569 22.9999H5.51171C5.15576 22.9999 4.86719 22.7113 4.86719 22.3553V14.5351C4.86719 14.1792 5.15576 13.8906 5.51171 13.8906H11.9569C12.6689 13.8906 13.246 14.4677 13.246 15.1797V21.7108C13.246 22.4228 12.6689 22.9999 11.9569 22.9999Z" fill="#FF7C44"/>
<path d="M21.6249 22.3553C21.6249 22.7113 21.3363 22.9999 20.9804 22.9999H14.5351C13.8232 22.9999 13.2461 22.4228 13.2461 21.7108V15.1797C13.2461 14.4677 13.8232 13.8906 14.5351 13.8906H20.9804C21.3363 13.8906 21.6249 14.1792 21.6249 14.5351V22.3553Z" fill="#FF4A57"/>
<path d="M22.3549 7.44529H21.7104V6.80077C21.7104 6.44452 21.4221 6.15625 21.0659 6.15625C20.7096 6.15625 20.4214 6.44452 20.4214 6.80077V7.44529H19.7768C19.4206 7.44529 19.1323 7.73357 19.1323 8.08982C19.1323 8.44606 19.4206 8.73434 19.7768 8.73434H20.4214V9.37886C20.4214 9.73511 20.7096 10.0234 21.0659 10.0234C21.4221 10.0234 21.7104 9.73511 21.7104 9.37886V8.73434H22.3549C22.7112 8.73434 22.9995 8.44606 22.9995 8.08982C22.9995 7.73357 22.7112 7.44529 22.3549 7.44529Z" fill="#FFDF40"/>
<path d="M18.4023 10.0234H17.7578V9.3789C17.7578 9.02265 17.4695 8.73438 17.1133 8.73438C16.757 8.73438 16.4687 9.02265 16.4687 9.3789V10.0234H15.8242C15.468 10.0234 15.1797 10.3117 15.1797 10.6679C15.1797 11.0242 15.468 11.3125 15.8242 11.3125H16.4687V11.957C16.4687 12.3132 16.757 12.6015 17.1133 12.6015C17.4695 12.6015 17.7578 12.3132 17.7578 11.957V11.3125H18.4023C18.7585 11.3125 19.0468 11.0242 19.0468 10.6679C19.0468 10.3117 18.7585 10.0234 18.4023 10.0234Z" fill="#FFDF40"/>
<path d="M14.5351 22.9999H11.957V13.8906H14.5351V22.9999Z" fill="#FFDF40"/>
<path d="M9.95742 10.2937L2.70011 14.483C2.62543 14.354 0.984818 11.519 1.0888 11.6988C0.908335 11.3894 1.01146 10.9898 1.32083 10.8222L8.02386 6.95508L9.80467 8.3066L9.95742 10.2937Z" fill="#FF7C44"/>
<path d="M19.4434 4.81605L12.1861 9.00545L10.2339 7.84509L10.2396 5.66687L16.9426 1.79974C17.0973 1.7095 17.2778 1.68368 17.4325 1.73528C17.6 1.77391 17.7418 1.87708 17.8321 2.03172C17.9067 2.16084 19.5474 4.99579 19.4434 4.81605Z" fill="#FF4A57"/>
<path d="M12.189 9.0046L11.074 9.64912L9.95896 10.2936L8.02539 6.95506L10.2425 5.66602L12.189 9.0046Z" fill="#FFDF40"/>
<path d="M10.2432 5.66797L9.13965 6.30957L11.0747 9.65107L12.1897 9.00655L10.2432 5.66797Z" fill="#FFBE40"/>
<path d="M13.2476 13.8906H14.5366V22.9999H13.2476V13.8906Z" fill="#FFBE40"/>
</svg>
