<svg width="24" height="24" viewBox="0 0 24 24" fill="none" xmlns="http://www.w3.org/2000/svg">
<path d="M12.3538 5.22461C9.04383 5.22461 6.35383 7.43074 6.35383 10.1453V12.5155C6.35383 13.0158 6.09383 13.7785 5.78383 14.2049L4.63383 15.7714C3.92383 16.7391 4.41383 17.8135 5.71383 18.1743C10.0238 19.3553 14.6738 19.3553 18.9838 18.1743C20.1938 17.8463 20.7238 16.6735 20.0638 15.7714L18.9138 14.2049C18.6138 13.7785 18.3538 13.0158 18.3538 12.5155V10.1453C18.3538 7.43894 15.6538 5.22461 12.3538 5.22461Z" stroke="current" stroke-width="1.5" stroke-miterlimit="10" stroke-linecap="round"/>
<path d="M14.2037 3.19994C13.8937 3.10994 13.5737 3.03994 13.2437 2.99994C12.2837 2.87994 11.3637 2.94994 10.5037 3.19994C10.7937 2.45994 11.5137 1.93994 12.3537 1.93994C13.1937 1.93994 13.9137 2.45994 14.2037 3.19994Z" stroke="current" stroke-width="1.5" stroke-miterlimit="10" stroke-linecap="round" stroke-linejoin="round"/>
<path d="M15.3538 19.0601C15.3538 20.7101 14.0038 22.0601 12.3538 22.0601C11.5338 22.0601 10.7738 21.7201 10.2338 21.1801C9.69376 20.6401 9.35376 19.8801 9.35376 19.0601" stroke="current" stroke-width="1.5" stroke-miterlimit="10"/>
<ellipse cx="17.2557" cy="6.42857" rx="3.42857" ry="3.42857" fill="#FF3640"/>
</svg>
