<svg width="40" height="40" viewBox="0 0 40 40" fill="none" xmlns="http://www.w3.org/2000/svg">
<g clip-path="url(#clip0_6316_426440)">
<path d="M40 0H0V40H40V0Z" fill="#F2F2F2"/>
<path d="M29.9144 19.4761C29.9601 19.2203 29.9833 19.0056 29.9931 18.8369C30.0103 18.5581 29.9908 18.1447 29.9833 18.0155C29.7406 13.5547 25.3621 10 19.9969 10C14.4751 10 10 13.7638 10 18.4068C10 22.6744 13.7813 26.1982 18.6805 26.7408C18.9802 26.774 19.196 27.06 19.163 27.376L18.954 29.3601C18.9068 29.8108 19.3473 30.1387 19.7339 29.9414C23.8727 27.8298 26.3481 25.6572 27.8256 23.7753C28.0945 23.4332 28.9711 22.1342 29.1502 21.7928C29.5293 21.0681 29.7915 20.2911 29.9144 19.4761Z" fill="#A3A3AC"/>
<path d="M13.9589 20.1133V16.4344C13.9589 16.1242 13.7071 15.8732 13.3977 15.8732C13.0875 15.8732 12.8357 16.1242 12.8357 16.4344V20.6745C12.8357 20.9847 13.0875 21.2357 13.3977 21.2357H15.644C15.9543 21.2357 16.206 20.9847 16.206 20.6745C16.206 20.3643 15.9551 20.1133 15.644 20.1133H13.9589Z" fill="#F2F2F2"/>
<path d="M17.4233 21.2365H17.1781C16.9353 21.2365 16.7395 21.0398 16.7395 20.7979V16.3118C16.7395 16.069 16.9362 15.8732 17.1781 15.8732H17.4233C17.666 15.8732 17.8627 16.0699 17.8627 16.3118V20.7979C17.8627 21.0398 17.666 21.2365 17.4233 21.2365Z" fill="#F2F2F2"/>
<path d="M21.962 16.4352V19.0255C21.962 19.0255 19.7189 16.1003 19.6852 16.0616C19.5774 15.9415 19.4202 15.8674 19.245 15.874C18.9389 15.8855 18.7052 16.153 18.7052 16.4582V20.6753C18.7052 20.9855 18.957 21.2365 19.2672 21.2365C19.5774 21.2365 19.8284 20.9855 19.8284 20.6753V18.1006C19.8284 18.1006 22.1052 21.0514 22.1389 21.0834C22.2385 21.1772 22.3718 21.2357 22.5191 21.2365C22.8309 21.2398 23.086 20.9633 23.086 20.6515V16.4344C23.086 16.1242 22.835 15.8732 22.5248 15.8732C22.2138 15.8732 21.962 16.125 21.962 16.4352Z" fill="#F2F2F2"/>
<path d="M27.2974 16.4348C27.2974 16.1246 27.0456 15.8736 26.7354 15.8736H24.489C24.1788 15.8736 23.9279 16.1246 23.9279 16.4348V20.6749C23.9279 20.9851 24.1796 21.2361 24.489 21.2361H26.7354C27.0456 21.2361 27.2974 20.9851 27.2974 20.6749C27.2974 20.3647 27.0456 20.1137 26.7354 20.1137H25.0502V19.1164H26.7354C27.0456 19.1164 27.2974 18.8647 27.2974 18.5553C27.2974 18.2451 27.0456 17.9933 26.7354 17.9933H25.0502V16.9968H26.7354C27.0464 16.996 27.2974 16.745 27.2974 16.4348Z" fill="#F2F2F2"/>
</g>
<defs>
<clipPath id="clip0_6316_426440">
<rect width="40" height="40" rx="20" fill="white"/>
</clipPath>
</defs>
</svg>
