<svg width="20" height="20" viewBox="0 0 32 32" fill="none" xmlns="http://www.w3.org/2000/svg">
<path d="M0.5 16C0.5 7.43654 7.44198 0.5 16 0.5C24.558 0.5 31.5 7.43654 31.5 16C31.5 24.5636 24.5636 31.5 16 31.5C7.43643 31.5 0.5 24.5636 0.5 16Z" fill="white" stroke="#086FB8"/>
<g clip-path="url(#clip0_21860_93430)">
<path d="M15.0785 14.7598C15.4489 15.1486 15.851 15.3481 16.4595 15.3481H18.1209L17.6076 17.9158C17.5547 18.1869 17.2849 18.3762 17.0045 18.3762H9.38542C9.12087 18.3762 8.92511 18.1921 8.98331 17.9158L9.69759 14.3353C9.79812 13.8135 9.66585 13.3839 9.24786 12.9491L6.56003 10.1562L5.08913 17.4964C4.65526 19.8135 6.29548 21.6857 8.73992 21.6857H17.2584C19.7029 21.6857 21.0891 20.5143 21.523 18.2023L22.7611 12.0284H12.4489L15.0785 14.7547V14.7598Z" fill="#023F88"/>
<path d="M24.019 5.69067H10.3629C8.40524 5.69067 7.23593 6.62674 6.88672 8.4784" fill="#006EB7"/>
<path d="M6.88707 8.4784L6.78125 9.00014H20.3738C22.3315 9.00014 23.5432 8.06408 23.9135 6.21241L24.0141 5.69067" fill="#006EB7"/>
</g>
<path d="M11.2148 26.6122L11.9046 23.3285H12.9968L13.7441 25.0251L15.2961 23.3285H16.2733L15.5835 26.7217H14.5488L14.8362 25.1893L13.7441 26.4481H13.1118L12.5944 25.1893L12.192 26.6122H11.2148Z" fill="url(#paint0_linear_21860_93430)"/>
<path d="M21.0058 24.9542L20.4957 23.2437H21.7426L22.026 24.0989C23.9303 22.8218 25.7289 22.6925 26.3901 22.7875C24.0323 23.3805 22.6494 24.479 22.2527 24.9542L22.8761 26.7217H21.5726L21.3459 25.8665C20.9831 26.2314 20.8547 26.5887 20.8358 26.7217H19.6455C19.9629 25.9919 20.6846 25.2393 21.0058 24.9542Z" fill="url(#paint1_linear_21860_93430)"/>
<path fill-rule="evenodd" clip-rule="evenodd" d="M17.8446 23.2437L15.748 26.7217H16.768L17.0513 26.2656H18.2413V26.7217H19.4312L18.9213 23.2437H17.8446ZM17.958 24.7261L17.5613 25.4103H18.0713L17.958 24.7261Z" fill="url(#paint2_linear_21860_93430)"/>
<defs>
<linearGradient id="paint0_linear_21860_93430" x1="12.5344" y1="24.7423" x2="27.2147" y2="24.7899" gradientUnits="userSpaceOnUse">
<stop stop-color="#03132A"/>
<stop offset="1" stop-color="#3382C0"/>
</linearGradient>
<linearGradient id="paint1_linear_21860_93430" x1="12.5344" y1="24.7423" x2="27.2147" y2="24.7899" gradientUnits="userSpaceOnUse">
<stop stop-color="#03132A"/>
<stop offset="1" stop-color="#3382C0"/>
</linearGradient>
<linearGradient id="paint2_linear_21860_93430" x1="12.5344" y1="24.7423" x2="27.2147" y2="24.7899" gradientUnits="userSpaceOnUse">
<stop stop-color="#03132A"/>
<stop offset="1" stop-color="#3382C0"/>
</linearGradient>
<clipPath id="clip0_21860_93430">
<rect width="19" height="16" fill="white" transform="translate(5.01953 5.69067)"/>
</clipPath>
</defs>
</svg>
