<svg width="61" height="28" viewBox="0 0 61 28" fill="none" xmlns="http://www.w3.org/2000/svg">
<g clip-path="url(#clip0_17828_126389)">
<path d="M59.372 5.39142C59.6827 5.66538 59.7124 6.13932 59.4385 6.44999L54.9741 11.5128C54.7001 11.8234 54.2262 11.8532 53.9155 11.5792C53.6048 11.3053 53.575 10.8313 53.849 10.5207L57.8174 6.02043L53.3171 2.05206C53.0065 1.7781 52.9767 1.30416 53.2507 0.993488C53.5246 0.682812 53.9986 0.653047 54.3092 0.927005L59.372 5.39142ZM35.3658 26.3192L35.3047 25.5717L35.3658 26.3192ZM17.898 12.1287L17.6789 11.4114L17.898 12.1287ZM58.923 6.70247C58.2687 6.74356 57.6286 6.79353 57.0025 6.85191L56.8632 5.35839C57.5047 5.29858 58.1598 5.24744 58.8289 5.20542L58.923 6.70247ZM55.1008 7.06004C53.7842 7.22611 52.5344 7.43081 51.349 7.66931L51.0532 6.19879C52.2757 5.9528 53.5616 5.7423 54.9131 5.57183L55.1008 7.06004ZM49.4937 8.0823C48.1938 8.40058 46.9796 8.76112 45.8474 9.15629L45.3531 7.74008C46.5323 7.3285 47.7925 6.95453 49.137 6.62533L49.4937 8.0823ZM44.0786 9.82795C42.8397 10.3386 41.7133 10.8921 40.6933 11.4757L39.9483 10.1738C41.0267 9.55675 42.2111 8.97519 43.507 8.44111L44.0786 9.82795ZM39.0946 12.4714C37.981 13.2266 37.0232 14.0168 36.2089 14.8186L35.1565 13.7497C36.0387 12.8811 37.0676 12.0337 38.2528 11.23L39.0946 12.4714ZM34.9577 16.1922C34.1001 17.2489 33.4776 18.3012 33.06 19.2972L31.6767 18.7173C32.1537 17.5795 32.8528 16.4055 33.7929 15.247L34.9577 16.1922ZM32.5263 21.002C32.2478 22.3736 32.3988 23.5054 32.8084 24.2825L31.4814 24.9819C30.869 23.8198 30.729 22.3153 31.0563 20.7035L32.5263 21.002ZM33.8242 25.3169C34.2162 25.5172 34.707 25.6205 35.3047 25.5717L35.4268 27.0667C34.585 27.1355 33.8103 26.9942 33.1418 26.6527L33.8242 25.3169ZM35.3047 25.5717C36.0578 25.5102 36.5889 25.3535 36.9499 25.1562L37.6691 26.4726C37.0681 26.8009 36.3152 26.9942 35.4268 27.0667L35.3047 25.5717ZM37.6887 24.1481C37.7907 23.4174 37.4274 22.3135 36.4878 20.9724L37.7163 20.1117C38.7126 21.5337 39.3577 23.0416 39.1743 24.3554L37.6887 24.1481ZM35.2866 19.4872C34.479 18.6032 33.5035 17.7138 32.4088 16.8777L33.3192 15.6856C34.4781 16.5707 35.5207 17.5196 36.394 18.4754L35.2866 19.4872ZM30.8135 15.7547C29.7313 15.0538 28.5759 14.423 27.3856 13.9041L27.9851 12.5291C29.2563 13.0833 30.4837 13.7539 31.6289 14.4957L30.8135 15.7547ZM25.5745 13.2134C24.3201 12.8045 23.0568 12.5394 21.8246 12.4579L21.9235 10.9612C23.3 11.0522 24.6869 11.3463 26.0395 11.7873L25.5745 13.2134ZM19.9417 12.4845C19.317 12.547 18.7072 12.6658 18.117 12.846L17.6789 11.4114C18.3694 11.2005 19.0764 11.0636 19.7922 10.9919L19.9417 12.4845ZM18.117 12.846C17.4764 13.0416 16.8742 13.2337 16.3059 13.4259L15.8254 12.005C16.4107 11.807 17.0274 11.6104 17.6789 11.4114L18.117 12.846ZM14.5395 14.0681C13.2636 14.5709 12.1847 15.0965 11.2251 15.7015L10.4251 14.4327C11.4832 13.7655 12.6508 13.2001 13.9896 12.6726L14.5395 14.0681ZM9.75131 16.7697C8.86843 17.5034 8.05475 18.3672 7.23622 19.434L6.04617 18.5209C6.92035 17.3816 7.80968 16.4329 8.7926 15.6161L9.75131 16.7697ZM6.15351 20.9559C5.52818 21.8961 4.88369 22.9649 4.1879 24.1931L2.88277 23.4538C3.5895 22.2062 4.25309 21.1047 4.90456 20.1252L6.15351 20.9559ZM3.26334 25.861C2.97151 26.3973 2.67009 26.9593 2.35708 27.5488L1.03222 26.8455C1.34707 26.2524 1.65097 25.6858 1.94576 25.144L3.26334 25.861Z" fill="black"/>
</g>
<defs>
<clipPath id="clip0_17828_126389">
<rect width="60" height="28" fill="white" transform="matrix(-1 0 0 1 60.3994 0)"/>
</clipPath>
</defs>
</svg>
