<svg width="12" height="12" viewBox="0 0 12 12" fill="none" xmlns="http://www.w3.org/2000/svg">
<path d="M5.18046 1.49658H4.71308C4.19683 1.49658 3.77832 1.90432 3.77832 2.4073V10.1484C3.77832 10.6513 4.19683 11.0591 4.71308 11.0591H5.18046C5.69672 11.0591 6.11522 10.6513 6.11522 10.1484V2.4073C6.11522 1.90432 5.69672 1.49658 5.18046 1.49658Z" fill="current"/>
<path d="M8.29081 1.49658H7.82343C7.30718 1.49658 6.88867 1.90432 6.88867 2.4073V10.1484C6.88867 10.6513 7.30718 11.0591 7.82343 11.0591H8.29081C8.80707 11.0591 9.22558 10.6513 9.22558 10.1484V2.4073C9.22558 1.90432 8.80707 1.49658 8.29081 1.49658Z" fill="current"/>
<path d="M8.29088 1.35889H4.71308C4.19683 1.35889 3.77832 1.77739 3.77832 2.29365V4.24029C3.77832 4.75654 4.19683 5.17505 4.71308 5.17505H8.29088C8.80714 5.17505 9.22564 4.75654 9.22564 4.24029V2.29365C9.22564 1.77739 8.80714 1.35889 8.29088 1.35889Z" fill="current"/>
<path d="M5.35331 11.2964H3.65204C3.15386 11.2964 2.75 11.7002 2.75 12.1984C2.75 12.6966 3.15386 13.1005 3.65204 13.1005H5.35331C5.8515 13.1005 6.25536 12.6966 6.25536 12.1984C6.25536 11.7002 5.8515 11.2964 5.35331 11.2964Z" fill="current"/>
<path d="M9.37284 11.2964H7.67158C7.17339 11.2964 6.76953 11.7002 6.76953 12.1984C6.76953 12.6966 7.17339 13.1005 7.67158 13.1005H9.37284C9.87103 13.1005 10.2749 12.6966 10.2749 12.1984C10.2749 11.7002 9.87103 11.2964 9.37284 11.2964Z" fill="current"/>
</svg>
