<svg width="28" height="28" viewBox="0 0 28 28" fill="none" xmlns="http://www.w3.org/2000/svg">
<path d="M14.7318 25.6663H13.2675C12.0831 25.6663 11.1194 24.7027 11.1194 23.5184V23.0229C10.6159 22.8621 10.1267 22.659 9.65667 22.4158L9.30557 22.7669C8.45523 23.6182 7.0931 23.5933 6.26745 22.7665L5.23245 21.7316C4.40535 20.9054 4.38156 19.5437 5.23272 18.6935L5.58354 18.3426C5.34032 17.8726 5.13729 17.3835 4.97637 16.8799H4.481C3.29665 16.8799 2.33301 15.9163 2.33301 14.7319V13.2675C2.33301 12.0831 3.29665 11.1195 4.48104 11.1195H4.97642C5.13734 10.6159 5.34036 10.1267 5.58359 9.65671L5.23249 9.30566C4.38183 8.45591 4.4053 7.0941 5.23277 6.26755L6.26786 5.23249C7.09542 4.4038 8.45723 4.38311 9.30594 5.23277L9.65671 5.58354C10.1267 5.34036 10.6159 5.13729 11.1195 4.97637V4.481C11.1195 3.2966 12.0831 2.33301 13.2675 2.33301H14.7319C15.9163 2.33301 16.8799 3.2966 16.8799 4.481V4.97642C17.3834 5.13729 17.8726 5.34036 18.3426 5.58359L18.6937 5.23249C19.5441 4.3811 20.9062 4.40607 21.7318 5.23281L22.7669 6.26777C23.594 7.09396 23.6177 8.45564 22.7666 9.30589L22.4158 9.65671C22.659 10.1267 22.862 10.6158 23.0229 11.1195H23.5183C24.7027 11.1195 25.6663 12.0831 25.6663 13.2675V14.7319C25.6663 15.9163 24.7027 16.8799 23.5183 16.8799H23.0229C22.862 17.3835 22.659 17.8726 22.4158 18.3426L22.7669 18.6937C23.6175 19.5435 23.5941 20.9053 22.7666 21.7318L21.7315 22.7669C20.9039 23.5956 19.5421 23.6163 18.6934 22.7666L18.3426 22.4159C17.8726 22.659 17.3834 22.8621 16.8799 23.023V23.5184C16.8799 24.7027 15.9163 25.6663 14.7318 25.6663V25.6663ZM9.88521 20.9801C10.5381 21.3662 11.2409 21.6579 11.9739 21.8471C12.2757 21.925 12.4867 22.1972 12.4867 22.509V23.5184C12.4867 23.9489 12.837 24.2992 13.2675 24.2992H14.7319C15.1624 24.2992 15.5127 23.9489 15.5127 23.5184V22.509C15.5127 22.1972 15.7237 21.925 16.0255 21.8471C16.7585 21.6579 17.4613 21.3662 18.1142 20.9801C18.3828 20.8212 18.7249 20.8644 18.9456 21.0851L19.6605 21.8001C19.9688 22.1087 20.4638 22.1016 20.7645 21.8004L21.8002 20.7647C22.1002 20.4652 22.1102 19.97 21.8005 19.6607L21.0852 18.9455C20.8646 18.7248 20.8213 18.3827 20.9802 18.1141C21.3663 17.4613 21.658 16.7585 21.8471 16.0255C21.9251 15.7236 22.1973 15.5127 22.5091 15.5127H23.5184C23.9489 15.5127 24.2992 15.1625 24.2992 14.7319V13.2675C24.2992 12.837 23.9489 12.4867 23.5184 12.4867H22.5091C22.1973 12.4867 21.9251 12.2758 21.8471 11.974C21.658 11.2409 21.3663 10.5382 20.9802 9.88531C20.8213 9.6167 20.8646 9.27463 21.0852 9.05397L21.8002 8.33897C22.1093 8.03026 22.1012 7.53534 21.8005 7.23497L20.7648 6.19932C20.4646 5.89872 19.9695 5.88993 19.6608 6.19905L18.9456 6.91432C18.7249 7.13503 18.3828 7.17823 18.1142 7.01936C17.4613 6.63322 16.7586 6.34151 16.0256 6.15234C15.7237 6.07445 15.5128 5.8022 15.5128 5.49044V4.481C15.5128 4.05047 15.1625 3.7002 14.7319 3.7002H13.2675C12.837 3.7002 12.4867 4.05047 12.4867 4.481V5.49035C12.4867 5.80211 12.2758 6.07436 11.9739 6.15225C11.2409 6.34142 10.5382 6.63313 9.88526 7.01927C9.61656 7.17809 9.27454 7.13489 9.05387 6.91423L8.33893 6.19923C8.03067 5.89061 7.53561 5.89777 7.23497 6.19891L6.19923 7.2346C5.89927 7.5342 5.88924 8.02926 6.19896 8.33861L6.91423 9.05387C7.13489 9.27454 7.17809 9.61661 7.01927 9.88521C6.63313 10.5381 6.34146 11.2408 6.15229 11.9739C6.07436 12.2757 5.80211 12.4866 5.49039 12.4866H4.48104C4.05051 12.4867 3.7002 12.8369 3.7002 13.2675V14.7319C3.7002 15.1624 4.05051 15.5127 4.48104 15.5127H5.49035C5.80211 15.5127 6.07432 15.7236 6.15225 16.0254C6.34142 16.7585 6.63313 17.4612 7.01923 18.1141C7.17805 18.3827 7.13484 18.7248 6.91418 18.9454L6.19919 19.6604C5.89011 19.9691 5.89818 20.4641 6.19891 20.7644L7.23456 21.8001C7.53475 22.1007 8.02985 22.1095 8.33856 21.8003L9.05378 21.0851C9.21639 20.9225 9.55467 20.7846 9.88521 20.9801V20.9801Z" fill="#0B0B1E"/>
<circle cx="14.4091" cy="13.5321" r="4.37785" fill="#007BDC"/>
<path d="M13.9997 19.0765C11.2003 19.0765 8.92285 16.799 8.92285 13.9997C8.92285 11.2003 11.2003 8.92285 13.9997 8.92285C16.7991 8.92285 19.0765 11.2003 19.0765 13.9997C19.0765 16.799 16.7991 19.0765 13.9997 19.0765V19.0765ZM13.9997 10.29C11.9541 10.29 10.29 11.9542 10.29 13.9997C10.29 16.0452 11.9542 17.7093 13.9997 17.7093C16.0452 17.7093 17.7093 16.0452 17.7093 13.9997C17.7093 11.9542 16.0452 10.29 13.9997 10.29V10.29Z" fill="#0B0B1E"/>
</svg>
