<svg width="24" height="24" viewBox="0 0 24 24" fill="none" xmlns="http://www.w3.org/2000/svg">
<path d="M17.25 11.7766V12.5003C17.2503 13.2306 17.0134 13.9413 16.575 14.5253L13.875 18.1253L14.625 21.1253H8.25L7.875 17.0003L7.38 16.4041C6.4888 15.3359 6.00046 13.989 6 12.5978C6.00057 11.7922 6.16383 10.995 6.48 10.2541L6.97875 9.09531C7.07564 8.86766 7.12539 8.62273 7.125 8.37531C7.125 8.1764 7.20402 7.98563 7.34467 7.84498C7.48532 7.70433 7.67609 7.62531 7.875 7.62531C8.07391 7.62531 8.26468 7.70433 8.40533 7.84498C8.54598 7.98563 8.625 8.1764 8.625 8.37531C8.62476 9.12329 8.55065 9.86941 8.40375 10.6028L8.2875 11.1953C8.26205 11.3149 8.24948 11.4368 8.25 11.5591C8.24947 11.8957 8.34018 12.2261 8.5125 12.5153V12.5191C9.41127 8.90614 10.8973 5.46535 12.9113 2.33406C12.9965 2.20241 13.1221 2.10184 13.2692 2.04732C13.4163 1.99281 13.577 1.98727 13.7275 2.03153C13.878 2.07579 14.0102 2.16749 14.1043 2.29295C14.1985 2.41842 14.2496 2.57095 14.25 2.72781C14.2503 2.98926 14.194 3.24767 14.085 3.48531L13.9575 3.77031C13.2971 5.22232 12.7419 6.71993 12.2963 8.25156C12.4711 8.0907 12.6999 8.00108 12.9375 8.00031C13.1861 8.00031 13.4246 8.09908 13.6004 8.2749C13.7762 8.45072 13.875 8.68917 13.875 8.93781V9.47781C13.9866 9.33884 14.1354 9.23455 14.3041 9.17716C14.4729 9.11977 14.6544 9.11165 14.8276 9.15376C15.0008 9.19587 15.1583 9.28646 15.2818 9.41492C15.4054 9.54338 15.4897 9.70438 15.525 9.87906C15.5588 10.0366 15.585 10.1978 15.6075 10.3591H15.6112C15.7614 10.2883 15.9252 10.2512 16.0912 10.2503C16.3199 10.2501 16.5427 10.3221 16.7279 10.4561C16.9131 10.5902 17.0512 10.7793 17.1225 10.9966C17.2079 11.2477 17.251 11.5113 17.25 11.7766Z" fill="#D08D78"/>
<path d="M16.0912 10.2502C15.9252 10.251 15.7614 10.2881 15.6112 10.3589H15.6075C15.585 10.1977 15.5588 10.0364 15.525 9.8789C15.4897 9.70422 15.4054 9.54322 15.2818 9.41476C15.1583 9.2863 15.0008 9.19571 14.8276 9.1536C14.6544 9.11149 14.4729 9.11961 14.3041 9.177C14.1354 9.23439 13.9866 9.33868 13.875 9.47765V8.93765C13.875 8.68901 13.7762 8.45055 13.6004 8.27474C13.4246 8.09892 13.1861 8.00015 12.9375 8.00015C12.6999 8.00091 12.4711 8.09054 12.2963 8.2514C12.7419 6.71977 13.2971 5.22215 13.9575 3.77015L14.085 3.48515C14.194 3.24751 14.2503 2.9891 14.25 2.72765C14.2501 2.57051 14.1993 2.41757 14.1052 2.29172C14.0111 2.16587 13.8788 2.07389 13.728 2.02955C13.5773 1.98521 13.4162 1.9909 13.269 2.04577C13.1217 2.10063 12.9962 2.20172 12.9113 2.3339C10.8973 5.46519 9.41127 8.90598 8.5125 12.5189V12.5152C8.34018 12.226 8.24947 11.8955 8.25 11.5589C8.24948 11.4367 8.26205 11.3147 8.2875 11.1952L8.40375 10.6027C8.55065 9.86925 8.62476 9.12312 8.625 8.37515C8.62353 8.17669 8.54404 7.98678 8.4037 7.84645C8.26337 7.70611 8.07346 7.62662 7.875 7.62515V7.63678C7.85724 7.92527 7.78909 8.20842 7.67363 8.4734L7.23 9.5039C6.91383 10.2449 6.75057 11.0421 6.75 11.8477C6.75046 13.2388 7.2388 14.5857 8.13 15.6539L8.625 16.2502C8.72788 17.3772 9.2482 18.425 10.0839 19.1882C10.9195 19.9514 12.0102 20.3747 13.1419 20.3752H14.4375L13.875 18.1252L16.575 14.5252C17.0134 13.9411 17.2503 13.2305 17.25 12.5002V11.7764C17.251 11.5111 17.2079 11.2475 17.1225 10.9964C17.0512 10.7792 16.9131 10.59 16.7279 10.456C16.5427 10.322 16.3199 10.2499 16.0912 10.2502Z" fill="#F2B9A1"/>
<path d="M11.9928 11.0749L11.2571 10.9287C11.4412 10.0006 11.6696 9.06494 11.9362 8.14844L12.6562 8.35769C12.396 9.25169 12.1728 10.1659 11.9928 11.0749Z" fill="#D08D78"/>
<path d="M8.61527 13.7107L7.88477 13.5389L8.14839 12.4297L8.87702 12.6074L8.61527 13.7107Z" fill="#D08D78"/>
<path d="M13.5 9.47754H14.25V11.75H13.5V9.47754Z" fill="#D08D78"/>
<path d="M16.1249 12.8749H15.3749V12.1436C15.3761 11.5658 15.3301 10.9889 15.2373 10.4186L15.9776 10.2964C16.077 10.9071 16.1263 11.5249 16.1249 12.1436V12.8749Z" fill="#D08D78"/>
</svg>
