<svg width="24" height="25" viewBox="0 0 24 25" fill="none" xmlns="http://www.w3.org/2000/svg">
<rect x="1.99219" y="2.49878" width="20" height="20" rx="3" stroke="#3F3E4E" stroke-width="1.5"/>
<path d="M11.5417 6.41737C11.7245 6.04356 12.2573 6.04356 12.4401 6.41737L14.1283 9.86999C14.2007 10.0181 14.3415 10.1209 14.5045 10.145L18.2885 10.7033C18.697 10.7636 18.8605 11.265 18.566 11.5545L15.8228 14.2517C15.7062 14.3663 15.653 14.5307 15.6804 14.6919L16.3269 18.4969C16.3964 18.906 15.9661 19.2169 15.5995 19.0223L12.2253 17.231C12.0787 17.1532 11.903 17.1532 11.7564 17.231L8.38224 19.0223C8.0157 19.2169 7.58535 18.906 7.65486 18.4969L8.30134 14.6919C8.32873 14.5307 8.27555 14.3663 8.15895 14.2517L5.41575 11.5545C5.12131 11.265 5.28482 10.7636 5.69331 10.7033L9.47725 10.145C9.64031 10.1209 9.78103 10.0181 9.85344 9.86999L11.5417 6.41737Z" stroke="#3F3E4E" stroke-width="1.5" stroke-linecap="round" stroke-linejoin="round"/>
</svg>
