<svg width="24" height="24" viewBox="0 0 24 24" fill="none" xmlns="http://www.w3.org/2000/svg">
<g clip-path="url(#clip0_2831_155817)">
<path fill-rule="evenodd" clip-rule="evenodd" d="M11.1162 4.11612C11.3506 3.8817 11.6685 3.75 12.0001 3.75C12.3316 3.75 12.6495 3.8817 12.884 4.11612C13.1184 4.35054 13.2501 4.66848 13.2501 5C13.2501 5.29002 13.4173 5.55405 13.6795 5.67802C14.7048 6.16287 15.5789 6.9176 16.2081 7.86133C16.8341 8.80031 17.1941 9.89117 17.2501 11.0181V12H18.7501V11C18.7501 10.9883 18.7498 10.9766 18.7492 10.9648C18.6833 9.55995 18.2363 8.1995 17.4562 7.02927C16.7564 5.97962 15.8123 5.11853 14.7076 4.51836C14.6097 3.96791 14.3454 3.45621 13.9446 3.05546C13.4289 2.53973 12.7294 2.25 12.0001 2.25C11.2707 2.25 10.5712 2.53973 10.0555 3.05546C9.65478 3.45621 9.39049 3.96791 9.29256 4.51836C8.18789 5.11852 7.24375 5.97962 6.54398 7.02927C5.76383 8.1995 5.31684 9.55995 5.25089 10.9648C5.25034 10.9766 5.25007 10.9883 5.25007 11V13.9524C5.18422 14.4422 5.00753 14.9106 4.73322 15.3221C4.45097 15.7455 4.07327 16.0967 3.6305 16.3474C3.33411 16.5152 3.18804 16.8617 3.27482 17.1911C3.36161 17.5205 3.65945 17.75 4.00007 17.75H8.25007V18C8.25007 18.9946 8.64516 19.9484 9.34842 20.6517C10.0517 21.3549 11.0055 21.75 12.0001 21.75C12.9946 21.75 13.9485 21.3549 14.6517 20.6517C15.355 19.9484 15.7501 18.9946 15.7501 18V17.75H17V16.25H15.0018L15.0001 16.25L14.9984 16.25H9.00178L9.00007 16.25L8.99836 16.25H5.91569C5.93793 16.2183 5.9598 16.1864 5.98129 16.1542C6.39381 15.5354 6.65527 14.8284 6.74463 14.0901C6.74825 14.0602 6.75007 14.0301 6.75007 14V11.0181C6.80605 9.89117 7.16607 8.80031 7.79206 7.86133C8.41829 6.92198 9.2872 6.16988 10.3064 5.68479C10.3423 5.66872 10.3767 5.64991 10.4093 5.62862C10.5018 5.56859 10.5774 5.49047 10.6338 5.40129C10.7116 5.27809 10.7526 5.13378 10.7501 4.98684C10.7536 4.66008 10.8849 4.34743 11.1162 4.11612ZM9.75007 17.75V18C9.75007 18.5967 9.98712 19.169 10.4091 19.591C10.831 20.0129 11.4033 20.25 12.0001 20.25C12.5968 20.25 13.1691 20.0129 13.5911 19.591C14.013 19.169 14.2501 18.5967 14.2501 18V17.75H9.75007ZM19.4821 12.75V14.5179H21.25V15.4821H19.4821V17.25H18.5179V15.4821H16.75V14.5179H18.5179V12.75H19.4821Z" fill="#40ABFF"/>
</g>
<defs>
<clipPath id="clip0_2831_155817">
<rect width="24" height="24" fill="white"/>
</clipPath>
</defs>
</svg>
