<svg width="28" height="28" viewBox="0 0 28 28" fill="none" xmlns="http://www.w3.org/2000/svg">
<g clip-path="url(#clip0_14_1114)">
<path d="M5.66895 16.0335V22.162C5.66895 22.6495 5.86261 23.117 6.20732 23.4617C6.55204 23.8064 7.01957 24.0001 7.50708 24.0001H21.0914C21.3328 24.0002 21.5719 23.9527 21.7949 23.8603C22.018 23.768 22.2207 23.6326 22.3914 23.4619C22.5621 23.2912 22.6976 23.0885 22.79 22.8655C22.8824 22.6425 22.9299 22.4034 22.9299 22.162V13.129L14.2994 4.41553L5.66895 12.7971V16.0335Z" fill="white" stroke="#3F3E4E" stroke-width="1.16667" stroke-miterlimit="10"/>
<path d="M12.3082 16.7988H16.2915C16.6437 16.7988 16.9814 16.9387 17.2304 17.1877C17.4794 17.4367 17.6193 17.7745 17.6193 18.1266V23.9999H10.9805V18.1266C10.9805 17.7745 11.1204 17.4367 11.3694 17.1877C11.6184 16.9387 11.9561 16.7988 12.3082 16.7988Z" fill="#007BDC" stroke="#3F3E4E" stroke-width="1.16667" stroke-miterlimit="10"/>
<path d="M23.9075 13.0532L15.2463 4.39204C14.9952 4.14102 14.6547 4 14.2996 4C13.9446 4 13.6041 4.14102 13.353 4.39204L4.69178 13.0532C4.56749 13.1776 4.4689 13.3251 4.40165 13.4875C4.33439 13.65 4.29979 13.824 4.2998 13.9998C4.29984 14.3549 4.44092 14.6953 4.69199 14.9463C4.94305 15.1974 5.28355 15.3384 5.63858 15.3383C5.99361 15.3383 6.33408 15.1972 6.58509 14.9461L14.2998 7.2318L22.0133 14.9461C22.2644 15.1972 22.6048 15.3383 22.9599 15.3383C23.1356 15.3383 23.3097 15.3037 23.4721 15.2365C23.6345 15.1692 23.7821 15.0706 23.9064 14.9463C24.0308 14.8221 24.1294 14.6745 24.1967 14.5121C24.264 14.3497 24.2986 14.1756 24.2986 13.9998C24.2986 13.824 24.264 13.65 24.1968 13.4875C24.1295 13.3251 24.0318 13.1776 23.9075 13.0532Z" fill="#007BDC" stroke="#3F3E4E" stroke-width="1.16667" stroke-miterlimit="10"/>
<path d="M18.6807 4V7.82688L21.3491 10.4936V4H18.6807Z" fill="#91CFFF" stroke="#3F3E4E" stroke-width="1.16667" stroke-miterlimit="10"/>
</g>
<defs>
<clipPath id="clip0_14_1114">
<rect width="28" height="28" fill="white" transform="translate(0.299805)"/>
</clipPath>
</defs>
</svg>
