<svg width="16" height="16" viewBox="0 0 16 16" fill="none" xmlns="http://www.w3.org/2000/svg">
<path d="M9.53789 1.5L9.53867 1.5L9.5391 1.50008L9.53947 1.50033L14.5001 6.46093L14.5004 6.46172L14.5001 6.46251C14.1463 6.81628 13.703 6.90533 13.3473 6.90533C13.2032 6.90533 13.0731 6.89062 12.9691 6.87315L12.715 6.83046L12.5327 7.01269L9.39169 10.1537L9.19191 10.3535L9.25997 10.6277C9.3356 10.9325 9.38472 11.2432 9.40675 11.5564C9.45016 12.2214 9.36158 13.0182 8.83044 13.5493L8.8297 13.5496L8.8289 13.5493L8.82889 13.5493L5.99355 10.7149L5.64 10.3615L5.28651 10.715L2.09737 13.9041L2.45092 14.2577L2.09737 13.9041C2.09276 13.9087 2.08658 13.9144 2.07894 13.9211C2.08338 13.9161 2.08703 13.912 2.08989 13.9089L2.0936 13.905L2.09463 13.9039L2.09489 13.9036L2.09498 13.9035L2.09589 13.9026L5.28503 10.7135L5.63852 10.36L5.28509 10.0065L2.45075 7.17111L2.45074 7.1711L2.45041 7.17031L2.45074 7.16951C2.98216 6.63814 3.77948 6.54889 4.44337 6.59324C4.75665 6.61524 5.06745 6.66435 5.37225 6.74003L5.64643 6.8081L5.84623 6.60837L8.98725 3.46834L9.17038 3.28528L9.12654 3.03009C9.10508 2.90515 9.09408 2.77863 9.09367 2.65186C9.09381 2.29778 9.18275 1.85497 9.5371 1.50033L9.53789 1.5Z" stroke="current"/>
</svg>
