<svg width="24" height="24" viewBox="0 0 24 24" fill="none" xmlns="http://www.w3.org/2000/svg">
<path opacity="0.25" fill-rule="evenodd" clip-rule="evenodd" d="M9.23905 22.6703L13.315 20.7891L13.3049 9.35938C13.2392 9.35937 13.1733 9.36905 13.1094 9.38858C13.0795 9.39774 13.05 9.40905 13.0213 9.42248L8.67867 11.4268C8.44188 11.5361 8.29024 11.7731 8.29024 12.0339V22.0632C8.29024 22.2912 8.40645 22.5035 8.59851 22.6264C8.79057 22.7493 9.03201 22.7658 9.23905 22.6703ZM17.8575 22.7195C17.8096 22.7102 17.7625 22.6955 17.7172 22.6757L13.3151 20.7891L13.3051 9.35938C13.3575 9.35938 13.41 9.36552 13.4615 9.37792C13.4994 9.38704 13.5367 9.39951 13.5728 9.4153L17.9753 11.3021L22.0512 9.42092C22.2582 9.32536 22.4997 9.34191 22.6917 9.46479C22.8838 9.58768 23 9.79998 23 10.028V20.0573C23 20.3181 22.8484 20.5551 22.6116 20.6644L18.2708 22.6678C18.2329 22.6857 18.1937 22.6999 18.1536 22.7103C18.0951 22.7255 18.0351 22.7326 17.9754 22.7317M17.8575 22.7195C17.8964 22.727 17.9358 22.7311 17.9753 22.7317L17.8575 22.7195Z" fill="url(#paint0_linear_13096_172642)"/>
<path opacity="0.85" fill-rule="evenodd" clip-rule="evenodd" d="M19.611 20.0687L14.0794 17.5156L14.0931 2.00391C14.1823 2.0039 14.2717 2.01704 14.3584 2.04354C14.3991 2.05598 14.439 2.07132 14.4779 2.08954L20.3715 4.80968C20.6929 4.958 20.8987 5.27963 20.8987 5.63357V19.2448C20.8987 19.5542 20.741 19.8424 20.4803 20.0092C20.2197 20.1759 19.892 20.1983 19.611 20.0687ZM7.91466 20.1355C7.97973 20.1228 8.0436 20.103 8.10508 20.076L14.0794 17.5156L14.093 2.00391C14.0219 2.00391 13.9506 2.01225 13.8807 2.02908C13.8293 2.04146 13.7787 2.05838 13.7297 2.07981L7.7548 4.64047L2.22322 2.08743C1.94225 1.95775 1.61457 1.9802 1.35391 2.14698C1.09325 2.31375 0.935547 2.60187 0.935547 2.91132V16.5225C0.935547 16.8765 1.14134 17.1981 1.4627 17.3464L7.35378 20.0654C7.40517 20.0897 7.45842 20.1089 7.51279 20.123M7.91466 20.1355C7.86194 20.1457 7.80844 20.1513 7.75481 20.1521L7.91466 20.1355Z" fill="url(#paint1_linear_13096_172642)"/>
<path fill-rule="evenodd" clip-rule="evenodd" d="M14.1335 6.0269C13.634 6.0143 13.2222 6.41581 13.2222 6.91551V13.0511C13.2222 13.5383 13.6144 13.9348 14.1016 13.9399C14.5962 13.9452 15 13.5457 15 13.0511V6.91551C15 6.43333 14.6156 6.03907 14.1335 6.0269ZM7.86647 15.9809C8.36601 15.9935 8.77778 15.592 8.77778 15.0923V8.95671C8.77778 8.46948 8.38556 8.07306 7.89836 8.06787C7.40376 8.0626 7 8.46209 7 8.95671V15.0923C7 15.5745 7.38443 15.9687 7.86647 15.9809Z" fill="white"/>
<defs>
<linearGradient id="paint0_linear_13096_172642" x1="8.62457" y1="22.3975" x2="23.3343" y2="9.02501" gradientUnits="userSpaceOnUse">
<stop stop-color="#3258F3"/>
<stop offset="1" stop-color="#56B6FD"/>
</linearGradient>
<linearGradient id="paint1_linear_13096_172642" x1="20.445" y1="19.6985" x2="0.481849" y2="1.55019" gradientUnits="userSpaceOnUse">
<stop stop-color="#3258F3"/>
<stop offset="1" stop-color="#56B6FD"/>
</linearGradient>
</defs>
</svg>
