<svg width="24" height="24" viewBox="0 0 24 24" fill="none" xmlns="http://www.w3.org/2000/svg">
<g clip-path="url(#clip0_8603_238767)">
<path d="M12 24C18.6274 24 24 18.6274 24 12C24 5.37258 18.6274 0 12 0C5.37258 0 0 5.37258 0 12C0 18.6274 5.37258 24 12 24Z" fill="#007BDC"/>
<path d="M17.7387 12.9739C17.3882 11.7671 16.8788 11.5557 15.9357 11.5557C14.0315 11.5557 11.7442 12.5874 9.67743 12.2484C9.24745 12.1755 8.81746 12.3577 8.56453 12.7114C8.3116 13.0687 8.28631 13.539 8.49226 13.9218C8.77772 14.4104 9.16795 14.8296 9.63407 15.1468C9.99901 13.3567 11.5925 12.0989 13.3991 12.1682C15.2094 12.2374 16.7017 13.6192 16.9293 15.4312C17.7134 14.8916 18.0459 13.8854 17.7387 12.9739Z" fill="white"/>
<path d="M18.9203 12.6241C17.8363 8.90534 14.382 10.6845 11.0975 11.0527C9.65576 11.2241 8.30438 10.6007 7.27459 9.9043C7.26375 10.2142 7.12283 10.5022 6.88796 10.6991C6.6531 10.896 6.34597 10.9835 6.04245 10.9361C6.33874 12.2085 6.81208 13.4335 7.44441 14.5746C7.99002 15.4423 8.74521 16.1533 9.64131 16.6418C9.58711 16.3866 9.5582 16.1277 9.5582 15.8689C8.90419 15.4605 8.35497 14.8991 7.95389 14.2392C7.62869 13.6449 7.66844 12.9194 8.05506 12.3652C8.44169 11.8111 9.11015 11.5303 9.77139 11.6434C11.6395 11.9533 14.0062 10.9434 15.9393 10.9434C17.0522 10.9434 17.8833 11.2533 18.3349 12.81C18.7288 14.1699 18.2374 15.3658 16.9474 16.1934C16.9257 16.4668 16.8788 16.7366 16.7993 16.9991C17.9447 16.3866 19.6321 15.0595 18.9203 12.6241Z" fill="white"/>
<path d="M13.2582 18.9999C14.9348 18.9816 16.2826 17.5999 16.2754 15.9046C16.2681 14.2092 14.9023 12.8457 13.2257 12.8457C11.5491 12.8457 10.1869 14.2129 10.1761 15.9046C10.1653 17.5962 11.513 18.978 13.1932 18.9999M14.7975 14.0233C14.9673 14.0233 15.1046 14.1618 15.1046 14.3332C15.1046 14.5046 14.9673 14.6431 14.7975 14.6431C14.6277 14.6431 14.4904 14.7816 14.4904 14.953C14.4904 15.1243 14.3531 15.2629 14.1833 15.2629C13.5979 15.2665 13.8725 14.0233 14.7975 14.0233ZM13.5654 13.3999C13.7352 13.3999 13.8725 13.5384 13.8725 13.7098C13.8725 13.8811 13.7352 14.0197 13.5654 14.0197C13.3955 14.0197 13.2582 14.1582 13.2582 14.3296C13.2582 14.5009 13.1209 14.6395 12.9511 14.6395C12.3621 14.6431 12.6404 13.3999 13.5654 13.3999ZM12.0225 13.7098C12.1923 13.7098 12.3296 13.8483 12.3296 14.0197C12.3296 14.191 12.1923 14.3296 12.0225 14.3296C11.8527 14.3296 11.7154 14.4681 11.7154 14.6395C11.7154 14.8108 11.5781 14.9493 11.4082 14.9493C10.8229 14.9566 11.0975 13.7098 12.0225 13.7098ZM11.0975 16.5098C10.5121 16.5098 10.7904 15.2665 11.7154 15.2665C11.8852 15.2665 12.0225 15.4051 12.0225 15.5764C12.0225 15.7478 11.8852 15.8863 11.7154 15.8863C11.5455 15.8863 11.4082 16.0249 11.4082 16.1962C11.4082 16.3712 11.2709 16.5098 11.0975 16.5098ZM12.3332 17.1332C12.1634 17.1332 12.0261 17.2717 12.0261 17.4431C12.0261 17.6145 11.8888 17.753 11.719 17.753C11.1336 17.753 11.4118 16.5098 12.3368 16.5098C12.5067 16.5098 12.644 16.6483 12.644 16.8197C12.644 16.991 12.5031 17.1332 12.3332 17.1332ZM12.9475 15.89C12.9475 16.0613 12.8102 16.1999 12.6404 16.1999C12.4705 16.1999 12.3332 16.0613 12.3332 15.89C12.3332 14.9566 13.5654 14.6686 13.5654 15.2665C13.5654 15.4379 13.4281 15.5764 13.2582 15.5764C13.0884 15.5764 12.9475 15.7186 12.9475 15.89Z" fill="white"/>
<path d="M6.33515 10.3049C6.58086 10.2283 6.71816 9.96584 6.64228 9.72156L5.27284 5.22261C5.23309 5.08771 5.10662 4.99657 4.96571 5.00021H4.65496C4.55379 4.99657 4.45984 5.04032 4.39842 5.12052C4.33699 5.20073 4.31892 5.30646 4.34783 5.40125L5.76425 9.995C5.79677 10.1153 5.87987 10.2138 5.98827 10.2721C6.09306 10.3304 6.21952 10.3414 6.33515 10.3049Z" fill="white"/>
</g>
<defs>
<clipPath id="clip0_8603_238767">
<rect width="24" height="24" fill="white"/>
</clipPath>
</defs>
</svg>
