<svg width="28" height="28" viewBox="0 0 28 28" fill="none" xmlns="http://www.w3.org/2000/svg">
<path d="M3.56408 12.8333H5.83333C7.122 12.8333 8.16667 13.878 8.16667 15.1667V16.3333C8.16667 17.622 9.21134 18.6667 10.5 18.6667C11.7887 18.6667 12.8333 19.7113 12.8333 21V24.4359M9.33333 4.59144V6.41667C9.33333 8.0275 10.6392 9.33333 12.25 9.33333H12.8333C14.122 9.33333 15.1667 10.378 15.1667 11.6667C15.1667 12.9553 16.2113 14 17.5 14C18.7887 14 19.8333 12.9553 19.8333 11.6667C19.8333 10.378 20.878 9.33333 22.1667 9.33333L23.4086 9.33333M17.5 23.9025V21C17.5 19.7113 18.5447 18.6667 19.8333 18.6667H23.4086M24.5 14C24.5 19.799 19.799 24.5 14 24.5C8.20101 24.5 3.5 19.799 3.5 14C3.5 8.20101 8.20101 3.5 14 3.5C19.799 3.5 24.5 8.20101 24.5 14Z" stroke="current" stroke-width="1.5" stroke-linecap="round" stroke-linejoin="round"/>
</svg>
