<svg width="24" height="24" viewBox="0 0 24 24" fill="none" xmlns="http://www.w3.org/2000/svg">
<g clip-path="url(#clip0_22141_4459)">
<path d="M12 24C18.6274 24 24 18.6274 24 12C24 5.37258 18.6274 0 12 0C5.37258 0 0 5.37258 0 12C0 18.6274 5.37258 24 12 24Z" fill="#007BDC"/>
<path d="M17.7388 12.9737C17.3884 11.7669 16.8789 11.5554 15.9358 11.5554C14.0316 11.5554 11.7444 12.5872 9.67755 12.2481C9.24757 12.1752 8.81758 12.3575 8.56465 12.7112C8.31172 13.0684 8.28643 13.5388 8.49239 13.9216C8.77784 14.4101 9.16808 14.8294 9.63419 15.1466C9.99914 13.3565 11.5926 12.0987 13.3993 12.1679C15.2095 12.2372 16.7018 13.619 16.9295 15.4309C17.7136 14.8914 18.046 13.8851 17.7388 12.9737Z" fill="white"/>
<path d="M18.9203 12.6237C17.8363 8.9049 14.382 10.6841 11.0975 11.0523C9.65579 11.2237 8.30441 10.6002 7.27462 9.90386C7.26378 10.2138 7.12286 10.5018 6.88799 10.6987C6.65313 10.8955 6.346 10.983 6.04248 10.9356C6.33877 12.208 6.81212 13.433 7.44444 14.5742C7.99005 15.4419 8.74524 16.1528 9.64134 16.6414C9.58714 16.3862 9.55823 16.1273 9.55823 15.8684C8.90422 15.4601 8.355 14.8987 7.95392 14.2388C7.62872 13.6445 7.66847 12.919 8.05509 12.3648C8.44172 11.8106 9.11018 11.5299 9.77142 11.6429C11.6395 11.9528 14.0062 10.9429 15.9393 10.9429C17.0522 10.9429 17.8833 11.2528 18.335 12.8096C18.7288 14.1695 18.2374 15.3653 16.9475 16.1929C16.9258 16.4664 16.8788 16.7362 16.7993 16.9987C17.9447 16.3862 19.6321 15.0591 18.9203 12.6237Z" fill="white"/>
<path d="M13.2582 19.0002C14.9348 18.982 16.2826 17.6002 16.2754 15.9049C16.2681 14.2096 14.9023 12.846 13.2257 12.846C11.5491 12.846 10.1869 14.2132 10.1761 15.9049C10.1653 17.5966 11.513 18.9783 13.1932 19.0002M14.7975 14.0237C14.9673 14.0237 15.1046 14.1622 15.1046 14.3335C15.1046 14.5049 14.9673 14.6434 14.7975 14.6434C14.6277 14.6434 14.4904 14.782 14.4904 14.9533C14.4904 15.1247 14.3531 15.2632 14.1833 15.2632C13.5979 15.2669 13.8725 14.0237 14.7975 14.0237ZM13.5654 13.4002C13.7352 13.4002 13.8725 13.5388 13.8725 13.7101C13.8725 13.8815 13.7352 14.02 13.5654 14.02C13.3955 14.02 13.2582 14.1585 13.2582 14.3299C13.2582 14.5013 13.1209 14.6398 12.9511 14.6398C12.3621 14.6434 12.6404 13.4002 13.5654 13.4002ZM12.0225 13.7101C12.1923 13.7101 12.3296 13.8487 12.3296 14.02C12.3296 14.1914 12.1923 14.3299 12.0225 14.3299C11.8527 14.3299 11.7154 14.4684 11.7154 14.6398C11.7154 14.8112 11.5781 14.9497 11.4082 14.9497C10.8229 14.957 11.0975 13.7101 12.0225 13.7101ZM11.0975 16.5101C10.5121 16.5101 10.7904 15.2669 11.7154 15.2669C11.8852 15.2669 12.0225 15.4054 12.0225 15.5768C12.0225 15.7481 11.8852 15.8867 11.7154 15.8867C11.5455 15.8867 11.4082 16.0252 11.4082 16.1966C11.4082 16.3716 11.2709 16.5101 11.0975 16.5101ZM12.3332 17.1335C12.1634 17.1335 12.0261 17.2721 12.0261 17.4434C12.0261 17.6148 11.8888 17.7533 11.719 17.7533C11.1336 17.7533 11.4118 16.5101 12.3368 16.5101C12.5067 16.5101 12.644 16.6487 12.644 16.82C12.644 16.9914 12.5031 17.1335 12.3332 17.1335ZM12.9475 15.8903C12.9475 16.0617 12.8102 16.2002 12.6404 16.2002C12.4705 16.2002 12.3332 16.0617 12.3332 15.8903C12.3332 14.957 13.5654 14.669 13.5654 15.2669C13.5654 15.4382 13.4281 15.5768 13.2582 15.5768C13.0884 15.5768 12.9475 15.719 12.9475 15.8903Z" fill="white"/>
<path d="M6.33524 10.3049C6.58095 10.2283 6.71825 9.96584 6.64237 9.72156L5.27293 5.22261C5.23318 5.08771 5.10672 4.99657 4.9658 5.00021H4.65505C4.55388 4.99657 4.45993 5.04032 4.39851 5.12052C4.33708 5.20073 4.31901 5.30646 4.34792 5.40125L5.76434 9.995C5.79686 10.1153 5.87996 10.2138 5.98836 10.2721C6.09315 10.3304 6.21962 10.3414 6.33524 10.3049Z" fill="white"/>
</g>
<defs>
<clipPath id="clip0_22141_4459">
<rect width="24" height="24" fill="white"/>
</clipPath>
</defs>
</svg>
