<svg width="42" height="42" viewBox="0 0 42 42" fill="none" xmlns="http://www.w3.org/2000/svg">
<g filter="url(#filter0_d_244_6836)">
<path d="M17.5161 16.2472L30.6774 22.8279L17.5161 29.4085V16.2472Z" fill="white"/>
<path d="M23 6.37628C13.9139 6.37628 6.5484 13.7418 6.5484 22.8279C6.5484 31.914 13.9139 39.2795 23 39.2795C32.0861 39.2795 39.4516 31.914 39.4516 22.8279C39.4516 13.7418 32.0861 6.37628 23 6.37628ZM23 37.086C15.4282 37.086 9.29034 30.9481 9.29034 23.3763C9.29034 15.8044 15.4282 9.6666 23 9.6666C30.5719 9.6666 36.7097 15.8044 36.7097 23.3763C36.7097 30.9481 30.5719 37.086 23 37.086Z" fill="white"/>
<path d="M17.5161 16.2472L30.6774 22.8279L17.5161 29.4085V16.2472Z" fill="white"/>
<path d="M30.6774 22.8279L17.5161 29.4085V16.2472L30.6774 22.8279Z" fill="white"/>
<path d="M23 8.56982C15.1252 8.56982 8.74194 14.9531 8.74194 22.8279C8.74194 30.7027 15.1252 37.086 23 37.086C30.8748 37.086 37.2581 30.7027 37.2581 22.8279C37.2492 14.9572 30.8707 8.57874 23 8.56982ZM23 35.9892C15.7311 35.9892 9.83872 30.0968 9.83872 22.8279C9.83872 15.559 15.7311 9.6666 23 9.6666C30.2689 9.6666 36.1613 15.559 36.1613 22.8279C36.1531 30.0933 30.2655 35.981 23 35.9892Z" fill="white"/>
<path d="M35.0097 21.679C34.9809 21.3774 34.7136 21.1567 34.4119 21.1855C34.1103 21.2143 33.8896 21.4823 33.9184 21.7839C33.9513 22.128 33.9677 22.479 33.9677 22.8286C33.9677 23.1316 34.2131 23.377 34.5161 23.377C34.8191 23.377 35.0645 23.1316 35.0645 22.8286C35.0645 22.4447 35.0467 22.0608 35.0104 21.6797L35.0097 21.679Z" fill="white"/>
<path d="M34.3181 20.6192C34.6122 20.5473 34.7932 20.2504 34.7212 19.9564C33.4085 14.5513 28.5628 10.7503 23.0008 10.7633C22.6978 10.7633 22.4524 11.0087 22.4524 11.3117C22.4524 11.6147 22.6978 11.8601 23.0008 11.8601C28.0569 11.8478 32.4625 15.3026 33.6553 20.2155C33.7149 20.4609 33.9349 20.6343 34.1879 20.6343C34.2317 20.6343 34.2756 20.6295 34.3188 20.6192H34.3181Z" fill="white"/>
<path d="M30.9222 22.3371L17.7609 15.7564C17.5909 15.6714 17.3886 15.6804 17.2276 15.7804C17.0658 15.8805 16.9678 16.0574 16.9678 16.2473V29.4085C16.9664 29.5991 17.0644 29.7766 17.2262 29.8774C17.388 29.9782 17.5909 29.9878 17.7609 29.9021L30.9222 23.3214C31.1086 23.2289 31.2258 23.039 31.2258 22.8306C31.2258 22.6223 31.1086 22.4331 30.9222 22.3398V22.3371ZM18.0645 28.5208V17.1343L29.4511 22.8272L18.0645 28.5202V28.5208Z" fill="white"/>
</g>
<defs>
<filter id="filter0_d_244_6836" x="0" y="-0.172119" width="42" height="42" filterUnits="userSpaceOnUse" color-interpolation-filters="sRGB">
<feFlood flood-opacity="0" result="BackgroundImageFix"/>
<feColorMatrix in="SourceAlpha" type="matrix" values="0 0 0 0 0 0 0 0 0 0 0 0 0 0 0 0 0 0 127 0" result="hardAlpha"/>
<feOffset dx="-2" dy="-2"/>
<feGaussianBlur stdDeviation="2"/>
<feComposite in2="hardAlpha" operator="out"/>
<feColorMatrix type="matrix" values="0 0 0 0 0 0 0 0 0 0 0 0 0 0 0 0 0 0 0.25 0"/>
<feBlend mode="normal" in2="BackgroundImageFix" result="effect1_dropShadow_244_6836"/>
<feBlend mode="normal" in="SourceGraphic" in2="effect1_dropShadow_244_6836" result="shape"/>
</filter>
</defs>
</svg>
