<svg width="32" height="33" viewBox="0 0 32 33" fill="none" xmlns="http://www.w3.org/2000/svg">
<path d="M2.03351 13.1557C1.48936 9.52804 4.29892 6.26562 7.96712 6.26562H23.6812C27.4675 6.26562 30.3072 9.72957 29.5647 13.4423L27.9647 21.4423C27.4038 24.2469 24.9413 26.2656 22.0812 26.2656H9.16712C6.19714 26.2656 3.67407 24.0928 3.23351 21.1557L2.03351 13.1557Z" fill="#EEB08E"/>
<mask id="mask0_2222_50915" style="mask-type:alpha" maskUnits="userSpaceOnUse" x="1" y="6" width="29" height="21">
<path d="M2.03351 13.1557C1.48936 9.52804 4.29892 6.26562 7.96712 6.26562H23.6812C27.4675 6.26562 30.3072 9.72957 29.5647 13.4423L27.9647 21.4423C27.4038 24.2469 24.9413 26.2656 22.0812 26.2656H9.16712C6.19714 26.2656 3.67407 24.0928 3.23351 21.1557L2.03351 13.1557Z" fill="#FFBD00"/>
</mask>
<g mask="url(#mask0_2222_50915)">
<path opacity="0.3" d="M5.03351 11.1557C4.48936 7.52804 7.29892 4.26562 10.9671 4.26562H26.6812C30.4675 4.26562 33.3072 7.72957 32.5647 11.4423L30.9647 19.4423C30.4038 22.2469 27.9413 24.2656 25.0812 24.2656H12.1671C9.19714 24.2656 6.67407 22.0928 6.23351 19.1557L5.03351 11.1557Z" fill="url(#paint0_linear_2222_50915)"/>
<path opacity="0.3" d="M26.6599 20.8154C28.945 23.685 28.1431 27.9151 24.9663 29.7492L11.3575 37.6062C8.07851 39.4994 3.88724 37.9194 2.67393 34.3328L0.0595728 26.6046C-0.856939 23.8953 0.266258 20.9157 2.74317 19.4857L13.9271 13.0287C16.4991 11.5437 19.7706 12.1639 21.6207 14.4872L26.6599 20.8154Z" fill="url(#paint1_linear_2222_50915)"/>
</g>
<g opacity="0.8" filter="url(#filter0_f_2222_50915)">
<path d="M17.8172 10.8656C16.7572 10.8656 15.8822 11.1356 15.1922 11.6756C14.5122 12.2156 14.0622 13.0606 13.8422 14.2106C14.1722 14.2606 14.4972 14.3206 14.8172 14.3906C15.1472 14.4506 15.4722 14.5056 15.7922 14.5556C15.8422 14.2856 15.9072 14.0356 15.9872 13.8056C16.0772 13.5656 16.1922 13.3606 16.3322 13.1906C16.4822 13.0206 16.6672 12.8856 16.8872 12.7856C17.1072 12.6856 17.3772 12.6356 17.6972 12.6356C18.1872 12.6356 18.5672 12.7656 18.8372 13.0256C19.1172 13.2756 19.2522 13.6606 19.2422 14.1806C19.2422 14.4206 19.2072 14.6406 19.1372 14.8406C19.0672 15.0306 18.9422 15.2006 18.7622 15.3506C18.5822 15.4906 18.3322 15.6006 18.0122 15.6806C17.7022 15.7606 17.2972 15.8056 16.7972 15.8156V17.3156C17.3872 17.3156 17.8522 17.3606 18.1922 17.4506C18.5422 17.5306 18.8072 17.6506 18.9872 17.8106C19.1672 17.9606 19.2822 18.1456 19.3322 18.3656C19.3922 18.5856 19.4222 18.8256 19.4222 19.0856C19.4222 19.2956 19.3822 19.5006 19.3022 19.7006C19.2222 19.9006 19.0972 20.0806 18.9272 20.2406C18.7672 20.3906 18.5622 20.5156 18.3122 20.6156C18.0722 20.7056 17.7872 20.7506 17.4572 20.7506C17.1872 20.7506 16.9372 20.6906 16.7072 20.5706C16.4772 20.4506 16.2672 20.2956 16.0772 20.1056C15.8872 19.9056 15.7272 19.6856 15.5972 19.4456C15.4672 19.2056 15.3722 18.9656 15.3122 18.7256L13.4822 19.4456C13.6322 19.9356 13.8172 20.3756 14.0372 20.7656C14.2572 21.1456 14.5272 21.4706 14.8472 21.7406C15.1772 22.0006 15.5572 22.2006 15.9872 22.3406C16.4172 22.4806 16.9172 22.5506 17.4872 22.5506C18.0172 22.5506 18.5172 22.4756 18.9872 22.3256C19.4672 22.1756 19.8872 21.9556 20.2472 21.6656C20.6072 21.3656 20.8972 20.9956 21.1172 20.5556C21.3372 20.1156 21.4522 19.6106 21.4622 19.0406C21.4622 18.3806 21.3122 17.8356 21.0122 17.4056C20.7222 16.9656 20.2472 16.6206 19.5872 16.3706C20.0572 16.1406 20.4522 15.8306 20.7722 15.4406C21.1022 15.0406 21.2672 14.5206 21.2672 13.8806C21.2772 13.4606 21.2022 13.0706 21.0422 12.7106C20.8822 12.3506 20.6472 12.0356 20.3372 11.7656C20.0372 11.4956 19.6722 11.2806 19.2422 11.1206C18.8222 10.9606 18.3472 10.8756 17.8172 10.8656Z" fill="white"/>
</g>
<path d="M16.8172 9.86562C15.7572 9.86562 14.8822 10.1356 14.1922 10.6756C13.5122 11.2156 13.0622 12.0606 12.8422 13.2106C13.1722 13.2606 13.4972 13.3206 13.8172 13.3906C14.1472 13.4506 14.4722 13.5056 14.7922 13.5556C14.8422 13.2856 14.9072 13.0356 14.9872 12.8056C15.0772 12.5656 15.1922 12.3606 15.3322 12.1906C15.4822 12.0206 15.6672 11.8856 15.8872 11.7856C16.1072 11.6856 16.3772 11.6356 16.6972 11.6356C17.1872 11.6356 17.5672 11.7656 17.8372 12.0256C18.1172 12.2756 18.2522 12.6606 18.2422 13.1806C18.2422 13.4206 18.2072 13.6406 18.1372 13.8406C18.0672 14.0306 17.9422 14.2006 17.7622 14.3506C17.5822 14.4906 17.3322 14.6006 17.0122 14.6806C16.7022 14.7606 16.2972 14.8056 15.7972 14.8156V16.3156C16.3872 16.3156 16.8522 16.3606 17.1922 16.4506C17.5422 16.5306 17.8072 16.6506 17.9872 16.8106C18.1672 16.9606 18.2822 17.1456 18.3322 17.3656C18.3922 17.5856 18.4222 17.8256 18.4222 18.0856C18.4222 18.2956 18.3822 18.5006 18.3022 18.7006C18.2222 18.9006 18.0972 19.0806 17.9272 19.2406C17.7672 19.3906 17.5622 19.5156 17.3122 19.6156C17.0722 19.7056 16.7872 19.7506 16.4572 19.7506C16.1872 19.7506 15.9372 19.6906 15.7072 19.5706C15.4772 19.4506 15.2672 19.2956 15.0772 19.1056C14.8872 18.9056 14.7272 18.6856 14.5972 18.4456C14.4672 18.2056 14.3722 17.9656 14.3122 17.7256L12.4822 18.4456C12.6322 18.9356 12.8172 19.3756 13.0372 19.7656C13.2572 20.1456 13.5272 20.4706 13.8472 20.7406C14.1772 21.0006 14.5572 21.2006 14.9872 21.3406C15.4172 21.4806 15.9172 21.5506 16.4872 21.5506C17.0172 21.5506 17.5172 21.4756 17.9872 21.3256C18.4672 21.1756 18.8872 20.9556 19.2472 20.6656C19.6072 20.3656 19.8972 19.9956 20.1172 19.5556C20.3372 19.1156 20.4522 18.6106 20.4622 18.0406C20.4622 17.3806 20.3122 16.8356 20.0122 16.4056C19.7222 15.9656 19.2472 15.6206 18.5872 15.3706C19.0572 15.1406 19.4522 14.8306 19.7722 14.4406C20.1022 14.0406 20.2672 13.5206 20.2672 12.8806C20.2772 12.4606 20.2022 12.0706 20.0422 11.7106C19.8822 11.3506 19.6472 11.0356 19.3372 10.7656C19.0372 10.4956 18.6722 10.2806 18.2422 10.1206C17.8222 9.96062 17.3472 9.87562 16.8172 9.86562Z" fill="#9D3800"/>
<defs>
<filter id="filter0_f_2222_50915" x="11.4822" y="8.86523" width="11.98" height="15.6855" filterUnits="userSpaceOnUse" color-interpolation-filters="sRGB">
<feFlood flood-opacity="0" result="BackgroundImageFix"/>
<feBlend mode="normal" in="SourceGraphic" in2="BackgroundImageFix" result="shape"/>
<feGaussianBlur stdDeviation="1" result="effect1_foregroundBlur_2222_50915"/>
</filter>
<linearGradient id="paint0_linear_2222_50915" x1="19" y1="4.26562" x2="19" y2="24.2656" gradientUnits="userSpaceOnUse">
<stop stop-color="#FFEDE2" stop-opacity="0"/>
<stop offset="1" stop-color="#FFEDE2"/>
</linearGradient>
<linearGradient id="paint1_linear_2222_50915" x1="18.0096" y1="33.7656" x2="8.00962" y2="16.4451" gradientUnits="userSpaceOnUse">
<stop offset="0.078125" stop-color="#FFEDE2" stop-opacity="0"/>
<stop offset="1" stop-color="#FFEDE2"/>
</linearGradient>
</defs>
</svg>
