<svg width="18" height="18" viewBox="0 0 18 18" fill="none" xmlns="http://www.w3.org/2000/svg">
<path d="M16.6219 7.50586V12.6134C16.6219 13.029 16.278 13.5354 15.8668 13.7432L12.6297 15.3534C12.2484 15.5416 11.613 15.5546 11.2167 15.3858L7.29185 13.6782C6.89562 13.5029 6.26016 13.5224 5.87889 13.7107L4.12204 14.5807C2.89598 15.191 1.88672 14.6846 1.88672 13.451V7.13362C1.88672 6.72458 2.22314 6.21815 2.64179 6.01038L5.87889 4.4002C6.26016 4.21191 6.89562 4.19892 7.29185 4.36773L9.62718 5.63086" stroke="#0B0B1E" stroke-width="1.5" stroke-linecap="round" stroke-linejoin="round"/>
<path d="M6.91211 4.65894V13.0994" stroke="#0B0B1E" stroke-width="1.5" stroke-linecap="round" stroke-linejoin="round"/>
<path d="M12.252 9.87671L12.252 15.0679" stroke="#0B0B1E" stroke-width="1.5" stroke-linecap="round" stroke-linejoin="round"/>
<path fill-rule="evenodd" clip-rule="evenodd" d="M11.0317 4.61384C11.0361 3.32428 12.085 2.28244 13.3746 2.28682C14.6641 2.2912 15.706 3.34015 15.7016 4.6297V4.65615C15.6857 5.4944 15.2177 6.2692 14.6438 6.87475C14.3157 7.21553 13.9492 7.51723 13.5517 7.77383C13.4455 7.86576 13.2878 7.86576 13.1815 7.77383C12.589 7.38815 12.0689 6.90122 11.6452 6.33531C11.2675 5.84182 11.053 5.24285 11.0317 4.62177V4.61384Z" stroke="#0B0B1E" stroke-width="1.5" stroke-linecap="round" stroke-linejoin="round"/>
<circle cx="13.3674" cy="4.65893" r="0.748349" fill="#0B0B1E"/>
</svg>
