<svg width="28" height="28" viewBox="0 0 28 28" fill="none" xmlns="http://www.w3.org/2000/svg">
<g clip-path="url(#clip0_390_34605)">
<g clip-path="url(#clip1_390_34605)">
<path d="M11.2367 9.34161L10.2012 7.52182C12.8308 7.85053 13.8992 5.93697 14.4274 5.40869C15.0849 7.38094 17.4 7.42415 18.6327 7.28719L16.9891 9.34161H11.2367Z" fill="white"/>
<path fill-rule="evenodd" clip-rule="evenodd" d="M16.7663 9.08863L17.8287 7.66174C16.8759 7.85968 15.3839 7.82265 14.3821 6.0725C14.3287 5.98136 14.284 5.8945 14.2437 5.81475C14.2048 5.89307 14.1601 5.97567 14.1082 6.06538C13.1063 7.82123 11.6129 7.85968 10.6601 7.66031L11.7225 9.08863L11.241 9.43752L9.64813 7.29576C9.5602 7.22455 9.5011 7.13626 9.46794 7.04512C9.1782 6.61934 9.24451 6.55098 9.51551 6.635C9.61786 6.53247 9.80958 6.55241 10.0575 6.85288C10.4366 7.0138 12.4288 7.81126 13.5921 5.77488C13.8458 5.32915 13.915 5.05858 13.941 4.95747C13.9871 4.77377 14.0102 4.68121 14.2495 4.68263C14.4873 4.68406 14.5089 4.7752 14.5551 4.95747C14.581 5.05858 14.6473 5.32915 14.9053 5.77915C16.0686 7.80984 18.0579 7.0138 18.4371 6.85288C18.6836 6.55241 18.8753 6.53389 18.9776 6.63642C19.2501 6.55098 19.3149 6.62076 19.0266 7.04655C18.9935 7.13769 18.9344 7.22598 18.8464 7.29718L17.2478 9.43752L16.7663 9.08863Z" fill="#3F3E4E"/>
<path fill-rule="evenodd" clip-rule="evenodd" d="M12.6271 7.11005L11.9308 7.47176C11.9308 7.47176 12.2941 6.94344 11.791 5.8042C12.6329 6.76685 13.3219 6.74692 13.3219 6.74692L12.6271 7.11005Z" fill="#3F3E4E"/>
<path fill-rule="evenodd" clip-rule="evenodd" d="M15.8628 7.11005L16.559 7.47176C16.559 7.47176 16.1958 6.94344 16.6989 5.8042C15.857 6.76685 15.168 6.74692 15.168 6.74692L15.8628 7.11005Z" fill="#3F3E4E"/>
<path fill-rule="evenodd" clip-rule="evenodd" d="M14.2441 5.20047C14.5785 5.20047 14.8524 4.93133 14.8524 4.59952C14.8524 4.26914 14.5799 4 14.2441 4C13.9096 4 13.6357 4.26914 13.6357 4.60095C13.6372 4.93133 13.9096 5.20047 14.2441 5.20047Z" fill="#3F3E4E"/>
<path d="M11.705 6.10229C12.041 6.10229 12.3133 5.83323 12.3133 5.50134C12.3133 5.16944 12.041 4.90039 11.705 4.90039C11.369 4.90039 11.0967 5.16944 11.0967 5.50134C11.0967 5.83323 11.369 6.10229 11.705 6.10229Z" fill="#3F3E4E"/>
<path fill-rule="evenodd" clip-rule="evenodd" d="M9.55461 7.43236C9.88904 7.43236 10.1629 7.16179 10.1629 6.83142C10.1629 6.50104 9.89048 6.23047 9.55461 6.23047C9.22018 6.23047 8.94629 6.49961 8.94629 6.83142C8.94629 7.16179 9.22018 7.43236 9.55461 7.43236Z" fill="#3F3E4E"/>
<path fill-rule="evenodd" clip-rule="evenodd" d="M18.8681 7.43236C19.2025 7.43236 19.4764 7.16179 19.4764 6.83142C19.4764 6.50104 19.204 6.23047 18.8681 6.23047C18.5337 6.23047 18.2598 6.49961 18.2598 6.83142C18.2612 7.16179 18.5337 7.43236 18.8681 7.43236Z" fill="#3F3E4E"/>
<path d="M16.9159 6.10229C17.2519 6.10229 17.5243 5.83323 17.5243 5.50134C17.5243 5.16944 17.2519 4.90039 16.9159 4.90039C16.58 4.90039 16.3076 5.16944 16.3076 5.50134C16.3076 5.83323 16.58 6.10229 16.9159 6.10229Z" fill="#3F3E4E"/>
<circle cx="14.0994" cy="14.3099" r="5.65" fill="white" stroke="#3F3E4E" stroke-width="1.1"/>
<circle cx="17.3002" cy="15.7699" r="0.54" fill="white" stroke="#3F3E4E" stroke-width="0.7"/>
<circle cx="14.0394" cy="15.7699" r="0.54" fill="white" stroke="#3F3E4E" stroke-width="0.7"/>
<circle cx="10.7699" cy="15.7699" r="0.54" fill="white" stroke="#3F3E4E" stroke-width="0.7"/>
<circle cx="12.4095" cy="17.6" r="0.54" fill="white" stroke="#3F3E4E" stroke-width="0.7"/>
<circle cx="15.6693" cy="17.6" r="0.54" fill="white" stroke="#3F3E4E" stroke-width="0.7"/>
<path d="M24.5602 13.2972C24.7811 13.0755 24.9486 12.8065 25.0502 12.5105C25.1517 12.2145 25.1845 11.8992 25.1461 11.5887C24.8353 11.5498 24.5198 11.5824 24.2236 11.6841C23.9273 11.7858 23.6583 11.9539 23.4369 12.1755C23.2156 12.3971 23.0478 12.6664 22.9465 12.9627C22.8451 13.2591 22.8129 13.5747 22.8522 13.8854C23.1628 13.9234 23.4781 13.8902 23.774 13.7883C24.07 13.6864 24.3388 13.5184 24.5602 13.2972Z" fill="white"/>
<path d="M7.89668 21.1987C7.58376 21.1993 7.27507 21.2711 6.99401 21.4087C6.71294 21.5463 6.46686 21.746 6.27441 21.9928C6.46647 22.2399 6.71247 22.4399 6.99363 22.5775C7.27478 22.7151 7.58366 22.7867 7.89668 22.7867C8.2097 22.7867 8.51858 22.7151 8.79974 22.5775C9.08089 22.4399 9.32689 22.2399 9.51895 21.9928C9.3265 21.746 9.08043 21.5463 8.79936 21.4087C8.5183 21.2711 8.20961 21.1993 7.89668 21.1987Z" fill="white"/>
<path d="M4.93535 17.039C4.63298 16.9586 4.31628 16.948 4.00923 17.0081C3.70219 17.0682 3.41283 17.1974 3.16309 17.3858C3.28466 17.6745 3.47061 17.9316 3.70674 18.1374C3.94286 18.3431 4.22291 18.4922 4.52547 18.5732C4.82804 18.6542 5.14511 18.665 5.45247 18.6047C5.75983 18.5444 6.04934 18.4146 6.29888 18.2253C6.17641 17.9372 5.99001 17.6806 5.75378 17.4751C5.51756 17.2696 5.23769 17.1204 4.93535 17.039Z" fill="white"/>
<path d="M7.00312 8.07796C6.92157 7.77583 6.77233 7.49621 6.56671 7.2603C6.36108 7.02438 6.10447 6.83836 5.8163 6.71631C5.62728 6.96581 5.49777 7.2552 5.43765 7.56239C5.37754 7.86958 5.38842 8.18645 5.46945 8.4888C5.55049 8.79114 5.69954 9.07097 5.90523 9.30692C6.11091 9.54287 6.3678 9.72871 6.65626 9.85023C6.84453 9.60038 6.97359 9.31103 7.03367 9.00402C7.09376 8.697 7.08331 8.38035 7.00312 8.07796Z" fill="white"/>
<path d="M21.9014 18.2245C22.1508 18.4135 22.4402 18.5431 22.7474 18.6032C23.0545 18.6633 23.3714 18.6525 23.6737 18.5715C23.9761 18.4905 24.2559 18.3415 24.4919 18.1359C24.7279 17.9303 24.9137 17.6734 25.0353 17.385C24.7858 17.196 24.4964 17.0666 24.1893 17.0065C23.8821 16.9464 23.5653 16.9573 23.263 17.0382C22.9607 17.1192 22.6809 17.2682 22.4449 17.4738C22.2089 17.6794 22.023 17.9361 21.9014 18.2245Z" fill="white"/>
<path d="M3.05299 11.5897C3.01415 11.9003 3.04677 12.2156 3.14835 12.5117C3.24993 12.8077 3.41779 13.0766 3.63912 13.2979C3.86046 13.5192 4.12941 13.687 4.42547 13.7885C4.72153 13.89 5.03686 13.9226 5.34742 13.8837C5.38635 13.5731 5.3538 13.2577 5.25225 12.9617C5.1507 12.6656 4.98284 12.3966 4.76149 12.1753C4.54014 11.954 4.27114 11.7862 3.97504 11.6847C3.67894 11.5832 3.36356 11.5507 3.05299 11.5897Z" fill="white"/>
<path d="M18.6807 21.9926C18.8727 22.2398 19.1186 22.4398 19.3998 22.5774C19.6809 22.715 19.9897 22.7865 20.3027 22.7865C20.6157 22.7865 20.9245 22.715 21.2056 22.5774C21.4868 22.4398 21.7327 22.2398 21.9247 21.9926C21.7327 21.7455 21.4868 21.5454 21.2056 21.4079C20.9245 21.2703 20.6157 21.1987 20.3027 21.1987C19.9897 21.1987 19.6809 21.2703 19.3998 21.4079C19.1186 21.5454 18.8727 21.7455 18.6807 21.9926Z" fill="white"/>
<path d="M22.73 8.48808C22.8102 8.1857 22.8207 7.86904 22.7606 7.56203C22.7005 7.25502 22.5715 6.96566 22.3832 6.71582C22.0948 6.83746 21.838 7.02336 21.6325 7.25934C21.4269 7.49532 21.2779 7.77514 21.1969 8.07746C21.116 8.37977 21.1051 8.69658 21.1652 9.00373C21.2253 9.31088 21.3547 9.60024 21.5437 9.84974C21.8317 9.72746 22.0881 9.54135 22.2936 9.30546C22.4991 9.06958 22.6483 8.79008 22.73 8.48808Z" fill="white"/>
<path d="M13.1263 22.022C9.23495 21.5378 6.30024 18.2108 6.30024 14.2828C6.30049 13.0251 6.60439 11.786 7.18613 10.6708C7.54361 10.2947 7.79714 9.83207 7.92183 9.32837C8.04652 8.82467 8.03808 8.29721 7.89734 7.79775C7.75661 7.2983 7.48841 6.84403 7.11908 6.47953C6.74976 6.11504 6.29199 5.85284 5.79073 5.7187C5.71117 5.69732 5.62739 5.69728 5.54782 5.7186C5.46824 5.73991 5.39569 5.78182 5.33747 5.8401C4.99963 6.17778 4.74756 6.59145 4.60232 7.0465C4.45709 7.50155 4.42292 7.98476 4.50268 8.45572C4.58243 8.92669 4.77379 9.37171 5.06075 9.75357C5.34772 10.1354 5.72194 10.443 6.15212 10.6507C5.97604 11.0372 5.82831 11.4361 5.71011 11.844C5.62334 11.7265 5.52792 11.6156 5.42465 11.5122C5.05248 11.1417 4.58969 10.8752 4.08243 10.7392C3.57516 10.6033 3.04112 10.6026 2.53354 10.7374C2.45388 10.7587 2.38125 10.8006 2.32298 10.859C2.26472 10.9173 2.22287 10.99 2.20168 11.0697C2.08269 11.5135 2.06751 11.9787 2.15732 12.4293C2.24713 12.8799 2.43951 13.3038 2.71955 13.668C2.99959 14.0323 3.35976 14.3272 3.77214 14.5298C4.18452 14.7324 4.63802 14.8373 5.09748 14.8364C5.19123 14.8364 5.28497 14.8317 5.37872 14.8228C5.40868 15.3123 5.47987 15.7984 5.59152 16.2759C5.45757 16.2172 5.31937 16.1688 5.1781 16.131C4.67056 15.9962 4.13654 15.9967 3.62926 16.1326C3.12199 16.2684 2.65919 16.5349 2.28699 16.9054C2.22863 16.9636 2.18667 17.0363 2.16535 17.1159C2.14404 17.1956 2.14412 17.2795 2.16559 17.3591C2.29 17.8236 2.52458 18.2513 2.84945 18.606C3.17432 18.9606 3.57989 19.2316 4.0318 19.3961C4.4837 19.5607 4.9686 19.6138 5.44541 19.5511C5.92222 19.4883 6.37688 19.3116 6.77084 19.0357C7.05568 19.4733 7.37881 19.8848 7.73642 20.2652C7.23924 20.2928 6.75671 20.4436 6.33224 20.7039C5.90777 20.9643 5.55466 21.3261 5.30466 21.7567C5.26352 21.828 5.24186 21.9088 5.24186 21.9911C5.24186 22.0734 5.26352 22.1542 5.30466 22.2254C5.5668 22.6795 5.94363 23.0567 6.39742 23.3194C6.85121 23.582 7.36603 23.7208 7.89034 23.7219C8.41465 23.723 8.93005 23.5863 9.38493 23.3256C9.8398 23.0649 10.2182 22.6892 10.4822 22.2362C11.2839 22.601 12.1364 22.8418 13.0106 22.9501C13.0298 22.9525 13.0492 22.9537 13.0687 22.9538C13.1884 22.9544 13.3038 22.9092 13.3912 22.8274C13.4787 22.7456 13.5315 22.6335 13.5389 22.514C13.5462 22.3945 13.5076 22.2767 13.4309 22.1848C13.3542 22.0929 13.2452 22.0338 13.1263 22.0197V22.022ZM5.34778 13.8835C5.03723 13.9224 4.72189 13.8898 4.42584 13.7883C4.12978 13.6868 3.86082 13.519 3.63949 13.2977C3.41816 13.0764 3.2503 12.8075 3.14872 12.5114C3.04714 12.2154 3.01452 11.9001 3.05336 11.5895C3.36393 11.5505 3.6793 11.583 3.97541 11.6845C4.27151 11.786 4.5405 11.9538 4.76186 12.1751C4.98321 12.3964 5.15107 12.6654 5.25262 12.9614C5.35416 13.2575 5.38671 13.5729 5.34778 13.8835ZM5.46825 8.48841C5.38805 8.18603 5.37761 7.86937 5.4377 7.56236C5.49778 7.25535 5.62683 6.96599 5.8151 6.71615C6.10357 6.83767 6.36045 7.0235 6.56614 7.25945C6.77183 7.4954 6.92088 7.77524 7.00191 8.07758C7.08295 8.37993 7.09383 8.69679 7.03371 9.00398C6.9736 9.31118 6.84409 9.60057 6.65507 9.85007C6.3669 9.72802 6.11028 9.54199 5.90466 9.30608C5.69904 9.07016 5.5498 8.79055 5.46825 8.48841ZM4.5261 18.5717C4.22444 18.4899 3.94532 18.3406 3.70984 18.135C3.47435 17.9295 3.28866 17.6732 3.16679 17.3853C3.41628 17.1965 3.70561 17.0671 4.0127 17.0071C4.31979 16.947 4.63654 16.9579 4.93879 17.0389C5.24104 17.1199 5.52081 17.2688 5.75675 17.4743C5.99269 17.6799 6.17858 17.9365 6.30024 18.2248C6.05017 18.4134 5.7605 18.5426 5.45314 18.6027C5.14577 18.6628 4.82877 18.6522 4.5261 18.5717ZM7.89673 22.787C7.5838 22.7864 7.27512 22.7146 6.99405 22.577C6.71298 22.4394 6.46691 22.2397 6.27446 21.9929C6.46652 21.7458 6.71252 21.5458 6.99367 21.4082C7.27483 21.2706 7.58371 21.199 7.89673 21.199C8.20975 21.199 8.51863 21.2706 8.79978 21.4082C9.08094 21.5458 9.32694 21.7458 9.519 21.9929C9.32655 22.2397 9.08047 22.4394 8.79941 22.577C8.51834 22.7146 8.20965 22.7864 7.89673 22.787Z" fill="#3F3E4E"/>
<path d="M23.1025 14.8363C23.5619 14.8373 24.0154 14.7324 24.4278 14.5298C24.8402 14.3273 25.2004 14.0325 25.4804 13.6682C25.7605 13.304 25.9529 12.8802 26.0427 12.4296C26.1325 11.979 26.1173 11.5138 25.9983 11.07C25.9771 10.9903 25.9352 10.9176 25.8768 10.8592C25.8185 10.8008 25.7457 10.7589 25.666 10.7377C25.1584 10.603 24.6244 10.6037 24.1171 10.7396C23.6098 10.8755 23.1471 11.142 22.7749 11.5125C22.6716 11.6159 22.5762 11.7268 22.4894 11.8444C22.3716 11.4361 22.2239 11.0371 22.0474 10.6505C22.4777 10.443 22.852 10.1355 23.139 9.7537C23.426 9.37188 23.6174 8.92686 23.6972 8.4559C23.7769 7.98493 23.7428 7.50171 23.5975 7.04667C23.4522 6.59164 23.2 6.17802 22.862 5.84043C22.804 5.7819 22.7314 5.73983 22.6518 5.7185C22.5722 5.69717 22.4883 5.69735 22.4088 5.71903C21.9076 5.85322 21.4499 6.11541 21.0807 6.47987C20.7114 6.84433 20.4433 7.29854 20.3025 7.79792C20.1618 8.29729 20.1534 8.82468 20.278 9.32832C20.4026 9.83196 20.656 10.2945 21.0134 10.6707C21.5951 11.786 21.899 13.0253 21.8993 14.2832C21.8993 18.2111 18.965 21.5381 15.0737 22.0223C14.9556 22.0374 14.8477 22.0967 14.7718 22.1884C14.6959 22.2801 14.6577 22.3972 14.6649 22.516C14.6722 22.6348 14.7244 22.7463 14.8109 22.8281C14.8975 22.9098 15.0118 22.9555 15.1308 22.956C15.1504 22.9561 15.17 22.955 15.1894 22.9528C16.0634 22.8442 16.9158 22.6033 17.7173 22.2384C17.9814 22.6911 18.3598 23.0665 18.8145 23.327C19.2693 23.5876 19.7845 23.7241 20.3086 23.7231C20.8327 23.722 21.3473 23.5834 21.801 23.3211C22.2547 23.0587 22.6316 22.6818 22.8939 22.2281C22.9351 22.1569 22.9567 22.076 22.9567 21.9937C22.9567 21.9115 22.9351 21.8306 22.8939 21.7594C22.6441 21.3286 22.2912 20.9665 21.867 20.7058C21.4427 20.4451 20.9603 20.2938 20.4631 20.2655C20.8203 19.8854 21.143 19.4743 21.4273 19.037C21.9317 19.3885 22.5317 19.5773 23.1466 19.5779C23.4064 19.578 23.6652 19.5439 23.9162 19.4767C24.4236 19.3398 24.8862 19.0722 25.2579 18.7007C25.6295 18.3292 25.8973 17.8667 26.0344 17.3594C26.0558 17.2798 26.0558 17.1959 26.0344 17.1162C26.013 17.0365 25.971 16.9639 25.9125 16.9057C25.5404 16.5352 25.0777 16.2688 24.5705 16.1329C24.0633 15.997 23.5294 15.9965 23.0219 16.1314C22.8805 16.1691 22.7421 16.2175 22.608 16.2762C22.7198 15.7987 22.7911 15.3126 22.8213 14.8231C22.9147 14.8319 23.0084 14.8363 23.1025 14.8363ZM23.4381 12.1753C23.6597 11.9545 23.9287 11.787 24.2246 11.6855C24.5205 11.584 24.8357 11.5511 25.1462 11.5894C25.1854 11.9001 25.1532 12.2157 25.0518 12.5121C24.9505 12.8084 24.7828 13.0777 24.5614 13.2993C24.3401 13.5209 24.071 13.689 23.7748 13.7907C23.4785 13.8924 23.163 13.9251 22.8522 13.8861C22.8135 13.5752 22.8461 13.2595 22.9476 12.9631C23.0492 12.6666 23.2169 12.3972 23.4381 12.1753ZM21.9251 21.9933C21.733 22.2404 21.4871 22.4405 21.206 22.5781C20.9249 22.7156 20.616 22.7872 20.303 22.7872C19.99 22.7872 19.6812 22.7156 19.4001 22.5781C19.119 22.4405 18.873 22.2404 18.681 21.9933C18.873 21.7461 19.119 21.5461 19.4001 21.4085C19.6812 21.2709 19.99 21.1994 20.303 21.1994C20.616 21.1994 20.9249 21.2709 21.206 21.4085C21.4871 21.5461 21.733 21.7461 21.9251 21.9933ZM21.5449 9.8504C21.356 9.6009 21.2265 9.31154 21.1664 9.00439C21.1063 8.69724 21.1172 8.38043 21.1982 8.07811C21.2791 7.7758 21.4281 7.49598 21.6337 7.26C21.8393 7.02402 22.096 6.83812 22.3844 6.71648C22.5734 6.96598 22.7028 7.25534 22.7629 7.56249C22.823 7.86964 22.8121 8.18645 22.7312 8.48876C22.6502 8.79108 22.5012 9.0709 22.2956 9.30687C22.0901 9.54285 21.8333 9.72876 21.5449 9.8504ZM23.2628 17.0388C23.5652 16.9584 23.8819 16.9479 24.1889 17.008C24.496 17.0681 24.7853 17.1972 25.0351 17.3857C24.9135 17.6741 24.7276 17.9309 24.4917 18.1366C24.2557 18.3422 23.9759 18.4912 23.6735 18.5722C23.3712 18.6532 23.0543 18.664 22.7472 18.6039C22.44 18.5437 22.1506 18.4142 21.9012 18.2252C22.0234 17.9372 22.2095 17.6808 22.4454 17.4753C22.6813 17.2697 22.9608 17.1205 23.2628 17.0388Z" fill="#3F3E4E"/>
</g>
</g>
<defs>
<clipPath id="clip0_390_34605">
<rect width="28" height="28" fill="white" transform="translate(0.0996094)"/>
</clipPath>
<clipPath id="clip1_390_34605">
<rect width="28" height="28" fill="white" transform="translate(0.0996094)"/>
</clipPath>
</defs>
</svg>
