<svg width="20" height="20" viewBox="0 0 20 20" fill="none" xmlns="http://www.w3.org/2000/svg">
<rect width="20" height="20" rx="4" fill="#EEEEEE"/>
<path d="M7.99998 16.6667H12C15.3333 16.6667 16.6666 15.3334 16.6666 12V8.00004C16.6666 4.66671 15.3333 3.33337 12 3.33337H7.99998C4.66665 3.33337 3.33331 4.66671 3.33331 8.00004V12C3.33331 15.3334 4.66665 16.6667 7.99998 16.6667Z" stroke="#A3A3AC" stroke-width="1.5" stroke-linecap="round" stroke-linejoin="round"/>
<path d="M8.06665 9.99999V9.01333C8.06665 7.73999 8.96665 7.22666 10.0667 7.85999L10.92 8.35333L11.7733 8.84666C12.8733 9.47999 12.8733 10.52 11.7733 11.1533L10.92 11.6467L10.0667 12.14C8.96665 12.7733 8.06665 12.2533 8.06665 10.9867V9.99999Z" stroke="#A3A3AC" stroke-width="1.5" stroke-miterlimit="10" stroke-linecap="round" stroke-linejoin="round"/>
</svg>
