<svg width="24" height="24" viewBox="0 0 24 24" fill="none" xmlns="http://www.w3.org/2000/svg">
<g clip-path="url(#clip0_24862_14174)">
<path d="M24.0006 14.7272C24.0006 10.8385 20.7276 7.68604 16.6902 7.68604C12.6528 7.68604 9.37982 10.8385 9.37982 14.7272C9.37982 18.6159 12.6528 21.7684 16.6902 21.7684C17.9489 21.7684 19.1333 21.4619 20.1673 20.9223L24.0006 22.355L22.9399 18.3819C23.6129 17.3166 24.0006 16.0655 24.0006 14.7272Z" fill="#FF5876"/>
<path d="M7.31015 1.11475C3.27272 1.11475 -0.000244141 4.26717 -0.000244141 8.15592C-0.000244141 9.49417 0.387449 10.7453 1.0605 11.8106L-0.000244141 15.7837L3.83302 14.351C4.86715 14.8906 6.05147 15.1971 7.31015 15.1971C11.3476 15.1971 14.6205 12.0447 14.6205 8.15592C14.6205 4.26717 11.3476 1.11475 7.31015 1.11475Z" fill="#FFBE1B"/>
<path d="M10.0837 10.1844C10.5332 9.61323 10.801 8.89482 10.801 8.11185C10.801 6.19598 9.18478 4.65771 7.20513 4.65771C5.22556 4.65771 3.60938 6.19598 3.60938 8.11185C3.60938 10.0462 5.22556 11.5845 7.20513 11.5845C7.90333 11.5845 8.54397 11.4002 9.09865 11.0502L9.37599 11.3265C9.65332 11.5937 10.0837 11.5845 10.3419 11.3265C10.6 11.0686 10.5905 10.6633 10.3419 10.4331L10.0837 10.1844ZM8.98386 9.11586L8.73526 8.88554C8.45792 8.6369 8.04669 8.62761 7.77891 8.88554C7.53022 9.12506 7.52076 9.53035 7.77891 9.77899L7.97011 9.96324C7.73106 10.0645 7.47283 10.1106 7.20504 10.1106C6.0383 10.1106 5.12987 9.23554 5.12987 8.11177C5.12987 6.99727 6.0383 6.13142 7.20504 6.13142C8.35268 6.13142 9.27075 7.01567 9.27075 8.11177C9.27075 8.48025 9.17515 8.83034 8.98386 9.11586Z" fill="white"/>
<path d="M19.9509 16.7314L17.474 11.3982C17.3879 11.2232 17.254 11.085 17.0724 11.0113C16.8811 10.9376 16.6419 10.9376 16.4507 11.0113C16.2786 11.085 16.1256 11.2232 16.0491 11.3982L13.5722 16.7314C13.4 17.0999 13.5722 17.542 13.9547 17.6985C14.2894 17.8367 14.758 17.7446 14.9588 17.3209L15.3031 16.5932H18.2294L18.5641 17.3209C18.7649 17.7538 19.2527 17.8551 19.5682 17.6985C19.9412 17.5144 20.123 17.0999 19.9509 16.7314ZM15.9917 15.1287L16.7663 13.4522L17.5409 15.1287H15.9917Z" fill="white"/>
</g>
<defs>
<clipPath id="clip0_24862_14174">
<rect width="24" height="24" fill="white"/>
</clipPath>
</defs>
</svg>
