<svg width="28px" height="28px" viewBox="0 0 24 24" fill="none" xmlns="http://www.w3.org/2000/svg" class="fill-gz-white"><path fill-rule="evenodd" clip-rule="evenodd" d="M6.58984 9.95305L15.1159 6.23824L6.58984 2.52344V9.95305ZM7.58984 4.04994V8.42655L12.6123 6.23824L7.58984 4.04994Z" fill="#3F3E4E"></path><path fill-rule="evenodd" clip-rule="evenodd" d="M20.1221 19.9191C20.5089 19.5722 20.5821 19.3187 20.5821 19.1747C20.5821 19.0306 20.5089 18.7771 20.1221 18.4302C19.7358 18.0837 19.1203 17.7258 18.2744 17.4049C16.5897 16.7657 14.1948 16.3496 11.5001 16.3496C8.80526 16.3496 6.41041 16.7657 4.72566 17.4049C3.87976 17.7258 3.26429 18.0837 2.87799 18.4302C2.49122 18.7771 2.41797 19.0306 2.41797 19.1747C2.41797 19.3187 2.49122 19.5722 2.87799 19.9191C3.26429 20.2656 3.87976 20.6235 4.72566 20.9444C6.41041 21.5836 8.80526 21.9997 11.5001 21.9997C14.1948 21.9997 16.5897 21.5836 18.2744 20.9444C19.1203 20.6235 19.7358 20.2656 20.1221 19.9191ZM21.5821 19.1747C21.5821 21.2872 17.0682 22.9997 11.5001 22.9997C5.93187 22.9997 1.41797 21.2872 1.41797 19.1747C1.41797 17.0621 5.93187 15.3496 11.5001 15.3496C17.0682 15.3496 21.5821 17.0621 21.5821 19.1747Z" fill="#3F3E4E"></path><path d="M7.59277 2.38084V18.1025C7.59277 18.3855 7.3758 18.6231 7.09277 18.6231C6.80975 18.6231 6.59277 18.3855 6.59277 18.1025V2.38084C6.59277 2.17372 6.82084 2 7.09277 2C7.37348 1.99933 7.59277 2.17305 7.59277 2.38084Z" fill="#3F3E4E"></path><path d="M12.1278 19.2556C12.7507 19.2556 13.2556 18.7507 13.2556 18.1278C13.2556 17.5049 12.7507 17 12.1278 17C11.5049 17 11 17.5049 11 18.1278C11 18.7507 11.5049 19.2556 12.1278 19.2556Z" fill="#3F3E4E"></path></svg>