<svg width="24" height="24" viewBox="0 0 24 24" fill="none" xmlns="http://www.w3.org/2000/svg">
<path d="M13.6709 3.85938C13.7489 3.85924 13.8262 3.87448 13.8983 3.90423C13.9704 3.93397 14.036 3.97765 14.0912 4.03275L19.9694 9.91088C20.0807 10.0222 20.1432 10.1732 20.1432 10.3307C20.1432 10.4881 20.0807 10.6391 19.9694 10.7504C19.3994 11.3204 18.6964 11.4487 18.1845 11.4487C17.9744 11.4487 17.7867 11.4273 17.6383 11.4024L13.9167 15.124C14.0146 15.5187 14.0782 15.9212 14.1067 16.3269C14.1613 17.1606 14.0687 18.3302 13.2517 19.1472C13.1403 19.2586 12.9893 19.3211 12.8319 19.3211C12.6745 19.3211 12.5235 19.2586 12.4121 19.1472L9.05267 15.789L5.27405 19.5676C5.04249 19.7992 3.82649 20.6387 3.59492 20.4072C3.36336 20.1756 4.20292 18.9584 4.43449 18.7281L8.21311 14.9494L4.85486 11.59C4.74355 11.4787 4.68102 11.3277 4.68102 11.1702C4.68102 11.0128 4.74355 10.8618 4.85486 10.7504C5.67186 9.93344 6.84155 9.83963 7.67517 9.89544C8.08089 9.92387 8.48338 9.98744 8.87811 10.0854L12.5997 6.365C12.5687 6.18416 12.5528 6.00105 12.5522 5.81756C12.5522 5.30694 12.6805 4.60394 13.2517 4.03275C13.363 3.92176 13.5137 3.85941 13.6709 3.85938Z" fill="current"/>
</svg>
