<svg width="65" height="65" viewBox="0 0 65 65" fill="none" xmlns="http://www.w3.org/2000/svg">
<g clip-path="url(#clip0_297_28085)">
<path d="M0.0175781 32.501C0.0175781 14.8279 14.3445 0.500977 32.0176 0.500977C49.6907 0.500977 64.0176 14.8279 64.0176 32.501C64.0176 50.1741 49.6907 64.501 32.0176 64.501C14.3445 64.501 0.0175781 50.1741 0.0175781 32.501Z" fill="#DAEFFF"/>
<g clip-path="url(#clip1_297_28085)">
<path d="M21.8765 34.3262C21.8765 34.3262 20.178 36.1431 19.354 31.8123C18.4722 27.1837 18.504 24.6712 20.084 24.144C21.0945 23.8056 21.3851 24.6697 21.3851 24.6697L21.8765 34.3262Z" fill="#FFC8A5"/>
<path d="M25.3418 40.8518V44.1267C25.3418 45.3191 25.8752 46.4475 26.7946 47.1998L29.6352 49.5279C31.0822 50.7145 33.1595 50.7188 34.6123 49.5395L37.4948 47.1998C38.4228 46.4461 38.962 45.3118 38.962 44.1137V40.5352L25.3418 40.8518Z" fill="#FFE0CC"/>
<g opacity="0.47">
<path d="M25.3418 43.2583C27.1748 45.2973 29.4704 46.4112 32.016 46.4112C34.6889 46.4112 37.0886 45.1956 38.9635 42.9547V40.5352L25.3418 40.8518V43.2583Z" fill="#D8B9A7"/>
</g>
<path d="M32.0166 44.7728C38.2355 44.7728 43.0059 38.2272 43.0059 27.3842C43.0059 13.8616 39.058 10.7231 32.0166 10.7231C24.9752 10.7231 21.0273 13.8631 21.0273 27.3842C21.0273 38.2272 25.7977 44.7728 32.0166 44.7728Z" fill="#FCD0B4"/>
<path d="M42.3164 34.3262C42.3164 34.3262 44.015 36.1431 44.8404 31.8123C45.7207 27.1837 45.6918 24.6712 44.1104 24.144C43.0999 23.8056 42.8093 24.6697 42.8093 24.6697L42.3164 34.3262Z" fill="#FFC8A5"/>
<path d="M32.1543 10.7246V44.7641C38.3052 44.6682 43.0062 38.1473 43.0062 27.3842C43.0077 13.9517 39.109 10.7667 32.1543 10.7246Z" fill="#FFD9C1"/>
<path d="M21.8848 48.9307L13.1189 54.6354C12.2877 55.1756 11.6906 56.0107 11.442 56.9736L9.50781 64.501H32.0256V50.1985L21.8848 48.9307Z" fill="#007BDC"/>
<path d="M25.3527 43.9072H24.6603L21.8848 48.9308L28.5098 55.4764L32.0255 50.1987L25.3527 43.9072Z" fill="white"/>
<path d="M42.1505 48.915L50.9165 54.6198C51.7477 55.16 52.3447 55.9951 52.5933 56.958L54.529 64.4854H32.0098V50.1829L42.1505 48.915Z" fill="#1290F3"/>
<path d="M38.6826 43.8911H39.375L42.1505 48.9147L35.5254 55.4588L32.0098 50.1811L38.6826 43.8911Z" fill="white"/>
<path d="M21.0283 27.384C21.0283 27.384 18.2441 25.7182 20.1393 17.9512C21.3853 12.8478 24.6639 13.0932 24.6639 13.0932C24.6639 13.0932 21.4012 18.2809 21.0283 27.384Z" fill="#071D23"/>
<path d="M43.0223 27.384C43.0223 27.384 45.8065 25.7182 43.9114 17.9512C42.6653 12.8478 39.3867 13.0932 39.3867 13.0932C39.3867 13.0932 42.6479 18.2809 43.0223 27.384Z" fill="#071D23"/>
<path d="M32.1978 9.59603H31.4981C31.1974 9.59603 30.9531 9.35058 30.9531 9.0485C30.9531 8.74642 31.1974 8.50098 31.4981 8.50098H32.1978C32.4984 8.50098 32.7427 8.74642 32.7427 9.0485C32.7427 9.35204 32.4984 9.59603 32.1978 9.59603Z" fill="#35517C"/>
<path d="M44.3434 25.4149H20.1531C20.0273 25.4149 19.6602 25.3191 19.6602 25.2014V20.6847C19.6602 15.2153 25.2372 9.03857 32.1153 9.03857C39.8968 9.03857 44.5703 15.118 44.5703 21.3107V25.2014C44.5718 25.3191 44.4692 25.4149 44.3434 25.4149Z" fill="#222224"/>
<g opacity="0.5">
<path opacity="0.5" d="M31.7848 8.96582C31.7848 8.96582 31.7819 9.19674 31.7747 9.60194C31.7718 9.80381 31.7689 10.0493 31.7646 10.331C31.7646 10.6128 31.766 10.9294 31.7675 11.275C31.7588 11.9678 31.7487 12.7753 31.7386 13.6423C31.7516 14.5064 31.766 15.4272 31.7819 16.3494C31.7819 16.8113 31.7819 17.2731 31.7805 17.7262C31.7762 18.1822 31.7776 18.6339 31.8195 19.0565C31.8658 19.9178 31.912 20.7223 31.9496 21.4107C31.9887 22.0991 31.9901 22.6772 32.006 23.0795C32.0176 23.4818 32.0248 23.7127 32.0248 23.7127C32.0248 23.7127 31.9944 23.4847 31.941 23.0853C31.8918 22.6859 31.8022 22.1166 31.7314 21.4296C31.6591 20.7427 31.5738 19.9425 31.4827 19.0841C31.4321 18.6557 31.4234 18.2084 31.4191 17.7553C31.4104 17.3021 31.4032 16.8403 31.3945 16.3785C31.3974 15.4548 31.4003 14.5311 31.4032 13.6655C31.4567 12.797 31.5087 11.9852 31.5521 11.2895C31.5897 10.5939 31.6634 10.0129 31.7111 9.60629C31.7588 9.19819 31.7848 8.96582 31.7848 8.96582Z" fill="#35517C"/>
</g>
<path d="M28.4313 11.635C28.1653 11.9153 27.8892 12.0823 27.814 12.0112C27.7389 11.9386 27.8921 11.6539 28.1581 11.3736C28.4241 11.0933 28.7002 10.9263 28.7753 10.9989C28.852 11.0701 28.6973 11.3547 28.4313 11.635Z" fill="#929497"/>
<path d="M27.8647 12.1217C27.8069 12.1217 27.7708 12.0984 27.7505 12.0796C27.5525 11.8893 28.0353 11.3679 28.0917 11.3084C28.2753 11.1138 28.5528 10.8872 28.7263 10.8872C28.7841 10.8872 28.8203 10.9104 28.8405 10.9308C28.9128 10.999 28.9041 11.1181 28.8145 11.2837C28.7465 11.4115 28.6338 11.5596 28.4993 11.7005C28.3158 11.8937 28.0382 12.1217 27.8647 12.1217ZM28.6988 11.0804C28.615 11.1051 28.4329 11.2198 28.2276 11.4376C28.0122 11.6657 27.9124 11.8501 27.8937 11.9285C27.976 11.9038 28.1582 11.7876 28.3649 11.5698C28.5803 11.3432 28.6786 11.1588 28.6988 11.0804Z" fill="white"/>
<path d="M34.9073 11.6524C35.1545 11.9139 35.4132 12.0707 35.4826 12.0024C35.552 11.9356 35.4089 11.6684 35.1617 11.407C34.9145 11.1456 34.6558 10.9902 34.5864 11.057C34.5155 11.1252 34.6601 11.391 34.9073 11.6524Z" fill="#929497"/>
<path d="M34.8432 11.7122C34.7175 11.5815 34.6134 11.4421 34.5498 11.3244C34.4659 11.1705 34.4587 11.0587 34.5252 10.9948C34.544 10.9759 34.5787 10.9541 34.6322 10.9541C34.7941 10.9541 35.0528 11.1661 35.2248 11.3477C35.2769 11.4029 35.7265 11.8894 35.5429 12.0666C35.5241 12.0855 35.4908 12.1058 35.4373 12.1058C35.274 12.1058 35.0152 11.8938 34.8432 11.7122ZM34.9704 11.5917C35.1641 11.795 35.3333 11.9039 35.4099 11.9257C35.3925 11.8531 35.2986 11.6803 35.0976 11.4682C34.9054 11.2649 34.7362 11.1574 34.6582 11.1342C34.6755 11.2083 34.7695 11.3796 34.9704 11.5917Z" fill="white"/>
<path d="M44.3008 29.2994C44.3008 29.6785 43.6488 30.0895 43.1718 29.7976C40.8401 28.3714 36.7549 27.1442 31.9931 27.1442C28.4861 27.1442 23.4107 28.4789 20.9894 29.2864C20.3837 29.4882 19.7202 29.1223 19.7202 28.6938L19.6016 24.6956C19.5987 24.6099 19.6869 24.5358 19.8141 24.514C21.0501 24.3093 27.3225 23.3115 31.9526 23.3115C38.6457 23.3115 44.2458 24.9628 44.2458 24.9628C44.519 24.9599 44.3008 29.2994 44.3008 29.2994Z" fill="#1D1718"/>
<path d="M44.3008 29.0948C44.3008 29.4739 43.6488 29.8849 43.1718 29.593C40.8401 28.1668 36.7549 26.9396 31.9931 26.9396C28.4861 26.9396 23.4107 28.2743 20.9894 29.0818C20.3837 29.2837 19.7202 28.9177 19.7202 28.4892L19.6016 24.491C19.5987 24.4053 19.6869 24.3312 19.8141 24.3095C21.0501 24.1047 27.3225 23.1069 31.9526 23.1069C38.6457 23.1069 44.2458 24.7582 44.2458 24.7582C44.519 24.7553 44.3008 29.0948 44.3008 29.0948Z" fill="url(#paint0_linear_297_28085)"/>
<g clip-path="url(#clip2_297_28085)">
<path d="M43.8141 19.8222L43.5488 19.8018L43.4393 21.2223L43.7046 21.2428L43.8141 19.8222Z" fill="#006EB7"/>
<path d="M43.2069 20.2402L42.9414 20.2197L42.8963 20.8046L43.1618 20.8251L43.2069 20.2402Z" fill="#ED1A3B"/>
<path d="M42.6698 19.3779L42.4043 19.3574L42.3127 20.5457L42.5782 20.5662L42.6698 19.3779Z" fill="#F7941D"/>
<path d="M34.0116 21.7914C33.8729 21.6409 33.8066 21.4287 33.8246 21.1939C33.8659 20.6896 34.2629 20.3921 34.8361 20.4363C35.0354 20.4517 35.1873 20.4977 35.2728 20.5389C35.2607 20.5733 35.2 20.7443 35.1858 20.7838C35.0826 20.7333 34.9666 20.7038 34.8137 20.692C34.4494 20.6639 34.2067 20.8591 34.1803 21.2018C34.1539 21.5435 34.3578 21.7815 34.6996 21.8079C34.783 21.8143 34.8608 21.8109 34.8977 21.7994L34.914 21.7944L34.9439 21.4067C34.9439 21.4067 34.7218 21.3896 34.6813 21.3865C34.6842 21.3485 34.6968 21.1857 34.6997 21.1477C34.7435 21.1511 35.2394 21.1893 35.2837 21.1927C35.2802 21.2391 35.2234 21.976 35.2206 22.0116C35.082 22.0437 34.8707 22.0715 34.6705 22.056C34.372 22.033 34.1565 21.9462 34.0116 21.7914Z" fill="white"/>
<path d="M36.0797 22.1516C35.7024 22.1225 35.4994 21.8294 35.5265 21.4785C35.5549 21.1093 35.8229 20.8525 36.1986 20.8815C36.5914 20.9117 36.784 21.2116 36.7578 21.5514C36.7266 21.9569 36.4554 22.1805 36.0816 22.1517L36.0797 22.1516ZM36.11 21.9316C36.3056 21.9467 36.4311 21.778 36.4497 21.5368C36.4668 21.3158 36.3733 21.1173 36.174 21.1019C35.9746 21.0865 35.8484 21.2643 35.8307 21.4944C35.8128 21.7265 35.9147 21.9163 36.1084 21.9312L36.1101 21.9314L36.11 21.9316Z" fill="white"/>
<path d="M37.0879 20.9907L37.3764 21.013L37.2995 22.0105L37.8833 22.0555L37.8652 22.2893L36.993 22.222L37.0879 20.9907Z" fill="white"/>
<path d="M38.2539 21.0806L39.1468 21.1494L39.1292 21.3779L38.5248 21.3313L38.5031 21.6124L39.075 21.6565L39.0576 21.883L38.4856 21.8389L38.4475 22.3341L38.159 22.3119L38.2539 21.0806Z" fill="white"/>
<path d="M39.2682 22.2468L39.9425 21.4479L39.943 21.4424L39.3888 21.3997L39.4066 21.1693L40.3345 21.2408L40.3221 21.4017L39.662 22.1891L39.6614 22.1963L40.2668 22.2429L40.2491 22.4731L39.2566 22.3966L39.2682 22.2468Z" fill="white"/>
<path d="M41.0348 22.5339C40.657 22.5048 40.4545 22.2117 40.4815 21.8608C40.51 21.4917 40.778 21.2348 41.1537 21.2638C41.5464 21.2941 41.7391 21.5939 41.7129 21.9337C41.6817 22.3392 41.4105 22.5629 41.0367 22.5341L41.0348 22.5339ZM41.0651 22.3139C41.2607 22.329 41.3862 22.1604 41.4048 21.9192C41.4218 21.6981 41.3282 21.4996 41.1291 21.4842C40.9297 21.4689 40.8035 21.6466 40.7857 21.8768C40.7679 22.1088 40.8698 22.2986 41.0632 22.3135L41.0651 22.3137L41.0651 22.3139Z" fill="white"/>
<path d="M41.9234 22.602L42.0183 21.3707L42.3563 21.3967L42.7767 22.3078L42.7805 22.3081L42.8784 21.0381L43.1437 21.0585L43.0182 22.6866L42.6923 22.6615L42.2535 21.7125L42.2554 21.7127L42.185 22.6224L41.9233 22.6022L41.9234 22.602Z" fill="white"/>
</g>
</g>
</g>
<defs>
<linearGradient id="paint0_linear_297_28085" x1="19.6016" y1="26.3994" x2="36.2379" y2="38.6264" gradientUnits="userSpaceOnUse">
<stop stop-color="#1058E2"/>
<stop offset="1" stop-color="#1785E7"/>
</linearGradient>
<clipPath id="clip0_297_28085">
<path d="M0.0175781 32.501C0.0175781 14.8279 14.3445 0.500977 32.0176 0.500977C49.6907 0.500977 64.0176 14.8279 64.0176 32.501C64.0176 50.1741 49.6907 64.501 32.0176 64.501C14.3445 64.501 0.0175781 50.1741 0.0175781 32.501Z" fill="white"/>
</clipPath>
<clipPath id="clip1_297_28085">
<rect width="45.0196" height="56" fill="white" transform="translate(9.50781 8.50098)"/>
</clipPath>
<clipPath id="clip2_297_28085">
<rect width="9.8549" height="3.28497" fill="white" transform="translate(34.0156 18.7109) rotate(4.40749)"/>
</clipPath>
</defs>
</svg>
