<svg width="28" height="28" viewBox="0 0 28 28" fill="none" xmlns="http://www.w3.org/2000/svg">
<g clip-path="url(#clip0_390_34599)">
<path d="M25.4711 6.2666H23.5332V7.12677C23.5332 7.31326 23.4591 7.49211 23.3273 7.62397C23.1954 7.75583 23.0166 7.82991 22.8301 7.82991H21.5424C21.3559 7.82991 21.1771 7.75583 21.0452 7.62397C20.9133 7.49211 20.8392 7.31326 20.8392 7.12677V6.2666H16.2398V7.12677C16.2398 7.31326 16.1657 7.49211 16.0338 7.62397C15.902 7.75583 15.7231 7.82991 15.5366 7.82991H14.2485C14.062 7.82991 13.8832 7.75583 13.7513 7.62397C13.6194 7.49211 13.5454 7.31326 13.5454 7.12677V6.2666H8.94588V7.12677C8.94588 7.31326 8.87181 7.49211 8.73994 7.62397C8.60808 7.75583 8.42923 7.82991 8.24275 7.82991H6.95507C6.76858 7.82991 6.58973 7.75583 6.45787 7.62397C6.32601 7.49211 6.25193 7.31326 6.25193 7.12677V6.2666H4.32533C4.13345 6.26685 3.9495 6.34318 3.81382 6.47886C3.67814 6.61454 3.60181 6.79849 3.60156 6.99037V9.39557H26.1958V6.99037C26.1955 6.79833 26.119 6.61424 25.9832 6.47853C25.8473 6.34283 25.6631 6.2666 25.4711 6.2666Z" fill="white"/>
<path d="M8.25171 6.04944C8.25171 6.04381 8.25171 6.03819 8.25171 6.03256C8.25171 6.02694 8.25171 6.02178 8.25171 6.01662V4.93848H6.96777V7.12571H8.25405L8.25171 6.04944Z" fill="white"/>
<path d="M22.8313 6.0494C22.8313 6.04377 22.8313 6.03768 22.8313 6.03205C22.8313 6.02643 22.8313 6.02127 22.8313 6.01565V4.9375H21.5469V7.12473H22.8331L22.8313 6.0494Z" fill="white"/>
<path d="M15.5417 6.0494C15.5417 6.04377 15.5417 6.03768 15.5417 6.03205C15.5417 6.02643 15.5417 6.02127 15.5417 6.01565V4.9375H14.2578V7.12473H15.5441L15.5417 6.0494Z" fill="white"/>
<path d="M4.13816 22.3928C4.1381 22.4571 4.15072 22.5208 4.17528 22.5802C4.19985 22.6397 4.23589 22.6937 4.28134 22.7392C4.32679 22.7846 4.38075 22.8207 4.44016 22.8454C4.49957 22.87 4.56324 22.8827 4.62755 22.8827H25.7733C25.9032 22.8827 26.0278 22.831 26.1197 22.7392C26.2115 22.6473 26.2631 22.5227 26.2631 22.3928V10.0991H4.1377L4.13816 22.3928Z" fill="white"/>
<mask id="path-6-outside-1_390_34599" maskUnits="userSpaceOnUse" x="1.89844" y="3" width="26" height="21" fill="black">
<rect fill="white" x="1.89844" y="3" width="26" height="21"/>
<path d="M25.4711 5.56331H23.7681V4.93752C23.7681 4.68887 23.6693 4.45041 23.4935 4.27459C23.3177 4.09877 23.0792 4 22.8305 4H21.5429C21.2942 4 21.0558 4.09877 20.8799 4.27459C20.7041 4.45041 20.6053 4.68887 20.6053 4.93752V5.56331H16.4751V4.93752C16.4751 4.68887 16.3763 4.45041 16.2005 4.27459C16.0247 4.09877 15.7862 4 15.5376 4H14.2499C14.0013 4 13.7628 4.09877 13.587 4.27459C13.4112 4.45041 13.3124 4.68887 13.3124 4.93752V5.56331H9.18169V4.93752C9.18169 4.68887 9.08291 4.45041 8.90709 4.27459C8.73127 4.09877 8.49281 4 8.24417 4H6.96445C6.71581 4 6.47735 4.09877 6.30153 4.27459C6.12571 4.45041 6.02694 4.68887 6.02694 4.93752V5.56331H4.32534C4.13792 5.56331 3.95233 5.60024 3.77918 5.67197C3.60603 5.74371 3.44871 5.84886 3.3162 5.98141C3.18369 6.11396 3.0786 6.27131 3.00692 6.44449C2.93524 6.61766 2.89838 6.80326 2.89844 6.99068V22.3922C2.89838 22.5797 2.93524 22.7653 3.00692 22.9384C3.0786 23.1116 3.18369 23.269 3.3162 23.4015C3.44871 23.5341 3.60603 23.6392 3.77918 23.7109C3.95233 23.7827 4.13792 23.8196 4.32534 23.8196H25.4711C25.6585 23.8196 25.8441 23.7827 26.0173 23.711C26.1905 23.6392 26.3478 23.5341 26.4804 23.4015C26.6129 23.269 26.7181 23.1116 26.7898 22.9385C26.8615 22.7653 26.8984 22.5797 26.8984 22.3922V6.99068C26.8984 6.80324 26.8615 6.61763 26.7898 6.44445C26.7181 6.27128 26.6129 6.11392 26.4804 5.98138C26.3478 5.84884 26.1905 5.7437 26.0173 5.67196C25.8441 5.60023 25.6585 5.56331 25.4711 5.56331ZM21.5461 4.93939H22.8305V6.01754C22.8305 6.02316 22.8305 6.02832 22.8305 6.03395C22.8305 6.03957 22.8305 6.04567 22.8305 6.05129V7.12944H21.5443L21.5461 4.93939ZM14.2565 4.93939H15.5404V6.01754C15.5404 6.02316 15.5404 6.02832 15.5404 6.03395C15.5404 6.03957 15.5404 6.04567 15.5404 6.05129V7.12944H14.2541L14.2565 4.93939ZM6.96633 4.93939H8.25026V6.01754C8.25026 6.0227 8.25026 6.02832 8.25026 6.03348C8.25026 6.03863 8.25026 6.04473 8.25026 6.05035V7.1285H6.96399L6.96633 4.93939ZM25.9609 22.3922C25.9609 22.5222 25.9093 22.6468 25.8174 22.7386C25.7256 22.8305 25.601 22.8821 25.4711 22.8821H4.32534C4.26103 22.8821 4.19736 22.8694 4.13795 22.8448C4.07855 22.8202 4.02458 22.7841 3.97913 22.7386C3.93368 22.6931 3.89764 22.6391 3.87307 22.5797C3.84851 22.5202 3.83589 22.4565 3.83596 22.3922V10.0986H25.9614L25.9609 22.3922ZM25.9609 6.99068V9.16104H3.83549V6.99068C3.83543 6.92638 3.84804 6.86269 3.8726 6.80326C3.89717 6.74383 3.93321 6.68983 3.97866 6.64433C4.02411 6.59884 4.07808 6.56275 4.13748 6.53813C4.19689 6.5135 4.26057 6.50083 4.32487 6.50083H6.02834V7.12662C6.02834 7.37527 6.12712 7.61373 6.30294 7.78955C6.47875 7.96537 6.71721 8.06414 6.96586 8.06414H8.25401C8.50265 8.06414 8.74112 7.96537 8.91694 7.78955C9.09276 7.61373 9.19153 7.37527 9.19153 7.12662V6.50083H13.3222V7.12662C13.3222 7.37527 13.421 7.61373 13.5968 7.78955C13.7726 7.96537 14.0111 8.06414 14.2598 8.06414H15.5479C15.7966 8.06414 16.035 7.96537 16.2108 7.78955C16.3867 7.61373 16.4854 7.37527 16.4854 7.12662V6.50083H20.6157V7.12662C20.6157 7.37527 20.7144 7.61373 20.8903 7.78955C21.0661 7.96537 21.3045 8.06414 21.5532 8.06414H22.8409C23.0895 8.06414 23.328 7.96537 23.5038 7.78955C23.6796 7.61373 23.7784 7.37527 23.7784 7.12662V6.50083H25.4711C25.6009 6.50083 25.7254 6.55238 25.8173 6.64414C25.9091 6.7359 25.9608 6.86038 25.9609 6.99022V6.99068Z"/>
</mask>
<path d="M25.4711 5.56331H23.7681V4.93752C23.7681 4.68887 23.6693 4.45041 23.4935 4.27459C23.3177 4.09877 23.0792 4 22.8305 4H21.5429C21.2942 4 21.0558 4.09877 20.8799 4.27459C20.7041 4.45041 20.6053 4.68887 20.6053 4.93752V5.56331H16.4751V4.93752C16.4751 4.68887 16.3763 4.45041 16.2005 4.27459C16.0247 4.09877 15.7862 4 15.5376 4H14.2499C14.0013 4 13.7628 4.09877 13.587 4.27459C13.4112 4.45041 13.3124 4.68887 13.3124 4.93752V5.56331H9.18169V4.93752C9.18169 4.68887 9.08291 4.45041 8.90709 4.27459C8.73127 4.09877 8.49281 4 8.24417 4H6.96445C6.71581 4 6.47735 4.09877 6.30153 4.27459C6.12571 4.45041 6.02694 4.68887 6.02694 4.93752V5.56331H4.32534C4.13792 5.56331 3.95233 5.60024 3.77918 5.67197C3.60603 5.74371 3.44871 5.84886 3.3162 5.98141C3.18369 6.11396 3.0786 6.27131 3.00692 6.44449C2.93524 6.61766 2.89838 6.80326 2.89844 6.99068V22.3922C2.89838 22.5797 2.93524 22.7653 3.00692 22.9384C3.0786 23.1116 3.18369 23.269 3.3162 23.4015C3.44871 23.5341 3.60603 23.6392 3.77918 23.7109C3.95233 23.7827 4.13792 23.8196 4.32534 23.8196H25.4711C25.6585 23.8196 25.8441 23.7827 26.0173 23.711C26.1905 23.6392 26.3478 23.5341 26.4804 23.4015C26.6129 23.269 26.7181 23.1116 26.7898 22.9385C26.8615 22.7653 26.8984 22.5797 26.8984 22.3922V6.99068C26.8984 6.80324 26.8615 6.61763 26.7898 6.44445C26.7181 6.27128 26.6129 6.11392 26.4804 5.98138C26.3478 5.84884 26.1905 5.7437 26.0173 5.67196C25.8441 5.60023 25.6585 5.56331 25.4711 5.56331ZM21.5461 4.93939H22.8305V6.01754C22.8305 6.02316 22.8305 6.02832 22.8305 6.03395C22.8305 6.03957 22.8305 6.04567 22.8305 6.05129V7.12944H21.5443L21.5461 4.93939ZM14.2565 4.93939H15.5404V6.01754C15.5404 6.02316 15.5404 6.02832 15.5404 6.03395C15.5404 6.03957 15.5404 6.04567 15.5404 6.05129V7.12944H14.2541L14.2565 4.93939ZM6.96633 4.93939H8.25026V6.01754C8.25026 6.0227 8.25026 6.02832 8.25026 6.03348C8.25026 6.03863 8.25026 6.04473 8.25026 6.05035V7.1285H6.96399L6.96633 4.93939ZM25.9609 22.3922C25.9609 22.5222 25.9093 22.6468 25.8174 22.7386C25.7256 22.8305 25.601 22.8821 25.4711 22.8821H4.32534C4.26103 22.8821 4.19736 22.8694 4.13795 22.8448C4.07855 22.8202 4.02458 22.7841 3.97913 22.7386C3.93368 22.6931 3.89764 22.6391 3.87307 22.5797C3.84851 22.5202 3.83589 22.4565 3.83596 22.3922V10.0986H25.9614L25.9609 22.3922ZM25.9609 6.99068V9.16104H3.83549V6.99068C3.83543 6.92638 3.84804 6.86269 3.8726 6.80326C3.89717 6.74383 3.93321 6.68983 3.97866 6.64433C4.02411 6.59884 4.07808 6.56275 4.13748 6.53813C4.19689 6.5135 4.26057 6.50083 4.32487 6.50083H6.02834V7.12662C6.02834 7.37527 6.12712 7.61373 6.30294 7.78955C6.47875 7.96537 6.71721 8.06414 6.96586 8.06414H8.25401C8.50265 8.06414 8.74112 7.96537 8.91694 7.78955C9.09276 7.61373 9.19153 7.37527 9.19153 7.12662V6.50083H13.3222V7.12662C13.3222 7.37527 13.421 7.61373 13.5968 7.78955C13.7726 7.96537 14.0111 8.06414 14.2598 8.06414H15.5479C15.7966 8.06414 16.035 7.96537 16.2108 7.78955C16.3867 7.61373 16.4854 7.37527 16.4854 7.12662V6.50083H20.6157V7.12662C20.6157 7.37527 20.7144 7.61373 20.8903 7.78955C21.0661 7.96537 21.3045 8.06414 21.5532 8.06414H22.8409C23.0895 8.06414 23.328 7.96537 23.5038 7.78955C23.6796 7.61373 23.7784 7.37527 23.7784 7.12662V6.50083H25.4711C25.6009 6.50083 25.7254 6.55238 25.8173 6.64414C25.9091 6.7359 25.9608 6.86038 25.9609 6.99022V6.99068Z" fill="current"/>
<path d="M25.4711 5.56331H23.7681V4.93752C23.7681 4.68887 23.6693 4.45041 23.4935 4.27459C23.3177 4.09877 23.0792 4 22.8305 4H21.5429C21.2942 4 21.0558 4.09877 20.8799 4.27459C20.7041 4.45041 20.6053 4.68887 20.6053 4.93752V5.56331H16.4751V4.93752C16.4751 4.68887 16.3763 4.45041 16.2005 4.27459C16.0247 4.09877 15.7862 4 15.5376 4H14.2499C14.0013 4 13.7628 4.09877 13.587 4.27459C13.4112 4.45041 13.3124 4.68887 13.3124 4.93752V5.56331H9.18169V4.93752C9.18169 4.68887 9.08291 4.45041 8.90709 4.27459C8.73127 4.09877 8.49281 4 8.24417 4H6.96445C6.71581 4 6.47735 4.09877 6.30153 4.27459C6.12571 4.45041 6.02694 4.68887 6.02694 4.93752V5.56331H4.32534C4.13792 5.56331 3.95233 5.60024 3.77918 5.67197C3.60603 5.74371 3.44871 5.84886 3.3162 5.98141C3.18369 6.11396 3.0786 6.27131 3.00692 6.44449C2.93524 6.61766 2.89838 6.80326 2.89844 6.99068V22.3922C2.89838 22.5797 2.93524 22.7653 3.00692 22.9384C3.0786 23.1116 3.18369 23.269 3.3162 23.4015C3.44871 23.5341 3.60603 23.6392 3.77918 23.7109C3.95233 23.7827 4.13792 23.8196 4.32534 23.8196H25.4711C25.6585 23.8196 25.8441 23.7827 26.0173 23.711C26.1905 23.6392 26.3478 23.5341 26.4804 23.4015C26.6129 23.269 26.7181 23.1116 26.7898 22.9385C26.8615 22.7653 26.8984 22.5797 26.8984 22.3922V6.99068C26.8984 6.80324 26.8615 6.61763 26.7898 6.44445C26.7181 6.27128 26.6129 6.11392 26.4804 5.98138C26.3478 5.84884 26.1905 5.7437 26.0173 5.67196C25.8441 5.60023 25.6585 5.56331 25.4711 5.56331ZM21.5461 4.93939H22.8305V6.01754C22.8305 6.02316 22.8305 6.02832 22.8305 6.03395C22.8305 6.03957 22.8305 6.04567 22.8305 6.05129V7.12944H21.5443L21.5461 4.93939ZM14.2565 4.93939H15.5404V6.01754C15.5404 6.02316 15.5404 6.02832 15.5404 6.03395C15.5404 6.03957 15.5404 6.04567 15.5404 6.05129V7.12944H14.2541L14.2565 4.93939ZM6.96633 4.93939H8.25026V6.01754C8.25026 6.0227 8.25026 6.02832 8.25026 6.03348C8.25026 6.03863 8.25026 6.04473 8.25026 6.05035V7.1285H6.96399L6.96633 4.93939ZM25.9609 22.3922C25.9609 22.5222 25.9093 22.6468 25.8174 22.7386C25.7256 22.8305 25.601 22.8821 25.4711 22.8821H4.32534C4.26103 22.8821 4.19736 22.8694 4.13795 22.8448C4.07855 22.8202 4.02458 22.7841 3.97913 22.7386C3.93368 22.6931 3.89764 22.6391 3.87307 22.5797C3.84851 22.5202 3.83589 22.4565 3.83596 22.3922V10.0986H25.9614L25.9609 22.3922ZM25.9609 6.99068V9.16104H3.83549V6.99068C3.83543 6.92638 3.84804 6.86269 3.8726 6.80326C3.89717 6.74383 3.93321 6.68983 3.97866 6.64433C4.02411 6.59884 4.07808 6.56275 4.13748 6.53813C4.19689 6.5135 4.26057 6.50083 4.32487 6.50083H6.02834V7.12662C6.02834 7.37527 6.12712 7.61373 6.30294 7.78955C6.47875 7.96537 6.71721 8.06414 6.96586 8.06414H8.25401C8.50265 8.06414 8.74112 7.96537 8.91694 7.78955C9.09276 7.61373 9.19153 7.37527 9.19153 7.12662V6.50083H13.3222V7.12662C13.3222 7.37527 13.421 7.61373 13.5968 7.78955C13.7726 7.96537 14.0111 8.06414 14.2598 8.06414H15.5479C15.7966 8.06414 16.035 7.96537 16.2108 7.78955C16.3867 7.61373 16.4854 7.37527 16.4854 7.12662V6.50083H20.6157V7.12662C20.6157 7.37527 20.7144 7.61373 20.8903 7.78955C21.0661 7.96537 21.3045 8.06414 21.5532 8.06414H22.8409C23.0895 8.06414 23.328 7.96537 23.5038 7.78955C23.6796 7.61373 23.7784 7.37527 23.7784 7.12662V6.50083H25.4711C25.6009 6.50083 25.7254 6.55238 25.8173 6.64414C25.9091 6.7359 25.9608 6.86038 25.9609 6.99022V6.99068Z" mask="url(#path-6-outside-1_390_34599)"/>
<rect x="6.76576" y="13.443" width="16.4174" height="1.86238" rx="0.931189" fill="current"/>
<rect x="6.76576" y="17.4684" width="16.4174" height="1.86238" rx="0.931189" fill="current"/>
</g>
<defs>
<clipPath id="clip0_390_34599">
<rect width="28" height="28" fill="white" transform="translate(0.899414)"/>
</clipPath>
</defs>
</svg>
