<svg width="88" height="30" viewBox="0 0 88 30" fill="none" xmlns="http://www.w3.org/2000/svg">
<path d="M88 4.04297H85.6245V16.5826H88V4.04297Z" fill="#006EB7"/>
<path d="M82.8754 8.125H80.4978V13.2877H82.8754V8.125Z" fill="#ED1A3B"/>
<path d="M77.507 0.919922H75.1294V11.4088H77.507V0.919922Z" fill="#F7941D"/>
<path d="M2.07401 27.9542C0.736624 26.7272 0 24.91 0 22.8381C0.0212283 18.3844 3.35196 15.5059 8.48497 15.5059C10.2703 15.5059 11.6544 15.8073 12.4441 16.1109C12.3591 16.4208 11.9367 17.962 11.8369 18.3186C10.8838 17.945 9.83085 17.7646 8.46162 17.7646C5.19882 17.7646 3.17152 19.6411 3.17152 22.6662C3.17152 25.6827 5.15 27.6336 8.21113 27.6336C8.95836 27.6336 9.64828 27.5508 9.96883 27.4256L10.1111 27.3704V23.9484C10.1111 23.9484 8.12197 23.9484 7.75896 23.9484C7.75896 23.613 7.75896 22.1758 7.75896 21.8404C8.15169 21.8404 12.5927 21.8404 12.9896 21.8404C12.9896 22.2501 12.9896 28.7545 12.9896 29.0687C11.7775 29.4444 9.91576 29.8307 8.12197 29.8307C5.44932 29.8307 3.47084 29.2151 2.07401 27.9542Z" fill="white"/>
<path d="M20.7293 29.7158C17.3498 29.7158 15.3416 27.2809 15.3416 24.1837C15.3416 20.9251 17.5514 18.4902 20.9161 18.4902C24.4337 18.4902 26.3548 20.9909 26.3548 23.9905C26.3548 27.5696 24.094 29.7158 20.7463 29.7158H20.7293ZM20.8482 27.7649C22.5995 27.7649 23.6015 26.2004 23.6015 24.0712C23.6015 22.1203 22.6335 20.4411 20.8482 20.4411C19.0629 20.4411 18.0609 22.0863 18.0609 24.1179C18.0609 26.1664 19.099 27.7628 20.8333 27.7628H20.8482V27.7649Z" fill="white"/>
<path d="M28.9128 18.8477H31.4963V27.6532H36.7249V29.7166H28.9128V18.8477Z" fill="white"/>
<path d="M39.3679 18.8477H47.3646V20.8643H41.9514V23.3459H47.0738V25.3457H41.9514V29.7166H39.3679V18.8477V18.8477Z" fill="white"/>
<path d="M49.1904 28.3932L54.6461 20.9272V20.8784H49.6829V18.8447H57.9938V20.2649L52.657 27.6205V27.6842H58.0787V29.7158H49.1904V28.3932V28.3932Z" fill="white"/>
<path d="M65.1243 29.7158C61.7405 29.7158 59.7366 27.2809 59.7366 24.1837C59.7366 20.9251 61.9464 18.4902 65.3111 18.4902C68.8287 18.4902 70.7498 20.9909 70.7498 23.9905C70.7498 27.5696 68.489 29.7158 65.1413 29.7158H65.1243ZM65.2432 27.7649C66.9945 27.7649 67.9965 26.2004 67.9965 24.0712C67.9965 22.1203 67.0264 20.4411 65.2432 20.4411C63.4579 20.4411 62.4559 22.0863 62.4559 24.1179C62.4559 26.1664 63.494 27.7628 65.2262 27.7628H65.2432V27.7649Z" fill="white"/>
<path d="M73.0703 29.7161V18.8472H76.0975L80.4663 26.5574H80.5002V15.3467H82.8757V29.7183H79.9568L75.3991 21.6876H75.416L75.4139 29.7183H73.0703V29.7161Z" fill="white"/>
</svg>
