<svg width="14" height="14" viewBox="0 0 14 14" fill="none" xmlns="http://www.w3.org/2000/svg">
<path d="M6.44801 1.10997C6.6188 0.699319 7.20053 0.699318 7.37133 1.10996L8.90841 4.80556C8.98042 4.97868 9.14322 5.09696 9.33012 5.11194L13.3198 5.4318C13.7631 5.46734 13.9429 6.02059 13.6051 6.30993L10.5654 8.91378C10.423 9.03576 10.3608 9.22715 10.4043 9.40952L11.333 13.3028C11.4362 13.7354 10.9656 14.0773 10.586 13.8455L7.1703 11.7592C7.01029 11.6615 6.80905 11.6615 6.64904 11.7592L3.2333 13.8455C2.85375 14.0773 2.38312 13.7354 2.48632 13.3028L3.415 9.40952C3.45851 9.22715 3.39632 9.03576 3.25393 8.91378L0.214195 6.30993C-0.123574 6.02059 0.0561882 5.46734 0.499515 5.4318L4.48922 5.11194C4.67611 5.09696 4.83892 4.97868 4.91092 4.80556L6.44801 1.10997Z" fill="current"/>
</svg>
