<svg width="24" height="24" viewBox="0 0 24 24" fill="none" xmlns="http://www.w3.org/2000/svg">
<path d="M7.08984 3.28669L13.8641 6.23824L7.08984 9.1898V3.28669Z" fill="white" stroke="white"/>
<path d="M21.0821 19.1766C21.0821 19.5127 20.9045 19.891 20.456 20.2933C20.0077 20.6953 19.3309 21.0803 18.4518 21.4138C16.6972 22.0795 14.2395 22.5017 11.5001 22.5017C8.76061 22.5017 6.30293 22.0795 4.5483 21.4138C3.66923 21.0803 2.99237 20.6953 2.54413 20.2933C2.09565 19.891 1.91797 19.5127 1.91797 19.1766C1.91797 18.8405 2.09565 18.4622 2.54413 18.0599C2.99237 17.6579 3.66923 17.2729 4.5483 16.9394C6.30293 16.2737 8.76061 15.8516 11.5001 15.8516C14.2395 15.8516 16.6972 16.2737 18.4518 16.9394C19.3309 17.2729 20.0077 17.6579 20.456 18.0599C20.9045 18.4622 21.0821 18.8405 21.0821 19.1766Z" stroke="white"/>
<path d="M7.5918 2.38084V18.1025C7.5918 18.3855 7.37482 18.6231 7.0918 18.6231C6.80877 18.6231 6.5918 18.3855 6.5918 18.1025V2.38084C6.5918 2.17372 6.81987 2 7.0918 2C7.3725 1.99933 7.5918 2.17305 7.5918 2.38084Z" fill="white"/>
<path d="M12.1278 19.2556C12.7507 19.2556 13.2556 18.7507 13.2556 18.1278C13.2556 17.5049 12.7507 17 12.1278 17C11.5049 17 11 17.5049 11 18.1278C11 18.7507 11.5049 19.2556 12.1278 19.2556Z" fill="white"/>
</svg>
