<svg width="49" height="22" viewBox="0 0 49 22" fill="none" xmlns="http://www.w3.org/2000/svg">
<path fill-rule="evenodd" clip-rule="evenodd" d="M0 20V2H48.971L46.0749 11L48.971 20H0Z" fill="url(#paint0_linear_1792_30007)"/>
<rect width="9.71429" height="22" transform="matrix(-1 0 0 1 9.71423 0)" fill="url(#paint1_linear_1792_30007)"/>
<path d="M11.6261 14.999C11.9857 14.999 12.2956 14.9578 12.5556 14.8755C12.8156 14.7932 13.0279 14.6783 13.1926 14.531C13.3616 14.3793 13.4851 14.2017 13.5631 13.998C13.6411 13.79 13.6801 13.5625 13.6801 13.3155C13.6801 12.8345 13.5089 12.4553 13.1666 12.178C12.8242 11.8963 12.3107 11.7555 11.6261 11.7555H9.61106V14.999H11.6261ZM9.61106 7.68V10.8585H11.2751C11.6304 10.8585 11.9381 10.8195 12.1981 10.7415C12.4624 10.6635 12.6791 10.5552 12.8481 10.4165C13.0214 10.2778 13.1492 10.111 13.2316 9.916C13.3139 9.71667 13.3551 9.5 13.3551 9.266C13.3551 8.71567 13.1904 8.31483 12.8611 8.0635C12.5317 7.80783 12.0204 7.68 11.3271 7.68H9.61106ZM11.3271 6.6855C11.8991 6.6855 12.3909 6.74183 12.8026 6.8545C13.2186 6.96717 13.5587 7.1275 13.8231 7.3355C14.0917 7.5435 14.2889 7.79917 14.4146 8.1025C14.5402 8.4015 14.6031 8.7395 14.6031 9.1165C14.6031 9.34617 14.5662 9.56717 14.4926 9.7795C14.4232 9.9875 14.3171 10.1825 14.1741 10.3645C14.0311 10.5465 13.8491 10.7112 13.6281 10.8585C13.4114 11.0015 13.1557 11.1185 12.8611 11.2095C13.5457 11.3395 14.0592 11.5843 14.4016 11.944C14.7482 12.2993 14.9216 12.7673 14.9216 13.348C14.9216 13.7423 14.8479 14.102 14.7006 14.427C14.5576 14.752 14.3452 15.0315 14.0636 15.2655C13.7862 15.4995 13.4439 15.6815 13.0366 15.8115C12.6292 15.9372 12.1656 16 11.6456 16H8.35656V6.6855H11.3271ZM22.6369 14.973L22.6304 16H16.8909V6.6855H22.6304V7.7125H18.1519V10.8065H21.7789V11.7945H18.1519V14.973H22.6369ZM29.2883 8.1415C29.2493 8.2065 29.206 8.25633 29.1583 8.291C29.115 8.32133 29.0608 8.3365 28.9958 8.3365C28.9221 8.3365 28.8355 8.29967 28.7358 8.226C28.6361 8.15233 28.5105 8.07217 28.3588 7.9855C28.2115 7.8945 28.0316 7.81217 27.8193 7.7385C27.6113 7.66483 27.3578 7.628 27.0588 7.628C26.7771 7.628 26.528 7.667 26.3113 7.745C26.099 7.81867 25.9191 7.9205 25.7718 8.0505C25.6288 8.1805 25.5205 8.33433 25.4468 8.512C25.3731 8.68533 25.3363 8.87383 25.3363 9.0775C25.3363 9.3375 25.3991 9.55417 25.5248 9.7275C25.6548 9.8965 25.8238 10.0417 26.0318 10.163C26.2441 10.2843 26.4825 10.3905 26.7468 10.4815C27.0155 10.5682 27.2885 10.6592 27.5658 10.7545C27.8475 10.8498 28.1205 10.9582 28.3848 11.0795C28.6535 11.1965 28.8918 11.346 29.0998 11.528C29.3121 11.71 29.4811 11.9332 29.6068 12.1975C29.7368 12.4618 29.8018 12.7868 29.8018 13.1725C29.8018 13.5798 29.7325 13.9633 29.5938 14.323C29.4551 14.6783 29.2515 14.9882 28.9828 15.2525C28.7185 15.5168 28.3913 15.7248 28.0013 15.8765C27.6156 16.0282 27.1758 16.104 26.6818 16.104C26.0751 16.104 25.5248 15.9957 25.0308 15.779C24.5368 15.558 24.1143 15.2612 23.7633 14.8885L24.1273 14.2905C24.162 14.2428 24.2031 14.2038 24.2508 14.1735C24.3028 14.1388 24.3591 14.1215 24.4198 14.1215C24.4761 14.1215 24.539 14.1453 24.6083 14.193C24.682 14.2363 24.7643 14.2927 24.8553 14.362C24.9463 14.4313 25.0503 14.5072 25.1673 14.5895C25.2843 14.6718 25.4165 14.7477 25.5638 14.817C25.7155 14.8863 25.8866 14.9448 26.0773 14.9925C26.268 15.0358 26.4825 15.0575 26.7208 15.0575C27.0198 15.0575 27.2863 15.0163 27.5203 14.934C27.7543 14.8517 27.9515 14.7368 28.1118 14.5895C28.2765 14.4378 28.4021 14.258 28.4888 14.05C28.5755 13.842 28.6188 13.6102 28.6188 13.3545C28.6188 13.0728 28.5538 12.8432 28.4238 12.6655C28.2981 12.4835 28.1313 12.3318 27.9233 12.2105C27.7153 12.0892 27.477 11.9873 27.2083 11.905C26.9396 11.8183 26.6666 11.7317 26.3893 11.645C26.112 11.554 25.839 11.45 25.5703 11.333C25.3016 11.216 25.0633 11.0643 24.8553 10.878C24.6473 10.6917 24.4783 10.4598 24.3483 10.1825C24.2226 9.90083 24.1598 9.55417 24.1598 9.1425C24.1598 8.81317 24.2226 8.49467 24.3483 8.187C24.4783 7.87933 24.6646 7.60633 24.9073 7.368C25.1543 7.12967 25.4555 6.939 25.8108 6.796C26.1705 6.653 26.5821 6.5815 27.0458 6.5815C27.5658 6.5815 28.0381 6.66383 28.4628 6.8285C28.8918 6.99317 29.2688 7.2315 29.5938 7.5435L29.2883 8.1415ZM38.0109 7.745H34.9949V16H33.7404V7.745H30.7179V6.6855H38.0109V7.745Z" fill="white"/>
<defs>
<linearGradient id="paint0_linear_1792_30007" x1="82.5017" y1="10.813" x2="68.5856" y2="46.6403" gradientUnits="userSpaceOnUse">
<stop stop-color="#FFDF1A"/>
<stop offset="0.547086" stop-color="#FFA82D"/>
<stop offset="1" stop-color="#FF8838"/>
</linearGradient>
<linearGradient id="paint1_linear_1792_30007" x1="6.04548" y1="14.7968" x2="9.71429" y2="14.7968" gradientUnits="userSpaceOnUse">
<stop stop-opacity="0.01"/>
<stop offset="0.366792" stop-opacity="0.0703671"/>
<stop offset="0.84982" stop-opacity="0.222684"/>
<stop offset="1" stop-color="#3E3E3E" stop-opacity="0.416767"/>
</linearGradient>
</defs>
</svg>
