<svg width="40" height="40" viewBox="0 0 40 40" fill="none" xmlns="http://www.w3.org/2000/svg">
<circle cx="20" cy="20" r="20" fill="#F2F2F2"/>
<path d="M22.5738 13.2462C23.2263 12.405 23.7201 11.215 23.5413 10C22.4751 10.0737 21.2288 10.7562 20.5026 11.645C19.8401 12.4512 19.2951 13.6487 19.5076 14.8125C20.6726 14.8487 21.8763 14.15 22.5738 13.2462Z" fill="#A3A3AC"/>
<path d="M27.7544 16.7084C26.7307 15.4247 25.2919 14.6797 23.9332 14.6797C22.1395 14.6797 21.3807 15.5384 20.1345 15.5384C18.8495 15.5384 17.8732 14.6822 16.322 14.6822C14.7983 14.6822 13.1758 15.6134 12.147 17.2059C10.7008 19.4484 10.9483 23.6646 13.292 27.2558C14.1308 28.5408 15.2508 29.9858 16.7157 29.9983C18.0195 30.0108 18.387 29.1621 20.1532 29.1533C21.9195 29.1433 22.2545 30.0096 23.5557 29.9958C25.0219 29.9846 26.2032 28.3833 27.0419 27.0983C27.6432 26.1771 27.8669 25.7134 28.3332 24.6734C24.9419 23.3821 24.3982 18.5597 27.7544 16.7084Z" fill="#A3A3AC"/>
</svg>
