<svg width="24" height="24" viewBox="0 0 24 24" fill="none" xmlns="http://www.w3.org/2000/svg">
<ellipse opacity="0.4" cx="10.5" cy="20.5" rx="9.5" ry="3.5" fill="white"/>
<path d="M21.8409 2.32287C21.9429 2.36775 21.9893 2.48681 21.9445 2.58888L17.4114 12.9024L16.846 14.1881C16.4951 14.0233 16.1437 13.8597 15.7908 13.6985L16.3436 12.4406L20.8795 2.12068C20.9243 2.01861 21.0435 1.97225 21.1455 2.01713L21.8409 2.32287Z" fill="#2E2A23"/>
<path d="M17.4114 12.9022L16.846 14.1879C16.4951 14.0231 16.1437 13.8595 15.7908 13.6984L16.3436 12.4404L17.4114 12.9022Z" fill="#D2D2D2"/>
<path d="M17.3391 13.6627L17.0735 14.2667L16.5727 15.4062L14.745 19.564C14.0942 21.0443 12.6304 22 11.0135 22H6.67318C4.85073 22 3.24992 20.7904 2.75187 19.0377L2.07336 16.648C1.76352 15.558 2.46703 14.4411 3.58355 14.2469C4.56589 14.0761 5.76178 13.9205 6.85654 13.9205C8.47833 13.9205 11.2602 15.0496 12.9226 15.7962C13.6837 16.1382 14.577 15.7941 14.9127 15.0302L15.0388 14.7433L15.5401 13.6034L15.8064 12.9974C15.8511 12.8963 15.9692 12.8495 16.0707 12.8935L17.2344 13.3967C17.337 13.4411 17.3838 13.5604 17.3391 13.6627Z" fill="#7E7E7E"/>
<path d="M17.3369 13.6627L17.0714 14.2667L16.5705 15.4062L14.7428 19.564C14.0921 21.0443 12.6283 22.0001 11.0113 22.0001H6.67101C5.43321 22.0001 4.29735 21.442 3.54028 20.5346C4.24176 21.0882 5.12418 21.411 6.06543 21.411H10.4058C12.0227 21.411 13.4865 20.4552 14.1373 18.9749L15.8441 15.0923L16.3449 13.9524L16.6918 13.1631L17.2322 13.3968C17.3349 13.4411 17.3816 13.5604 17.3369 13.6627Z" fill="#2E2A23"/>
<path d="M17.0704 14.2658L16.5696 15.4052L15.0356 14.7424L15.5369 13.6025L17.0704 14.2658Z" fill="#D4F2F6"/>
<path d="M17.074 14.2664L16.5732 15.4059L15.8467 15.092L16.3475 13.9521L17.074 14.2664Z" fill="#A8E7EF"/>
<path d="M13.1893 19.0014C12.9754 19.4882 12.6277 19.8887 12.2005 20.1675C11.7738 20.4463 11.267 20.6035 10.7355 20.6035H6.6744C6.5096 20.6035 6.34764 20.5882 6.18967 20.5588C5.20331 20.3758 4.37652 19.6441 4.09605 18.6553L3.45258 16.3905C3.35023 16.0302 3.58433 15.6616 3.95382 15.5991C4.05375 15.5822 4.15527 15.5657 4.25886 15.5491C5.08003 15.4202 6.00878 15.3154 6.85776 15.3154C7.65072 15.3154 9.11415 15.7309 10.9112 16.4541C11.3718 16.6394 11.8537 16.845 12.3521 17.0685C12.3625 17.0734 12.3734 17.0782 12.3851 17.0826C13.149 17.3849 13.5197 18.2496 13.1893 19.0014Z" fill="#FFD540"/>
<path d="M11.6287 18.3838C11.6117 18.3838 11.5944 18.3824 11.5771 18.3794L9.23152 17.9762C9.06672 17.9479 8.95605 17.7913 8.98441 17.6265C9.01277 17.4617 9.16949 17.3512 9.3341 17.3794L11.6796 17.7826C11.8444 17.8109 11.9551 17.9675 11.9267 18.1323C11.9014 18.2797 11.7734 18.3838 11.6287 18.3838Z" fill="#F8F8F8"/>
<path d="M11.4036 19.5584C11.3864 19.5584 11.3689 19.5569 11.3513 19.5538L8.31557 19.0249C8.15081 18.9962 8.04053 18.8394 8.06924 18.6747C8.09795 18.5099 8.25475 18.3997 8.41948 18.4283L11.4552 18.9572C11.62 18.986 11.7303 19.1428 11.7016 19.3075C11.6759 19.4546 11.548 19.5584 11.4036 19.5584Z" fill="#F8F8F8"/>
<path d="M13.1919 19.0021C12.978 19.4888 12.6302 19.8893 12.2031 20.1682C11.7764 20.447 11.2695 20.6041 10.7381 20.6041H6.67698C5.76234 20.6041 4.92504 20.1327 4.4375 19.395C4.90289 19.7693 5.49156 19.9893 6.11609 19.9893H10.1772C10.7087 19.9893 11.2156 19.8321 11.6422 19.5533C12.0693 19.2745 12.4171 18.874 12.631 18.3872C12.8067 17.9871 12.7841 17.5556 12.6093 17.1934C13.2201 17.5612 13.4885 18.3271 13.1919 19.0021Z" fill="#DC9E00"/>
<path d="M8.7803 18.7977C8.7803 18.8845 8.77827 18.9713 8.77319 19.0581C8.75898 19.3409 8.71987 19.6221 8.65796 19.8988L8.18429 21.9996H7.04914L6.57547 19.8989C6.51352 19.6222 6.47445 19.3409 6.46023 19.0582C6.45516 18.9714 6.45312 18.8845 6.45312 18.7977C6.45312 18.5175 6.68055 18.29 6.96082 18.29H8.27265C8.55288 18.29 8.7803 18.5175 8.7803 18.7977Z" fill="#FFD540"/>
<path d="M8.7803 18.7977C8.7803 18.8845 8.77827 18.9714 8.77319 19.0582C8.4112 19.1856 8.02183 19.2546 7.61671 19.2546C7.2116 19.2546 6.82219 19.1856 6.46023 19.0582C6.45516 18.9714 6.45312 18.8845 6.45312 18.7977C6.45312 18.5175 6.68055 18.29 6.96082 18.29H8.27265C8.55288 18.29 8.7803 18.5175 8.7803 18.7977Z" fill="#DC9E00"/>
<path d="M8.78038 18.7977C8.78038 19.1684 8.73925 19.5374 8.65804 19.8989L8.18437 21.9997H7.37207L7.84574 19.8989C7.92695 19.5374 7.96808 19.1684 7.96808 18.7977C7.96808 18.5175 7.74066 18.29 7.46039 18.29H8.27269C8.55296 18.29 8.78038 18.5175 8.78038 18.7977Z" fill="#DC9E00"/>
<path d="M7.61792 18.5952C9.1878 18.5952 10.4604 17.3226 10.4604 15.7527C10.4604 14.1828 9.1878 12.9102 7.61792 12.9102C6.04803 12.9102 4.77539 14.1828 4.77539 15.7527C4.77539 17.3226 6.04803 18.5952 7.61792 18.5952Z" fill="#F8F8F8"/>
<path d="M10.4094 16.2786C10.1186 17.8212 8.63214 18.8362 7.08957 18.5454C6.41305 18.4179 5.83786 18.06 5.42993 17.5683C5.65501 17.6789 5.89837 17.7609 6.15676 17.8096C7.69934 18.1004 9.18581 17.0854 9.47656 15.5428C9.6398 14.6767 9.39152 13.8286 8.86937 13.2002C9.98827 13.7489 10.6514 14.9945 10.4094 16.2786Z" fill="#D2D2D2"/>
</svg>
