<svg width="27" height="32" viewBox="0 0 27 32" fill="none" xmlns="http://www.w3.org/2000/svg">
<path d="M17.1412 31.6449C15.5608 31.6449 14.3615 30.9527 14.0114 29.8384L9.98915 16.7181L9.98286 16.6925C9.95042 16.5626 9.91064 16.403 9.91064 16.218C9.91064 14.6986 11.7628 13.8582 13.043 13.8582C14.083 13.8582 14.8467 14.3583 15.086 15.196L17.1378 22.7142L19.1751 15.196C19.4144 14.3583 20.1781 13.8582 21.218 13.8582C22.4983 13.8582 24.3503 14.6986 24.3503 16.218C24.3503 16.4043 24.3085 16.5716 24.2779 16.6937L24.2719 16.7179L20.2737 29.8304C19.9209 30.9527 18.7216 31.6449 17.1412 31.6449Z" fill="url(#paint0_linear_3192_30492)"/>
<path d="M17.1412 31.6449C15.5608 31.6449 14.3615 30.9527 14.0114 29.8384L9.98915 16.7181L9.98286 16.6925C9.95042 16.5626 9.91064 16.403 9.91064 16.218C9.91064 14.6986 11.7628 13.8582 13.043 13.8582C14.083 13.8582 14.8467 14.3583 15.086 15.196L17.1378 22.7142L19.1751 15.196C19.4144 14.3583 20.1781 13.8582 21.218 13.8582C22.4983 13.8582 24.3503 14.6986 24.3503 16.218C24.3503 16.4043 24.3085 16.5716 24.2779 16.6937L24.2719 16.7179L20.2737 29.8304C19.9209 30.9527 18.7216 31.6449 17.1412 31.6449Z" fill="url(#paint1_linear_3192_30492)"/>
<path d="M17.0052 22.2282L15.086 15.1959C14.8467 14.3582 14.083 13.8581 13.043 13.8581C11.7628 13.8581 9.91064 14.6985 9.91064 16.2179C9.91064 16.4029 9.95042 16.5625 9.98286 16.6924L9.98915 16.718L12.7726 25.7976H17.0052V22.2282Z" fill="url(#paint2_linear_3192_30492)"/>
<path d="M4.52432 31.5162C3.10718 31.5162 2.07861 30.6681 2.07861 29.4996V15.8532C2.07861 14.6598 3.14773 13.858 4.73898 13.858C6.33022 13.858 7.39934 14.6598 7.39934 15.8532V26.6248H11.3047C12.436 26.6248 13.2569 27.6534 13.2569 29.0705C13.2569 30.4877 12.436 31.5162 11.3047 31.5162H4.52432Z" fill="url(#paint3_linear_3192_30492)"/>
<path d="M4.52432 31.5162C3.10718 31.5162 2.07861 30.6681 2.07861 29.4996V15.8532C2.07861 14.6598 3.14773 13.858 4.73898 13.858C6.33022 13.858 7.39934 14.6598 7.39934 15.8532V26.6248H11.3047C12.436 26.6248 13.2569 27.6534 13.2569 29.0705C13.2569 30.4877 12.436 31.5162 11.3047 31.5162H4.52432Z" fill="url(#paint4_linear_3192_30492)"/>
<path d="M7.39933 25.7647V15.8532C7.39933 14.6598 6.33022 13.858 4.73897 13.858C3.14773 13.858 2.07861 14.6598 2.07861 15.8532V25.7647H7.39933Z" fill="url(#paint5_linear_3192_30492)"/>
<path d="M15.5626 30.0663C13.9821 30.0663 12.7829 29.374 12.4327 28.2597L8.41054 15.1393L8.40424 15.1138C8.3718 14.9839 8.33203 14.8243 8.33203 14.6393C8.33203 13.1198 10.1842 12.2794 11.4644 12.2794C12.5044 12.2794 13.2681 12.7796 13.5074 13.6173L15.5592 21.1355L17.5964 13.6173C17.8358 12.7796 18.5995 12.2794 19.6394 12.2794C20.9197 12.2794 22.7717 13.1198 22.7717 14.6393C22.7717 14.8256 22.7299 14.9928 22.6993 15.1149L22.6933 15.1392L18.6951 28.2517C18.3423 29.374 17.143 30.0663 15.5626 30.0663Z" fill="url(#paint6_linear_3192_30492)"/>
<path d="M9.36148 14.8752C9.34009 14.7894 9.3186 14.7036 9.3186 14.6392C9.3186 13.8453 10.5416 13.266 11.4643 13.266C12.0007 13.266 12.4299 13.4376 12.5586 13.8882L15.5625 24.8954L18.5451 13.8882C18.6738 13.4376 19.1028 13.266 19.6394 13.266C20.562 13.266 21.7849 13.8453 21.7849 14.6392C21.7849 14.7036 21.7635 14.7894 21.742 14.8752L17.7511 27.9639C17.5151 28.7149 16.5495 29.0796 15.5625 29.0796C14.5754 29.0796 13.6099 28.7148 13.3738 27.9639L9.36148 14.8752Z" fill="url(#paint7_linear_3192_30492)"/>
<path d="M10.6294 22.3772L12.4328 28.2596C12.783 29.374 13.9822 30.0662 15.5627 30.0662C17.1431 30.0662 18.3423 29.3739 18.695 28.2516L20.4863 22.3772H10.6294Z" fill="url(#paint8_linear_3192_30492)"/>
<path d="M15.5627 30.0663C17.1431 30.0663 18.3423 29.374 18.695 28.2517L22.6932 15.1392L22.6993 15.1149C22.7298 14.9928 22.7717 14.8256 22.7717 14.6393C22.7717 13.1198 20.9196 12.2794 19.6394 12.2794C18.5994 12.2794 17.8357 12.7796 17.5964 13.6173L15.5591 21.1355L12.8875 29.0556C13.452 29.6932 14.4041 30.0663 15.5627 30.0663Z" fill="url(#paint9_linear_3192_30492)"/>
<path d="M2.94571 29.9376C1.52857 29.9376 0.5 29.0895 0.5 27.921V14.2745C0.5 13.0812 1.56911 12.2793 3.16036 12.2793C4.75161 12.2793 5.82064 13.0812 5.82064 14.2745V25.0461H9.72603C10.8573 25.0461 11.6782 26.0747 11.6782 27.4918C11.6782 28.909 10.8573 29.9376 9.72603 29.9376H2.94571Z" fill="url(#paint10_linear_3192_30492)"/>
<path d="M2.94565 28.9509C2.2162 28.9509 1.48657 28.6076 1.48657 27.921V14.2745C1.48657 13.5664 2.32343 13.2661 3.16021 13.2661C3.99699 13.2661 4.83394 13.5664 4.83394 14.2745V26.0328H9.72596C10.3697 26.0328 10.6915 26.7623 10.6915 27.4919C10.6915 28.2214 10.3697 28.9509 9.72596 28.9509H2.94565Z" fill="url(#paint11_linear_3192_30492)"/>
<path d="M0.5 22.4101V27.921C0.5 29.0895 1.52857 29.9376 2.94571 29.9376H9.72603C10.8573 29.9376 11.6782 28.909 11.6782 27.4919C11.6782 26.0747 10.8573 25.0461 9.72603 25.0461H5.82064V22.4101H0.5Z" fill="url(#paint12_linear_3192_30492)"/>
<path d="M9.72594 25.0461H5.82056V29.9376H9.72594C10.8572 29.9376 11.6782 28.909 11.6782 27.4919C11.6782 26.0747 10.8572 25.0461 9.72594 25.0461Z" fill="url(#paint13_linear_3192_30492)"/>
<path d="M23.7015 31.6449C25.1183 31.6449 26.2668 30.4964 26.2668 29.0796C26.2668 27.6629 25.1183 26.5144 23.7015 26.5144C22.2847 26.5144 21.1362 27.6629 21.1362 29.0796C21.1362 30.4964 22.2847 31.6449 23.7015 31.6449Z" fill="url(#paint14_linear_3192_30492)"/>
<path d="M23.7015 31.6449C25.1183 31.6449 26.2668 30.4964 26.2668 29.0796C26.2668 27.6629 25.1183 26.5144 23.7015 26.5144C22.2847 26.5144 21.1362 27.6629 21.1362 29.0796C21.1362 30.4964 22.2847 31.6449 23.7015 31.6449Z" fill="url(#paint15_linear_3192_30492)"/>
<path d="M22.3365 30.0663C23.7533 30.0663 24.9018 28.9178 24.9018 27.501C24.9018 26.0842 23.7533 24.9357 22.3365 24.9357C20.9198 24.9357 19.7712 26.0842 19.7712 27.501C19.7712 28.9178 20.9198 30.0663 22.3365 30.0663Z" fill="url(#paint16_linear_3192_30492)"/>
<path d="M22.3367 29.2112C23.2812 29.2112 24.0469 28.4455 24.0469 27.501C24.0469 26.5565 23.2812 25.7908 22.3367 25.7908C21.3922 25.7908 20.6265 26.5565 20.6265 27.501C20.6265 28.4455 21.3922 29.2112 22.3367 29.2112Z" fill="url(#paint17_linear_3192_30492)"/>
<path d="M19.7712 27.501C19.7712 28.9178 20.9197 30.0663 22.3365 30.0663C23.7533 30.0663 24.9018 28.9177 24.9018 27.501C24.9018 27.1941 24.8477 26.9 24.7489 26.6273H19.924C19.8253 26.8999 19.7712 27.1941 19.7712 27.501Z" fill="url(#paint18_linear_3192_30492)"/>
<path d="M20.5226 29.3149C21.5245 30.3167 23.1488 30.3167 24.1506 29.3149C25.1524 28.3131 25.1524 26.6888 24.1506 25.687C23.9336 25.47 23.6874 25.3002 23.4247 25.1773L20.0129 28.589C20.1359 28.8517 20.3057 29.0979 20.5226 29.3149Z" fill="url(#paint19_linear_3192_30492)"/>
<path d="M17.7428 3.71727L16.3519 0.855633C16.0273 0.187954 15.076 0.187954 14.7515 0.855633L13.3606 3.71727C12.9632 4.53481 11.8748 4.71003 11.241 4.05849L9.0049 1.76013C8.37691 1.11472 7.29744 1.70371 7.50036 2.58104L9.04812 9.27318H22.0551L23.6029 2.58104C23.8058 1.70362 22.7263 1.11463 22.0984 1.76013L19.8624 4.05849C19.2285 4.71003 18.1402 4.53481 17.7428 3.71727Z" fill="url(#paint20_linear_3192_30492)"/>
<path d="M9.08827 4.60435L9.49376 6.40749C9.55821 6.694 9.81263 6.89761 10.1064 6.89761H12.1362C12.5146 6.89761 12.6602 6.40464 12.3425 6.19896L9.469 4.33897C9.28049 4.21689 9.03901 4.3853 9.08827 4.60435Z" fill="url(#paint21_linear_3192_30492)"/>
<path d="M22.0151 4.60435L21.6096 6.40749C21.5451 6.694 21.2907 6.89761 20.9969 6.89761H18.9672C18.5888 6.89761 18.443 6.40464 18.7608 6.19896L21.6343 4.33897C21.8229 4.21689 22.0643 4.3853 22.0151 4.60435Z" fill="url(#paint22_linear_3192_30492)"/>
<path d="M15.2419 4.4745L14.0224 6.32224C13.8596 6.5689 14.0365 6.8976 14.3321 6.8976H16.7711C17.0666 6.8976 17.2435 6.5689 17.0807 6.32224L15.8612 4.4745C15.7146 4.25225 15.3886 4.25225 15.2419 4.4745Z" fill="url(#paint23_linear_3192_30492)"/>
<path d="M20.0866 3.82796L19.8624 4.0584C19.2587 4.67897 18.2439 4.54809 17.8054 3.82796H13.298C12.8595 4.54818 11.8448 4.67906 11.241 4.0584L11.0168 3.82796H7.78882L9.04817 9.27309H22.0552L23.3145 3.82796H20.0866Z" fill="url(#paint24_linear_3192_30492)"/>
<path d="M22.0984 1.76013L19.8624 4.05849C19.2285 4.71003 18.1401 4.53481 17.7428 3.71727L16.3518 0.855631C16.1615 0.464031 15.7559 0.303905 15.3872 0.371717V9.27318H22.0552L23.603 2.58103C23.8059 1.70362 22.7263 1.11463 22.0984 1.76013Z" fill="url(#paint25_linear_3192_30492)"/>
<path d="M22.4681 11.0635H8.63512C8.12455 11.0635 7.71069 10.6496 7.71069 10.139V9.33184C7.71069 8.82127 8.12455 8.40741 8.63512 8.40741H22.4681C22.9787 8.40741 23.3926 8.82127 23.3926 9.33184V10.139C23.3926 10.6496 22.9786 11.0635 22.4681 11.0635Z" fill="url(#paint26_linear_3192_30492)"/>
<path d="M22.4683 8.4075H15.782V11.0635H22.4683C22.9788 11.0635 23.3927 10.6497 23.3927 10.1391V9.33193C23.3927 8.82136 22.9787 8.4075 22.4683 8.4075Z" fill="url(#paint27_linear_3192_30492)"/>
<defs>
<linearGradient id="paint0_linear_3192_30492" x1="11.3083" y1="16.8843" x2="21.1749" y2="24.3171" gradientUnits="userSpaceOnUse">
<stop stop-color="#FEF0AE"/>
<stop offset="1" stop-color="#FAC600"/>
</linearGradient>
<linearGradient id="paint1_linear_3192_30492" x1="-5.7066" y1="-5.66586" x2="27.0012" y2="31.7779" gradientUnits="userSpaceOnUse">
<stop stop-color="#FEA613" stop-opacity="0"/>
<stop offset="0.2032" stop-color="#FDA215" stop-opacity="0.203"/>
<stop offset="0.4052" stop-color="#FB961B" stop-opacity="0.405"/>
<stop offset="0.6066" stop-color="#F68225" stop-opacity="0.607"/>
<stop offset="0.8066" stop-color="#F06633" stop-opacity="0.807"/>
<stop offset="1" stop-color="#E94444"/>
</linearGradient>
<linearGradient id="paint2_linear_3192_30492" x1="17.6771" y1="18.4383" x2="14.7171" y2="19.7867" gradientUnits="userSpaceOnUse">
<stop stop-color="#FEA613" stop-opacity="0"/>
<stop offset="0.2032" stop-color="#FDA215" stop-opacity="0.203"/>
<stop offset="0.4052" stop-color="#FB961B" stop-opacity="0.405"/>
<stop offset="0.6066" stop-color="#F68225" stop-opacity="0.607"/>
<stop offset="0.8066" stop-color="#F06633" stop-opacity="0.807"/>
<stop offset="1" stop-color="#E94444"/>
</linearGradient>
<linearGradient id="paint3_linear_3192_30492" x1="-4.70602" y1="8.90997" x2="10.1432" y2="30.5672" gradientUnits="userSpaceOnUse">
<stop stop-color="#FEF0AE"/>
<stop offset="1" stop-color="#FAC600"/>
</linearGradient>
<linearGradient id="paint4_linear_3192_30492" x1="-9.12664" y1="8.32374" x2="14.1092" y2="32.3982" gradientUnits="userSpaceOnUse">
<stop stop-color="#FEA613" stop-opacity="0"/>
<stop offset="0.2032" stop-color="#FDA215" stop-opacity="0.203"/>
<stop offset="0.4052" stop-color="#FB961B" stop-opacity="0.405"/>
<stop offset="0.6066" stop-color="#F68225" stop-opacity="0.607"/>
<stop offset="0.8066" stop-color="#F06633" stop-opacity="0.807"/>
<stop offset="1" stop-color="#E94444"/>
</linearGradient>
<linearGradient id="paint5_linear_3192_30492" x1="8.558" y1="19.5904" x2="4.70999" y2="19.9193" gradientUnits="userSpaceOnUse">
<stop stop-color="#FEA613" stop-opacity="0"/>
<stop offset="0.2032" stop-color="#FDA215" stop-opacity="0.203"/>
<stop offset="0.4052" stop-color="#FB961B" stop-opacity="0.405"/>
<stop offset="0.6066" stop-color="#F68225" stop-opacity="0.607"/>
<stop offset="0.8066" stop-color="#F06633" stop-opacity="0.807"/>
<stop offset="1" stop-color="#E94444"/>
</linearGradient>
<linearGradient id="paint6_linear_3192_30492" x1="9.72968" y1="15.3057" x2="19.5963" y2="22.7385" gradientUnits="userSpaceOnUse">
<stop stop-color="#FEF0AE"/>
<stop offset="1" stop-color="#FAC600"/>
</linearGradient>
<linearGradient id="paint7_linear_3192_30492" x1="24.6353" y1="21.1728" x2="3.77133" y2="21.1728" gradientUnits="userSpaceOnUse">
<stop stop-color="#FEF0AE"/>
<stop offset="1" stop-color="#FAC600"/>
</linearGradient>
<linearGradient id="paint8_linear_3192_30492" x1="15.5578" y1="25.8305" x2="15.5578" y2="30.4096" gradientUnits="userSpaceOnUse">
<stop stop-color="#FEA613" stop-opacity="0"/>
<stop offset="0.2032" stop-color="#FDA215" stop-opacity="0.203"/>
<stop offset="0.4052" stop-color="#FB961B" stop-opacity="0.405"/>
<stop offset="0.6066" stop-color="#F68225" stop-opacity="0.607"/>
<stop offset="0.8066" stop-color="#F06633" stop-opacity="0.807"/>
<stop offset="1" stop-color="#E94444"/>
</linearGradient>
<linearGradient id="paint9_linear_3192_30492" x1="17.9386" y1="21.3074" x2="20.7012" y2="22.1625" gradientUnits="userSpaceOnUse">
<stop stop-color="#FEA613" stop-opacity="0"/>
<stop offset="0.2032" stop-color="#FDA215" stop-opacity="0.203"/>
<stop offset="0.4052" stop-color="#FB961B" stop-opacity="0.405"/>
<stop offset="0.6066" stop-color="#F68225" stop-opacity="0.607"/>
<stop offset="0.8066" stop-color="#F06633" stop-opacity="0.807"/>
<stop offset="1" stop-color="#E94444"/>
</linearGradient>
<linearGradient id="paint10_linear_3192_30492" x1="-0.54884" y1="19.4287" x2="6.94971" y2="22.8492" gradientUnits="userSpaceOnUse">
<stop stop-color="#FEF0AE"/>
<stop offset="1" stop-color="#FAC600"/>
</linearGradient>
<linearGradient id="paint11_linear_3192_30492" x1="13.5188" y1="21.1085" x2="-7.49055" y2="21.1085" gradientUnits="userSpaceOnUse">
<stop stop-color="#FEF0AE"/>
<stop offset="1" stop-color="#FAC600"/>
</linearGradient>
<linearGradient id="paint12_linear_3192_30492" x1="6.08912" y1="27.3434" x2="6.08912" y2="30.1061" gradientUnits="userSpaceOnUse">
<stop stop-color="#FEA613" stop-opacity="0"/>
<stop offset="0.2032" stop-color="#FDA215" stop-opacity="0.203"/>
<stop offset="0.4052" stop-color="#FB961B" stop-opacity="0.405"/>
<stop offset="0.6066" stop-color="#F68225" stop-opacity="0.607"/>
<stop offset="0.8066" stop-color="#F06633" stop-opacity="0.807"/>
<stop offset="1" stop-color="#E94444"/>
</linearGradient>
<linearGradient id="paint13_linear_3192_30492" x1="8.48687" y1="27.4919" x2="11.7862" y2="27.4919" gradientUnits="userSpaceOnUse">
<stop stop-color="#FEA613" stop-opacity="0"/>
<stop offset="0.2032" stop-color="#FDA215" stop-opacity="0.203"/>
<stop offset="0.4052" stop-color="#FB961B" stop-opacity="0.405"/>
<stop offset="0.6066" stop-color="#F68225" stop-opacity="0.607"/>
<stop offset="0.8066" stop-color="#F06633" stop-opacity="0.807"/>
<stop offset="1" stop-color="#E94444"/>
</linearGradient>
<linearGradient id="paint14_linear_3192_30492" x1="19.7812" y1="25.1593" x2="25.2574" y2="30.6355" gradientUnits="userSpaceOnUse">
<stop stop-color="#FEF0AE"/>
<stop offset="1" stop-color="#FAC600"/>
</linearGradient>
<linearGradient id="paint15_linear_3192_30492" x1="16.3534" y1="22.4105" x2="25.4307" y2="30.6491" gradientUnits="userSpaceOnUse">
<stop stop-color="#FEA613" stop-opacity="0"/>
<stop offset="0.2032" stop-color="#FDA215" stop-opacity="0.203"/>
<stop offset="0.4052" stop-color="#FB961B" stop-opacity="0.405"/>
<stop offset="0.6066" stop-color="#F68225" stop-opacity="0.607"/>
<stop offset="0.8066" stop-color="#F06633" stop-opacity="0.807"/>
<stop offset="1" stop-color="#E94444"/>
</linearGradient>
<linearGradient id="paint16_linear_3192_30492" x1="21.3253" y1="26.4898" x2="23.7327" y2="28.8972" gradientUnits="userSpaceOnUse">
<stop stop-color="#FEF0AE"/>
<stop offset="1" stop-color="#FAC600"/>
</linearGradient>
<linearGradient id="paint17_linear_3192_30492" x1="23.7855" y1="28.9498" x2="20.5709" y2="25.7352" gradientUnits="userSpaceOnUse">
<stop stop-color="#FEF0AE"/>
<stop offset="1" stop-color="#FAC600"/>
</linearGradient>
<linearGradient id="paint18_linear_3192_30492" x1="22.3366" y1="27.5383" x2="22.3366" y2="29.9024" gradientUnits="userSpaceOnUse">
<stop stop-color="#FEA613" stop-opacity="0"/>
<stop offset="0.2032" stop-color="#FDA215" stop-opacity="0.203"/>
<stop offset="0.4052" stop-color="#FB961B" stop-opacity="0.405"/>
<stop offset="0.6066" stop-color="#F68225" stop-opacity="0.607"/>
<stop offset="0.8066" stop-color="#F06633" stop-opacity="0.807"/>
<stop offset="1" stop-color="#E94444"/>
</linearGradient>
<linearGradient id="paint19_linear_3192_30492" x1="22.76" y1="27.9243" x2="24.1595" y2="29.3238" gradientUnits="userSpaceOnUse">
<stop stop-color="#FEA613" stop-opacity="0"/>
<stop offset="0.2032" stop-color="#FDA215" stop-opacity="0.203"/>
<stop offset="0.4052" stop-color="#FB961B" stop-opacity="0.405"/>
<stop offset="0.6066" stop-color="#F68225" stop-opacity="0.607"/>
<stop offset="0.8066" stop-color="#F06633" stop-opacity="0.807"/>
<stop offset="1" stop-color="#E94444"/>
</linearGradient>
<linearGradient id="paint20_linear_3192_30492" x1="13.1892" y1="0.695248" x2="18.7803" y2="9.57514" gradientUnits="userSpaceOnUse">
<stop stop-color="#FEF0AE"/>
<stop offset="1" stop-color="#FAC600"/>
</linearGradient>
<linearGradient id="paint21_linear_3192_30492" x1="12.4923" y1="7.93972" x2="8.34752" y2="3.79492" gradientUnits="userSpaceOnUse">
<stop stop-color="#FEF0AE"/>
<stop offset="1" stop-color="#FAC600"/>
</linearGradient>
<linearGradient id="paint22_linear_3192_30492" x1="21.4684" y1="6.72549" x2="20.1003" y2="5.35735" gradientUnits="userSpaceOnUse">
<stop stop-color="#FEF0AE"/>
<stop offset="1" stop-color="#FAC600"/>
</linearGradient>
<linearGradient id="paint23_linear_3192_30492" x1="16.9081" y1="7.56899" x2="14.3162" y2="4.97713" gradientUnits="userSpaceOnUse">
<stop stop-color="#FEF0AE"/>
<stop offset="1" stop-color="#FAC600"/>
</linearGradient>
<linearGradient id="paint24_linear_3192_30492" x1="15.5517" y1="6.22889" x2="15.5517" y2="9.22245" gradientUnits="userSpaceOnUse">
<stop stop-color="#FEA613" stop-opacity="0"/>
<stop offset="0.2032" stop-color="#FDA215" stop-opacity="0.203"/>
<stop offset="0.4052" stop-color="#FB961B" stop-opacity="0.405"/>
<stop offset="0.6066" stop-color="#F68225" stop-opacity="0.607"/>
<stop offset="0.8066" stop-color="#F06633" stop-opacity="0.807"/>
<stop offset="1" stop-color="#E94444"/>
</linearGradient>
<linearGradient id="paint25_linear_3192_30492" x1="19.9188" y1="5.64076" x2="23.109" y2="6.69322" gradientUnits="userSpaceOnUse">
<stop stop-color="#FEA613" stop-opacity="0"/>
<stop offset="0.2032" stop-color="#FDA215" stop-opacity="0.203"/>
<stop offset="0.4052" stop-color="#FB961B" stop-opacity="0.405"/>
<stop offset="0.6066" stop-color="#F68225" stop-opacity="0.607"/>
<stop offset="0.8066" stop-color="#F06633" stop-opacity="0.807"/>
<stop offset="1" stop-color="#E94444"/>
</linearGradient>
<linearGradient id="paint26_linear_3192_30492" x1="15.5516" y1="8.82912" x2="15.5516" y2="11.3945" gradientUnits="userSpaceOnUse">
<stop stop-color="#FEF0AE"/>
<stop offset="1" stop-color="#FAC600"/>
</linearGradient>
<linearGradient id="paint27_linear_3192_30492" x1="20.1232" y1="9.73544" x2="24.5633" y2="9.73544" gradientUnits="userSpaceOnUse">
<stop stop-color="#FEA613" stop-opacity="0"/>
<stop offset="0.2032" stop-color="#FDA215" stop-opacity="0.203"/>
<stop offset="0.4052" stop-color="#FB961B" stop-opacity="0.405"/>
<stop offset="0.6066" stop-color="#F68225" stop-opacity="0.607"/>
<stop offset="0.8066" stop-color="#F06633" stop-opacity="0.807"/>
<stop offset="1" stop-color="#E94444"/>
</linearGradient>
</defs>
</svg>
