<svg width="44" height="44" viewBox="0 0 44 44" fill="none" xmlns="http://www.w3.org/2000/svg">
<g clip-path="url(#clip0_3421_175487)">
<path fill-rule="evenodd" clip-rule="evenodd" d="M22.916 13.7487C22.916 13.1987 22.5493 12.832 21.9993 12.832C19.9827 12.832 18.4243 14.1154 17.3243 15.2154C16.8055 15.7342 16.2708 16.3184 15.9227 16.957H13.7493C12.741 16.957 11.916 17.782 11.916 18.7904V25.1154C11.916 26.1237 12.741 26.9487 13.7493 26.9487H15.9035L16.041 27.2237C16.4077 27.682 16.7743 28.232 17.3243 28.782C18.3327 29.882 19.9827 31.1654 21.9993 31.1654C22.5493 31.1654 22.916 30.7987 22.916 30.2487V13.7487ZM17.5993 26.2154C17.8743 26.582 18.241 27.0404 18.6993 27.4987C19.3798 28.2472 20.2117 28.8946 21.0827 29.1786V14.8172C20.2117 15.0967 19.3798 15.7266 18.6993 16.407C18.241 16.957 17.8743 17.4154 17.5993 17.782C17.204 18.1773 17.0994 18.7904 16.4077 18.7904H13.7493V25.1154H16.4077C17.2247 25.1154 17.1688 25.7848 17.5993 26.2154Z" fill="url(#paint0_linear_3421_175487)"/>
<path d="M26.2766 17.1899C25.899 16.8527 25.3195 16.8855 24.9823 17.2631C24.6451 17.6407 24.6778 18.2202 25.0555 18.5574C25.2928 18.7694 25.5083 19.007 25.6977 19.2663C26.2526 20.0261 26.5827 20.9706 26.5827 21.9987C26.5827 23.0178 26.2582 23.9549 25.712 24.7113C25.5192 24.9783 25.2988 25.2226 25.0555 25.44C24.6778 25.7772 24.6451 26.3566 24.9823 26.7342C25.3195 27.1119 25.899 27.1446 26.2766 26.8074C26.619 26.5016 26.9283 26.1585 27.1983 25.7846C27.9645 24.7237 28.416 23.4128 28.416 21.9987C28.416 20.5722 27.9566 19.2508 27.1782 18.185C26.9129 17.8218 26.6105 17.4881 26.2766 17.1899Z" fill="url(#paint1_linear_3421_175487)"/>
<path d="M27.2973 13.4179C26.8668 13.1515 26.3019 13.2846 26.0355 13.7152C25.7692 14.1457 25.9023 14.7106 26.3328 14.977C28.6853 16.4323 30.2493 19.0332 30.2493 21.9987C30.2493 25.0109 28.6355 27.6471 26.221 29.0884C25.7862 29.3478 25.6442 29.9106 25.9037 30.3453C26.1631 30.78 26.7259 30.9221 27.1606 30.6626C30.1064 28.9043 32.0826 25.6827 32.0826 21.9987C32.0826 18.3719 30.1673 15.1933 27.2973 13.4179Z" fill="url(#paint2_linear_3421_175487)"/>
</g>
<defs>
<linearGradient id="paint0_linear_3421_175487" x1="12" y1="22" x2="34.5" y2="22" gradientUnits="userSpaceOnUse">
<stop offset="0.229167" stop-color="#63B7FF"/>
<stop offset="1" stop-color="#007DE8"/>
</linearGradient>
<linearGradient id="paint1_linear_3421_175487" x1="12" y1="22" x2="34.5" y2="22" gradientUnits="userSpaceOnUse">
<stop offset="0.229167" stop-color="#63B7FF"/>
<stop offset="1" stop-color="#007DE8"/>
</linearGradient>
<linearGradient id="paint2_linear_3421_175487" x1="12" y1="22" x2="34.5" y2="22" gradientUnits="userSpaceOnUse">
<stop offset="0.229167" stop-color="#63B7FF"/>
<stop offset="1" stop-color="#007DE8"/>
</linearGradient>
<clipPath id="clip0_3421_175487">
<rect width="22" height="22" fill="white" transform="translate(11 11)"/>
</clipPath>
</defs>
</svg>
