<svg width="16" height="16" viewBox="0 0 16 16" fill="none" xmlns="http://www.w3.org/2000/svg">
<path d="M13.25 1H2.75C1.78487 1 1 1.78487 1 2.75V13.25C1 14.2151 1.78487 15 2.75 15H13.25C14.2151 15 15 14.2151 15 13.25V2.75C15 1.78487 14.2151 1 13.25 1ZM6.25 9.45833V6.25H9.75V9.45833H6.25ZM9.75 10.625V13.8333H6.25V10.625H9.75ZM2.16667 6.25H5.08333V9.45833H2.16667V6.25ZM10.9167 6.25H13.8333V9.45833H10.9167V6.25ZM2.75 2.16667H13.25C13.5717 2.16667 13.8333 2.42829 13.8333 2.75V5.08333H2.16667V2.75C2.16667 2.42829 2.42829 2.16667 2.75 2.16667ZM2.16667 13.25V10.625H5.08333V13.8333H2.75C2.42829 13.8333 2.16667 13.5717 2.16667 13.25ZM13.25 13.8333H10.9167V10.625H13.8333V13.25C13.8333 13.5717 13.5717 13.8333 13.25 13.8333Z" fill="current" stroke="current"/>
</svg>
