<svg width="25" height="24" viewBox="0 0 25 24" fill="none" xmlns="http://www.w3.org/2000/svg">
<rect x="6.73926" y="15.9282" width="9.0957" height="7.80469" fill="#8FCEFF"/>
<path d="M6.33008 10.5728L6.33008 22.9678" stroke="#3F3E4E" stroke-width="1.5" stroke-linecap="round"/>
<path d="M16.2432 10.4087L16.2432 22.9678" stroke="#3F3E4E" stroke-width="1.5" stroke-linecap="round"/>
<path d="M13.7896 8.23385C15.0131 8.23385 16.005 7.24199 16.005 6.01846C16.005 4.79494 15.0131 3.80308 13.7896 3.80308C12.5661 3.80308 11.5742 4.79494 11.5742 6.01846C11.5742 7.24199 12.5661 8.23385 13.7896 8.23385Z" fill="#3F3E4E"/>
<path d="M20.2881 0.553844C20.6204 1.21846 21.2111 2.73231 20.805 3.39692C20.4357 3.98769 18.9219 4.39384 18.3311 3.91384C17.8511 3.50769 17.9988 2.28923 18.2204 1.44L9.3219 3.43384C9.46959 3.65538 9.58036 3.91384 9.54344 4.20923L9.43267 7.53231L12.7927 8.67692C12.8665 8.71384 12.9773 8.75077 13.0511 8.78769C14.1588 9.30461 14.7127 10.6338 14.2696 11.8154L12.8665 15.5815C12.8296 15.6554 12.8296 15.6923 12.7927 15.7662L15.1927 21.6738C15.4881 22.4492 15.1188 23.2985 14.3804 23.6308C13.605 23.9262 12.7557 23.5569 12.4234 22.8185L10.6881 18.4985L10.2819 22.3015C10.2081 23.1138 9.46959 23.7046 8.65729 23.6308C7.84498 23.5569 7.25421 22.8185 7.32806 22.0061L8.06652 14.88C8.06652 14.6954 8.14036 14.5477 8.21421 14.3631C8.25113 13.9569 8.28805 14.0308 9.65421 10.3754L7.69729 9.71077C7.14344 9.52615 6.77421 9.00923 6.81113 8.41846L6.95882 4.13538C6.99575 3.36 7.69729 2.80615 8.39882 2.88L18.6634 0.553844L19.8819 0.295382C20.0296 0.258459 20.2142 0.332306 20.2881 0.553844Z" fill="#3F3E4E"/>
</svg>
