<svg width="20" height="20" viewBox="0 0 20 20" fill="none" xmlns="http://www.w3.org/2000/svg">
<path d="M6.65349 15.3162H6.28125V16.3475C7.57421 16.9966 8.76715 17.8348 9.22935 18.9226C9.34835 19.2026 9.59526 19.4269 9.89406 19.4497V19.4516C9.90243 19.4516 9.91076 19.4514 9.91905 19.4511C9.92738 19.4514 9.93575 19.4516 9.94416 19.4516V19.4497C10.2398 19.4269 10.4841 19.205 10.6013 18.9276C11.0512 17.8629 12.2011 17.037 13.4609 16.3934V15.3162H12.6779V16.0596H6.65349V15.3162Z" fill="current"/>
<circle cx="9.91647" cy="9.40963" r="7.07931" stroke="current" stroke-width="1.5"/>
<path d="M11.8855 13.295C11.8855 13.6089 11.6311 13.8633 11.3173 13.8633C11.0034 13.8633 10.749 13.6089 10.749 13.295C10.749 12.9812 11.0034 12.7268 11.3173 12.7268C11.6311 12.7268 11.8855 12.9812 11.8855 13.295Z" fill="current" stroke="current"/>
<path d="M8.9624 5.15918L8.9624 13.6602" stroke="current" stroke-width="1.5" stroke-linecap="round"/>
<path d="M14.0551 7.207L9.25537 5.15918V9.51074L14.0551 7.207Z" fill="current"/>
</svg>
