<svg width="88" height="29" viewBox="0 0 88 29" fill="none" xmlns="http://www.w3.org/2000/svg">
<path d="M87.9995 3.12305H85.624V15.6626H87.9995V3.12305Z" fill="#006EB7"/>
<path d="M82.8756 7.20508H80.498V12.3678H82.8756V7.20508Z" fill="#ED1A3B"/>
<path d="M77.5065 0H75.1289V10.4889H77.5065V0Z" fill="#F7941D"/>
<path d="M2.07401 27.0342C0.736624 25.8072 0 23.9901 0 21.9182C0.0212283 17.4645 3.35196 14.5859 8.48497 14.5859C10.2703 14.5859 11.6544 14.8874 12.4441 15.1909C12.3591 15.5009 11.9367 17.0421 11.8369 17.3987C10.8838 17.0251 9.83085 16.8446 8.46162 16.8446C5.19882 16.8446 3.17152 18.7212 3.17152 21.7463C3.17152 24.7628 5.15 26.7137 8.21113 26.7137C8.95836 26.7137 9.64828 26.6309 9.96883 26.5057L10.1111 26.4505V23.0285C10.1111 23.0285 8.12197 23.0285 7.75896 23.0285C7.75896 22.693 7.75896 21.2559 7.75896 20.9205C8.15169 20.9205 12.5927 20.9205 12.9896 20.9205C12.9896 21.3302 12.9896 27.8346 12.9896 28.1487C11.7775 28.5245 9.91576 28.9108 8.12197 28.9108C5.44932 28.9108 3.47084 28.2952 2.07401 27.0342Z" fill="#023F88"/>
<path d="M20.7294 28.7959C17.3499 28.7959 15.3417 26.361 15.3417 23.2638C15.3417 20.0052 17.5515 17.5703 20.9162 17.5703C24.4338 17.5703 26.3549 20.071 26.3549 23.0706C26.3549 26.6497 24.0941 28.7959 20.7464 28.7959H20.7294ZM20.8483 26.845C22.5996 26.845 23.6016 25.2804 23.6016 23.1512C23.6016 21.2004 22.6336 19.5212 20.8483 19.5212C19.063 19.5212 18.061 21.1664 18.061 23.1979C18.061 25.2465 19.0991 26.8429 20.8334 26.8429H20.8483V26.845Z" fill="#023F88"/>
<path d="M28.9128 17.9277H31.4963V26.7333H36.7249V28.7966H28.9128V17.9277Z" fill="#023F88"/>
<path d="M39.3682 17.9277H47.3649V19.9444H41.9517V22.426H47.0741V24.4257H41.9517V28.7966H39.3682V17.9277Z" fill="#023F88"/>
<path d="M49.1904 27.4733L54.6461 20.0073V19.9585H49.6829V17.9248H57.9938V19.345L52.657 26.7006V26.7643H58.0787V28.7958H49.1904V27.4733Z" fill="#023F88"/>
<path d="M65.1241 28.7959C61.7403 28.7959 59.7363 26.361 59.7363 23.2638C59.7363 20.0052 61.9462 17.5703 65.3109 17.5703C68.8284 17.5703 70.7496 20.071 70.7496 23.0706C70.7496 26.6497 68.4888 28.7959 65.1411 28.7959H65.1241ZM65.243 26.845C66.9943 26.845 67.9963 25.2804 67.9963 23.1512C67.9963 21.2004 67.0261 19.5212 65.243 19.5212C63.4577 19.5212 62.4557 21.1664 62.4557 23.1979C62.4557 25.2465 63.4938 26.8429 65.226 26.8429H65.243V26.845Z" fill="#023F88"/>
<path d="M73.0703 28.7962V17.9273H76.0975L80.4663 25.6374H80.5002V14.4268H82.8757V28.7984H79.9568L75.3991 20.7677H75.416L75.4139 28.7984H73.0703V28.7962Z" fill="#023F88"/>
</svg>
