<svg width="16" height="17" viewBox="0 0 16 17" fill="none" xmlns="http://www.w3.org/2000/svg">
<g clip-path="url(#clip0_4451_25806)">
<path d="M5.42382 16.3711H1.43945C1.19676 16.3711 1 16.1743 1 15.9316V12.3867C1 12.144 1.19676 11.9473 1.43945 11.9473H5.86327C6.10596 11.9473 6.30272 12.144 6.30272 12.3867V15.4922C6.30272 15.9776 5.90924 16.3711 5.42382 16.3711Z" fill="#E63950"/>
<path d="M15.5605 16.3711H11.5762C11.0908 16.3711 10.6973 15.9776 10.6973 15.4922V13.2656C10.6973 13.0229 10.894 12.8262 11.1367 12.8262H15.5605C15.8032 12.8262 16 13.0229 16 13.2656V15.9316C16 16.1743 15.8032 16.3711 15.5605 16.3711Z" fill="#AE2538"/>
<path d="M11.5762 16.3711H5.42383V10.6289C5.42383 10.3862 5.62059 10.1895 5.86328 10.1895H7.18164C7.66706 10.1895 8.06054 10.5829 8.06054 11.0684V13.3029C8.34205 13.2163 8.65793 13.2163 8.93944 13.3029V11.0684C8.93944 10.5829 9.33293 10.1895 9.81835 10.1895H11.1367C11.3794 10.1895 11.5762 10.3862 11.5762 10.6289V16.3711Z" fill="#FF6C6C"/>
<path d="M10.4862 9.14521L8.5001 8.11397L6.51398 9.14521C6.36721 9.22118 6.18782 9.20873 6.05309 9.11044C5.91832 9.01259 5.85053 8.84738 5.87798 8.683L6.24448 6.47586L4.65062 4.90558C4.53217 4.78843 4.48925 4.61461 4.54076 4.4567C4.59226 4.29835 4.72873 4.18248 4.89352 4.15758L7.09594 3.82585L8.09929 1.60671C8.24176 1.29256 8.75847 1.29256 8.90094 1.60671L9.9043 3.82585L12.1067 4.15758C12.2715 4.18248 12.408 4.29835 12.4595 4.4567C12.511 4.61464 12.4681 4.78843 12.3496 4.90558L10.7558 6.47586L11.1223 8.683C11.1497 8.84735 11.0819 9.01259 10.9471 9.11044C10.8119 9.20926 10.6324 9.22127 10.4862 9.14521Z" fill="#FED843"/>
<path d="M11.5762 16.3711V10.6289C11.5762 10.3862 11.3794 10.1895 11.1367 10.1895H9.81836C9.33294 10.1895 8.93945 10.5829 8.93945 11.0684V13.3029C8.79868 13.2596 8.64936 13.2379 8.5 13.2379V16.3711H11.5762Z" fill="#E63950"/>
<path d="M10.4861 9.14518C10.6323 9.2212 10.8118 9.20922 10.947 9.1104C11.0818 9.01255 11.1496 8.84734 11.1221 8.68296L10.7556 6.47583L12.3495 4.90555C12.4679 4.78839 12.5108 4.61457 12.4593 4.45666C12.4078 4.29831 12.2714 4.18244 12.1066 4.15754L9.9042 3.82584L8.90084 1.6067C8.82959 1.44964 8.66477 1.37109 8.5 1.37109V8.11393L10.4861 9.14518Z" fill="#FABE2C"/>
<path d="M9.01498 14.3908C8.77808 14.0415 8.22191 14.0415 7.98502 14.3908C7.876 14.5509 7.6786 14.6209 7.49236 14.5647C7.30782 14.508 7.18164 14.3376 7.18164 14.1445V10.1895H9.81835V14.1445C9.81835 14.3376 9.69217 14.508 9.50766 14.5647C9.31585 14.6222 9.12006 14.5463 9.01498 14.3908Z" fill="#FED843"/>
<path d="M9.50766 14.5647C9.69217 14.508 9.81836 14.3376 9.81836 14.1445V10.1895H8.5V14.1288C8.69828 14.1288 8.89653 14.2162 9.01498 14.3908C9.12007 14.5463 9.31589 14.6222 9.50766 14.5647Z" fill="#FABE2C"/>
</g>
<defs>
<clipPath id="clip0_4451_25806">
<rect width="16" height="16" fill="white" transform="translate(0 0.371094)"/>
</clipPath>
</defs>
</svg>
