<svg width="24" height="24" viewBox="0 0 24 24" fill="none" xmlns="http://www.w3.org/2000/svg">
<path d="M5.75 11.7766V12.5003C5.74967 13.2306 5.98656 13.9413 6.425 14.5253L9.125 18.1253L8.375 21.1253H14.75L15.125 17.0003L15.62 16.4041C16.5112 15.3359 16.9995 13.989 17 12.5978C16.9994 11.7922 16.8362 10.995 16.52 10.2541L16.0213 9.09531C15.9244 8.86766 15.8746 8.62273 15.875 8.37531C15.875 8.1764 15.796 7.98563 15.6553 7.84498C15.5147 7.70433 15.3239 7.62531 15.125 7.62531C14.9261 7.62531 14.7353 7.70433 14.5947 7.84498C14.454 7.98563 14.375 8.1764 14.375 8.37531C14.3752 9.12329 14.4493 9.86941 14.5963 10.6028L14.7125 11.1953C14.738 11.3149 14.7505 11.4368 14.75 11.5591C14.7505 11.8957 14.6598 12.2261 14.4875 12.5153V12.5191C13.5887 8.90614 12.1027 5.46535 10.0887 2.33406C10.0035 2.20241 9.87792 2.10184 9.73083 2.04732C9.58374 1.99281 9.42298 1.98727 9.27249 2.03153C9.122 2.07579 8.98983 2.16749 8.89568 2.29295C8.80153 2.41842 8.75043 2.57095 8.75 2.72781C8.74972 2.98926 8.80601 3.24767 8.915 3.48531L9.0425 3.77031C9.70294 5.22232 10.2581 6.71993 10.7037 8.25156C10.5289 8.0907 10.3001 8.00108 10.0625 8.00031C9.81386 8.00031 9.5754 8.09908 9.39959 8.2749C9.22377 8.45072 9.125 8.68917 9.125 8.93781V9.47781C9.01344 9.33884 8.86458 9.23455 8.69586 9.17716C8.52715 9.11977 8.34557 9.11165 8.17241 9.15376C7.99925 9.19587 7.84167 9.28646 7.71815 9.41492C7.59464 9.54338 7.51029 9.70438 7.475 9.87906C7.44125 10.0366 7.415 10.1978 7.3925 10.3591H7.38875C7.23857 10.2883 7.07476 10.2512 6.90875 10.2503C6.68013 10.2501 6.45728 10.3221 6.27207 10.4561C6.08685 10.5902 5.94875 10.7793 5.8775 10.9966C5.7921 11.2477 5.74901 11.5113 5.75 11.7766Z" fill="#D08D78"/>
<path d="M6.90875 10.2502C7.07476 10.251 7.23857 10.2881 7.38875 10.3589H7.3925C7.415 10.1977 7.44125 10.0364 7.475 9.8789C7.51029 9.70422 7.59464 9.54322 7.71815 9.41476C7.84167 9.2863 7.99925 9.19571 8.17241 9.1536C8.34557 9.11149 8.52715 9.11961 8.69586 9.177C8.86458 9.23439 9.01344 9.33868 9.125 9.47765V8.93765C9.125 8.68901 9.22377 8.45055 9.39959 8.27474C9.5754 8.09892 9.81386 8.00015 10.0625 8.00015C10.3001 8.00091 10.5289 8.09054 10.7037 8.2514C10.2581 6.71977 9.70294 5.22215 9.0425 3.77015L8.915 3.48515C8.80601 3.24751 8.74972 2.9891 8.75 2.72765C8.74989 2.57051 8.80068 2.41757 8.89477 2.29172C8.98887 2.16587 9.1212 2.07389 9.27195 2.02955C9.42271 1.98521 9.58377 1.9909 9.73101 2.04577C9.87826 2.10063 10.0038 2.20172 10.0887 2.3339C12.1027 5.46519 13.5887 8.90598 14.4875 12.5189V12.5152C14.6598 12.226 14.7505 11.8955 14.75 11.5589C14.7505 11.4367 14.738 11.3147 14.7125 11.1952L14.5963 10.6027C14.4493 9.86925 14.3752 9.12312 14.375 8.37515C14.3765 8.17669 14.456 7.98678 14.5963 7.84645C14.7366 7.70611 14.9265 7.62662 15.125 7.62515V7.63678C15.1428 7.92527 15.2109 8.20842 15.3264 8.4734L15.77 9.5039C16.0862 10.2449 16.2494 11.0421 16.25 11.8477C16.2495 13.2388 15.7612 14.5857 14.87 15.6539L14.375 16.2502C14.2721 17.3772 13.7518 18.425 12.9161 19.1882C12.0805 19.9514 10.9898 20.3747 9.85812 20.3752H8.5625L9.125 18.1252L6.425 14.5252C5.98656 13.9411 5.74967 13.2305 5.75 12.5002V11.7764C5.74901 11.5111 5.7921 11.2475 5.8775 10.9964C5.94875 10.7792 6.08685 10.59 6.27207 10.456C6.45728 10.322 6.68013 10.2499 6.90875 10.2502Z" fill="#F2B9A1"/>
<path d="M11.0072 11.0749L11.7429 10.9287C11.5588 10.0006 11.3304 9.06494 11.0638 8.14844L10.3438 8.35769C10.604 9.25169 10.8272 10.1659 11.0072 11.0749Z" fill="#D08D78"/>
<path d="M14.3847 13.7107L15.1152 13.5389L14.8516 12.4297L14.123 12.6074L14.3847 13.7107Z" fill="#D08D78"/>
<path d="M9.5 9.47754H8.75V11.75H9.5V9.47754Z" fill="#D08D78"/>
<path d="M6.87507 12.8749H7.62507V12.1436C7.62387 11.5658 7.6699 10.9889 7.7627 10.4186L7.02245 10.2964C6.92302 10.9071 6.87373 11.5249 6.87507 12.1436V12.8749Z" fill="#D08D78"/>
</svg>
