<svg width="16" height="17" viewBox="0 0 16 17" fill="none" xmlns="http://www.w3.org/2000/svg">
<path d="M2.5 2.91699C2.91421 2.91699 3.25 3.25278 3.25 3.66699C3.25018 6.75032 5.74968 9.24982 8.83301 9.25H11.1621L9.60645 7.49902C9.33133 7.18952 9.35861 6.71467 9.66797 6.43945C9.97756 6.16426 10.4524 6.19237 10.7275 6.50195L13.3936 9.50195L13.8145 9.97461L13.4189 10.4688L10.752 13.8018C10.4932 14.125 10.0216 14.1775 9.69824 13.9189C9.37498 13.6602 9.32255 13.1886 9.58105 12.8652L11.2734 10.75H8.83301C4.92125 10.7498 1.75018 7.57875 1.75 3.66699C1.75 3.25278 2.08579 2.91699 2.5 2.91699Z" fill="currentColor"/>
</svg>
