<svg width="24" height="24" viewBox="0 0 24 24" fill="none" xmlns="http://www.w3.org/2000/svg">
<path d="M7.03369 2.52148V9.95109L15.5597 6.23629L7.03369 2.52148Z" fill="#F14C4C"/>
<path opacity="0.6" d="M11.5001 22.9997C17.0682 22.9997 21.5821 21.2872 21.5821 19.1747C21.5821 17.0621 17.0682 15.3496 11.5001 15.3496C5.93187 15.3496 1.41797 17.0621 1.41797 19.1747C1.41797 21.2872 5.93187 22.9997 11.5001 22.9997Z" fill="white"/>
<g style="mix-blend-mode:multiply" opacity="0.3">
<path d="M8.64387 17.9882C8.64387 18.2889 8.09601 18.5428 7.35438 18.6029C7.23412 18.6163 7.10717 18.623 6.97355 18.623C6.83992 18.623 6.71298 18.6163 6.59271 18.6029C5.85109 18.5428 5.30322 18.2889 5.30322 17.9882C5.30322 17.6876 5.85109 17.4337 6.59271 17.3736C6.71298 17.3602 6.83992 17.3535 6.97355 17.3535C7.10717 17.3535 7.23412 17.3602 7.35438 17.3736C8.09601 17.4337 8.64387 17.6876 8.64387 17.9882Z" fill="#009ACB"/>
</g>
<path d="M7.3542 2.38084V18.603C7.23393 18.6164 7.10699 18.6231 6.97336 18.6231C6.83974 18.6231 6.71279 18.6164 6.59253 18.603V2.38084C6.59253 2.17372 6.76624 2 6.97336 2C7.18717 1.99933 7.3542 2.17305 7.3542 2.38084Z" fill="#935D35"/>
<path d="M11.8876 18.7712C12.5104 18.7712 13.0154 18.2663 13.0154 17.6434C13.0154 17.0206 12.5104 16.5156 11.8876 16.5156C11.2647 16.5156 10.7598 17.0206 10.7598 17.6434C10.7598 18.2663 11.2647 18.7712 11.8876 18.7712Z" fill="white"/>
<path d="M13.0153 17.6459C13.0153 18.2673 12.5075 18.7684 11.8861 18.7684C11.4519 18.7684 11.0777 18.5278 10.8906 18.167C11.0443 18.2539 11.2247 18.3007 11.4184 18.3007C12.0398 18.3007 12.5476 17.7996 12.5476 17.1715C12.5476 16.9845 12.5008 16.8041 12.414 16.6504C12.7748 16.8375 13.0153 17.2116 13.0153 17.6459Z" fill="#E9EFF4"/>
</svg>
