<svg width="24" height="24" viewBox="0 0 24 24" fill="none" xmlns="http://www.w3.org/2000/svg">
<path d="M17.2463 3.86377H5.21248C3.78831 3.86377 2.63379 5.01829 2.63379 6.44246V16.7572C2.63379 18.1814 3.78831 19.3359 5.21248 19.3359H17.2463C18.6705 19.3359 19.825 18.1814 19.825 16.7572V6.44246C19.825 5.01829 18.6705 3.86377 17.2463 3.86377Z" fill="#007BDC"/>
<path d="M19.825 9.02124V16.7573C19.825 18.1842 18.6732 19.336 17.2463 19.336H5.21248C3.7856 19.336 2.63379 18.1842 2.63379 16.7573V9.02124H19.825Z" fill="white"/>
<path d="M17.2465 3.21912H17.0316V2.14467C17.0316 1.79225 16.7393 1.5 16.3869 1.5C16.0345 1.5 15.7423 1.79225 15.7423 2.14467V3.21912H11.8742V2.14467C11.8742 1.79225 11.582 1.5 11.2296 1.5C10.8771 1.5 10.5849 1.79225 10.5849 2.14467V3.21912H6.71685V2.14467C6.71685 1.79225 6.4246 1.5 6.07218 1.5C5.71976 1.5 5.42751 1.79225 5.42751 2.14467V3.21912H5.21262C3.43332 3.21912 1.98926 4.66319 1.98926 6.44248V16.7572C1.98926 18.5365 3.43332 19.9806 5.21262 19.9806H17.2465C19.0258 19.9806 20.4698 18.5365 20.4698 16.7572V6.44248C20.4698 4.66319 19.0258 3.21912 17.2465 3.21912ZM5.21262 4.50847H5.42751V5.58292C5.42751 5.93534 5.71976 6.22759 6.07218 6.22759C6.4246 6.22759 6.71685 5.93534 6.71685 5.58292V4.50847H10.5849V5.58292C10.5849 5.93534 10.8771 6.22759 11.2296 6.22759C11.582 6.22759 11.8742 5.93534 11.8742 5.58292V4.50847H15.7423V5.58292C15.7423 5.93534 16.0345 6.22759 16.3869 6.22759C16.7393 6.22759 17.0316 5.93534 17.0316 5.58292V4.50847H17.2465C18.3123 4.50847 19.1805 5.37663 19.1805 6.44248V8.3765H3.2786V6.44248C3.2786 5.37663 4.14676 4.50847 5.21262 4.50847ZM17.2465 18.6912H5.21262C4.14676 18.6912 3.2786 17.8231 3.2786 16.7572V9.66584H19.1805V16.7572C19.1805 17.8231 18.3123 18.6912 17.2465 18.6912Z" fill="#415A6B"/>
<circle cx="17.3224" cy="16.9489" r="6.49822" fill="#415A6B"/>
<circle cx="17.3223" cy="16.9488" r="5.20122" fill="white"/>
<path fill-rule="evenodd" clip-rule="evenodd" d="M17.5718 13.561C17.2182 13.561 16.9316 13.8476 16.9316 14.2012V16.5955L14.522 16.5955C14.1684 16.5955 13.8818 16.8821 13.8818 17.2356C13.8818 17.5891 14.1684 17.8757 14.522 17.8757H17.5718C17.9253 17.8757 18.2119 17.5891 18.2119 17.2356C18.2119 17.1989 18.2088 17.1629 18.2029 17.1279C18.2088 17.0928 18.2119 17.0569 18.2119 17.0201V14.2012C18.2119 13.8476 17.9253 13.561 17.5718 13.561Z" fill="#415A6B"/>
</svg>
