<svg width="24" height="24" viewBox="0 0 24 24" fill="none" xmlns="http://www.w3.org/2000/svg">
<path d="M21.7066 3.07842C21.4263 2.91683 21.0679 3.01296 20.9061 3.29326L17.1439 9.81518L16.634 9.52084C16.3537 9.35894 15.9952 9.45507 15.8335 9.73537L13.5939 13.6143C13.4218 13.5156 13.2387 13.4303 13.0451 13.3607L6.33686 10.9481C5.53181 10.6585 4.65947 10.7212 3.88066 11.1245C3.07805 11.5402 2.48097 12.2729 2.24232 13.135C1.80302 14.723 1.95988 16.3798 2.72221 18.2005C3.23002 19.4134 4.36238 20.1669 5.67753 20.1669H12.0626C13.1099 20.1669 14.038 19.6486 14.6055 18.8556C14.6407 18.8202 18.8787 11.4935 18.8787 11.4935C18.9565 11.3589 18.9776 11.199 18.9373 11.0489C18.897 10.8987 18.7989 10.7707 18.6643 10.693L18.1591 10.4013L21.9216 3.87905C22.0832 3.59859 21.987 3.24016 21.7066 3.07842ZM16.5555 10.829L17.5705 11.4151L16.9844 12.4302L15.9694 11.8441L16.5555 10.829ZM14.502 14.3856L15.3833 12.8592L16.3985 13.4452L15.1168 15.6652C15.0139 15.1931 14.8024 14.7575 14.502 14.3856ZM12.0626 18.9947H5.67753C4.83098 18.9947 4.13029 18.5286 3.8033 17.7478C3.14656 16.179 3.00541 14.7725 3.37208 13.4475C3.52391 12.8988 3.90568 12.4316 4.4196 12.1655C4.70631 12.0169 5.01194 11.9419 5.3159 11.9419C5.52693 11.9419 5.7375 11.9781 5.94014 12.051L12.6485 14.4636C13.492 14.767 14.0162 15.4812 14.0162 16.3276V17.0411C14.0162 18.1184 13.1398 18.9947 12.0626 18.9947Z" fill="white"/>
<path d="M12.2712 16.0664H5.35562C5.03198 16.0664 4.76953 16.3287 4.76953 16.6523C4.76953 16.9761 5.03198 17.2384 5.35562 17.2384H12.2712C12.5948 17.2384 12.8573 16.9761 12.8573 16.6523C12.8573 16.3287 12.595 16.0664 12.2712 16.0664Z" fill="white"/>
<path d="M5.35562 14.8909H7.9606C8.28439 14.8909 8.54669 14.6285 8.54669 14.3048C8.54669 13.9812 8.28439 13.7188 7.9606 13.7188H5.35562C5.03198 13.7188 4.76953 13.9812 4.76953 14.3048C4.76953 14.6285 5.03198 14.8909 5.35562 14.8909Z" fill="white"/>
</svg>
