<svg width="12" height="17" viewBox="0 0 12 17" fill="none" xmlns="http://www.w3.org/2000/svg">
<g clip-path="url(#clip0_167_23842)">
<path d="M11.9998 6.82788C11.9967 6.80382 11.9936 6.77976 11.9904 6.75601C11.9889 6.75601 11.9876 6.75538 11.986 6.75507C11.9835 6.77944 11.9798 6.80351 11.9789 6.82788C11.9679 7.20319 11.9 7.56944 11.8003 7.93007C11.6123 8.61007 11.2964 9.22694 10.8704 9.78819C10.537 10.2273 10.1608 10.6273 9.75233 10.9963C9.47398 11.2476 9.18781 11.4901 8.90195 11.7329C8.68583 11.9166 8.46221 12.0919 8.24735 12.2773C7.99589 12.4938 7.73786 12.7038 7.51237 12.9488C7.35223 13.1226 7.20399 13.3051 7.10015 13.5194C7.03572 13.6526 6.99944 13.7923 6.99538 13.9401C6.98756 14.2235 6.85808 14.4285 6.5938 14.5348C6.23069 14.6807 5.82004 14.4476 5.7553 14.0629C5.74435 13.9979 5.74529 13.9307 5.73966 13.8644C5.72777 13.7298 5.67961 13.6066 5.61549 13.4894C5.48226 13.2457 5.29961 13.0407 5.1007 12.8498C4.78888 12.5501 4.45954 12.2698 4.12333 11.9976C3.59884 11.5726 3.08716 11.1341 2.61052 10.6551C2.24835 10.291 1.92402 9.89694 1.63972 9.46944C1.40766 9.12069 1.21938 8.74976 1.07457 8.35601C0.941025 7.99319 0.850325 7.62069 0.798094 7.23851C0.778078 7.09194 0.775889 6.94319 0.765568 6.79507C0.764629 6.78226 0.765568 6.76944 0.756811 6.75601C0.753996 6.79976 0.751806 6.84351 0.748679 6.88694C0.74649 6.91632 0.743049 6.94601 0.740234 6.97538C0.740234 6.64976 0.740234 6.32444 0.740234 5.99882C0.743049 6.01382 0.746802 6.02882 0.748053 6.04382C0.751181 6.08569 0.75337 6.12757 0.755559 6.16444C0.829683 4.73726 1.37325 3.50788 2.38127 2.49569C3.38991 1.48444 4.61811 0.933506 6.04053 0.842256C6.01832 0.838506 5.98705 0.833193 5.95577 0.827881C6.25821 0.827881 6.56033 0.827881 6.86277 0.827881C6.83462 0.830693 6.80647 0.834131 6.77801 0.836006C6.75143 0.837881 6.72484 0.838506 6.69826 0.839756C8.1335 0.928818 9.35982 1.48632 10.3644 2.50101C11.3687 3.51507 11.9116 4.74726 11.987 6.18382C11.9917 6.14444 11.9954 6.11101 11.9995 6.07757C11.9995 6.32757 11.9995 6.57757 11.9995 6.82757L11.9998 6.82788ZM10.7488 6.37569C10.7422 6.13601 10.7234 5.88476 10.6743 5.63601C10.6043 5.28132 10.4951 4.93976 10.3416 4.61194C10.1636 4.23257 9.94437 3.87976 9.66351 3.56819C9.2441 3.10257 8.75651 2.72726 8.1826 2.46726C7.73974 2.26663 7.27811 2.14351 6.79396 2.09913C6.4002 2.06319 6.00832 2.07351 5.61831 2.14007C5.21172 2.20944 4.82359 2.33632 4.45329 2.51663C3.9094 2.78101 3.44246 3.14569 3.04744 3.60257C2.71311 3.98913 2.4579 4.42413 2.27431 4.89976C2.12137 5.29632 2.03255 5.70757 2.00346 6.13288C1.97469 6.55538 2.00065 6.97319 2.09009 7.38632C2.19487 7.87038 2.39316 8.31632 2.65306 8.73632C2.86167 9.07319 3.11062 9.37882 3.38366 9.66444C3.72206 10.0188 4.08455 10.3479 4.46111 10.6616C4.70818 10.8676 4.95714 11.0713 5.20328 11.2785C5.60267 11.6151 6.0055 11.9482 6.33577 12.3573C6.35516 12.3813 6.36611 12.3748 6.38362 12.3551C6.50185 12.2216 6.61725 12.0854 6.74111 11.9573C6.97161 11.7194 7.22338 11.5048 7.47827 11.2938C7.77821 11.0457 8.07971 10.7991 8.37714 10.5479C8.58387 10.3729 8.78685 10.1935 8.98796 10.0119C9.25755 9.76882 9.49681 9.49757 9.72856 9.21882C10.041 8.84257 10.2896 8.42851 10.4676 7.97288C10.6662 7.46382 10.7541 6.93413 10.7488 6.37569Z" fill="current"/>
<path d="M3.74321 16.8279C3.75228 16.8238 3.76135 16.8198 3.77511 16.8132C3.73883 16.8057 3.706 16.802 3.67472 16.792C3.43483 16.7148 3.29441 16.5466 3.25218 16.3029C3.19401 15.967 3.41576 15.6545 3.74978 15.5904C3.80045 15.5807 3.8533 15.5782 3.90522 15.5782C5.55064 15.5776 7.19605 15.5779 8.84147 15.5776C9.036 15.5776 9.2052 15.6366 9.33562 15.786C9.55424 16.037 9.55174 16.3895 9.33093 16.6273C9.24493 16.7201 9.12545 16.7823 8.97595 16.8116C8.98096 16.8176 8.98502 16.8226 8.9894 16.8276H3.74321V16.8279Z" fill="current"/>
<path d="M6.37318 3.32819C8.06957 3.33507 9.45759 4.67757 9.49324 6.37663C9.53046 8.16569 8.14776 9.52663 6.44824 9.57476C4.75747 9.62288 3.29846 8.29226 3.24529 6.55069C3.18962 4.72726 4.67334 3.32913 6.37318 3.32788V3.32819ZM8.24597 6.39913C8.23096 5.42944 7.4156 4.54601 6.30781 4.57819C5.28509 4.60788 4.44909 5.47226 4.49351 6.53569C4.5351 7.53288 5.37392 8.35663 6.42259 8.32757C7.46095 8.29882 8.27505 7.44226 8.24597 6.39913Z" fill="current"/>
</g>
<defs>
<clipPath id="clip0_167_23842">
<rect width="11.2593" height="16" fill="white" transform="translate(0.740723 0.827881)"/>
</clipPath>
</defs>
</svg>
