<svg width="12" height="12" viewBox="0 0 12 12" fill="none" xmlns="http://www.w3.org/2000/svg">
<g clip-path="url(#clip0_17306_111190)">
<path d="M8.66584 11.259H4.81877C4.34662 11.259 3.96387 11.6451 3.96387 12.1213C3.96387 12.5975 4.34662 12.9836 4.81877 12.9836H8.66584C9.13799 12.9836 9.52075 12.5975 9.52075 12.1213C9.52075 11.6451 9.13799 11.259 8.66584 11.259Z" fill="current"/>
<path d="M5.17334 6.58277V2.49992C5.17334 2.09505 4.84979 1.76685 4.45067 1.76685C4.05155 1.76685 3.728 2.09505 3.728 2.49992V6.58277C3.728 6.98764 4.05155 7.31584 4.45067 7.31584C4.84979 7.31584 5.17334 6.98764 5.17334 6.58277Z" fill="current"/>
<path d="M5.41917 8.73757L2.98368 5.46068C2.74217 5.13573 2.28297 5.0681 1.95802 5.30961L1.83835 5.39855C1.51341 5.64006 1.44577 6.09926 1.68728 6.4242L4.12277 9.7011C4.36428 10.026 4.82349 10.0937 5.14843 9.85217L5.2681 9.76323C5.59304 9.52172 5.66068 9.06252 5.41917 8.73757Z" fill="current"/>
<path d="M6.7417 5.79981V1.71696C6.7417 1.3121 6.44756 0.983887 6.08473 0.983887C5.72189 0.983887 5.42776 1.3121 5.42776 1.71696V5.79981C5.42776 6.20468 5.72189 6.53289 6.08473 6.53289C6.44756 6.53289 6.7417 6.20468 6.7417 5.79981Z" fill="current"/>
<path d="M8.30713 6.58277V2.49992C8.30713 2.09505 8.01299 1.76685 7.65016 1.76685C7.28732 1.76685 6.99319 2.09505 6.99319 2.49992V6.58277C6.99319 6.98764 7.28732 7.31584 7.65016 7.31584C8.01299 7.31584 8.30713 6.98764 8.30713 6.58277Z" fill="current"/>
<path d="M9.87256 7.48731V3.40446C9.87256 2.9996 9.57842 2.67139 9.21559 2.67139C8.85275 2.67139 8.55862 2.9996 8.55862 3.40446V7.48731C8.55862 7.89218 8.85275 8.22039 9.21559 8.22039C9.57842 8.22039 9.87256 7.89218 9.87256 7.48731Z" fill="current"/>
<path d="M5.34529 4.98218H8.58821C9.29892 4.98218 9.87544 5.5587 9.87544 6.26941V8.47608C9.87544 9.75834 8.83423 10.7996 7.55197 10.7996H5.88453C4.87811 10.7996 4.06055 9.98199 4.06055 8.97557V6.26941C4.06055 5.5587 4.63707 4.98218 5.34778 4.98218H5.34529Z" fill="current"/>
</g>
<defs>
<clipPath id="clip0_17306_111190">
<rect width="12" height="12" fill="white" transform="translate(0.5 0.983887)"/>
</clipPath>
</defs>
</svg>
