<svg width="24" height="24" viewBox="0 0 24 24" fill="none" xmlns="http://www.w3.org/2000/svg">
<path d="M1.21753 8.96661H22.7339V22.5H1.21753V8.96661Z" fill="#668796"/>
<path d="M16.1135 8.96661H16.9411V22.5H16.1135V8.96661Z" fill="#4D6877"/>
<path d="M2.87256 14.1001H14.8721V18.3001H2.87256V14.1001Z" fill="white"/>
<path d="M1.21753 20.6332H16.5273V22.4999H1.21753V20.6332Z" fill="#4D6877"/>
<path d="M21.4925 3.36667V1.5H2.45878V3.36667L0.389893 8.03336V8.9667H23.5614V8.03336L21.4925 3.36667Z" fill="#5CC4A6"/>
<path d="M2.45874 1.5H21.4925V3.36667H2.45874V1.5Z" fill="#239172"/>
<path d="M0.389893 8.96661V10.6C0.389893 11.4866 1.05198 12.2333 1.83811 12.2333C2.62425 12.2333 3.28633 11.4866 3.28633 10.6V8.96661" fill="#2AB793"/>
<path d="M6.18282 8.96661V10.6C6.18282 11.4866 5.52073 12.2333 4.7346 12.2333C3.94846 12.2333 3.28638 11.4866 3.28638 10.6V8.96661" fill="#F7D289"/>
<path d="M9.0793 8.96661V10.6C9.0793 11.4866 8.41722 12.2333 7.63108 12.2333C6.84495 12.2333 6.18286 11.4866 6.18286 10.6V8.96661" fill="#2AB793"/>
<path d="M11.9758 8.96661V10.6C11.9758 11.4866 11.3137 12.2333 10.5276 12.2333C9.74143 12.2333 9.07935 11.4866 9.07935 10.6V8.96661" fill="#F7D289"/>
<path d="M11.9756 8.96661V10.6C11.9756 11.4866 12.6377 12.2333 13.4238 12.2333C14.2099 12.2333 14.872 11.4866 14.872 10.6V8.96661" fill="#2AB793"/>
<path d="M14.8723 8.96661V10.6C14.8723 11.4866 15.5344 12.2333 16.3205 12.2333C17.1067 12.2333 17.7688 11.4866 17.7688 10.6V8.96661" fill="#F7D289"/>
<path d="M17.7686 8.96661V10.6C17.7686 11.4866 18.4306 12.2333 19.2168 12.2333C20.0029 12.2333 20.665 11.4866 20.665 10.6V8.96661" fill="#2AB793"/>
<path d="M20.665 8.96661V10.6C20.665 11.4866 21.3271 12.2333 22.1133 12.2333C22.8994 12.2333 23.5615 11.4866 23.5615 10.6V8.96661" fill="#F7D289"/>
<path d="M12.3895 18.3001H10.7344L14.4584 14.1001H14.8721V15.5001L12.3895 18.3001Z" fill="#E4E7EA"/>
<path d="M9.07918 18.3001H7.42407L11.1481 14.1001H12.8032L9.07918 18.3001Z" fill="#E4E7EA"/>
<path d="M5.76888 18.3001H4.11377L7.83777 14.1001H9.49287L5.76888 18.3001Z" fill="#E4E7EA"/>
<path d="M2.87256 17.8334V15.9667L4.52767 14.1001H6.18278L2.87256 17.8334Z" fill="#E4E7EA"/>
<path d="M17.7686 13.1666H21.9063V21.5667H17.7686V13.1666Z" fill="white"/>
<path d="M17.7686 15.9667H18.5961V16.9001H17.7686V15.9667Z" fill="#668796"/>
<path d="M17.7686 20.6334V18.7667L21.9063 14.1001V15.9667L17.7686 20.6334Z" fill="#E4E7EA"/>
<path d="M20.6649 21.5668H19.0098L21.9062 18.3001V20.1668L20.6649 21.5668Z" fill="#E4E7EA"/>
</svg>
