<svg width="20" height="21" viewBox="0 0 20 21" fill="none" xmlns="http://www.w3.org/2000/svg">
<rect y="0.5" width="20" height="20" rx="4" fill="#EEEEEE"/>
<path d="M16.4533 13.8067L14.3667 8.93334C13.66 7.28 12.36 7.21334 11.4867 8.78667L10.2267 11.06C9.58666 12.2133 8.39332 12.3133 7.56666 11.28L7.41999 11.0933C6.55999 10.0133 5.34666 10.1467 4.72666 11.38L3.57999 13.68C2.77332 15.28 3.93999 17.1667 5.72666 17.1667H14.2333C15.9667 17.1667 17.1333 15.4 16.4533 13.8067Z" stroke="#A3A3AC" stroke-width="1.5" stroke-linecap="round" stroke-linejoin="round"/>
<path d="M6.64667 7.83337C7.75124 7.83337 8.64667 6.93794 8.64667 5.83337C8.64667 4.7288 7.75124 3.83337 6.64667 3.83337C5.5421 3.83337 4.64667 4.7288 4.64667 5.83337C4.64667 6.93794 5.5421 7.83337 6.64667 7.83337Z" stroke="#A3A3AC" stroke-width="1.5" stroke-linecap="round" stroke-linejoin="round"/>
</svg>
