<svg width="16" height="16" viewBox="0 0 16 16" fill="none" xmlns="http://www.w3.org/2000/svg">
<path d="M2 6C2 6 2.48885 6.7682 3.40871 7.57734M14 6C14 6 13.5547 6.69982 12.7143 7.46711M12.7143 7.46711L14 8.57143M12.7143 7.46711C12.0328 8.08932 11.0916 8.7559 9.91739 9.12966M9.91739 9.12966C9.33456 9.31519 8.69434 9.42857 8 9.42857C7.38542 9.42857 6.81323 9.33974 6.28571 9.19068M9.91739 9.12966L10.5714 10.7143M6.28571 9.19068L5.85714 10.7143M6.28571 9.19068C5.08725 8.85202 4.11936 8.20246 3.40871 7.57734M3.40871 7.57734L2 9" stroke="#0B0B1E" stroke-width="1.33" stroke-linecap="round" stroke-linejoin="round"/>
</svg>
