<svg width="16" height="16" viewBox="0 0 16 16" fill="none" xmlns="http://www.w3.org/2000/svg">
<path d="M4.25 8.0498C4.25 8.7373 3.6875 9.2998 3 9.2998C2.3125 9.2998 1.75 8.7373 1.75 8.0498C1.75 7.3623 2.3125 6.7998 3 6.7998C3.6875 6.7998 4.25 7.3623 4.25 8.0498ZM8 6.7998C7.3125 6.7998 6.75 7.3623 6.75 8.0498C6.75 8.7373 7.3125 9.2998 8 9.2998C8.6875 9.2998 9.25 8.7373 9.25 8.0498C9.25 7.3623 8.6875 6.7998 8 6.7998ZM13 6.7998C12.3125 6.7998 11.75 7.3623 11.75 8.0498C11.75 8.7373 12.3125 9.2998 13 9.2998C13.6875 9.2998 14.25 8.7373 14.25 8.0498C14.25 7.3623 13.6875 6.7998 13 6.7998Z" fill="current"/>
</svg>
