<svg width="16" height="16" viewBox="0 0 16 16" fill="none" xmlns="http://www.w3.org/2000/svg">
<path d="M3.64681 6.49999C4.93547 6.49999 5.98014 5.45533 5.98014 4.16666C5.98014 2.878 4.93547 1.83333 3.64681 1.83333C2.35815 1.83333 1.31348 2.878 1.31348 4.16666C1.31348 5.45533 2.35815 6.49999 3.64681 6.49999Z" stroke="current" stroke-width="1.5"/>
<path d="M11.3138 10.5H13.3138C14.0471 10.5 14.6471 11.1 14.6471 11.8333V13.8333C14.6471 14.5667 14.0471 15.1667 13.3138 15.1667H11.3138C10.5805 15.1667 9.98047 14.5667 9.98047 13.8333V11.8333C9.98047 11.1 10.5805 10.5 11.3138 10.5Z" stroke="current" stroke-width="1.5"/>
<path d="M8.00013 3.83333H9.78679C11.0201 3.83333 11.5935 5.36 10.6668 6.17333L5.34013 10.8333C4.41346 11.64 4.98679 13.1667 6.21346 13.1667H8.00013" stroke="current" stroke-width="1.5" stroke-linecap="round" stroke-linejoin="round"/>
<path d="M3.65748 4.16666H3.66518" stroke="current" stroke-width="2" stroke-linecap="round" stroke-linejoin="round"/>
<path d="M12.3245 12.8333H12.3322" stroke="current" stroke-width="2" stroke-linecap="round" stroke-linejoin="round"/>
</svg>
