<svg width="34" height="21" viewBox="0 0 34 21" fill="none" xmlns="http://www.w3.org/2000/svg">
<path d="M0 0.5H22C28.6274 0.5 34 5.87258 34 12.5V20.5H12C5.37258 20.5 0 15.1274 0 8.5V0.5Z" fill="url(#paint0_linear_18808_70566)"/>
<path d="M13.691 14.513C13.9617 14.513 14.209 14.5013 14.433 14.478C14.6617 14.45 14.8763 14.4103 15.077 14.359C15.2777 14.3077 15.4667 14.247 15.644 14.177C15.8213 14.1023 15.9987 14.0183 16.176 13.925V11.713H14.622C14.5333 11.713 14.461 11.6873 14.405 11.636C14.3537 11.5847 14.328 11.5217 14.328 11.447V10.677H17.408V14.527C17.156 14.709 16.8923 14.8677 16.617 15.003C16.3463 15.1383 16.0547 15.2527 15.742 15.346C15.434 15.4347 15.1027 15.5 14.748 15.542C14.3933 15.5887 14.0083 15.612 13.593 15.612C12.865 15.612 12.1977 15.4883 11.591 15.241C10.9843 14.989 10.4617 14.639 10.023 14.191C9.58433 13.7383 9.24133 13.197 8.994 12.567C8.75133 11.937 8.63 11.244 8.63 10.488C8.63 9.72267 8.749 9.025 8.987 8.395C9.22967 7.765 9.57267 7.226 10.016 6.778C10.464 6.32533 11.003 5.97533 11.633 5.728C12.2677 5.48067 12.977 5.357 13.761 5.357C14.1577 5.357 14.5263 5.38733 14.867 5.448C15.2077 5.504 15.5227 5.588 15.812 5.7C16.106 5.80733 16.3767 5.94033 16.624 6.099C16.8713 6.253 17.1023 6.428 17.317 6.624L16.932 7.24C16.8527 7.366 16.75 7.429 16.624 7.429C16.5493 7.429 16.4677 7.40333 16.379 7.352C16.2623 7.28667 16.1317 7.20733 15.987 7.114C15.8423 7.02067 15.665 6.932 15.455 6.848C15.2497 6.75933 15.0047 6.68467 14.72 6.624C14.44 6.56333 14.1063 6.533 13.719 6.533C13.1543 6.533 12.6433 6.62633 12.186 6.813C11.7287 6.995 11.339 7.25867 11.017 7.604C10.695 7.94467 10.4477 8.36 10.275 8.85C10.1023 9.33533 10.016 9.88133 10.016 10.488C10.016 11.1227 10.1047 11.6897 10.282 12.189C10.464 12.6837 10.7183 13.1037 11.045 13.449C11.3717 13.7943 11.759 14.058 12.207 14.24C12.655 14.422 13.1497 14.513 13.691 14.513ZM24.7773 7.037C24.7353 7.107 24.6909 7.16067 24.6443 7.198C24.5976 7.23067 24.5369 7.247 24.4623 7.247C24.3829 7.247 24.2896 7.20733 24.1823 7.128C24.0796 7.04867 23.9466 6.96233 23.7833 6.869C23.6246 6.771 23.4309 6.68233 23.2023 6.603C22.9783 6.52367 22.7053 6.484 22.3833 6.484C22.0799 6.484 21.8116 6.526 21.5783 6.61C21.3449 6.68933 21.1489 6.799 20.9903 6.939C20.8363 7.079 20.7196 7.24467 20.6403 7.436C20.5609 7.62267 20.5213 7.82567 20.5213 8.045C20.5213 8.325 20.5889 8.55833 20.7243 8.745C20.8643 8.927 21.0463 9.08333 21.2703 9.214C21.4989 9.34467 21.7556 9.459 22.0403 9.557C22.3296 9.65033 22.6236 9.74833 22.9223 9.851C23.2256 9.95367 23.5196 10.0703 23.8043 10.201C24.0936 10.327 24.3503 10.488 24.5743 10.684C24.8029 10.88 24.9849 11.1203 25.1203 11.405C25.2603 11.6897 25.3303 12.0397 25.3303 12.455C25.3303 12.8937 25.2556 13.3067 25.1063 13.694C24.9569 14.0767 24.7376 14.4103 24.4483 14.695C24.1636 14.9797 23.8113 15.2037 23.3913 15.367C22.9759 15.5303 22.5023 15.612 21.9703 15.612C21.3216 15.612 20.7289 15.4953 20.1923 15.262C19.6603 15.024 19.2053 14.7043 18.8273 14.303L19.2193 13.659C19.2566 13.6077 19.3009 13.5657 19.3523 13.533C19.4083 13.4957 19.4689 13.477 19.5343 13.477C19.6323 13.477 19.7443 13.5307 19.8703 13.638C19.9963 13.7407 20.1526 13.855 20.3393 13.981C20.5306 14.107 20.7593 14.2237 21.0253 14.331C21.2959 14.4337 21.6249 14.485 22.0123 14.485C22.3343 14.485 22.6213 14.4407 22.8733 14.352C23.1253 14.2633 23.3376 14.1397 23.5103 13.981C23.6876 13.8177 23.8229 13.624 23.9163 13.4C24.0096 13.176 24.0563 12.9263 24.0563 12.651C24.0563 12.3477 23.9863 12.1003 23.8463 11.909C23.7109 11.713 23.5313 11.5497 23.3073 11.419C23.0833 11.2883 22.8266 11.1787 22.5373 11.09C22.2526 10.9967 21.9586 10.9033 21.6553 10.81C21.3566 10.712 21.0626 10.6 20.7733 10.474C20.4886 10.348 20.2343 10.1847 20.0103 9.984C19.7863 9.78333 19.6043 9.53367 19.4643 9.235C19.3289 8.93167 19.2613 8.55833 19.2613 8.115C19.2613 7.76033 19.3289 7.41733 19.4643 7.086C19.6043 6.75467 19.8049 6.46067 20.0663 6.204C20.3276 5.94733 20.6496 5.742 21.0323 5.588C21.4196 5.434 21.8629 5.357 22.3623 5.357C22.9223 5.357 23.4333 5.44567 23.8953 5.623C24.3573 5.80033 24.7609 6.057 25.1063 6.393L24.7773 7.037Z" fill="white"/>
<defs>
<linearGradient id="paint0_linear_18808_70566" x1="-5.53711e-07" y1="10.5" x2="31.6638" y2="21.0122" gradientUnits="userSpaceOnUse">
<stop stop-color="#1058E2"/>
<stop offset="1" stop-color="#1785E7"/>
</linearGradient>
</defs>
</svg>
