<svg width="25" height="24" viewBox="0 0 25 24" fill="none" xmlns="http://www.w3.org/2000/svg">
<path d="M18.5914 11.7883C19.165 13.1777 19.6051 15.9227 19.6051 17.3241L6.21666 17.264L15.1422 7.31445C16.2442 8.18034 17.9788 10.5278 18.5914 11.7883Z" fill="#8FCEFF" stroke="#0B0B1E" stroke-width="1.2" stroke-dasharray="1.5 0.5"/>
<path fill-rule="evenodd" clip-rule="evenodd" d="M19.444 3.58152C19.7199 3.27254 19.693 2.79842 19.384 2.52256C19.075 2.2467 18.6009 2.27355 18.3251 2.58254L5.84798 16.5579H1.47461C1.0604 16.5579 0.724609 16.8936 0.724609 17.3079C0.724609 17.7221 1.0604 18.0579 1.47461 18.0579H4.50879L2.40124 20.4185C2.12538 20.7275 2.15223 21.2016 2.46122 21.4774C2.7702 21.7533 3.24432 21.7264 3.52018 21.4175L6.51962 18.0579H22.7066C23.1208 18.0579 23.4566 17.7221 23.4566 17.3079C23.4566 16.8936 23.1208 16.5579 22.7066 16.5579H7.85881L15.8428 7.61517L16.0922 7.36538C16.0875 7.36074 16.0829 7.3561 16.0782 7.35148L19.444 3.58152ZM15.5534 8.53772C15.8397 8.84961 16.1405 9.20961 16.4343 9.58775L17.3818 8.85145C17.0721 8.45286 16.7501 8.0669 16.4373 7.72618L15.5534 8.53772ZM16.7128 9.95431C16.9981 10.3383 17.2664 10.7263 17.497 11.0871L18.5082 10.4409C18.2611 10.0542 17.9765 9.64311 17.6761 9.23871L16.7128 9.95431ZM17.7353 11.4731C17.8593 11.6818 17.963 11.8712 18.0433 12.0349C18.1136 12.2069 18.1838 12.4072 18.2527 12.6309L19.3995 12.2777C19.3205 12.021 19.2357 11.7785 19.1456 11.5601L19.1386 11.5432L19.1306 11.5268C19.0308 11.3214 18.907 11.096 18.7671 10.8604L17.7353 11.4731ZM18.3761 13.0621C18.4866 13.4758 18.5875 13.9315 18.6749 14.3968L19.8543 14.1755C19.7625 13.6864 19.6551 13.2007 19.5355 12.7527L18.3761 13.0621ZM18.7549 14.8487C18.8334 15.3195 18.896 15.7849 18.9389 16.2106L20.1328 16.0904C20.0871 15.6368 20.021 15.1457 19.9386 14.6513L18.7549 14.8487Z" fill="#3F3E4E"/>
</svg>
