<svg width="24" height="24" viewBox="0 0 24 24" fill="none" xmlns="http://www.w3.org/2000/svg">
<path d="M7.08984 3.28669L13.8641 6.23824L7.08984 9.1898V3.28669Z" stroke="current"/>
<path d="M21.0821 19.1747C21.0821 19.5108 20.9045 19.8891 20.456 20.2913C20.0077 20.6934 19.3309 21.0784 18.4518 21.4119C16.6972 22.0776 14.2395 22.4997 11.5001 22.4997C8.76061 22.4997 6.30293 22.0776 4.5483 21.4119C3.66923 21.0784 2.99237 20.6934 2.54413 20.2913C2.09565 19.8891 1.91797 19.5108 1.91797 19.1747C1.91797 18.8386 2.09565 18.4603 2.54413 18.058C2.99237 17.6559 3.66923 17.2709 4.5483 16.9374C6.30293 16.2717 8.76061 15.8496 11.5001 15.8496C14.2395 15.8496 16.6972 16.2717 18.4518 16.9374C19.3309 17.2709 20.0077 17.6559 20.456 18.058C20.9045 18.4603 21.0821 18.8386 21.0821 19.1747Z" stroke="current"/>
<path d="M7.5918 2.38084V18.1025C7.5918 18.3855 7.37482 18.6231 7.0918 18.6231C6.80877 18.6231 6.5918 18.3855 6.5918 18.1025V2.38084C6.5918 2.17372 6.81987 2 7.0918 2C7.3725 1.99933 7.5918 2.17305 7.5918 2.38084Z" fill="current"/>
<path d="M12.1278 19.2556C12.7507 19.2556 13.2556 18.7507 13.2556 18.1278C13.2556 17.5049 12.7507 17 12.1278 17C11.5049 17 11 17.5049 11 18.1278C11 18.7507 11.5049 19.2556 12.1278 19.2556Z" fill="current"/>
</svg>
