<svg width="14" height="11" viewBox="0 0 14 11" fill="none" xmlns="http://www.w3.org/2000/svg">
<path fill-rule="evenodd" clip-rule="evenodd" d="M1.55237 1.78123L6.81341 5.46396L12.0745 1.78123C11.9785 1.54688 11.7471 1.3798 11.4801 1.3798H2.14674C1.87976 1.3798 1.64836 1.54688 1.55237 1.78123ZM12.1217 3.02981L7.11448 6.5349C6.93371 6.66144 6.69311 6.66144 6.51234 6.5349L1.50508 3.02981V9.02147C1.50508 9.37319 1.79503 9.66314 2.14674 9.66314H11.4801C11.8318 9.66314 12.1217 9.37319 12.1217 9.02147V3.02981ZM0.455078 2.02147C0.455078 1.08985 1.21513 0.329803 2.14674 0.329803H11.4801C12.4117 0.329803 13.1717 1.08985 13.1717 2.02147V9.02147C13.1717 9.95309 12.4117 10.7131 11.4801 10.7131H2.14674C1.21513 10.7131 0.455078 9.95309 0.455078 9.02147V2.02147Z" fill="#40ABFF"/>
</svg>
