<svg width="41" height="41" viewBox="0 0 41 41" fill="none" xmlns="http://www.w3.org/2000/svg">
<g clip-path="url(#clip0_215_74678)">
<mask id="path-1-outside-1_215_74678" maskUnits="userSpaceOnUse" x="3.38379" y="1.08765" width="35" height="40" fill="black">
<rect fill="white" x="3.38379" y="1.08765" width="35" height="40"/>
<path fill-rule="evenodd" clip-rule="evenodd" d="M24.9262 34.5884C32.0844 32.7855 37.3834 26.3053 37.3834 18.5875C37.3834 9.47486 29.9962 2.08765 20.8836 2.08765C11.771 2.08765 4.38379 9.47486 4.38379 18.5875C4.38379 25.9267 9.1756 32.1468 15.8013 34.2897C17.2172 35.4417 18.4096 36.8348 18.9479 38.5239C19.1381 39.1209 19.6569 39.5881 20.2835 39.5881V35.0766C20.2836 35.0766 20.2837 35.0766 20.2838 35.0766V39.5881C20.9917 39.5881 21.5783 39.0642 21.8311 38.403C22.4019 36.9104 23.5479 35.6518 24.9262 34.5884Z"/>
</mask>
<path fill-rule="evenodd" clip-rule="evenodd" d="M24.9262 34.5884C32.0844 32.7855 37.3834 26.3053 37.3834 18.5875C37.3834 9.47486 29.9962 2.08765 20.8836 2.08765C11.771 2.08765 4.38379 9.47486 4.38379 18.5875C4.38379 25.9267 9.1756 32.1468 15.8013 34.2897C17.2172 35.4417 18.4096 36.8348 18.9479 38.5239C19.1381 39.1209 19.6569 39.5881 20.2835 39.5881V35.0766C20.2836 35.0766 20.2837 35.0766 20.2838 35.0766V39.5881C20.9917 39.5881 21.5783 39.0642 21.8311 38.403C22.4019 36.9104 23.5479 35.6518 24.9262 34.5884Z" fill="#EA352B"/>
<path d="M24.9262 34.5884L24.682 33.6187L24.4802 33.6695L24.3154 33.7967L24.9262 34.5884ZM15.8013 34.2897L16.4324 33.514L16.2872 33.3959L16.109 33.3382L15.8013 34.2897ZM18.9479 38.5239L17.9951 38.8275L18.9479 38.5239ZM20.2835 39.5881V40.5881H21.2835V39.5881H20.2835ZM20.2835 35.0766V34.0766H19.2835V35.0766H20.2835ZM20.2838 35.0766H21.2838V34.0766H20.2838V35.0766ZM20.2838 39.5881H19.2838V40.5881H20.2838V39.5881ZM21.8311 38.403L22.7652 38.7602L21.8311 38.403ZM25.1705 35.5581C32.7624 33.646 38.3834 26.7744 38.3834 18.5875H36.3834C36.3834 25.8362 31.4065 31.925 24.682 33.6187L25.1705 35.5581ZM38.3834 18.5875C38.3834 8.92258 30.5485 1.08765 20.8836 1.08765V3.08765C29.4439 3.08765 36.3834 10.0271 36.3834 18.5875H38.3834ZM20.8836 1.08765C11.2187 1.08765 3.38379 8.92258 3.38379 18.5875H5.38379C5.38379 10.0271 12.3233 3.08765 20.8836 3.08765V1.08765ZM3.38379 18.5875C3.38379 26.373 8.46732 32.9687 15.4936 35.2412L16.109 33.3382C9.88388 31.3248 5.38379 25.4804 5.38379 18.5875H3.38379ZM19.9007 38.2203C19.2811 36.2758 17.9296 34.7321 16.4324 33.514L15.1702 35.0654C16.5048 36.1512 17.5382 37.3938 17.9951 38.8275L19.9007 38.2203ZM20.2835 38.5881C20.2277 38.5881 20.1618 38.5691 20.0888 38.5088C20.0119 38.4452 19.9403 38.3445 19.9007 38.2203L17.9951 38.8275C18.2867 39.7425 19.1279 40.5881 20.2835 40.5881V38.5881ZM19.2835 35.0766V39.5881H21.2835V35.0766H19.2835ZM20.2835 36.0766C20.2646 36.0766 20.2494 36.076 20.2402 36.0756C20.2356 36.0754 20.2318 36.0752 20.2295 36.0751C20.2274 36.075 20.2257 36.0749 20.226 36.0749C20.226 36.0749 20.226 36.0749 20.226 36.0749C20.226 36.0749 20.226 36.0749 20.226 36.0749C20.226 36.0749 20.226 36.0749 20.226 36.0749C20.2261 36.0749 20.2261 36.0749 20.2262 36.0749C20.2264 36.0749 20.2266 36.0749 20.2269 36.075C20.2275 36.075 20.2284 36.075 20.2296 36.0751C20.2319 36.0752 20.2357 36.0754 20.2404 36.0756C20.2496 36.076 20.2649 36.0766 20.2838 36.0766V34.0766C20.3027 34.0766 20.3179 34.0771 20.3271 34.0775C20.3317 34.0777 20.3355 34.0779 20.3378 34.078C20.3399 34.0781 20.3416 34.0782 20.3413 34.0782C20.3413 34.0782 20.3413 34.0782 20.3413 34.0782C20.3413 34.0782 20.3413 34.0782 20.3413 34.0782C20.3413 34.0782 20.3413 34.0782 20.3413 34.0782C20.3412 34.0782 20.3412 34.0782 20.3411 34.0782C20.3409 34.0782 20.3407 34.0782 20.3404 34.0782C20.3398 34.0781 20.3389 34.0781 20.3377 34.078C20.3354 34.0779 20.3316 34.0777 20.3269 34.0775C20.3177 34.0771 20.3024 34.0766 20.2835 34.0766V36.0766ZM19.2838 35.0766V39.5881H21.2838V35.0766H19.2838ZM20.2838 40.5881C21.5172 40.5881 22.4083 39.6932 22.7652 38.7602L20.8971 38.0458C20.7482 38.4351 20.4662 38.5881 20.2838 38.5881V40.5881ZM22.7652 38.7602C23.245 37.5055 24.2358 36.3841 25.5371 35.3801L24.3154 33.7967C22.86 34.9195 21.5588 36.3154 20.8971 38.0458L22.7652 38.7602Z" fill="url(#paint0_linear_215_74678)" mask="url(#path-1-outside-1_215_74678)"/>
<circle cx="20.5835" cy="18.5876" r="12.5999" fill="white"/>
<ellipse cx="20.3065" cy="27.3555" rx="5.92267" ry="1.61527" fill="black"/>
<circle cx="21.3607" cy="25.0119" r="3.00307" fill="#BBCAE8"/>
<circle cx="21.3612" cy="24.0575" r="0.409509" fill="white"/>
<circle cx="20.2691" cy="23.2371" r="0.409509" fill="white"/>
<circle cx="19.586" cy="24.3304" r="0.409509" fill="white"/>
<path d="M28.0182 13.9593C27.3653 13.3067 26.4972 12.9469 25.5741 12.9469C24.7138 12.9469 23.8925 12.5361 23.3764 11.8481L22.71 10.9591C22.3116 10.4285 21.6775 10.1112 21.0132 10.1112C20.5928 10.1112 20.1862 10.2346 19.8374 10.4671L19.5918 10.6309C19.1561 10.9215 18.5394 10.8609 18.1679 10.4898L17.5391 9.8606C17.6032 9.92475 17.6429 10.0134 17.6429 10.1112V18.6897L19.4691 17.4721C19.9431 17.1555 20.5807 17.1162 21.0912 17.3714L21.5169 17.5844C21.9426 17.7971 22.419 17.9095 22.8944 17.9095C23.7167 17.9095 24.4905 17.5894 25.0722 17.0074C25.8751 16.2045 26.9364 15.6739 28.0604 15.5133L29.3836 15.3247L28.0182 13.9593Z" fill="#EA352B"/>
<rect x="16.5378" y="9.58765" width="1.07685" height="18.3064" rx="0.538425" fill="black"/>
</g>
<defs>
<linearGradient id="paint0_linear_215_74678" x1="20.8836" y1="2.08765" x2="20.8836" y2="44.9831" gradientUnits="userSpaceOnUse">
<stop stop-color="white"/>
<stop offset="1" stop-color="white" stop-opacity="0.35"/>
</linearGradient>
<clipPath id="clip0_215_74678">
<rect width="40" height="40" fill="white" transform="translate(0.633789 0.837646)"/>
</clipPath>
</defs>
</svg>
