<svg width="49" height="49" viewBox="0 0 49 49" fill="none" xmlns="http://www.w3.org/2000/svg">
<path d="M38 16.5303V20.7303C37.12 20.6103 36.12 20.5503 35 20.5303V16.5303C35 10.2303 33.22 6.03027 24.5 6.03027C15.78 6.03027 14 10.2303 14 16.5303V20.5303C12.88 20.5503 11.88 20.6103 11 20.7303V16.5303C11 10.7303 12.4 3.03027 24.5 3.03027C36.6 3.03027 38 10.7303 38 16.5303Z" fill="#3F3E4E"/>
<path opacity="0.4" d="M44.5 30.5303V34.5303C44.5 42.5303 42.5 44.5303 34.5 44.5303H14.5C6.5 44.5303 4.5 42.5303 4.5 34.5303V30.5303C4.5 23.8503 5.9 21.3503 11 20.7303C11.88 20.6103 12.88 20.5503 14 20.5303H35C36.12 20.5503 37.12 20.6103 38 20.7303C43.1 21.3503 44.5 23.8503 44.5 30.5303Z" fill="#3F3E4E"/>
<path d="M16.5 34.5303C16.24 34.5303 15.98 34.4702 15.74 34.3702C15.48 34.2702 15.28 34.1303 15.08 33.9503C14.72 33.5703 14.5 33.0503 14.5 32.5302C14.5 32.2702 14.56 32.0102 14.66 31.7702C14.76 31.5302 14.9 31.3102 15.08 31.1102C15.28 30.9302 15.48 30.7903 15.74 30.6903C16.48 30.3703 17.36 30.5502 17.92 31.1102C18.1 31.3102 18.24 31.5302 18.34 31.7702C18.44 32.0102 18.5 32.2702 18.5 32.5302C18.5 33.0503 18.28 33.5703 17.92 33.9503C17.54 34.3103 17.02 34.5303 16.5 34.5303Z" fill="#3F3E4E"/>
<path d="M24.5 34.5302C23.96 34.5302 23.46 34.3102 23.08 33.9502C22.9 33.7502 22.76 33.5302 22.66 33.2902C22.56 33.0502 22.5 32.7902 22.5 32.5302C22.5 31.9902 22.72 31.4902 23.08 31.1102C23.82 30.3702 25.16 30.3702 25.92 31.1102C26.28 31.4902 26.5 31.9902 26.5 32.5302C26.5 32.7902 26.44 33.0502 26.34 33.2902C26.24 33.5302 26.1 33.7502 25.92 33.9502C25.54 34.3102 25.02 34.5302 24.5 34.5302Z" fill="#3F3E4E"/>
<path d="M32.5 34.5302C31.98 34.5302 31.46 34.3102 31.08 33.9502C30.72 33.5702 30.5 33.0702 30.5 32.5302C30.5 31.9902 30.72 31.4902 31.08 31.1102C31.84 30.3702 33.18 30.3702 33.92 31.1102C34 31.2102 34.08 31.3102 34.16 31.4302C34.24 31.5302 34.3 31.6502 34.34 31.7702C34.4 31.8902 34.44 32.0102 34.46 32.1302C34.48 32.2702 34.5 32.4102 34.5 32.5302C34.5 33.0502 34.28 33.5702 33.92 33.9502C33.54 34.3102 33.02 34.5302 32.5 34.5302Z" fill="#3F3E4E"/>
</svg>
