<svg width="24" height="24" viewBox="0 0 24 24" fill="none" xmlns="http://www.w3.org/2000/svg">
<g clip-path="url(#clip0_3840_193192)">
<path d="M20.4087 5.82813H18.8443V6.52253C18.8443 6.67307 18.7845 6.81745 18.6781 6.9239C18.5716 7.03035 18.4273 7.09016 18.2767 7.09016H17.2372C17.0866 7.09016 16.9423 7.03035 16.8358 6.9239C16.7294 6.81745 16.6696 6.67307 16.6696 6.52253V5.82813H12.9565V6.52253C12.9565 6.67307 12.8967 6.81745 12.7902 6.9239C12.6838 7.03035 12.5394 7.09016 12.3889 7.09016H11.349C11.1984 7.09016 11.054 7.03035 10.9476 6.9239C10.8411 6.81745 10.7813 6.67307 10.7813 6.52253V5.82813H7.06828V6.52253C7.06828 6.67307 7.00848 6.81745 6.90203 6.9239C6.79557 7.03035 6.65119 7.09016 6.50065 7.09016H5.46113C5.31058 7.09016 5.1662 7.03035 5.05975 6.9239C4.9533 6.81745 4.8935 6.67307 4.8935 6.52253V5.82813H3.33819C3.18329 5.82833 3.03479 5.88995 2.92526 5.99948C2.81573 6.10901 2.75411 6.25751 2.75391 6.41241V8.35408H20.9938V6.41241C20.9936 6.25738 20.9319 6.10876 20.8222 5.99921C20.7125 5.88966 20.5638 5.82812 20.4087 5.82813Z" fill="white"/>
<path d="M6.50524 5.65467C6.50524 5.65013 6.50524 5.64559 6.50524 5.64105C6.50524 5.63651 6.50524 5.63234 6.50524 5.62818V4.75781H5.46875V6.52352H6.50713L6.50524 5.65467Z" fill="white"/>
<path d="M18.2771 5.65543C18.2771 5.65089 18.2771 5.64597 18.2771 5.64142C18.2771 5.63688 18.2771 5.63272 18.2771 5.62818V4.75781H17.2402V6.52352H18.2786L18.2771 5.65543Z" fill="white"/>
<path d="M12.392 5.65543C12.392 5.65089 12.392 5.64597 12.392 5.64142C12.392 5.63688 12.392 5.63272 12.392 5.62818V4.75781H11.3555V6.52352H12.3939L12.392 5.65543Z" fill="white"/>
<mask id="path-5-outside-1_3840_193192" maskUnits="userSpaceOnUse" x="1.18555" y="3" width="21" height="18" fill="black">
<rect fill="white" x="1.18555" y="3" width="21" height="18"/>
<path d="M20.408 5.26203H19.0332V4.75684C19.0332 4.55611 18.9535 4.36361 18.8115 4.22167C18.6696 4.07974 18.4771 4 18.2764 4H17.2368C17.0361 4 16.8436 4.07974 16.7017 4.22167C16.5597 4.36361 16.48 4.55611 16.48 4.75684V5.26203H13.1457V4.75684C13.1457 4.55611 13.066 4.36361 12.9241 4.22167C12.7821 4.07974 12.5896 4 12.3889 4H11.3494C11.1487 4 10.9561 4.07974 10.8142 4.22167C10.6723 4.36361 10.5925 4.55611 10.5925 4.75684V5.26203H7.2579V4.75684C7.2579 4.55611 7.17816 4.36361 7.03622 4.22167C6.89428 4.07974 6.70178 4 6.50105 4H5.46797C5.26724 4 5.07473 4.07974 4.9328 4.22167C4.79086 4.36361 4.71113 4.55611 4.71113 4.75684V5.26203H3.33746C3.18616 5.26203 3.03633 5.29184 2.89655 5.34975C2.75677 5.40767 2.62977 5.49255 2.5228 5.59955C2.41583 5.70656 2.33099 5.83359 2.27312 5.97339C2.21525 6.11319 2.1855 6.26302 2.18555 6.41432V18.8477C2.1855 18.999 2.21525 19.1488 2.27312 19.2886C2.33099 19.4284 2.41583 19.5555 2.5228 19.6625C2.62977 19.7695 2.75677 19.8544 2.89655 19.9123C3.03633 19.9702 3.18616 20 3.33746 20H20.408C20.5593 20 20.7092 19.9702 20.849 19.9123C20.9888 19.8544 21.1158 19.7695 21.2228 19.6625C21.3298 19.5555 21.4147 19.4285 21.4726 19.2887C21.5305 19.1489 21.5603 18.999 21.5603 18.8477V6.41432C21.5603 6.263 21.5305 6.11316 21.4726 5.97336C21.4147 5.83356 21.3298 5.70653 21.2228 5.59953C21.1158 5.49253 20.9888 5.40765 20.849 5.34975C20.7092 5.29184 20.5593 5.26203 20.408 5.26203ZM17.2395 4.75835H18.2764V5.62872C18.2764 5.63326 18.2764 5.63743 18.2764 5.64197C18.2764 5.64651 18.2764 5.65143 18.2764 5.65597V6.52634H17.238L17.2395 4.75835ZM11.3547 4.75835H12.3912V5.62872C12.3912 5.63326 12.3912 5.63743 12.3912 5.64197C12.3912 5.64651 12.3912 5.65143 12.3912 5.65597V6.52634H11.3528L11.3547 4.75835ZM5.46948 4.75835H6.50597V5.62872C6.50597 5.63288 6.50597 5.63743 6.50597 5.64159C6.50597 5.64575 6.50597 5.65067 6.50597 5.65521V6.52558H5.46759L5.46948 4.75835ZM20.8035 18.8477C20.8035 18.9526 20.7618 19.0532 20.6876 19.1273C20.6135 19.2015 20.5129 19.2432 20.408 19.2432H3.33746C3.28555 19.2432 3.23414 19.2329 3.18618 19.213C3.13823 19.1932 3.09466 19.164 3.05797 19.1273C3.02128 19.0906 2.99218 19.047 2.97235 18.999C2.95252 18.951 2.94234 18.8996 2.94239 18.8477V8.92325H20.8038L20.8035 18.8477ZM20.8035 6.41432V8.16641H2.94201V6.41432C2.94196 6.36241 2.95214 6.311 2.97197 6.26302C2.9918 6.21504 3.0209 6.17145 3.05759 6.13472C3.09428 6.098 3.13785 6.06886 3.1858 6.04898C3.23376 6.0291 3.28517 6.01887 3.33708 6.01887H4.71226V6.52406C4.71226 6.72479 4.792 6.9173 4.93393 7.05923C5.07587 7.20117 5.26837 7.28091 5.4691 7.28091H6.509C6.70973 7.28091 6.90224 7.20117 7.04417 7.05923C7.18611 6.9173 7.26584 6.72479 7.26584 6.52406V6.01887H10.6005V6.52406C10.6005 6.72479 10.6802 6.9173 10.8222 7.05923C10.9641 7.20117 11.1566 7.28091 11.3573 7.28091H12.3972C12.598 7.28091 12.7905 7.20117 12.9324 7.05923C13.0743 6.9173 13.1541 6.72479 13.1541 6.52406V6.01887H16.4883V6.52406C16.4883 6.72479 16.5681 6.9173 16.71 7.05923C16.8519 7.20117 17.0444 7.28091 17.2452 7.28091H18.2847C18.4854 7.28091 18.6779 7.20117 18.8199 7.05923C18.9618 6.9173 19.0415 6.72479 19.0415 6.52406V6.01887H20.408C20.5128 6.01887 20.6134 6.06048 20.6875 6.13456C20.7617 6.20864 20.8034 6.30913 20.8035 6.41394V6.41432Z"/>
</mask>
<path d="M20.408 5.26203H19.0332V4.75684C19.0332 4.55611 18.9535 4.36361 18.8115 4.22167C18.6696 4.07974 18.4771 4 18.2764 4H17.2368C17.0361 4 16.8436 4.07974 16.7017 4.22167C16.5597 4.36361 16.48 4.55611 16.48 4.75684V5.26203H13.1457V4.75684C13.1457 4.55611 13.066 4.36361 12.9241 4.22167C12.7821 4.07974 12.5896 4 12.3889 4H11.3494C11.1487 4 10.9561 4.07974 10.8142 4.22167C10.6723 4.36361 10.5925 4.55611 10.5925 4.75684V5.26203H7.2579V4.75684C7.2579 4.55611 7.17816 4.36361 7.03622 4.22167C6.89428 4.07974 6.70178 4 6.50105 4H5.46797C5.26724 4 5.07473 4.07974 4.9328 4.22167C4.79086 4.36361 4.71113 4.55611 4.71113 4.75684V5.26203H3.33746C3.18616 5.26203 3.03633 5.29184 2.89655 5.34975C2.75677 5.40767 2.62977 5.49255 2.5228 5.59955C2.41583 5.70656 2.33099 5.83359 2.27312 5.97339C2.21525 6.11319 2.1855 6.26302 2.18555 6.41432V18.8477C2.1855 18.999 2.21525 19.1488 2.27312 19.2886C2.33099 19.4284 2.41583 19.5555 2.5228 19.6625C2.62977 19.7695 2.75677 19.8544 2.89655 19.9123C3.03633 19.9702 3.18616 20 3.33746 20H20.408C20.5593 20 20.7092 19.9702 20.849 19.9123C20.9888 19.8544 21.1158 19.7695 21.2228 19.6625C21.3298 19.5555 21.4147 19.4285 21.4726 19.2887C21.5305 19.1489 21.5603 18.999 21.5603 18.8477V6.41432C21.5603 6.263 21.5305 6.11316 21.4726 5.97336C21.4147 5.83356 21.3298 5.70653 21.2228 5.59953C21.1158 5.49253 20.9888 5.40765 20.849 5.34975C20.7092 5.29184 20.5593 5.26203 20.408 5.26203ZM17.2395 4.75835H18.2764V5.62872C18.2764 5.63326 18.2764 5.63743 18.2764 5.64197C18.2764 5.64651 18.2764 5.65143 18.2764 5.65597V6.52634H17.238L17.2395 4.75835ZM11.3547 4.75835H12.3912V5.62872C12.3912 5.63326 12.3912 5.63743 12.3912 5.64197C12.3912 5.64651 12.3912 5.65143 12.3912 5.65597V6.52634H11.3528L11.3547 4.75835ZM5.46948 4.75835H6.50597V5.62872C6.50597 5.63288 6.50597 5.63743 6.50597 5.64159C6.50597 5.64575 6.50597 5.65067 6.50597 5.65521V6.52558H5.46759L5.46948 4.75835ZM20.8035 18.8477C20.8035 18.9526 20.7618 19.0532 20.6876 19.1273C20.6135 19.2015 20.5129 19.2432 20.408 19.2432H3.33746C3.28555 19.2432 3.23414 19.2329 3.18618 19.213C3.13823 19.1932 3.09466 19.164 3.05797 19.1273C3.02128 19.0906 2.99218 19.047 2.97235 18.999C2.95252 18.951 2.94234 18.8996 2.94239 18.8477V8.92325H20.8038L20.8035 18.8477ZM20.8035 6.41432V8.16641H2.94201V6.41432C2.94196 6.36241 2.95214 6.311 2.97197 6.26302C2.9918 6.21504 3.0209 6.17145 3.05759 6.13472C3.09428 6.098 3.13785 6.06886 3.1858 6.04898C3.23376 6.0291 3.28517 6.01887 3.33708 6.01887H4.71226V6.52406C4.71226 6.72479 4.792 6.9173 4.93393 7.05923C5.07587 7.20117 5.26837 7.28091 5.4691 7.28091H6.509C6.70973 7.28091 6.90224 7.20117 7.04417 7.05923C7.18611 6.9173 7.26584 6.72479 7.26584 6.52406V6.01887H10.6005V6.52406C10.6005 6.72479 10.6802 6.9173 10.8222 7.05923C10.9641 7.20117 11.1566 7.28091 11.3573 7.28091H12.3972C12.598 7.28091 12.7905 7.20117 12.9324 7.05923C13.0743 6.9173 13.1541 6.72479 13.1541 6.52406V6.01887H16.4883V6.52406C16.4883 6.72479 16.5681 6.9173 16.71 7.05923C16.8519 7.20117 17.0444 7.28091 17.2452 7.28091H18.2847C18.4854 7.28091 18.6779 7.20117 18.8199 7.05923C18.9618 6.9173 19.0415 6.72479 19.0415 6.52406V6.01887H20.408C20.5128 6.01887 20.6134 6.06048 20.6875 6.13456C20.7617 6.20864 20.8034 6.30913 20.8035 6.41394V6.41432Z" fill="white"/>
<path d="M20.408 5.26203H19.0332V4.75684C19.0332 4.55611 18.9535 4.36361 18.8115 4.22167C18.6696 4.07974 18.4771 4 18.2764 4H17.2368C17.0361 4 16.8436 4.07974 16.7017 4.22167C16.5597 4.36361 16.48 4.55611 16.48 4.75684V5.26203H13.1457V4.75684C13.1457 4.55611 13.066 4.36361 12.9241 4.22167C12.7821 4.07974 12.5896 4 12.3889 4H11.3494C11.1487 4 10.9561 4.07974 10.8142 4.22167C10.6723 4.36361 10.5925 4.55611 10.5925 4.75684V5.26203H7.2579V4.75684C7.2579 4.55611 7.17816 4.36361 7.03622 4.22167C6.89428 4.07974 6.70178 4 6.50105 4H5.46797C5.26724 4 5.07473 4.07974 4.9328 4.22167C4.79086 4.36361 4.71113 4.55611 4.71113 4.75684V5.26203H3.33746C3.18616 5.26203 3.03633 5.29184 2.89655 5.34975C2.75677 5.40767 2.62977 5.49255 2.5228 5.59955C2.41583 5.70656 2.33099 5.83359 2.27312 5.97339C2.21525 6.11319 2.1855 6.26302 2.18555 6.41432V18.8477C2.1855 18.999 2.21525 19.1488 2.27312 19.2886C2.33099 19.4284 2.41583 19.5555 2.5228 19.6625C2.62977 19.7695 2.75677 19.8544 2.89655 19.9123C3.03633 19.9702 3.18616 20 3.33746 20H20.408C20.5593 20 20.7092 19.9702 20.849 19.9123C20.9888 19.8544 21.1158 19.7695 21.2228 19.6625C21.3298 19.5555 21.4147 19.4285 21.4726 19.2887C21.5305 19.1489 21.5603 18.999 21.5603 18.8477V6.41432C21.5603 6.263 21.5305 6.11316 21.4726 5.97336C21.4147 5.83356 21.3298 5.70653 21.2228 5.59953C21.1158 5.49253 20.9888 5.40765 20.849 5.34975C20.7092 5.29184 20.5593 5.26203 20.408 5.26203ZM17.2395 4.75835H18.2764V5.62872C18.2764 5.63326 18.2764 5.63743 18.2764 5.64197C18.2764 5.64651 18.2764 5.65143 18.2764 5.65597V6.52634H17.238L17.2395 4.75835ZM11.3547 4.75835H12.3912V5.62872C12.3912 5.63326 12.3912 5.63743 12.3912 5.64197C12.3912 5.64651 12.3912 5.65143 12.3912 5.65597V6.52634H11.3528L11.3547 4.75835ZM5.46948 4.75835H6.50597V5.62872C6.50597 5.63288 6.50597 5.63743 6.50597 5.64159C6.50597 5.64575 6.50597 5.65067 6.50597 5.65521V6.52558H5.46759L5.46948 4.75835ZM20.8035 18.8477C20.8035 18.9526 20.7618 19.0532 20.6876 19.1273C20.6135 19.2015 20.5129 19.2432 20.408 19.2432H3.33746C3.28555 19.2432 3.23414 19.2329 3.18618 19.213C3.13823 19.1932 3.09466 19.164 3.05797 19.1273C3.02128 19.0906 2.99218 19.047 2.97235 18.999C2.95252 18.951 2.94234 18.8996 2.94239 18.8477V8.92325H20.8038L20.8035 18.8477ZM20.8035 6.41432V8.16641H2.94201V6.41432C2.94196 6.36241 2.95214 6.311 2.97197 6.26302C2.9918 6.21504 3.0209 6.17145 3.05759 6.13472C3.09428 6.098 3.13785 6.06886 3.1858 6.04898C3.23376 6.0291 3.28517 6.01887 3.33708 6.01887H4.71226V6.52406C4.71226 6.72479 4.792 6.9173 4.93393 7.05923C5.07587 7.20117 5.26837 7.28091 5.4691 7.28091H6.509C6.70973 7.28091 6.90224 7.20117 7.04417 7.05923C7.18611 6.9173 7.26584 6.72479 7.26584 6.52406V6.01887H10.6005V6.52406C10.6005 6.72479 10.6802 6.9173 10.8222 7.05923C10.9641 7.20117 11.1566 7.28091 11.3573 7.28091H12.3972C12.598 7.28091 12.7905 7.20117 12.9324 7.05923C13.0743 6.9173 13.1541 6.72479 13.1541 6.52406V6.01887H16.4883V6.52406C16.4883 6.72479 16.5681 6.9173 16.71 7.05923C16.8519 7.20117 17.0444 7.28091 17.2452 7.28091H18.2847C18.4854 7.28091 18.6779 7.20117 18.8199 7.05923C18.9618 6.9173 19.0415 6.72479 19.0415 6.52406V6.01887H20.408C20.5128 6.01887 20.6134 6.06048 20.6875 6.13456C20.7617 6.20864 20.8034 6.30913 20.8035 6.41394V6.41432Z" stroke="white" stroke-width="0.233333" mask="url(#path-5-outside-1_3840_193192)"/>
<rect x="5.58555" y="11.9" width="12.7" height="0.95" rx="0.475" fill="white" stroke="white" stroke-width="0.2"/>
<rect x="5.58555" y="15.15" width="12.7" height="0.95" rx="0.475" fill="white" stroke="white" stroke-width="0.2"/>
</g>
<defs>
<clipPath id="clip0_3840_193192">
<rect width="24" height="24" fill="white"/>
</clipPath>
</defs>
</svg>
