<svg width="19" height="19" viewBox="0 0 19 19" fill="none" xmlns="http://www.w3.org/2000/svg">
<path d="M6.0042 9.04609C6.0042 7.38782 7.34774 6.04318 9.00552 6.04318C10.6633 6.04318 12.0076 7.38782 12.0076 9.04609C12.0076 10.7044 10.6633 12.049 9.00552 12.049C7.34774 12.049 6.0042 10.7044 6.0042 9.04609ZM4.38136 9.04609C4.38136 11.6008 6.45159 13.6716 9.00552 13.6716C11.5595 13.6716 13.6297 11.6008 13.6297 9.04609C13.6297 6.49142 11.5595 4.42059 9.00552 4.42059C6.45159 4.42059 4.38136 6.49142 4.38136 9.04609ZM12.7321 4.23718C12.732 4.45098 12.7953 4.66 12.914 4.83781C13.0327 5.01562 13.2014 5.15423 13.3988 5.23613C13.5962 5.31802 13.8135 5.33951 14.0232 5.29789C14.2328 5.25626 14.4254 5.15339 14.5766 5.00228C14.7278 4.85116 14.8308 4.65859 14.8726 4.44892C14.9143 4.23926 14.893 4.0219 14.8113 3.82435C14.7296 3.6268 14.5912 3.45792 14.4135 3.33907C14.2358 3.22022 14.0269 3.15674 13.8132 3.15666C13.5267 3.15679 13.2515 3.27066 13.0489 3.47326C12.8463 3.67585 12.7324 3.95061 12.7321 4.23718ZM5.36734 16.3784C4.48935 16.3384 4.01214 16.1921 3.695 16.0685C3.27456 15.9048 2.97457 15.7098 2.65917 15.3947C2.34376 15.0796 2.14852 14.7799 1.98556 14.3593C1.86193 14.0422 1.71569 13.5647 1.67578 12.6865C1.63212 11.737 1.6234 11.4517 1.6234 9.04616C1.6234 6.64059 1.63284 6.35615 1.67578 5.40585C1.71576 4.5276 1.86309 4.05104 1.98556 3.73302C2.14924 3.31246 2.34419 3.01238 2.65917 2.69689C2.97414 2.38139 3.27384 2.1861 3.695 2.02309C4.01199 1.89943 4.48935 1.75314 5.36734 1.71321C6.31658 1.66954 6.60173 1.66082 9.00552 1.66082C11.4093 1.66082 11.6948 1.67026 12.6448 1.71321C13.5228 1.75321 13.9992 1.90058 14.3171 2.02309C14.7376 2.1861 15.0376 2.38182 15.353 2.69689C15.6684 3.01195 15.8629 3.31246 16.0266 3.73302C16.1502 4.05011 16.2964 4.5276 16.3364 5.40585C16.38 6.35615 16.3887 6.64059 16.3887 9.04616C16.3887 11.4517 16.38 11.7362 16.3364 12.6865C16.2964 13.5647 16.1494 14.0421 16.0266 14.3593C15.8629 14.7799 15.6679 15.0799 15.353 15.3947C15.038 15.7095 14.7376 15.9048 14.3171 16.0685C14.0001 16.1922 13.5228 16.3385 12.6448 16.3784C11.6955 16.4221 11.4104 16.4308 9.00552 16.4308C6.60065 16.4308 6.3163 16.4221 5.36734 16.3784ZM5.29278 0.0926384C4.3341 0.136309 3.67901 0.288364 3.10691 0.511042C2.51443 0.740998 2.01287 1.0495 1.51166 1.55006C1.01046 2.05062 0.702832 2.55312 0.472942 3.14577C0.250328 3.71839 0.098317 4.37331 0.0546588 5.33227C0.0102802 6.29274 0.00012207 6.5998 0.00012207 9.04609C0.00012207 11.4924 0.0102802 11.7994 0.0546588 12.7599C0.098317 13.7189 0.250328 14.3738 0.472942 14.9464C0.702832 15.5387 1.01053 16.0418 1.51166 16.5421C2.01279 17.0425 2.51443 17.3505 3.10691 17.5811C3.68009 17.8038 4.3341 17.9559 5.29278 17.9995C6.25347 18.0432 6.55995 18.0541 9.00552 18.0541C11.4511 18.0541 11.7581 18.0439 12.7183 17.9995C13.677 17.9559 14.3317 17.8038 14.9041 17.5811C15.4963 17.3505 15.9982 17.0427 16.4994 16.5421C17.0006 16.0416 17.3076 15.5387 17.5381 14.9464C17.7607 14.3738 17.9135 13.7189 17.9564 12.7599C18 11.7987 18.0102 11.4924 18.0102 9.04609C18.0102 6.5998 18 6.29274 17.9564 5.33227C17.9127 4.37324 17.7607 3.71803 17.5381 3.14577C17.3076 2.55348 16.9998 2.05141 16.4994 1.55006C15.999 1.04871 15.4963 0.740998 14.9049 0.511042C14.3317 0.288364 13.677 0.135589 12.719 0.0926384C11.7588 0.0489676 11.4518 0.0380859 9.00624 0.0380859C6.56067 0.0380859 6.25347 0.048247 5.29278 0.0926384Z" fill="#1A1B1E"/>
</svg>
