<svg width="57" height="57" viewBox="0 0 57 57" fill="none" xmlns="http://www.w3.org/2000/svg">
<g opacity="0.9" filter="url(#filter0_d_1321_62761)">
<g clip-path="url(#clip0_1321_62761)">
<path fill-rule="evenodd" clip-rule="evenodd" d="M28.1875 46.5C39.2332 46.5 48.1875 37.5457 48.1875 26.5C48.1875 15.4543 39.2332 6.5 28.1875 6.5C17.1418 6.5 8.1875 15.4543 8.1875 26.5C8.1875 37.5457 17.1418 46.5 28.1875 46.5ZM25.1853 19.109L36.7947 26.1058C37.127 26.3061 37.127 26.6939 36.7947 26.8942L25.1853 33.891C24.7524 34.151 24.1183 33.9166 24.1183 33.4969V19.5031C24.1183 19.0834 24.7524 18.849 25.1853 19.109Z" fill="current"/>
</g>
</g>
<defs>
<filter id="filter0_d_1321_62761" x="0.5" y="0.5" width="56" height="56" filterUnits="userSpaceOnUse" color-interpolation-filters="sRGB">
<feFlood flood-opacity="0" result="BackgroundImageFix"/>
<feColorMatrix in="SourceAlpha" type="matrix" values="0 0 0 0 0 0 0 0 0 0 0 0 0 0 0 0 0 0 127 0" result="hardAlpha"/>
<feOffset dy="2"/>
<feGaussianBlur stdDeviation="4"/>
<feColorMatrix type="matrix" values="0 0 0 0 0 0 0 0 0 0 0 0 0 0 0 0 0 0 0.12 0"/>
<feBlend mode="normal" in2="BackgroundImageFix" result="effect1_dropShadow_1321_62761"/>
<feBlend mode="normal" in="SourceGraphic" in2="effect1_dropShadow_1321_62761" result="shape"/>
</filter>
<clipPath id="clip0_1321_62761">
<path d="M8.5 26.5C8.5 15.4543 17.4543 6.5 28.5 6.5C39.5457 6.5 48.5 15.4543 48.5 26.5C48.5 37.5457 39.5457 46.5 28.5 46.5C17.4543 46.5 8.5 37.5457 8.5 26.5Z" fill="current"/>
</clipPath>
</defs>
</svg>
