<svg width="25" height="24" viewBox="0 0 25 24" fill="none" xmlns="http://www.w3.org/2000/svg">
<g clip-path="url(#clip0_8737_15164)">
<path d="M12.3333 24C18.9607 24 24.3333 18.6274 24.3333 12C24.3333 5.37258 18.9607 0 12.3333 0C5.70591 0 0.333328 5.37258 0.333328 12C0.333328 18.6274 5.70591 24 12.3333 24Z" fill="#FFC700"/>
<path fill-rule="evenodd" clip-rule="evenodd" d="M8.88802 12.1129C10.1865 10.5895 10.8661 8.63948 10.9505 6.01448C10.9505 5.53636 11.2599 5.22229 11.7427 5.19417C12.5068 5.16604 13.5193 5.87386 13.6646 6.74573C13.6927 6.94261 13.6927 8.94886 13.6646 9.73636H18.0146C18.7505 9.73636 19.3411 10.2989 19.3411 11.0348C19.3411 11.4567 19.1443 11.827 18.863 12.052C19.2849 12.277 19.5708 12.7317 19.5708 13.2379C19.5708 13.8614 19.2052 14.3395 18.6661 14.5082C18.9193 14.7614 19.0599 15.0707 19.0599 15.4692C19.0599 16.0035 18.6943 16.5145 18.2115 16.7114C18.4646 16.9082 18.6052 17.2457 18.6052 17.5879C18.6052 18.2395 18.0708 18.7739 17.4193 18.7739H11.2318C11.1474 18.7739 11.063 18.7739 10.9786 18.7739C10.8943 18.802 10.8099 18.802 10.7255 18.802C10.388 18.802 10.074 18.7739 9.68021 18.6895C9.34271 18.6051 9.02865 18.4645 8.83177 18.352L8.88802 12.1129Z" fill="white"/>
<path fill-rule="evenodd" clip-rule="evenodd" d="M8.43802 18.5203H6.03802C5.53177 18.5203 5.10521 18.0984 5.10521 17.5875V17.0812H7.56146C7.67396 17.0812 7.78646 16.9969 7.78646 16.8844C7.78646 16.7719 7.67396 16.6594 7.56146 16.6594H5.10521V15.3891H7.56146C7.67396 15.3891 7.78646 15.2766 7.78646 15.1641C7.78646 15.0516 7.67396 14.9672 7.56146 14.9672H5.10521V13.6688H7.56146C7.67396 13.6688 7.78646 13.5562 7.78646 13.4437C7.78646 13.3312 7.67396 13.2469 7.56146 13.2469H5.10521V12.7687C5.10521 12.2625 5.52708 11.8359 6.03802 11.8359H8.49427H8.60677L8.57865 11.8641L8.49427 11.9766L8.43802 18.5203Z" fill="white"/>
</g>
<defs>
<clipPath id="clip0_8737_15164">
<rect width="24" height="24" fill="white" transform="translate(0.333328)"/>
</clipPath>
</defs>
</svg>
