<svg width="25" height="25" viewBox="0 0 25 25" fill="none" xmlns="http://www.w3.org/2000/svg">
<path d="M18.4823 16.0681H17.8353V17.3622H18.4823C18.8387 17.3622 19.1293 17.0722 19.1293 16.7152C19.1294 16.3581 18.8387 16.0681 18.4823 16.0681ZM19.7764 12.1857H4.24704C2.46256 12.1857 1.01172 13.6372 1.01172 15.421V20.5975C1.01172 22.3813 2.46256 23.8328 4.24704 23.8328H19.7765C21.5609 23.8328 23.0118 22.3813 23.0118 20.5974V15.421C23.0118 13.6371 21.5609 12.1857 19.7764 12.1857ZM6.83524 18.6563H6.18821V19.3033C6.18821 19.661 5.89879 19.9503 5.54118 19.9503C5.18349 19.9503 4.89414 19.6609 4.89414 19.3033V18.6563H4.24704C3.88943 18.6563 3.6 18.3668 3.6 18.0092C3.6 17.6516 3.88943 17.3622 4.24704 17.3622H4.89414V16.7152C4.89414 16.3575 5.18357 16.0681 5.54118 16.0681C5.89879 16.0681 6.18821 16.3576 6.18821 16.7152V17.3622H6.83524C7.19293 17.3622 7.48228 17.6516 7.48228 18.0092C7.48228 18.3668 7.19293 18.6563 6.83524 18.6563ZM10.0706 20.5974C10.0706 20.9551 9.78114 21.2445 9.42353 21.2445C9.06584 21.2445 8.77649 20.9551 8.77649 20.5974V16.0681H8.12939C7.77178 16.0681 7.48235 15.7786 7.48235 15.421C7.48235 15.0634 7.77178 14.774 8.12939 14.774H9.42353C9.78114 14.774 10.0706 15.0634 10.0706 15.421V20.5974ZM15.2471 19.3033C15.2471 20.3737 14.3763 21.2445 13.3059 21.2445C12.2355 21.2445 11.3647 20.3737 11.3647 19.3033V15.421C11.3647 15.0633 11.6541 14.7739 12.0117 14.7739C12.3693 14.7739 12.6588 15.0633 12.6588 15.421V19.3033C12.6588 19.6603 12.9494 19.9503 13.3058 19.9503C13.6622 19.9503 13.9528 19.6603 13.9528 19.3033V15.421C13.9528 15.0633 14.2423 14.7739 14.5999 14.7739C14.9576 14.7739 15.2469 15.0633 15.2469 15.421V19.3033H15.2471ZM18.4823 18.6563H17.8353V20.5974C17.8353 20.9551 17.5458 21.2445 17.1882 21.2445C16.8305 21.2445 16.5412 20.9551 16.5412 20.5974V15.421C16.5412 15.0633 16.8306 14.7739 17.1882 14.7739H18.4824C19.5528 14.7739 20.4235 15.6447 20.4235 16.7151C20.4235 17.7855 19.5528 18.6563 18.4823 18.6563ZM4.24704 7.00922H5.54118C5.89879 7.00922 6.18821 6.7198 6.18821 6.36219C6.18821 6.0045 5.89879 5.71515 5.54118 5.71515H4.24704C3.88943 5.71515 3.6 6.00458 3.6 6.36219C3.59993 6.7198 3.88935 7.00922 4.24704 7.00922ZM17.8353 6.36219C17.8353 6.71987 18.1247 7.00922 18.4823 7.00922H19.7764C20.134 7.00922 20.4235 6.7198 20.4235 6.36219C20.4235 6.0045 20.134 5.71515 19.7764 5.71515H18.4823C18.1247 5.71508 17.8353 6.0045 17.8353 6.36219ZM6.08455 9.03694L4.96357 9.68397C4.65396 9.86281 4.54775 10.2584 4.72725 10.568C4.90332 10.8751 5.2983 10.9842 5.6106 10.805L6.73158 10.1579C7.04119 9.97908 7.1474 9.58352 6.9679 9.27391C6.78979 8.96365 6.39291 8.85875 6.08455 9.03694ZM17.9389 3.68736L19.0599 3.04033C19.3695 2.86148 19.4757 2.46592 19.2962 2.15632C19.1193 1.84606 18.7225 1.74181 18.4129 1.91934L17.2919 2.56638C16.9823 2.74522 16.8761 3.14078 17.0556 3.45039C17.2316 3.75751 17.6266 3.86664 17.9389 3.68736ZM17.2918 10.1579L18.4128 10.805C18.7252 10.9843 19.1202 10.875 19.2962 10.568C19.4756 10.2584 19.3694 9.86281 19.0598 9.68397L17.9389 9.03694C17.6305 8.86065 17.2337 8.96489 17.0555 9.27391C16.8761 9.58352 16.9822 9.97908 17.2918 10.1579ZM4.96357 3.04025L6.08455 3.68729C6.39692 3.86664 6.79197 3.75737 6.9679 3.45031C7.14732 3.14071 7.04119 2.74515 6.73158 2.5663L5.6106 1.91927C5.30224 1.74363 4.90543 1.84722 4.72725 2.15624C4.54782 2.46592 4.65396 2.86148 4.96357 3.04025ZM8.12939 7.00922H10.0706V7.65625C10.0706 8.92417 9.54358 10.0685 8.70102 10.8916H15.3225C14.48 10.0685 13.953 8.92417 13.953 7.65625V7.00922H15.8942C16.1558 7.00922 16.3921 6.85187 16.4919 6.60987C16.5918 6.36787 16.5362 6.08981 16.3516 5.9047L12.4693 2.02235C12.2166 1.76957 11.807 1.76957 11.5543 2.02235L7.67197 5.9047C7.48745 6.08988 7.43187 6.36787 7.53167 6.60987C7.63147 6.85187 7.86779 7.00922 8.12939 7.00922Z" fill="url(#paint0_linear_15752_10783)"/>
<defs>
<linearGradient id="paint0_linear_15752_10783" x1="12.0117" y1="23.8328" x2="12.0117" y2="1.83273" gradientUnits="userSpaceOnUse">
<stop stop-color="#00C0FF"/>
<stop offset="1" stop-color="#5558FF"/>
</linearGradient>
</defs>
</svg>
