<svg width="40" height="41" viewBox="0 0 40 41" fill="none" xmlns="http://www.w3.org/2000/svg">
<rect x="1" y="1.5" width="38" height="38" rx="19" fill="#EBF6FF"/>
<path d="M12.2383 18.8912L11.4883 18.8887V18.8912H12.2383ZM19.9426 11.2391L19.9401 11.9891L19.9426 11.2391ZM12.2383 18.9173H11.4883C11.4883 18.9259 11.4884 18.9345 11.4887 18.9431L12.2383 18.9173ZM14.2557 24.5521L14.856 24.1025L14.8512 24.0963L14.2557 24.5521ZM19.3078 29.2825L19.7985 28.7153C19.7728 28.693 19.7455 28.6725 19.717 28.654L19.3078 29.2825ZM20.5252 29.2825L20.1185 28.6524C20.0891 28.6714 20.061 28.6924 20.0346 28.7153L20.5252 29.2825ZM24.1165 26.326L24.6568 26.8463L24.6609 26.8419L24.1165 26.326ZM27.5948 19.0304L28.3447 19.0446C28.3448 19.0398 28.3448 19.0351 28.3448 19.0304H27.5948ZM27.5948 18.9434L26.8448 18.9409V18.9434H27.5948ZM12.9883 18.8938C13.0013 15.0674 16.1137 11.9761 19.9401 11.9891L19.9452 10.4891C15.2904 10.4732 11.5041 14.2339 11.4883 18.8887L12.9883 18.8938ZM12.9883 18.9173V18.8912H11.4883V18.9173H12.9883ZM14.8512 24.0963C13.704 22.5973 13.0526 20.778 12.9878 18.8916L11.4887 18.9431C11.5642 21.1413 12.3233 23.2613 13.6601 25.0079L14.8512 24.0963ZM19.717 28.654C17.8422 27.4337 16.1968 25.8931 14.856 24.1026L13.6553 25.0017C15.1016 26.933 16.8765 28.5949 18.8987 29.9111L19.717 28.654ZM20.0346 28.7153C19.9668 28.7739 19.8663 28.7739 19.7985 28.7153L18.8172 29.8498C19.4484 30.3958 20.3847 30.3958 21.0159 29.8498L20.0346 28.7153ZM23.5763 25.8058C22.5373 26.8848 21.3769 27.84 20.1185 28.6524L20.932 29.9126C22.2876 29.0375 23.5375 28.0085 24.6568 26.8463L23.5763 25.8058ZM26.8449 19.0162C26.7978 21.5066 25.3979 23.8834 23.5721 25.8101L24.6609 26.8419C26.6091 24.786 28.2875 22.0672 28.3447 19.0446L26.8449 19.0162ZM26.8448 18.9434V19.0304H28.3448V18.9434H26.8448ZM19.9401 11.9891C23.7665 12.0021 26.8578 15.1145 26.8448 18.9409L28.3448 18.946C28.3606 14.2912 24.6 10.5049 19.9452 10.4891L19.9401 11.9891ZM21.6288 19.039C21.6288 19.9839 20.8628 20.7499 19.9179 20.7499V22.2499C21.6912 22.2499 23.1288 20.8123 23.1288 19.039H21.6288ZM19.9179 17.3281C20.8628 17.3281 21.6288 18.0941 21.6288 19.039H23.1288C23.1288 17.2657 21.6912 15.8281 19.9179 15.8281V17.3281ZM18.207 19.039C18.207 18.0941 18.973 17.3281 19.9179 17.3281V15.8281C18.1446 15.8281 16.707 17.2657 16.707 19.039H18.207ZM19.9179 20.7499C18.973 20.7499 18.207 19.9839 18.207 19.039H16.707C16.707 20.8123 18.1446 22.2499 19.9179 22.2499V20.7499Z" fill="#007BDB"/>
</svg>
