<svg width="176" height="58" viewBox="0 0 176 58" fill="none" xmlns="http://www.w3.org/2000/svg">
<path d="M175.911 6.2099H171.184V31.1466H175.911V6.2099Z" fill="#006EB7"/>
<path d="M165.714 14.3279H160.983V24.5947H165.714V14.3279Z" fill="#ED1A3B"/>
<path d="M155.032 0H150.302V20.8587H155.032V0Z" fill="#F7941D"/>
<path d="M4.93928 53.7614C2.2782 51.3213 0.8125 47.7077 0.8125 43.5874C0.854739 34.7306 7.48208 29.0062 17.6955 29.0062C21.2479 29.0062 24.0018 29.6057 25.5731 30.2094C25.4042 30.8257 24.5636 33.8906 24.3651 34.5998C22.4686 33.8568 20.3735 33.498 17.6491 33.498C11.1569 33.498 7.12304 37.2298 7.12304 43.2455C7.12304 49.2443 11.0597 53.1239 17.1506 53.1239C18.6375 53.1239 20.0102 52.9593 20.6481 52.7102L20.9311 52.6004V45.7953C20.9311 45.7953 16.9732 45.7953 16.2509 45.7953C16.2509 45.1283 16.2509 42.2703 16.2509 41.6033C17.0324 41.6033 25.8688 41.6033 26.6587 41.6033C26.6587 42.4181 26.6587 55.3529 26.6587 55.9777C24.2468 56.7249 20.5425 57.4932 16.9732 57.4932C11.6553 57.4932 7.71862 56.269 4.93928 53.7614Z" fill="#023F88"/>
<path d="M42.0589 57.2653C35.3345 57.2653 31.3386 52.4232 31.3386 46.264C31.3386 39.7839 35.7357 34.9418 42.4307 34.9418C49.4297 34.9418 53.2523 39.9148 53.2523 45.8798C53.2523 52.9973 48.7539 57.2653 42.0927 57.2653H42.0589ZM42.2955 53.3857C45.7802 53.3857 47.7739 50.2744 47.7739 46.0402C47.7739 42.1606 45.8478 38.8214 42.2955 38.8214C38.7432 38.8214 36.7495 42.0931 36.7495 46.1331C36.7495 50.2069 38.815 53.3815 42.2659 53.3815H42.2955V53.3857Z" fill="#023F88"/>
<path d="M58.342 35.6511H63.4826V53.162H73.8861V57.2654H58.342V35.6511Z" fill="#023F88"/>
<path d="M79.1449 35.6511H95.0564V39.6615H84.2854V44.5965H94.4777V48.5732H84.2854V57.2654H79.1449V35.6511V35.6511Z" fill="#023F88"/>
<path d="M98.6896 54.6352L109.545 39.7881V39.691H99.6695V35.6467H116.206V38.4709L105.587 53.0986V53.2252H116.375V57.2653H98.6896V54.6352V54.6352Z" fill="#023F88"/>
<path d="M130.394 57.2653C123.661 57.2653 119.674 52.4232 119.674 46.264C119.674 39.7839 124.071 34.9418 130.766 34.9418C137.765 34.9418 141.588 39.9148 141.588 45.8798C141.588 52.9973 137.089 57.2653 130.428 57.2653H130.394ZM130.631 53.3857C134.116 53.3857 136.109 50.2744 136.109 46.0402C136.109 42.1606 134.179 38.8214 130.631 38.8214C127.078 38.8214 125.085 42.0931 125.085 46.1331C125.085 50.2069 127.15 53.3815 130.597 53.3815H130.631V53.3857Z" fill="#023F88"/>
<path d="M146.205 57.2653V35.651H152.228L160.921 50.9836H160.988V28.6896H165.715V57.2695H159.907L150.838 41.2994H150.872L150.868 57.2695H146.205V57.2653Z" fill="#023F88"/>
</svg>
