<svg width="183" height="60" viewBox="0 0 183 60" fill="none" xmlns="http://www.w3.org/2000/svg">
<path d="M181.872 6.44531H176.963V32.3334H181.872V6.44531Z" fill="#006EB7"/>
<path d="M171.281 14.875H166.367V25.5335H171.281V14.875Z" fill="#ED1A3B"/>
<path d="M160.187 0H155.273V21.6545H160.187V0Z" fill="#F7941D"/>
<path d="M4.28645 55.809C1.52241 53.2759 0 49.5244 0 45.2469C0.0438735 36.0522 6.92763 30.1094 17.5363 30.1094C21.226 30.1094 24.0866 30.7317 25.7187 31.3584C25.5432 31.9983 24.6701 35.1801 24.4639 35.9163C22.494 35.145 20.3178 34.7725 17.488 34.7725C10.7446 34.7725 6.55471 38.6467 6.55471 44.8919C6.55471 51.1196 10.6437 55.1473 16.9703 55.1473C18.5146 55.1473 19.9405 54.9763 20.603 54.7178L20.897 54.6038V47.539C20.897 47.539 16.786 47.539 16.0358 47.539C16.0358 46.8466 16.0358 43.8796 16.0358 43.1871C16.8474 43.1871 26.0258 43.1871 26.8462 43.1871C26.8462 44.0329 26.8462 57.4613 26.8462 58.1099C24.341 58.8856 20.4933 59.6833 16.786 59.6833C11.2623 59.6833 7.17332 58.4123 4.28645 55.809Z" fill="white"/>
<path d="M42.8421 59.4487C35.8575 59.4487 31.707 54.4219 31.707 48.0276C31.707 41.3003 36.2743 36.2734 43.2282 36.2734C50.4981 36.2734 54.4686 41.4362 54.4686 47.6288C54.4686 55.0179 49.7961 59.4487 42.8772 59.4487H42.8421ZM43.0878 55.4211C46.7074 55.4211 48.7782 52.1911 48.7782 47.7953C48.7782 43.7677 46.7776 40.3011 43.0878 40.3011C39.3981 40.3011 37.3272 43.6976 37.3272 47.8918C37.3272 52.121 39.4727 55.4167 43.0571 55.4167H43.0878V55.4211Z" fill="white"/>
<path d="M59.7559 37.0078H65.0953V55.1869H75.9013V59.4468H59.7559V37.0078Z" fill="white"/>
<path d="M81.3633 37.0078H97.8904V41.1713H86.7027V46.2946H97.2894V50.423H86.7027V59.4468H81.3633V37.0078Z" fill="white"/>
<path d="M101.664 56.7208L112.94 41.3072V41.2064H102.682V37.0078H119.858V39.9398L108.829 55.1256V55.257H120.034V59.4512H101.664V56.7208Z" fill="white"/>
<path d="M134.596 59.4487C127.603 59.4487 123.461 54.4219 123.461 48.0276C123.461 41.3003 128.028 36.2734 134.982 36.2734C142.252 36.2734 146.223 41.4362 146.223 47.6288C146.223 55.0179 141.55 59.4487 134.631 59.4487H134.596ZM134.842 55.4211C138.461 55.4211 140.532 52.1911 140.532 47.7953C140.532 43.7677 138.527 40.3011 134.842 40.3011C131.152 40.3011 129.081 43.6976 129.081 47.8918C129.081 52.121 131.227 55.4167 134.807 55.4167H134.842V55.4211Z" fill="white"/>
<path d="M151.018 59.4472V37.0082H157.274L166.303 52.9259H166.373V29.7812H171.283V59.4516H165.25L155.831 42.8721H155.866L155.861 59.4516H151.018V59.4472Z" fill="white"/>
</svg>
