<svg width="101" height="33" viewBox="0 0 101 33" fill="none" xmlns="http://www.w3.org/2000/svg">
<path d="M100.5 3.54883H97.8008V17.7984H100.5V3.54883Z" fill="#8A8A8A"/>
<path d="M94.6764 8.1875H91.9746V14.0542H94.6764V8.1875Z" fill="#A3A3AC"/>
<path d="M88.5758 0H85.874V11.9192H88.5758V0Z" fill="#3F3E4E"/>
<path d="M2.85683 30.721C1.33707 29.3267 0.5 27.2617 0.5 24.9073C0.524123 19.8463 4.30904 16.5752 10.142 16.5752C12.1708 16.5752 13.7436 16.9177 14.641 17.2627C14.5445 17.6149 14.0644 19.3662 13.9511 19.7715C12.8679 19.3469 11.6714 19.1419 10.1155 19.1419C6.40775 19.1419 4.10399 21.2744 4.10399 24.7119C4.10399 28.1398 6.35227 30.3567 9.83082 30.3567C10.68 30.3567 11.464 30.2627 11.8282 30.1203L11.9898 30.0576V26.169C11.9898 26.169 9.72951 26.169 9.317 26.169C9.317 25.7878 9.317 24.1547 9.317 23.7735C9.76328 23.7735 14.8098 23.7735 15.2609 23.7735C15.2609 24.2391 15.2609 31.6304 15.2609 31.9875C13.8835 32.4144 11.7679 32.8535 9.72951 32.8535C6.69241 32.8535 4.44413 32.1539 2.85683 30.721Z" fill="#A3A3AC"/>
<path d="M24.056 32.7231C20.2156 32.7231 17.9336 29.9562 17.9336 26.4366C17.9336 22.7337 20.4448 19.9668 24.2683 19.9668C28.2655 19.9668 30.4487 22.8085 30.4487 26.2171C30.4487 30.2843 27.8796 32.7231 24.0753 32.7231H24.056ZM24.1911 30.5062C26.1813 30.5062 27.3199 28.7283 27.3199 26.3088C27.3199 24.0919 26.2199 22.1837 24.1911 22.1837C22.1624 22.1837 21.0238 24.0533 21.0238 26.3618C21.0238 28.6897 22.2034 30.5038 24.1742 30.5038H24.1911V30.5062Z" fill="#A3A3AC"/>
<path d="M33.3555 20.3721H36.2913V30.3783H42.2328V32.7231H33.3555V20.3721Z" fill="#A3A3AC"/>
<path d="M45.2363 20.3721H54.3235V22.6638H48.1721V25.4838H53.993V27.7562H48.1721V32.7231H45.2363V20.3721Z" fill="#A3A3AC"/>
<path d="M56.3984 31.2197L62.5981 22.7356V22.6801H56.9581V20.3691H66.4023V21.983L60.3377 30.3416V30.414H66.4988V32.7226H56.3984V31.2197Z" fill="#A3A3AC"/>
<path d="M74.5053 32.7231C70.66 32.7231 68.3828 29.9562 68.3828 26.4366C68.3828 22.7337 70.894 19.9668 74.7175 19.9668C78.7147 19.9668 80.8979 22.8085 80.8979 26.2171C80.8979 30.2843 78.3288 32.7231 74.5246 32.7231H74.5053ZM74.6404 30.5062C76.6305 30.5062 77.7691 28.7283 77.7691 26.3088C77.7691 24.0919 76.6667 22.1837 74.6404 22.1837C72.6116 22.1837 71.473 24.0533 71.473 26.3618C71.473 28.6897 72.6526 30.5038 74.6211 30.5038H74.6404V30.5062Z" fill="#A3A3AC"/>
<path d="M83.5342 32.7235V20.3724H86.9741L91.9387 29.134H91.9773V16.3945H94.6767V32.7259H91.3597L86.1805 23.6001H86.1998L86.1974 32.7259H83.5342V32.7235Z" fill="#A3A3AC"/>
</svg>
