<svg width="56" height="66" viewBox="0 0 56 66" fill="none" xmlns="http://www.w3.org/2000/svg">
<g clip-path="url(#clip0_4089_268031)">
<path d="M31.8015 35.9824H24.2974V50.4209H31.8015V35.9824Z" fill="#D1D1D1"/>
<path d="M31.7683 34.8418V43.8699C29.0906 44.4892 26.5121 44.1633 24.2642 43.544V34.8418H31.7683Z" fill="#A3A3A3"/>
<path d="M18.2808 30.767L17.785 34.1566C14.6775 33.7329 11.9337 32.4618 9.5205 30.441C6.74364 28.127 4.4957 24.8025 2.80975 20.5329C2.08248 18.6425 1.5205 16.7847 1.1238 15.1551C0.264298 11.7329 0.0659505 9.19066 0.0659505 9.0277L-0.000165245 8.1477C-0.0332231 7.62622 0.396529 7.16992 0.925455 7.16992H13.1569V10.5921H4.69405C4.19818 10.5921 3.83455 11.0158 3.93372 11.5047C3.99984 11.8633 4.06595 12.2544 4.16512 12.6455C4.76017 15.644 5.95025 19.8484 8.16512 23.4988C10.3469 27.084 13.5536 30.0825 18.2808 30.767Z" fill="#D1D1D1"/>
<path d="M55.9997 7.88757L55.9336 9.02831C55.9006 9.25646 55.5039 14.732 53.1898 20.5335C51.5039 24.8031 49.2229 28.1276 46.4791 30.4416C44.0659 32.4624 41.3221 33.7009 38.2146 34.1572L37.7188 30.7676C42.413 30.1157 45.6526 27.1172 47.8345 23.532C50.413 19.3276 51.6031 14.3083 52.0989 11.3424C52.165 10.9839 51.8675 10.6579 51.5039 10.6579H42.8427V7.20312H55.3386C55.7353 7.20312 56.0328 7.52905 55.9997 7.88757Z" fill="#D1D1D1"/>
<path d="M13.1236 7.20312H8.13184V10.6579H13.1236V7.20312Z" fill="#BBBBBB"/>
<path d="M18.2806 30.7668L17.7847 34.1564C14.6773 33.7327 11.9335 32.4616 9.52027 30.4409C8.95828 29.1372 8.56159 27.7683 8.33018 26.3668C8.19795 25.552 8.13184 24.7372 8.13184 23.9224V23.5312C10.3467 27.0838 13.5533 30.0824 18.2806 30.7668Z" fill="#BBBBBB"/>
<path d="M47.8345 7.20312H42.8428V10.6579H47.8345V7.20312Z" fill="#BBBBBB"/>
<path d="M47.8345 23.5312V23.9224C47.8345 26.2364 47.3386 28.4201 46.4791 30.4735C44.0659 32.4942 41.3221 33.7327 38.2146 34.189L37.7188 30.7994C42.413 30.115 45.6526 27.0838 47.8345 23.5312Z" fill="#BBBBBB"/>
<path d="M46.2806 2.24805V23.8895C46.2806 28.8436 44.231 33.3414 40.9252 36.6332C37.6194 39.8925 33.0244 41.9458 27.9996 41.9458C25.917 41.9458 23.9004 41.5873 22.0161 40.9355C15.6029 38.7517 10.8095 33.1458 9.85084 26.334C9.75166 25.5192 9.68555 24.7043 9.68555 23.8895V2.24805H46.2806Z" fill="#E5E5E5"/>
<path d="M48.7933 1.89037V2.64C48.7933 3.68296 47.9338 4.53037 46.876 4.53037H9.1239C8.06605 4.53037 7.20654 3.68296 7.20654 2.64V1.89037C7.20654 0.847407 8.06605 0 9.1239 0H46.909C47.9338 0 48.7933 0.847407 48.7933 1.89037Z" fill="#E5E5E5"/>
<path d="M36.5287 19.0658C36.6609 18.9354 36.694 18.7399 36.5948 18.5769C36.5948 18.5769 36.2973 17.9576 35.9998 18.2184C35.9667 18.251 35.9336 18.2836 35.9336 18.3162L31.1072 17.5991C30.975 17.5665 30.8427 17.5013 30.8097 17.371L28.4956 12.7102C28.3634 12.4169 27.9006 12.4169 27.7684 12.7102L25.4212 17.3384C25.3551 17.4688 25.256 17.5339 25.1237 17.5665L19.9006 18.2836C19.57 18.3162 19.4378 18.7399 19.6692 18.968L23.4047 22.6184C23.5039 22.7162 23.5369 22.8465 23.5369 22.9769L22.6774 27.8006C22.5452 27.8332 22.413 27.8984 22.446 27.9962C22.4791 28.2569 22.7766 28.485 22.7766 28.485C22.9089 28.5828 23.0741 28.6154 23.2394 28.5502L27.9006 26.171C28.0328 26.1058 28.165 26.1058 28.2973 26.171L32.9254 28.6154C33.2229 28.7784 33.5865 28.5176 33.5204 28.1917L32.6609 23.0747C32.6279 22.9443 32.694 22.8139 32.7931 22.7162L36.5287 19.0658Z" fill="#D1D1D1"/>
<path d="M29.5533 2.24805C28.1318 13.4599 20.3302 22.7162 9.85084 26.3666C9.75166 25.5518 9.68555 24.7369 9.68555 23.9221V2.24805H29.5533Z" fill="#E8E8E8"/>
<path d="M32.562 22.4238C32.4628 22.5216 32.4298 22.6519 32.4298 22.7823L33.2893 27.8994C33.3554 28.2253 32.9917 28.486 32.6942 28.3231L28.0661 25.8786C27.9339 25.8134 27.8017 25.8134 27.6694 25.8786L23.0083 28.2579C22.7108 28.4208 22.3471 28.1601 22.4132 27.8342L23.1405 23.8253L23.3389 22.7171C23.3719 22.5868 23.3058 22.4564 23.2397 22.3586L22.281 21.446L19.5041 18.7082C19.2727 18.4801 19.405 18.0564 19.7355 18.0238L24.9587 17.3068C25.0909 17.2742 25.2232 17.209 25.2562 17.0786L27.6033 12.4505C27.7686 12.1571 28.1984 12.1571 28.3306 12.4505L29.686 15.2208L29.8513 15.5468L30.6116 17.1112C30.6777 17.2416 30.7769 17.3068 30.9091 17.3394L36.0992 18.1216C36.4298 18.1868 36.562 18.5779 36.3306 18.806L32.562 22.4238Z" fill="#BFBFBF"/>
<path d="M9.71875 4.53125V5.41125L46.2807 7.20384V4.53125H9.71875Z" fill="#BBBBBB"/>
<path d="M32.6609 0C32.3304 1.56444 31.8676 3.0963 31.2395 4.53037H9.0907C8.03284 4.53037 7.17334 3.68296 7.17334 2.64V1.89037C7.17334 0.847407 8.03284 0 9.0907 0H32.6609Z" fill="#E8E8E8"/>
<path d="M29.8512 15.5462C28.8265 19.0987 26.3471 22.0647 23.1405 23.7921L23.3389 22.6839C23.3719 22.5536 23.3058 22.4232 23.2397 22.3254L22.281 21.4128L19.5041 18.675C19.2727 18.4469 19.405 18.0232 19.7355 17.9906L24.9587 17.2736C25.0909 17.241 25.2231 17.1758 25.2562 17.0454L27.6033 12.4173C27.7686 12.1239 28.1984 12.1239 28.3306 12.4173L29.686 15.1876L29.8512 15.5462Z" fill="#CECECE"/>
<path d="M35.2397 50.4199H20.7935V53.5162H35.2397V50.4199Z" fill="#E5E5E5"/>
<g opacity="0.3">
<path d="M35.2063 50.4531V53.5494H24.3633C30.7104 52.8976 33.355 51.5287 34.4459 50.4531H35.2063Z" fill="#9D9D9D"/>
</g>
<g opacity="0.2">
<path d="M48.7935 1.88994V2.63957C48.7935 3.68253 47.934 4.52994 46.8761 4.52994H46.2811V23.9225C46.2811 28.8766 44.2315 33.3744 40.9257 36.6662C37.6199 39.9255 33.0249 41.9788 28.0001 41.9788C25.9174 41.9788 23.9009 41.6203 22.0166 40.9685C39.3389 38.361 41.4546 16.4914 41.2893 4.52994C41.2893 3.71512 41.2563 2.96549 41.2232 2.28105C41.1902 1.43364 41.1571 0.684012 41.091 0.0321597H46.8761C47.934 -0.000432849 48.7935 0.846974 48.7935 1.88994Z" fill="#9D9D9D"/>
</g>
<path d="M37.818 54.9503H18.1816L20.7932 53.5488H35.2064L37.818 54.9503Z" fill="#686868"/>
<path d="M37.818 54.9512H18.1816V63.9793H37.818V54.9512Z" fill="#747474"/>
<path d="M35.2397 56.4512H20.7935V62.5134H35.2397V56.4512Z" fill="#E5E5E5"/>
<path d="M34.6442 57.0039H21.355V61.958H34.6442V57.0039Z" fill="#E8E8E8"/>
<path d="M22.3799 57.656C22.3799 57.8516 22.2477 57.9819 22.0493 57.9819C21.851 57.9819 21.7188 57.8516 21.7188 57.656C21.7188 57.4604 21.851 57.3301 22.0493 57.3301C22.2477 57.3301 22.3799 57.4604 22.3799 57.656Z" fill="#D1D1D1"/>
<path d="M34.2808 57.656C34.2808 57.8516 34.1486 57.9819 33.9502 57.9819C33.7519 57.9819 33.6196 57.8516 33.6196 57.656C33.6196 57.4604 33.7519 57.3301 33.9502 57.3301C34.1486 57.3301 34.2808 57.4604 34.2808 57.656Z" fill="#D1D1D1"/>
<path d="M22.3799 61.3396C22.3799 61.5352 22.2477 61.6655 22.0493 61.6655C21.851 61.6655 21.7188 61.5352 21.7188 61.3396C21.7188 61.144 21.851 61.0137 22.0493 61.0137C22.2477 61.0137 22.3799 61.144 22.3799 61.3396Z" fill="#D1D1D1"/>
<path d="M34.2808 61.3396C34.2808 61.5352 34.1486 61.6655 33.9502 61.6655C33.7519 61.6655 33.6196 61.5352 33.6196 61.3396C33.6196 61.144 33.7519 61.0137 33.9502 61.0137C34.1486 61.0137 34.2808 61.144 34.2808 61.3396Z" fill="#D1D1D1"/>
<path d="M39.3388 63.9785H16.6611V65.9993H39.3388V63.9785Z" fill="#747474"/>
</g>
<defs>
<clipPath id="clip0_4089_268031">
<rect width="56" height="66" fill="white"/>
</clipPath>
</defs>
</svg>
