<svg width="24" height="24" viewBox="0 0 24 24" fill="none" xmlns="http://www.w3.org/2000/svg">
<path d="M21.5334 6.86621H2.4209V21.0746H21.5334V6.86621Z" fill="#FFD15C"/>
<path d="M20.1583 10.8086H13.1917V21.0752H20.1583V10.8086Z" fill="#415A6B"/>
<path d="M19.4708 11.4961H13.8792V20.3877H19.4708V11.4961Z" fill="#8AD7F8"/>
<path d="M1 5.40039V7.46289C1 8.70039 1.9625 9.66289 3.2 9.66289C4.4375 9.66289 5.4 8.70039 5.4 7.46289V5.40039H1Z" fill="#F05540"/>
<path d="M5.3999 5.40039V7.46289C5.3999 8.70039 6.3624 9.66289 7.5999 9.66289C8.8374 9.66289 9.7999 8.70039 9.7999 7.46289V5.40039H5.3999Z" fill="#E8EAE9"/>
<path d="M9.80005 5.40039V7.46289C9.80005 8.70039 10.7625 9.66289 12 9.66289C13.2375 9.66289 14.2 8.70039 14.2 7.46289V5.40039H9.80005Z" fill="#F05540"/>
<path d="M14.2 5.40039V7.46289C14.2 8.70039 15.1625 9.66289 16.4 9.66289C17.6375 9.66289 18.6 8.70039 18.6 7.46289V5.40039H14.2Z" fill="#E8EAE9"/>
<path d="M18.6001 5.40039V7.46289C18.6001 8.70039 19.5626 9.66289 20.8001 9.66289C22.0376 9.66289 23.0001 8.70039 23.0001 7.46289V5.40039H18.6001Z" fill="#F05540"/>
<path d="M6.3625 1H2.60415L1 5.4H5.4L6.3625 1Z" fill="#F3705A"/>
<path d="M10.1207 1H6.3624L5.3999 5.4H9.7999L10.1207 1Z" fill="#F3F3F3"/>
<path d="M13.8792 1H10.1209L9.80005 5.4H14.2L13.8792 1Z" fill="#F3705A"/>
<path d="M17.6375 1H13.8792L14.2 5.4H18.6L17.6375 1Z" fill="#F3F3F3"/>
<path d="M21.3958 1H17.6375L18.6 5.4H23L21.3958 1Z" fill="#F3705A"/>
<path d="M23 21.0752H1V23.0002H23V21.0752Z" fill="#CED6E0"/>
<path d="M14.7501 16.5374C15.0792 16.5374 15.346 16.2706 15.346 15.9416C15.346 15.6125 15.0792 15.3457 14.7501 15.3457C14.4211 15.3457 14.1543 15.6125 14.1543 15.9416C14.1543 16.2706 14.4211 16.5374 14.7501 16.5374Z" fill="#415A6B"/>
<path d="M11.5417 10.8086H3.7959V17.7752H11.5417V10.8086Z" fill="#415A6B"/>
<path d="M10.8542 11.4961H4.4834V17.0877H10.8542V11.4961Z" fill="#8AD7F8"/>
<path d="M7.82909 12.3666C7.73744 12.2749 7.50825 12.2749 7.41659 12.3666L5.17079 14.6124C5.07914 14.7041 5.07914 14.9333 5.17079 15.0249C5.26244 15.1166 5.49164 15.1166 5.58329 15.0249L7.82914 12.7791C7.96659 12.6416 7.96659 12.4583 7.82909 12.3666Z" fill="#55C0EB"/>
<path d="M8.33324 13.6957C8.24159 13.604 8.01239 13.604 7.92074 13.6957L6.49989 15.1165C6.40824 15.2081 6.40824 15.4373 6.49989 15.529C6.59154 15.6206 6.82074 15.6206 6.91239 15.529L8.33324 14.1081C8.47074 13.9707 8.47074 13.7873 8.33324 13.6957Z" fill="#55C0EB"/>
</svg>
