<svg width="24" height="24" viewBox="0 0 24 24" fill="none" xmlns="http://www.w3.org/2000/svg">
<path d="M16.2571 3.36377H4.22322C2.79905 3.36377 1.64453 4.51829 1.64453 5.94246V16.2572C1.64453 17.6814 2.79905 18.8359 4.22322 18.8359H16.2571C17.6813 18.8359 18.8358 17.6814 18.8358 16.2572V5.94246C18.8358 4.51829 17.6813 3.36377 16.2571 3.36377Z" fill="#E64C3C"/>
<path d="M18.8358 8.52112V16.2572C18.8358 17.6841 17.684 18.8359 16.2571 18.8359H4.22322C2.79634 18.8359 1.64453 17.6841 1.64453 16.2572V8.52112H18.8358Z" fill="white"/>
<path d="M16.2572 2.71912H16.0423V1.64467C16.0423 1.29225 15.7501 1 15.3977 1C15.0452 1 14.753 1.29225 14.753 1.64467V2.71912H10.885V1.64467C10.885 1.29225 10.5927 1 10.2403 1C9.88787 1 9.59562 1.29225 9.59562 1.64467V2.71912H5.72759V1.64467C5.72759 1.29225 5.43534 1 5.08292 1C4.7305 1 4.43825 1.29225 4.43825 1.64467V2.71912H4.22336C2.44406 2.71912 1 4.16319 1 5.94248V16.2572C1 18.0365 2.44406 19.4806 4.22336 19.4806H16.2572C18.0365 19.4806 19.4806 18.0365 19.4806 16.2572V5.94248C19.4806 4.16319 18.0365 2.71912 16.2572 2.71912ZM4.22336 4.00847H4.43825V5.08292C4.43825 5.43534 4.7305 5.72759 5.08292 5.72759C5.43534 5.72759 5.72759 5.43534 5.72759 5.08292V4.00847H9.59562V5.08292C9.59562 5.43534 9.88787 5.72759 10.2403 5.72759C10.5927 5.72759 10.885 5.43534 10.885 5.08292V4.00847H14.753V5.08292C14.753 5.43534 15.0452 5.72759 15.3977 5.72759C15.7501 5.72759 16.0423 5.43534 16.0423 5.08292V4.00847H16.2572C17.3231 4.00847 18.1912 4.87663 18.1912 5.94248V7.8765H2.28934V5.94248C2.28934 4.87663 3.1575 4.00847 4.22336 4.00847ZM16.2572 18.1912H4.22336C3.1575 18.1912 2.28934 17.3231 2.28934 16.2572V9.16584H18.1912V16.2572C18.1912 17.3231 17.3231 18.1912 16.2572 18.1912Z" fill="#415A6B"/>
<circle cx="16.3332" cy="16.449" r="6.49822" fill="#415A6B"/>
<circle cx="16.3331" cy="16.449" r="5.20122" fill="white"/>
<path fill-rule="evenodd" clip-rule="evenodd" d="M16.582 13.061C16.2285 13.061 15.9419 13.3476 15.9419 13.7012V16.0955L13.5322 16.0955C13.1787 16.0955 12.8921 16.3821 12.8921 16.7356C12.8921 17.0891 13.1787 17.3757 13.5322 17.3757H16.582C16.9356 17.3757 17.2222 17.0891 17.2222 16.7356C17.2222 16.6989 17.2191 16.6629 17.2131 16.6279C17.2191 16.5928 17.2222 16.5569 17.2222 16.5201V13.7012C17.2222 13.3476 16.9356 13.061 16.582 13.061Z" fill="#415A6B"/>
</svg>
