<svg width="24" height="24" viewBox="0 0 24 24" fill="none" xmlns="http://www.w3.org/2000/svg">
<path d="M21.257 4.43418C21.2398 4.26661 21.1073 4.13415 20.9398 4.11688C18.1094 3.82491 15.8025 2.88099 14.3658 2.14063C12.804 1.33581 11.9023 0.589996 11.8936 0.582739C11.7615 0.47242 11.5694 0.47242 11.4374 0.582739C11.4019 0.612429 7.82495 3.55637 2.3912 4.11693C2.22364 4.13424 2.09122 4.26666 2.07395 4.43423C2.05858 4.58372 1.70813 8.14352 2.6798 12.2893C3.25298 14.7347 4.17082 16.8686 5.40785 18.6316C6.96185 20.8465 9.02305 22.476 11.534 23.4748C11.5763 23.4916 11.6208 23.5 11.6654 23.5C11.7101 23.5 11.7546 23.4916 11.7969 23.4748C14.3078 22.476 16.369 20.8465 17.923 18.6316C19.1601 16.8685 20.0779 14.7347 20.6511 12.2893C21.6228 8.14347 21.2723 4.58367 21.257 4.43418Z" fill="#FBE77B"/>
<path fill-rule="evenodd" clip-rule="evenodd" d="M21.188 4.25684C19.5224 11.8341 12.9912 17.5877 5.03638 18.0753C5.15681 18.2644 5.28065 18.4496 5.40786 18.6309C6.96186 20.8458 9.02306 22.4753 11.534 23.4742C11.5763 23.491 11.6208 23.4993 11.6654 23.4993C11.7101 23.4993 11.7547 23.491 11.7969 23.4742C14.3078 22.4753 16.369 20.8458 17.923 18.6309C19.1601 16.8679 20.0779 14.7341 20.6511 12.2887C21.6228 8.14282 21.2723 4.58302 21.257 4.43353C21.2502 4.36756 21.2256 4.30704 21.188 4.25684Z" fill="#FCDD2E"/>
<path d="M19.8809 5.51943C19.8617 5.33317 19.7145 5.18593 19.5283 5.16674C14.9681 4.69631 11.9486 2.22021 11.919 2.19549C11.7722 2.07286 11.5587 2.07286 11.4119 2.19549C11.3821 2.22042 8.37538 4.695 3.8026 5.16674C3.61634 5.18598 3.46914 5.33317 3.44995 5.51943C3.43688 5.64665 3.13859 8.67631 3.96498 12.202C4.45306 14.2845 5.23521 16.1023 6.28956 17.6051C7.61621 19.4958 9.3758 20.887 11.5193 21.7397C11.5663 21.7583 11.6158 21.7677 11.6654 21.7677C11.715 21.7677 11.7645 21.7583 11.8115 21.7397C13.9551 20.887 15.7146 19.4959 17.0412 17.6051C18.0956 16.1023 18.8777 14.2845 19.3658 12.202C20.1923 8.67621 19.894 5.64665 19.8809 5.51943Z" fill="#F9C301"/>
<path d="M11.6655 17.0057C14.7135 17.0057 17.1844 14.5348 17.1844 11.4867C17.1844 8.4387 14.7135 5.96777 11.6655 5.96777C8.61741 5.96777 6.14648 8.4387 6.14648 11.4867C6.14648 14.5348 8.61741 17.0057 11.6655 17.0057Z" fill="#FBE77B"/>
<path d="M13.1961 7.11697C13.0467 7.05522 12.8756 7.12647 12.8139 7.27588L10.5841 12.6804L9.33919 12.374C8.99118 12.2882 8.62971 12.366 8.3475 12.5871C8.06536 12.8082 7.90356 13.1406 7.90356 13.4991C7.90356 14.138 8.42333 14.6578 9.06228 14.6578H10.2462C10.3675 14.6578 10.4762 14.5829 10.5195 14.4696L11.0307 13.1328L13.3551 7.49915C13.4167 7.34971 13.3456 7.1786 13.1961 7.11697Z" fill="#595959"/>
<path d="M14.9834 12.5871C14.7012 12.366 14.3399 12.2882 13.9916 12.374L12.7467 12.6804L10.5169 7.27588C10.4553 7.12644 10.2841 7.05523 10.1347 7.11697C9.9853 7.17861 9.91416 7.34971 9.97583 7.49916L12.3002 13.1328L12.8114 14.4696C12.8547 14.5829 12.9634 14.6578 13.0847 14.6578H14.2686C14.9075 14.6578 15.4273 14.138 15.4273 13.4991C15.4273 13.1406 15.2655 12.8082 14.9834 12.5871Z" fill="#818181"/>
<path d="M11.6655 16.1162C12.1973 16.1162 12.6284 15.6851 12.6284 15.1533C12.6284 14.6215 12.1973 14.1904 11.6655 14.1904C11.1337 14.1904 10.7026 14.6215 10.7026 15.1533C10.7026 15.6851 11.1337 16.1162 11.6655 16.1162Z" fill="#F1FAFF"/>
</svg>
