<svg width="24" height="24" viewBox="0 0 24 24" fill="none" xmlns="http://www.w3.org/2000/svg">
<g clip-path="url(#clip0_6774_216121)">
<path d="M22.5 24H1.5C0.650016 24 0 23.35 0 22.5V1.5C0 0.650016 0.650016 0 1.5 0H22.5C23.35 0 24 0.650016 24 1.5V22.5C24 23.35 23.35 24 22.5 24Z" fill="#F3F3F3"/>
<path d="M22 20.9502H2V22.0002H22V20.9502Z" fill="#CED6E0"/>
<path d="M22 18H2V19.05H22V18Z" fill="#CED6E0"/>
<path d="M10.85 15.0498H2V16.0998H10.85V15.0498Z" fill="#CED6E0"/>
<path d="M10.85 12.0498H2V13.0998H10.85V12.0498Z" fill="#CED6E0"/>
<path d="M10.85 9.09961H2V10.1496H10.85V9.09961Z" fill="#415A6B"/>
<path d="M5.3 2.09961H6.35V6.79962H5.3L3.05 3.84964V6.79962H2V2.09961H2.99998L5.3 5.09961V2.09961Z" fill="#F3705A"/>
<path d="M10.85 2.09961V3.04963H8.50003V3.99964H10.6V4.89964H8.50003V5.84961H10.9V6.79962H7.5V2.09961H10.85Z" fill="#F3705A"/>
<path d="M13.35 4.79961L14.2 2.09961H15.3L16.15 4.79961L17.1 2.09961H18.25L16.5 6.79962H15.7L14.65 3.54964L13.65 6.79962H12.85L11.2 2.09961H12.3499L13.35 4.79961Z" fill="#F3705A"/>
<path d="M19.7999 3.04995C19.6999 3.14994 19.6499 3.24997 19.6499 3.39997C19.6499 3.54997 19.6999 3.64995 19.8499 3.74998C19.9499 3.84997 20.2499 3.95 20.6999 4.04998C21.1499 4.14997 21.4999 4.29997 21.7499 4.55C21.9999 4.75002 22.0999 5.09998 22.0999 5.50002C22.0999 5.90005 21.9499 6.25002 21.6499 6.5C21.3499 6.74998 20.8999 6.89998 20.3999 6.89998C19.6499 6.89998 18.9999 6.59998 18.3999 6.05L18.9999 5.3C19.4999 5.75 19.9499 5.95002 20.3999 5.95002C20.5999 5.95002 20.7499 5.9 20.8499 5.85003C20.9499 5.75005 20.9999 5.65002 20.9999 5.50002C20.9999 5.35002 20.9499 5.25003 20.8499 5.15C20.7499 5.04997 20.4999 5 20.1499 4.90002C19.5999 4.75002 19.1999 4.60002 18.9499 4.4C18.6999 4.19998 18.55 3.85002 18.55 3.40002C18.55 2.95002 18.6999 2.6 19.05 2.35002C19.35 2.10003 19.75 2 20.25 2C20.55 2 20.9 2.05002 21.2 2.15C21.5 2.24998 21.75 2.39998 22 2.6L21.45 3.35C21.05 3.05 20.6 2.9 20.2 2.9C19.9999 2.89995 19.8999 2.94992 19.7999 3.04995Z" fill="#F3705A"/>
<path d="M21.9999 9.09961H12.8999V16.0496H21.9999V9.09961Z" fill="#8AD7F8"/>
</g>
<defs>
<clipPath id="clip0_6774_216121">
<rect width="24" height="24" fill="white"/>
</clipPath>
</defs>
</svg>
