<svg width="24" height="24" viewBox="0 0 24 24" fill="none" xmlns="http://www.w3.org/2000/svg">
<path d="M15.1077 14.3682C15.1401 14.436 15.1562 14.5104 15.1548 14.5855C15.1548 15.0526 14.666 15.9867 13.6884 16.4574C12.9208 16.8231 12.9135 20.6611 12.9425 22.2832C12.9472 22.4722 12.8752 22.6551 12.7429 22.7902C12.6105 22.9252 12.4292 23.0009 12.2401 23.0001H12.2365C12.0483 22.9999 11.8682 22.9244 11.7361 22.7904C11.6041 22.6563 11.5313 22.4749 11.534 22.2868C11.5558 20.6647 11.5268 16.8232 10.7592 16.4575C9.78162 15.9868 9.29644 15.0526 9.29644 14.5855C9.29533 14.5066 9.31268 14.4285 9.34713 14.3574L15.1077 14.3682Z" fill="#E64C3C"/>
<path d="M12.24 15.0347C15.8394 15.0347 18.7574 12.1168 18.7574 8.51735C18.7574 4.91792 15.8394 2 12.24 2C8.64057 2 5.72266 4.91792 5.72266 8.51735C5.72266 12.1168 8.64057 15.0347 12.24 15.0347Z" fill="#E6E7E8"/>
<path d="M7.89507 11.4121C7.87075 11.4115 7.84655 11.409 7.8226 11.4049C7.79991 11.4008 7.77793 11.3935 7.75734 11.3831C7.73511 11.3758 7.71431 11.3647 7.69581 11.3504C7.67502 11.3381 7.65566 11.3236 7.63798 11.3071C7.49795 11.1643 7.49795 10.9358 7.63798 10.793C7.742 10.6901 7.89774 10.66 8.0326 10.7168C8.07649 10.7352 8.11693 10.761 8.15216 10.793C8.29219 10.9358 8.29219 11.1643 8.15216 11.3071C8.11689 11.339 8.07649 11.3647 8.03264 11.3831C7.9897 11.4034 7.94257 11.4133 7.89507 11.4121Z" fill="#BDC3C7"/>
<path d="M9.34325 12.1372C9.2474 12.1357 9.1556 12.0982 9.08616 12.0322C9.07168 12.014 9.05716 11.9959 9.04268 11.9779C9.02894 11.9577 9.01795 11.9358 9.00999 11.9127C8.99958 11.8921 8.99232 11.8701 8.98842 11.8474C8.98415 11.8235 8.98173 11.7993 8.9812 11.7751C8.98255 11.6792 9.02004 11.5874 9.0862 11.518C9.17307 11.433 9.29637 11.3964 9.41556 11.4203C9.43829 11.4241 9.46027 11.4314 9.48082 11.4418C9.50391 11.4498 9.52586 11.4608 9.54608 11.4745C9.56412 11.489 9.58213 11.5035 9.60034 11.518C9.66646 11.5874 9.70395 11.6792 9.70538 11.775C9.70473 11.7993 9.70231 11.8234 9.69812 11.8474C9.6941 11.87 9.68676 11.892 9.67639 11.9126C9.66843 11.9357 9.65744 11.9576 9.64369 11.9779C9.61888 12.0173 9.58553 12.0506 9.54612 12.0754C9.52594 12.0892 9.50399 12.1002 9.48086 12.1081C9.46031 12.1185 9.43833 12.1259 9.4156 12.1299C9.39169 12.1341 9.36753 12.1365 9.34325 12.1372Z" fill="#BDC3C7"/>
<path d="M10.7918 12.4997C10.7442 12.501 10.6971 12.491 10.654 12.4707C10.6102 12.4523 10.5699 12.4266 10.5347 12.3947C10.3947 12.2519 10.3947 12.0233 10.5347 11.8806C10.5699 11.8486 10.6102 11.8228 10.654 11.8044C10.7423 11.7683 10.8411 11.7683 10.9293 11.8044C10.9736 11.8219 11.0142 11.8478 11.0488 11.8806C11.1888 12.0234 11.1888 12.252 11.0488 12.3947C11.0135 12.4266 10.9731 12.4523 10.9293 12.4707C10.8863 12.491 10.8393 12.501 10.7918 12.4997Z" fill="#BDC3C7"/>
<path d="M10.0676 13.5847C9.97176 13.5832 9.87997 13.5457 9.81053 13.4797C9.79605 13.4615 9.78153 13.4434 9.76705 13.4254C9.75331 13.4052 9.74232 13.3833 9.73436 13.3601C9.72394 13.3396 9.71668 13.3176 9.71279 13.2949C9.70852 13.271 9.70614 13.2468 9.70557 13.2226C9.70692 13.1267 9.74441 13.0349 9.81057 12.9655C9.89719 12.8801 10.0207 12.8434 10.1399 12.8677C10.1627 12.8716 10.1846 12.8789 10.2052 12.8893C10.2283 12.8973 10.2502 12.9083 10.2704 12.922C10.2894 12.9354 10.3075 12.9499 10.3247 12.9655C10.3908 13.0349 10.4283 13.1267 10.4297 13.2226C10.4291 13.2468 10.4267 13.271 10.4225 13.2949C10.4185 13.3176 10.4111 13.3396 10.4008 13.3601C10.3928 13.3832 10.3818 13.4052 10.3681 13.4254C10.3537 13.4435 10.3392 13.4615 10.3247 13.4797C10.3065 13.4941 10.2885 13.5087 10.2705 13.523C10.2503 13.5367 10.2284 13.5477 10.2052 13.5557C10.1847 13.566 10.1627 13.5734 10.14 13.5774C10.116 13.5816 10.0919 13.584 10.0676 13.5847Z" fill="#BDC3C7"/>
<path d="M11.5157 13.948C11.4914 13.9471 11.4671 13.9447 11.4432 13.9407C11.4205 13.9367 11.3985 13.9293 11.3779 13.919C11.3549 13.911 11.333 13.9 11.3129 13.8863C11.2938 13.873 11.2757 13.8585 11.2586 13.8429C11.1924 13.7735 11.1549 13.6818 11.1536 13.5859C11.1541 13.5385 11.1639 13.4917 11.1824 13.4481C11.2008 13.4043 11.2266 13.3639 11.2586 13.3288C11.3452 13.2433 11.4687 13.2067 11.5879 13.231C11.6106 13.2349 11.6326 13.2422 11.6532 13.2526C11.6763 13.2606 11.6982 13.2716 11.7184 13.2853C11.7365 13.2998 11.7545 13.3143 11.7727 13.3288C11.8046 13.364 11.8303 13.4043 11.8487 13.4481C11.8673 13.4916 11.8772 13.5384 11.8777 13.5858C11.8763 13.6817 11.8388 13.7734 11.7727 13.8429C11.7556 13.8584 11.7374 13.8729 11.7185 13.8862C11.6983 13.9 11.6764 13.911 11.6532 13.9189C11.6327 13.9293 11.6107 13.9366 11.588 13.9406C11.5641 13.9449 11.5399 13.9473 11.5157 13.948Z" fill="#BDC3C7"/>
<path d="M12.9641 13.9483C12.8678 13.9492 12.7752 13.9114 12.7071 13.8433C12.639 13.7752 12.6011 13.6825 12.6021 13.5862C12.6026 13.5389 12.6124 13.4921 12.6309 13.4485C12.6493 13.4047 12.6751 13.3643 12.7071 13.3292C12.8111 13.2263 12.9668 13.1962 13.1017 13.2529C13.1925 13.286 13.2641 13.3576 13.2972 13.4485C13.3158 13.492 13.3257 13.5388 13.3263 13.5862C13.3272 13.6825 13.2893 13.7752 13.2212 13.8432C13.1531 13.9114 13.0604 13.9492 12.9641 13.9483Z" fill="#BDC3C7"/>
<path d="M14.4123 13.5847C14.3165 13.5832 14.2247 13.5457 14.1553 13.4797C14.1408 13.4615 14.1263 13.4434 14.1118 13.4254C14.098 13.4052 14.087 13.3833 14.0791 13.3601C14.0687 13.3396 14.0614 13.3176 14.0575 13.2949C14.0532 13.271 14.0509 13.2468 14.0503 13.2226C14.0516 13.1267 14.0891 13.0349 14.1553 12.9655C14.2419 12.8801 14.3654 12.8434 14.4847 12.8677C14.5074 12.8716 14.5294 12.8789 14.5499 12.8893C14.573 12.8973 14.5949 12.9083 14.6152 12.922C14.6341 12.9354 14.6522 12.9499 14.6695 12.9655C14.7355 13.0349 14.773 13.1267 14.7745 13.2226C14.7738 13.2468 14.7714 13.271 14.7672 13.2949C14.7632 13.3176 14.7559 13.3396 14.7455 13.3601C14.7375 13.3832 14.7265 13.4052 14.7128 13.4254C14.6985 13.4435 14.684 13.4615 14.6695 13.4797C14.6513 13.4941 14.6332 13.5087 14.6152 13.523C14.595 13.5367 14.5731 13.5477 14.55 13.5557C14.5294 13.566 14.5074 13.5734 14.4847 13.5774C14.4607 13.5816 14.4366 13.584 14.4123 13.5847Z" fill="#BDC3C7"/>
<path d="M12.24 12.4994C12.2158 12.4986 12.1915 12.4962 12.1676 12.4921C12.1449 12.4881 12.1229 12.4808 12.1023 12.4704C12.0793 12.4624 12.0574 12.4514 12.0373 12.4377C12.0182 12.4245 12.0001 12.41 11.9829 12.3944C11.8424 12.2527 11.843 12.024 11.9843 11.883C12.1256 11.7421 12.3544 11.7421 12.4957 11.883C12.637 12.024 12.6376 12.2527 12.4971 12.3944C12.4799 12.4099 12.4618 12.4244 12.4428 12.4377C12.4226 12.4514 12.4007 12.4624 12.3776 12.4704C12.357 12.4808 12.335 12.4881 12.3123 12.4921C12.2884 12.4963 12.2643 12.4987 12.24 12.4994Z" fill="#BDC3C7"/>
<path d="M13.6882 12.4988C13.5919 12.4998 13.4993 12.4619 13.4312 12.3938C13.3631 12.3257 13.3252 12.2331 13.3262 12.1368C13.3269 12.1125 13.3293 12.0883 13.3334 12.0643C13.3373 12.0416 13.3446 12.0196 13.355 11.999C13.3623 11.9768 13.3734 11.956 13.3877 11.9375C13.4022 11.9158 13.4167 11.8977 13.4312 11.8797C13.5188 11.7958 13.6414 11.7594 13.7606 11.7819C13.7833 11.7858 13.8053 11.7931 13.8258 11.8035C13.8489 11.8115 13.8708 11.8225 13.8911 11.8362C13.9091 11.8507 13.9271 11.8652 13.9453 11.8797C14.0854 12.0225 14.0854 12.251 13.9453 12.3938C13.9281 12.4093 13.91 12.4238 13.8911 12.4371C13.8709 12.4508 13.8489 12.4618 13.8258 12.4698C13.8053 12.4802 13.7833 12.4875 13.7606 12.4915C13.7367 12.4958 13.7125 12.4982 13.6882 12.4988Z" fill="#BDC3C7"/>
<path d="M15.1365 12.1374C15.0406 12.136 14.9488 12.0985 14.8794 12.0324C14.8649 12.0142 14.8504 11.9961 14.8359 11.9781C14.8222 11.958 14.8112 11.936 14.8032 11.9129C14.7928 11.8923 14.7855 11.8703 14.7816 11.8476C14.7774 11.8238 14.7749 11.7996 14.7744 11.7753C14.7758 11.6795 14.8133 11.5876 14.8794 11.5182C14.966 11.4328 15.0895 11.3961 15.2088 11.4205C15.2315 11.4244 15.2535 11.4316 15.274 11.4421C15.2971 11.45 15.3191 11.461 15.3393 11.4747C15.3573 11.4892 15.3753 11.5037 15.3936 11.5182C15.4597 11.5877 15.4972 11.6795 15.4986 11.7753C15.4979 11.7995 15.4955 11.8237 15.4913 11.8476C15.4873 11.8703 15.48 11.8922 15.4696 11.9128C15.4616 11.9359 15.4506 11.9579 15.4369 11.9781C15.4121 12.0175 15.3787 12.0509 15.3393 12.0757C15.3191 12.0894 15.2972 12.1004 15.2741 12.1084C15.2535 12.1187 15.2315 12.1261 15.2088 12.1301C15.1849 12.1343 15.1607 12.1367 15.1365 12.1374Z" fill="#BDC3C7"/>
<path d="M16.585 11.4128C16.5374 11.414 16.4902 11.4041 16.4472 11.3838C16.4034 11.3654 16.3631 11.3396 16.3279 11.3077C16.3134 11.2895 16.2989 11.2715 16.2844 11.2535C16.2707 11.2333 16.2597 11.2113 16.2517 11.1882C16.2413 11.1677 16.2341 11.1457 16.2302 11.1229C16.2259 11.0991 16.2235 11.0749 16.2229 11.0506C16.2243 10.9548 16.2617 10.8629 16.3279 10.7935C16.3631 10.7616 16.4034 10.7358 16.4472 10.7173C16.5347 10.6776 16.635 10.6776 16.7225 10.7173C16.7664 10.7358 16.8068 10.7615 16.842 10.7935C16.9081 10.863 16.9456 10.9548 16.947 11.0506C16.9463 11.0749 16.9439 11.099 16.9397 11.1229C16.9357 11.1456 16.9284 11.1676 16.918 11.1882C16.91 11.2113 16.8991 11.2332 16.8853 11.2535C16.871 11.2715 16.8565 11.2895 16.842 11.3077C16.8067 11.3396 16.7663 11.3654 16.7225 11.3838C16.6796 11.4041 16.6324 11.414 16.585 11.4128Z" fill="#BDC3C7"/>
<path d="M7.17093 9.60221C7.12356 9.60164 7.07676 9.5918 7.0332 9.57322C6.94235 9.54012 6.87077 9.46854 6.83767 9.37769C6.81917 9.33417 6.80937 9.28741 6.80884 9.24012C6.81019 9.14427 6.84768 9.05243 6.91384 8.98303C6.94899 8.95104 6.98935 8.92524 7.03316 8.90683C7.16843 8.85375 7.32216 8.88345 7.42798 8.98303C7.49405 9.05247 7.53154 9.14427 7.53298 9.24012C7.5324 9.28741 7.52256 9.33417 7.50398 9.37765C7.48556 9.4215 7.45985 9.4619 7.42794 9.49717C7.35854 9.56329 7.26674 9.60078 7.17093 9.60221Z" fill="#BDC3C7"/>
<path d="M8.61913 10.3269C8.57159 10.3282 8.52442 10.3182 8.4814 10.2979C8.43759 10.2795 8.39727 10.2537 8.36208 10.2218C8.29596 10.1524 8.25843 10.0606 8.25708 9.96479C8.25757 9.91746 8.26738 9.87066 8.28591 9.82706C8.31918 9.73629 8.39067 9.6648 8.48144 9.63153C8.56966 9.59548 8.66851 9.59548 8.7567 9.63153C8.84755 9.66463 8.91912 9.73621 8.95222 9.82706C8.9708 9.87062 8.98069 9.91742 8.98126 9.96479C8.97983 10.0606 8.94234 10.1524 8.87626 10.2219C8.84099 10.2538 8.80059 10.2795 8.75674 10.2979C8.71375 10.3182 8.66663 10.3282 8.61913 10.3269Z" fill="#BDC3C7"/>
<path d="M17.3091 9.60322C17.2133 9.60179 17.1215 9.5643 17.052 9.49822C17.02 9.46299 16.9942 9.42259 16.9758 9.3787C16.9573 9.33518 16.9475 9.28842 16.947 9.24113C16.9484 9.14528 16.9859 9.05344 17.052 8.98404C17.0692 8.96838 17.0873 8.95386 17.1063 8.94057C17.1264 8.92687 17.1483 8.91583 17.1713 8.90788C17.1919 8.89746 17.2139 8.8902 17.2366 8.8863C17.3071 8.87149 17.3806 8.87904 17.4466 8.90788C17.4905 8.92629 17.531 8.95205 17.5662 8.98408C17.6322 9.05352 17.6697 9.14532 17.6712 9.24117C17.6706 9.28847 17.6607 9.33522 17.6422 9.3787C17.6092 9.46963 17.5376 9.54125 17.4466 9.57423C17.4032 9.59281 17.3564 9.60265 17.3091 9.60322Z" fill="#BDC3C7"/>
<path d="M15.8606 10.3269C15.8131 10.3282 15.7659 10.3182 15.7229 10.2979C15.6791 10.2795 15.6388 10.2537 15.6035 10.2218C15.5374 10.1524 15.4999 10.0606 15.4985 9.96479C15.499 9.91746 15.5088 9.87066 15.5274 9.82706C15.5606 9.73629 15.6321 9.6648 15.7229 9.63153C15.8111 9.59548 15.91 9.59548 15.9982 9.63153C16.089 9.66463 16.1606 9.73621 16.1937 9.82706C16.2123 9.87062 16.2221 9.91742 16.2227 9.96479C16.2213 10.0606 16.1838 10.1524 16.1177 10.2219C16.0824 10.2538 16.042 10.2795 15.9982 10.2979C15.9552 10.3182 15.9081 10.3282 15.8606 10.3269Z" fill="#BDC3C7"/>
<path d="M10.0676 10.6891C10.0203 10.6886 9.97347 10.6787 9.92991 10.6601C9.83906 10.627 9.76749 10.5555 9.73439 10.4646C9.69596 10.3769 9.69596 10.2771 9.73439 10.1894C9.76765 10.0986 9.83915 10.0271 9.92991 9.99384C10.0181 9.95778 10.117 9.95778 10.2052 9.99384C10.296 10.0269 10.3676 10.0985 10.4007 10.1894C10.4394 10.2771 10.4394 10.3769 10.4007 10.4646C10.3677 10.5556 10.2961 10.6272 10.2052 10.6601C10.1617 10.6787 10.1149 10.6886 10.0676 10.6891Z" fill="#BDC3C7"/>
<path d="M11.5159 11.0517C11.4196 11.0526 11.3269 11.0148 11.2588 10.9467C11.1907 10.8786 11.1529 10.7859 11.1538 10.6896C11.1544 10.6653 11.1568 10.6411 11.1611 10.6171C11.165 10.5944 11.1722 10.5724 11.1827 10.5519C11.19 10.5297 11.201 10.5089 11.2154 10.4904C11.2298 10.4686 11.2443 10.4506 11.2588 10.4325C11.404 10.2985 11.6278 10.2985 11.7729 10.4325C11.7894 10.4502 11.8039 10.4696 11.8162 10.4904C11.8306 10.5089 11.8416 10.5297 11.8489 10.5519C11.8593 10.5724 11.8666 10.5944 11.8707 10.6171C11.8748 10.6411 11.8773 10.6653 11.8779 10.6896C11.8789 10.7859 11.841 10.8786 11.7729 10.9467C11.7048 11.0148 11.6122 11.0526 11.5159 11.0517Z" fill="#BDC3C7"/>
<path d="M12.9641 11.0517C12.8678 11.0526 12.7752 11.0148 12.7071 10.9467C12.639 10.8786 12.6011 10.7859 12.6021 10.6896C12.6026 10.6653 12.6051 10.6411 12.6093 10.6171C12.6132 10.5944 12.6205 10.5724 12.6309 10.5519C12.6382 10.5297 12.6493 10.5089 12.6636 10.4904C12.676 10.4696 12.6905 10.4502 12.7071 10.4325C12.8522 10.2985 13.076 10.2985 13.2212 10.4325C13.2377 10.4502 13.2522 10.4696 13.2645 10.4903C13.2788 10.5088 13.2899 10.5296 13.2972 10.5518C13.3075 10.5724 13.3149 10.5944 13.3189 10.6171C13.3231 10.6411 13.3255 10.6653 13.3262 10.6896C13.3271 10.7859 13.2893 10.8786 13.2212 10.9467C13.1531 11.0148 13.0604 11.0526 12.9641 11.0517Z" fill="#BDC3C7"/>
<path d="M14.4124 10.6895C14.3166 10.6881 14.2248 10.6506 14.1553 10.5845C14.1233 10.5493 14.0975 10.5089 14.0791 10.465C14.0407 10.3772 14.0407 10.2775 14.0791 10.1897C14.0975 10.1459 14.1233 10.1055 14.1553 10.0704C14.2593 9.96749 14.4151 9.93739 14.5499 9.99415C14.5943 10.0117 14.6348 10.0376 14.6695 10.0704C14.7014 10.1056 14.7271 10.1459 14.7455 10.1897C14.7842 10.2774 14.7842 10.3772 14.7455 10.4649C14.7271 10.5088 14.7014 10.5492 14.6695 10.5845C14.6348 10.6171 14.5942 10.6429 14.5499 10.6605C14.5064 10.6791 14.4597 10.6889 14.4124 10.6895Z" fill="#BDC3C7"/>
</svg>
