<svg width="24" height="24" viewBox="0 0 24 24" fill="none" xmlns="http://www.w3.org/2000/svg">
<path fill-rule="evenodd" clip-rule="evenodd" d="M18.638 11.7239L16.2587 4.58594H5.15527V16.4825H18.638V11.7239Z" fill="#B0D3F0"/>
<path fill-rule="evenodd" clip-rule="evenodd" d="M12.2932 14.1036V12.914C12.2932 12.2569 11.7606 11.7243 11.1036 11.7243H7.93114C7.49312 11.7243 7.13803 11.3692 7.13803 10.9312V8.55189C7.13803 8.11387 6.78295 7.75879 6.34493 7.75879H5.15527V14.1036H12.2932Z" fill="#7F8C8D"/>
<path fill-rule="evenodd" clip-rule="evenodd" d="M13.3992 9.42773L13.9599 8.86701L18.8825 13.7896L18.3218 14.3503L13.3992 9.42773Z" fill="#2980BA"/>
<path fill-rule="evenodd" clip-rule="evenodd" d="M12.6897 10.5347C12.5293 10.5346 12.3848 10.438 12.3234 10.2899C12.262 10.1417 12.296 9.97116 12.4093 9.85775L14.3921 7.87499C14.5477 7.72471 14.795 7.72686 14.948 7.87982C15.1009 8.03278 15.1031 8.28011 14.9528 8.43571L12.9701 10.4185C12.8957 10.4928 12.7949 10.5346 12.6897 10.5347Z" fill="#3B97D3"/>
<path fill-rule="evenodd" clip-rule="evenodd" d="M3.56905 3H17.4484C17.8864 3 18.2415 3.35508 18.2415 3.7931C18.2415 4.23112 17.8864 4.58621 17.4484 4.58621H2.77595C2.55694 4.58621 2.37939 4.40867 2.37939 4.18966C2.37939 3.53263 2.91202 3 3.56905 3Z" fill="#E64C3C"/>
<path fill-rule="evenodd" clip-rule="evenodd" d="M13.4826 16.483H7.50263C6.78488 16.4831 6.11966 16.1068 5.74987 15.4916C5.56929 15.1886 5.31219 14.9383 5.00435 14.766C4.69702 14.5923 4.35011 14.5008 3.99711 14.5003H0.792969V13.7072C0.794275 13.2697 1.1486 12.9154 1.58607 12.9141H5.15504L12.293 14.1037V15.2934C12.293 15.9504 12.8256 16.483 13.4826 16.483Z" fill="#95A5A5"/>
<path fill-rule="evenodd" clip-rule="evenodd" d="M21.8104 14.0792V16.8035L18.2771 18.465H0.793104C0.355627 18.4637 0.00130656 18.1094 0 17.6719V15.2926C0.00130656 14.8551 0.355627 14.5008 0.793104 14.4995H3.99724C4.35024 14.5 4.69715 14.5915 5.00449 14.7652C5.31232 14.9375 5.56943 15.1878 5.75 15.4909C6.1198 16.106 6.78502 16.4823 7.50276 16.4823H16.6552C17.3122 16.4823 17.8448 15.9496 17.8448 15.2926V12.5167C17.8461 12.0793 18.2005 11.7249 18.6379 11.7236H19.1455C19.3308 11.7236 19.5103 11.7881 19.6531 11.906L21.5248 13.4685C21.7068 13.6189 21.8116 13.8431 21.8104 14.0792Z" fill="#E64C3C"/>
<path d="M20.6208 21.242C21.9348 21.242 23.0001 20.1768 23.0001 18.8627C23.0001 17.5487 21.9348 16.4834 20.6208 16.4834C19.3067 16.4834 18.2415 17.5487 18.2415 18.8627C18.2415 20.1768 19.3067 21.242 20.6208 21.242Z" fill="#547580"/>
<path d="M20.6207 19.6555C21.0588 19.6555 21.4138 19.3005 21.4138 18.8624C21.4138 18.4244 21.0588 18.0693 20.6207 18.0693C20.1827 18.0693 19.8276 18.4244 19.8276 18.8624C19.8276 19.3005 20.1827 19.6555 20.6207 19.6555Z" fill="#95A5A5"/>
<path d="M3.56901 21.242C4.88307 21.242 5.94832 20.1768 5.94832 18.8627C5.94832 17.5487 4.88307 16.4834 3.56901 16.4834C2.25495 16.4834 1.1897 17.5487 1.1897 18.8627C1.1897 20.1768 2.25495 21.242 3.56901 21.242Z" fill="#547580"/>
<path d="M3.56898 19.6555C4.007 19.6555 4.36209 19.3005 4.36209 18.8624C4.36209 18.4244 4.007 18.0693 3.56898 18.0693C3.13096 18.0693 2.77588 18.4244 2.77588 18.8624C2.77588 19.3005 3.13096 19.6555 3.56898 19.6555Z" fill="#95A5A5"/>
<path fill-rule="evenodd" clip-rule="evenodd" d="M3.56909 4.58594H5.1553V12.9135H3.56909V4.58594Z" fill="#547580"/>
<path fill-rule="evenodd" clip-rule="evenodd" d="M3.56894 8.55078V10.137H1.58618V9.34389C1.58749 8.90641 1.94181 8.55209 2.37929 8.55078H3.56894Z" fill="#802F34"/>
<path fill-rule="evenodd" clip-rule="evenodd" d="M1.58618 10.1387H3.56894V12.9145H1.58618V10.1387Z" fill="#C03A2B"/>
</svg>
