<svg width="24" height="24" viewBox="0 0 24 24" fill="none" xmlns="http://www.w3.org/2000/svg">
<path d="M19.7188 2.64062H13.0436C12.6056 2.64062 12.1934 2.81125 11.8837 3.12132L2.44453 12.5605C1.85154 13.1535 1.85211 14.1123 2.44453 14.7047L9.29525 21.5555C9.88828 22.1485 10.8471 22.1479 11.4395 21.5555C16.3639 16.6316 14.1894 18.8061 20.8787 12.1163C21.1888 11.8062 21.3594 11.3944 21.3594 10.9564V4.28122C21.3594 3.37643 20.6236 2.64062 19.7188 2.64062ZM17.4219 7.89053C16.698 7.89053 16.1095 7.30156 16.1095 6.57806C16.1095 5.85455 16.698 5.26558 17.4219 5.26558C18.1459 5.26558 18.7344 5.85455 18.7344 6.57806C18.7344 7.30156 18.1459 7.89053 17.4219 7.89053Z" fill="#79CB9C"/>
<path d="M19.7188 2.64062H18.0782C18.983 2.64062 19.7188 3.37643 19.7188 4.28122V10.9564C19.7188 11.3944 19.5482 11.8062 19.2381 12.1163C9.03808 22.3171 9.75925 21.6216 9.54712 21.7587C10.1203 22.129 10.914 22.081 11.4395 21.5555C16.364 16.6316 14.1894 18.8061 20.8787 12.1163C21.1888 11.8062 21.3594 11.3944 21.3594 10.9564V4.28122C21.3594 3.37643 20.6236 2.64062 19.7188 2.64062Z" fill="#63AC7D"/>
<path d="M17.422 6.90612C17.1323 6.90612 16.9827 6.55331 17.19 6.34597L22.4399 1.09607C22.568 0.967978 22.7758 0.967978 22.9039 1.09607C23.0321 1.22424 23.0321 1.43194 22.9039 1.56011L17.654 6.81002C17.59 6.87408 17.506 6.90612 17.422 6.90612Z" fill="#F1CC76"/>
</svg>
