<svg width="20" height="21" viewBox="0 0 20 21" fill="none" xmlns="http://www.w3.org/2000/svg">
<g clip-path="url(#clip0_10864_5115)">
<path d="M8.52246 10.5111H11.3471V14.8776H8.52246V10.5111Z" fill="#FDC54E"/>
<path d="M9.92676 10.5111H11.347V14.8776H9.92676V10.5111Z" fill="#FFAA3B"/>
<path d="M11.3474 14.2988H8.52269C7.07902 14.2988 5.90869 15.4473 5.90869 16.8639H13.9609C13.9609 15.4473 12.7906 14.2988 11.3469 14.2988H11.3474Z" fill="#FFAA3B"/>
<path d="M4.88903 7.80686C2.1931 7.80686 0 5.65477 0 3.00926V1.93752C0 1.58766 0.289237 1.30383 0.645768 1.30383H4.67252C5.02905 1.30383 5.31829 1.58766 5.31829 1.93752C5.31829 2.28739 5.02905 2.57122 4.67252 2.57122H1.29195V3.00885C1.29195 4.95545 2.90575 6.53866 4.88903 6.53866C5.24556 6.53866 5.5348 6.82248 5.5348 7.17235C5.5348 7.52221 5.24556 7.80604 4.88903 7.80604V7.80686Z" fill="#FDC54E"/>
<path d="M15.1111 7.80689C14.7546 7.80689 14.4653 7.52307 14.4653 7.1732C14.4653 6.82334 14.7546 6.53951 15.1111 6.53951C17.0948 6.53951 18.7082 4.9559 18.7082 3.00971V2.57207H15.3272C14.9707 2.57207 14.6814 2.28824 14.6814 1.93838C14.6814 1.58852 14.9707 1.30469 15.3272 1.30469H19.3539C19.7105 1.30469 19.9997 1.58852 19.9997 1.93838V3.01012C19.9997 5.65562 17.8066 7.80771 15.1107 7.80771L15.1111 7.80689Z" fill="#FFAA3B"/>
<path d="M9.93516 11.1132C6.86724 11.1132 4.37988 8.67275 4.37988 5.6618V0.568066C4.37988 0.254297 4.63903 0 4.95878 0H14.9115C15.2313 0 15.4904 0.254297 15.4904 0.568066V5.66221C15.4904 8.67275 13.0035 11.1136 9.93516 11.1136V11.1132Z" fill="#FCDB5A"/>
<path d="M14.9115 0H9.92676V11.1132C9.92968 11.1132 9.93219 11.1132 9.93512 11.1132C13.003 11.1132 15.4904 8.67275 15.4904 5.6618V0.568066C15.49 0.254297 15.2308 0 14.9115 0Z" fill="#FDC54E"/>
<path d="M11.347 14.2988H9.92676V16.8639H13.961C13.961 15.4473 12.7907 14.2988 11.347 14.2988Z" fill="#FE9837"/>
<path d="M14.941 16.7422H4.92887C4.55896 16.7422 4.25928 17.0363 4.25928 17.3993V20.2855H15.6106V17.3993C15.6106 17.0363 15.3109 16.7422 14.941 16.7422Z" fill="#FCDB5A"/>
<path d="M14.9408 16.7422H9.92676V20.2855H15.6104V17.3993C15.6104 17.0363 15.3107 16.7422 14.9408 16.7422Z" fill="#FDC54E"/>
<path d="M17.1277 21H2.74196C2.38543 21 2.09619 20.7162 2.09619 20.3664C2.09619 20.0165 2.38543 19.7327 2.74196 19.7327H17.1273C17.4839 19.7327 17.7731 20.0165 17.7731 20.3664C17.7731 20.7162 17.4839 21 17.1273 21H17.1277Z" fill="#FDC54E"/>
<path d="M17.1277 19.7327H9.92725V21H17.1277C17.4842 21 17.7734 20.7162 17.7734 20.3664C17.7734 20.0165 17.4842 19.7327 17.1277 19.7327Z" fill="#FFAA3B"/>
<path d="M9.92735 2.46509L10.9334 3.7419L12.482 4.28618L11.5554 5.6196L11.5065 7.23315L9.92777 6.78034L8.34908 7.23315L8.30018 5.6196L7.37354 4.28618L8.92212 3.7419L9.92818 2.46509H9.92735Z" fill="#FFAA3B"/>
<path d="M9.92718 2.46509V6.78075L11.5059 7.23356L11.5548 5.62001L12.4814 4.28659L10.9328 3.74231L9.92676 2.4655L9.92718 2.46509Z" fill="#FE9837"/>
<path d="M8.34796 7.84872C8.21714 7.84872 8.08756 7.80853 7.97931 7.73101C7.82215 7.61903 7.72685 7.44185 7.721 7.25153L7.67753 5.81804L6.85413 4.6331C6.74462 4.4756 6.71578 4.27749 6.77597 4.0962C6.83574 3.91491 6.97826 3.77136 7.16092 3.70696L8.53689 3.22339L9.43093 2.08849C9.54963 1.93796 9.73271 1.84937 9.92706 1.84937C10.1214 1.84937 10.3045 1.93755 10.4232 2.08849L11.3172 3.22339L12.6932 3.70696C12.8759 3.77136 13.018 3.91491 13.0782 4.0962C13.1383 4.27749 13.1091 4.4756 13 4.6331L12.1766 5.81804L12.1331 7.25153C12.1273 7.44185 12.032 7.61903 11.8748 7.73101C11.7177 7.84298 11.517 7.87702 11.3306 7.8237L9.92748 7.42134L8.52435 7.8237C8.46667 7.84011 8.40731 7.84831 8.34838 7.84831L8.34796 7.84872ZM8.34713 4.59741L8.81693 5.27335C8.88422 5.37056 8.92226 5.48417 8.9256 5.60148L8.95068 6.41933L9.7511 6.18964C9.86604 6.15683 9.98809 6.15683 10.103 6.18964L10.9034 6.41933L10.9285 5.60148C10.9319 5.48417 10.9699 5.37015 11.0372 5.27335L11.507 4.59741L10.722 4.32138C10.6092 4.282 10.5106 4.21146 10.4374 4.11835L9.92748 3.47071L9.41755 4.11835C9.34441 4.21105 9.24577 4.28159 9.13291 4.32138L8.34796 4.59741H8.34713Z" fill="#FDC54E"/>
<path d="M12.6933 3.70745L11.3174 3.22388L10.4233 2.08897C10.3046 1.93845 10.1215 1.84985 9.92718 1.84985V3.4712L10.4371 4.11843C10.5102 4.21112 10.6089 4.28167 10.7217 4.32146L11.5067 4.59749L11.0369 5.27343C10.9696 5.37064 10.9316 5.48425 10.9282 5.60155L10.9031 6.4194L10.1027 6.18972C10.045 6.17331 9.98611 6.16511 9.92676 6.16511V7.42142L11.3295 7.82378C11.5159 7.8771 11.7169 7.84306 11.8737 7.73108C12.0308 7.61911 12.1261 7.44192 12.132 7.25161L12.1755 5.81812L12.9989 4.63317C13.1084 4.47567 13.1372 4.27757 13.077 4.09628C13.0172 3.91499 12.8751 3.77144 12.6921 3.70704L12.6933 3.70745Z" fill="#FFAA3B"/>
</g>
<defs>
<clipPath id="clip0_10864_5115">
<rect width="20" height="21" fill="white"/>
</clipPath>
</defs>
</svg>
